<svg xmlns="http://www.w3.org/2000/svg" width="23.887" height="87.452" viewBox="0 0 23.887 87.452">
  <g id="Design-elements" transform="translate(0)">
    <path id="dots-03" d="M20.486,61.524a1.937,1.937,0,0,1,1.7-2.107,2.158,2.158,0,0,1,0,4.217A1.938,1.938,0,0,1,20.486,61.524Zm-10.243,0a1.936,1.936,0,0,1,1.7-2.107,2.158,2.158,0,0,1,0,4.217A1.938,1.938,0,0,1,10.243,61.524ZM0,61.524a1.936,1.936,0,0,1,1.7-2.107,2.158,2.158,0,0,1,0,4.217A1.937,1.937,0,0,1,0,61.524ZM20.486,49.638a1.938,1.938,0,0,1,1.7-2.109,2.158,2.158,0,0,1,0,4.217A1.938,1.938,0,0,1,20.486,49.638Zm-10.243,0a1.937,1.937,0,0,1,1.7-2.109,2.158,2.158,0,0,1,0,4.217A1.937,1.937,0,0,1,10.243,49.638ZM0,49.638A1.937,1.937,0,0,1,1.7,47.53a2.158,2.158,0,0,1,0,4.217A1.937,1.937,0,0,1,0,49.638ZM20.486,37.762a1.938,1.938,0,0,1,1.7-2.109,2.157,2.157,0,0,1,0,4.216A1.937,1.937,0,0,1,20.486,37.762Zm-10.243,0a1.937,1.937,0,0,1,1.7-2.109,2.157,2.157,0,0,1,0,4.216A1.936,1.936,0,0,1,10.243,37.762ZM0,37.762a1.937,1.937,0,0,1,1.7-2.109,2.158,2.158,0,0,1,0,4.216A1.936,1.936,0,0,1,0,37.762Zm20.486-11.89a1.937,1.937,0,0,1,1.7-2.107,1.937,1.937,0,0,1,1.7,2.107,1.938,1.938,0,0,1-1.7,2.109A1.938,1.938,0,0,1,20.486,25.872Zm-10.243,0a1.936,1.936,0,0,1,1.7-2.107,1.936,1.936,0,0,1,1.7,2.107,1.937,1.937,0,0,1-1.7,2.109A1.937,1.937,0,0,1,10.243,25.872ZM0,25.872a1.936,1.936,0,0,1,1.7-2.107,1.936,1.936,0,0,1,1.7,2.107A1.937,1.937,0,0,1,1.7,27.98,1.937,1.937,0,0,1,0,25.872ZM20.486,13.994a1.938,1.938,0,0,1,1.7-2.107,1.938,1.938,0,0,1,1.7,2.107,1.938,1.938,0,0,1-1.7,2.109A1.938,1.938,0,0,1,20.486,13.994Zm-10.243,0a1.937,1.937,0,0,1,1.7-2.107,1.937,1.937,0,0,1,1.7,2.107,1.937,1.937,0,0,1-1.7,2.109A1.937,1.937,0,0,1,10.243,13.994ZM0,13.994a1.936,1.936,0,0,1,1.7-2.107,1.936,1.936,0,0,1,1.7,2.107A1.937,1.937,0,0,1,1.7,16.1,1.937,1.937,0,0,1,0,13.994ZM20.486,2.112A1.94,1.94,0,0,1,22.187,0a1.94,1.94,0,0,1,1.7,2.112,1.94,1.94,0,0,1-1.7,2.112A1.94,1.94,0,0,1,20.486,2.112Zm-10.243,0A1.939,1.939,0,0,1,11.941,0a1.939,1.939,0,0,1,1.7,2.112,1.939,1.939,0,0,1-1.7,2.112A1.939,1.939,0,0,1,10.243,2.112ZM0,2.112A1.939,1.939,0,0,1,1.7,0a1.939,1.939,0,0,1,1.7,2.112A1.939,1.939,0,0,1,1.7,4.223,1.939,1.939,0,0,1,0,2.112Z" transform="translate(0 0)" fill="#12263f"/>
    <path id="dots-03-2" data-name="dots-03" d="M20.486,13.995a1.938,1.938,0,0,1,1.7-2.108,1.938,1.938,0,0,1,1.7,2.108,1.939,1.939,0,0,1-1.7,2.109A1.939,1.939,0,0,1,20.486,13.995Zm-10.243,0a1.937,1.937,0,0,1,1.7-2.108,1.937,1.937,0,0,1,1.7,2.108,1.938,1.938,0,0,1-1.7,2.109A1.938,1.938,0,0,1,10.243,13.995ZM0,13.995a1.936,1.936,0,0,1,1.7-2.108,1.936,1.936,0,0,1,1.7,2.108A1.937,1.937,0,0,1,1.7,16.1,1.937,1.937,0,0,1,0,13.995ZM20.486,2.112A1.94,1.94,0,0,1,22.187,0a1.94,1.94,0,0,1,1.7,2.112,1.939,1.939,0,0,1-1.7,2.111A1.939,1.939,0,0,1,20.486,2.112Zm-10.243,0A1.94,1.94,0,0,1,11.941,0a1.94,1.94,0,0,1,1.7,2.112,1.939,1.939,0,0,1-1.7,2.111A1.939,1.939,0,0,1,10.243,2.112ZM0,2.112A1.939,1.939,0,0,1,1.7,0a1.939,1.939,0,0,1,1.7,2.112A1.938,1.938,0,0,1,1.7,4.223,1.938,1.938,0,0,1,0,2.112Z" transform="translate(0 71.349)" fill="#12263f"/>
  </g>
</svg>
