<svg xmlns="http://www.w3.org/2000/svg" xmlns:xlink="http://www.w3.org/1999/xlink" width="767.034" height="399.871" viewBox="0 0 767.034 399.871">
  <defs>
    <linearGradient id="linear-gradient" x1="0.5" x2="0.5" y2="1" gradientUnits="objectBoundingBox">
      <stop offset="0" stop-color="#fff"/>
      <stop offset="1" stop-color="#d2e6ee"/>
    </linearGradient>
    <filter id="Trazado_777508" x="8.283" y="47.871" width="359" height="352" filterUnits="userSpaceOnUse">
      <feOffset dy="3" input="SourceAlpha"/>
      <feGaussianBlur stdDeviation="3" result="blur"/>
      <feFlood flood-opacity="0.161"/>
      <feComposite operator="in" in2="blur"/>
      <feComposite in="SourceGraphic"/>
    </filter>
    <linearGradient id="linear-gradient-2" x1="0.5" x2="0.5" y2="1" gradientUnits="objectBoundingBox">
      <stop offset="0" stop-color="#f5f5f5"/>
      <stop offset="0.25" stop-color="#f5f5f5"/>
      <stop offset="1" stop-color="#a7b3cf"/>
    </linearGradient>
    <linearGradient id="linear-gradient-4" x1="0.5" x2="0.5" y2="1" gradientUnits="objectBoundingBox">
      <stop offset="0" stop-color="#4dd0e1"/>
      <stop offset="1" stop-color="#039be5"/>
    </linearGradient>
    <filter id="Trazado_196945" x="271.937" y="62.985" width="135.686" height="254.185" filterUnits="userSpaceOnUse">
      <feOffset dy="3" input="SourceAlpha"/>
      <feGaussianBlur stdDeviation="3" result="blur-2"/>
      <feFlood flood-opacity="0.161"/>
      <feComposite operator="in" in2="blur-2"/>
      <feComposite in="SourceGraphic"/>
    </filter>
    <linearGradient id="linear-gradient-5" x1="0.5" x2="0.5" y2="1" gradientUnits="objectBoundingBox">
      <stop offset="0" stop-color="#dedede"/>
      <stop offset="0.517" stop-color="#fff"/>
      <stop offset="1" stop-color="#dedede"/>
    </linearGradient>
    <filter id="Trazado_196963" x="447.831" y="155.982" width="81.694" height="68.209" filterUnits="userSpaceOnUse">
      <feOffset dy="3" input="SourceAlpha"/>
      <feGaussianBlur stdDeviation="3" result="blur-3"/>
      <feFlood flood-opacity="0.161"/>
      <feComposite operator="in" in2="blur-3"/>
      <feComposite in="SourceGraphic"/>
    </filter>
    <filter id="Trazado_196962" x="447.831" y="50.043" width="81.694" height="68.209" filterUnits="userSpaceOnUse">
      <feOffset dy="3" input="SourceAlpha"/>
      <feGaussianBlur stdDeviation="3" result="blur-4"/>
      <feFlood flood-opacity="0.161"/>
      <feComposite operator="in" in2="blur-4"/>
      <feComposite in="SourceGraphic"/>
    </filter>
    <filter id="Trazado_196964" x="447.831" y="264.662" width="81.694" height="68.209" filterUnits="userSpaceOnUse">
      <feOffset dy="3" input="SourceAlpha"/>
      <feGaussianBlur stdDeviation="3" result="blur-5"/>
      <feFlood flood-opacity="0.161"/>
      <feComposite operator="in" in2="blur-5"/>
      <feComposite in="SourceGraphic"/>
    </filter>
  </defs>
  <g id="Grupo_1071902" data-name="Grupo 1071902" transform="translate(-416.483 -1139.129)">
    <path id="Trazado_196942" data-name="Trazado 196942" d="M-3173.266-10622.738v349.882" transform="translate(3591.749 11761.867)" fill="none" stroke="#12263f" stroke-width="4" stroke-dasharray="10"/>
    <path id="Trazado_196943" data-name="Trazado 196943" d="M-3173.266-10622.738v349.882" transform="translate(3993.129 11761.867)" fill="none" stroke="#12263f" stroke-width="4" stroke-dasharray="10"/>
    <path id="Trazado_196944" data-name="Trazado 196944" d="M-3173.266-10622.738v349.882" transform="translate(4354.783 11761.867)" fill="none" stroke="#12263f" stroke-width="4" stroke-dasharray="10"/>
    <g transform="matrix(1, 0, 0, 1, 416.48, 1139.13)" filter="url(#Trazado_777508)">
      <g id="Trazado_777508-2" data-name="Trazado 777508" transform="translate(17.28 53.87)" fill="url(#linear-gradient)">
        <path d="M 339 332 L 2 332 L 2 2 L 339 2 L 339 332 Z" stroke="none"/>
        <path d="M 4 4 L 4 330 L 337 330 L 337 4 L 4 4 M 0 0 L 341 0 L 341 334 L 0 334 L 0 0 Z" stroke="none" fill="#12263f"/>
      </g>
    </g>
    <path id="Trazado_196946" data-name="Trazado 196946" d="M5983.871,4155.978v54.739s39.736,13.786,61.227-1.621l-.4-53.118" transform="translate(-5496.538 -2883.754)" fill="#f59d36" stroke="#12263f" stroke-width="2"/>
    <path id="Trazado_777542" data-name="Trazado 777542" d="M30.411,0c16.8,0,30.411,3.812,30.411,8.515S47.207,17.03,30.411,17.03,0,13.218,0,8.515,13.615,0,30.411,0Z" transform="translate(487.332 1263.709)" fill="#f59d36" stroke="#12263f" stroke-width="2"/>
    <path id="Trazado_196946-2" data-name="Trazado 196946" d="M5983.871,4155.978v54.739s39.736,13.786,61.227-1.621l-.4-53.118" transform="translate(-5528.521 -2864.575)" fill="#f59d36" stroke="#12263f" stroke-width="2"/>
    <path id="Trazado_777543" data-name="Trazado 777543" d="M30.411,0c16.8,0,30.411,3.812,30.411,8.515S47.207,17.03,30.411,17.03,0,13.218,0,8.515,13.615,0,30.411,0Z" transform="translate(455.35 1282.888)" fill="#f59d36" stroke="#12263f" stroke-width="2"/>
    <path id="Trazado_196946-3" data-name="Trazado 196946" d="M5983.871,4155.978v54.739s39.736,13.786,61.227-1.621l-.4-53.118" transform="translate(-5467.295 -2863.205)" fill="#f59d36" stroke="#12263f" stroke-width="2"/>
    <path id="Trazado_777544" data-name="Trazado 777544" d="M30.411,0c16.8,0,30.411,3.812,30.411,8.515S47.207,17.03,30.411,17.03,0,13.218,0,8.515,13.615,0,30.411,0Z" transform="translate(516.575 1284.258)" fill="#f59d36" stroke="#12263f" stroke-width="2"/>
    <path id="Trazado_196946-4" data-name="Trazado 196946" d="M5983.871,4155.978v54.739s39.736,13.786,61.227-1.621l-.4-53.118" transform="translate(-5497.908 -2856.355)" fill="#f59d36" stroke="#12263f" stroke-width="2"/>
    <path id="Trazado_777545" data-name="Trazado 777545" d="M30.411,0c16.8,0,30.411,3.812,30.411,8.515S47.207,17.03,30.411,17.03,0,13.218,0,8.515,13.615,0,30.411,0Z" transform="translate(485.962 1291.107)" fill="#f59d36" stroke="#12263f" stroke-width="2"/>
    <g id="Trazado_777514" data-name="Trazado 777514" transform="translate(601.766 1221)" fill="url(#linear-gradient-2)">
      <path d="M 59 62 L 1 62 L 1 1 L 59 1 L 59 62 Z" stroke="none"/>
      <path d="M 2 2 L 2 61 L 58 61 L 58 2 L 2 2 M 0 0 L 60 0 L 60 63 L 0 63 L 0 0 Z" stroke="none" fill="#12263f"/>
    </g>
    <path id="Trazado_196947" data-name="Trazado 196947" d="M-3030.193-10563.956v-14.975" transform="translate(3644.671 11784.921)" fill="none" stroke="#12263f" stroke-width="2"/>
    <path id="Trazado_196948" data-name="Trazado 196948" d="M-3030.193-10563.956v-14.975" transform="translate(3661.109 11784.921)" fill="none" stroke="#12263f" stroke-width="2"/>
    <path id="Trazado_196949" data-name="Trazado 196949" d="M-3030.193-10563.956v-14.975" transform="translate(3677.548 11784.921)" fill="none" stroke="#12263f" stroke-width="2"/>
    <path id="Trazado_196947-2" data-name="Trazado 196947" d="M-3030.193-10563.956v-14.975" transform="translate(3644.671 11862.911)" fill="none" stroke="#12263f" stroke-width="2"/>
    <path id="Trazado_196948-2" data-name="Trazado 196948" d="M-3030.193-10563.956v-14.975" transform="translate(3661.109 11862.911)" fill="none" stroke="#12263f" stroke-width="2"/>
    <path id="Trazado_196949-2" data-name="Trazado 196949" d="M-3030.193-10563.956v-14.975" transform="translate(3677.548 11862.911)" fill="none" stroke="#12263f" stroke-width="2"/>
    <path id="Trazado_196947-3" data-name="Trazado 196947" d="M0,14.975V0" transform="translate(588.543 1268.911) rotate(-90)" fill="none" stroke="#12263f" stroke-width="2"/>
    <path id="Trazado_196948-3" data-name="Trazado 196948" d="M0,14.975V0" transform="translate(588.543 1252.473) rotate(-90)" fill="none" stroke="#12263f" stroke-width="2"/>
    <path id="Trazado_196949-3" data-name="Trazado 196949" d="M0,14.975V0" transform="translate(588.543 1236.033) rotate(-90)" fill="none" stroke="#12263f" stroke-width="2"/>
    <path id="Trazado_196947-4" data-name="Trazado 196947" d="M0,14.975V0" transform="translate(661.054 1268.911) rotate(-90)" fill="none" stroke="#12263f" stroke-width="2"/>
    <path id="Trazado_196948-4" data-name="Trazado 196948" d="M0,14.975V0" transform="translate(661.054 1252.473) rotate(-90)" fill="none" stroke="#12263f" stroke-width="2"/>
    <path id="Trazado_196949-4" data-name="Trazado 196949" d="M0,14.975V0" transform="translate(661.054 1236.033) rotate(-90)" fill="none" stroke="#12263f" stroke-width="2"/>
    <g id="Trazado_777515" data-name="Trazado 777515" transform="translate(610.766 1230)" fill="none">
      <path d="M0,0H42V45H0Z" stroke="none"/>
      <path d="M 2 2 L 2 43 L 40 43 L 40 2 L 2 2 M 0 0 L 42 0 L 42 45 L 0 45 L 0 0 Z" stroke="none" fill="#12263f"/>
    </g>
    <g id="Trazado_777516" data-name="Trazado 777516" transform="translate(668.168 1292.693)" fill="url(#linear-gradient-2)">
      <path d="M 57.90571594238281 62.01541519165039 L 1.000006079673767 62.01541519165039 L 1.000006079673767 1.000005722045898 L 57.90571594238281 1.000005722045898 L 57.90571594238281 62.01541519165039 Z" stroke="none"/>
      <path d="M 1.999996185302734 1.999996185302734 L 1.999996185302734 61.01540374755859 L 56.90570449829102 61.01540374755859 L 56.90570449829102 1.999996185302734 L 1.999996185302734 1.999996185302734 M -3.814697265625e-06 -3.814697265625e-06 L 58.90570449829102 -3.814697265625e-06 L 58.90570449829102 63.01540756225586 L -3.814697265625e-06 63.01540756225586 L -3.814697265625e-06 -3.814697265625e-06 Z" stroke="none" fill="#12263f"/>
    </g>
    <path id="Trazado_196947-5" data-name="Trazado 196947" d="M-3030.193-10563.956v-14.975" transform="translate(3710.426 11856.649)" fill="none" stroke="#12263f" stroke-width="2"/>
    <path id="Trazado_196948-5" data-name="Trazado 196948" d="M-3030.193-10563.956v-14.975" transform="translate(3726.865 11856.649)" fill="none" stroke="#12263f" stroke-width="2"/>
    <path id="Trazado_196949-5" data-name="Trazado 196949" d="M-3030.193-10563.956v-14.975" transform="translate(3743.304 11856.649)" fill="none" stroke="#12263f" stroke-width="2"/>
    <path id="Trazado_196947-6" data-name="Trazado 196947" d="M-3030.193-10563.956v-14.975" transform="translate(3710.426 11934.64)" fill="none" stroke="#12263f" stroke-width="2"/>
    <path id="Trazado_196948-6" data-name="Trazado 196948" d="M-3030.193-10563.956v-14.975" transform="translate(3726.865 11934.64)" fill="none" stroke="#12263f" stroke-width="2"/>
    <path id="Trazado_196949-6" data-name="Trazado 196949" d="M-3030.193-10563.956v-14.975" transform="translate(3743.304 11934.64)" fill="none" stroke="#12263f" stroke-width="2"/>
    <path id="Trazado_196947-7" data-name="Trazado 196947" d="M0,14.975V0" transform="translate(654.298 1340.641) rotate(-90)" fill="none" stroke="#12263f" stroke-width="2"/>
    <path id="Trazado_196948-7" data-name="Trazado 196948" d="M0,14.975V0" transform="translate(654.298 1324.202) rotate(-90)" fill="none" stroke="#12263f" stroke-width="2"/>
    <path id="Trazado_196949-7" data-name="Trazado 196949" d="M0,14.975V0" transform="translate(654.298 1307.763) rotate(-90)" fill="none" stroke="#12263f" stroke-width="2"/>
    <path id="Trazado_196947-8" data-name="Trazado 196947" d="M0,14.975V0" transform="translate(726.809 1340.641) rotate(-90)" fill="none" stroke="#12263f" stroke-width="2"/>
    <path id="Trazado_196948-8" data-name="Trazado 196948" d="M0,14.975V0" transform="translate(726.809 1324.202) rotate(-90)" fill="none" stroke="#12263f" stroke-width="2"/>
    <path id="Trazado_196949-8" data-name="Trazado 196949" d="M0,14.975V0" transform="translate(726.809 1307.763) rotate(-90)" fill="none" stroke="#12263f" stroke-width="2"/>
    <g id="Trazado_777517" data-name="Trazado 777517" transform="translate(676.388 1302.283)" fill="none">
      <path d="M0,0H42.467V43.837H0Z" stroke="none"/>
      <path d="M 1.999992370605469 2.000003814697266 L 1.999992370605469 41.8368034362793 L 40.46690368652344 41.8368034362793 L 40.46690368652344 2.000003814697266 L 1.999992370605469 2.000003814697266 M -7.62939453125e-06 3.814697265625e-06 L 42.46690368652344 3.814697265625e-06 L 42.46690368652344 43.8368034362793 L -7.62939453125e-06 43.8368034362793 L -7.62939453125e-06 3.814697265625e-06 Z" stroke="none" fill="#12263f"/>
    </g>
    <g id="Trazado_777546" data-name="Trazado 777546" transform="translate(518.766 1402)" fill="#2ec49f">
      <path d="M 159 47 L 1 47 L 1 1 L 159 1 L 159 47 Z" stroke="none"/>
      <path d="M 2 2 L 2 46 L 158 46 L 158 2 L 2 2 M 0 0 L 160 0 L 160 48 L 0 48 L 0 0 Z" stroke="none" fill="#12263f"/>
    </g>
    <g id="Trazado_777547" data-name="Trazado 777547" transform="translate(522.766 1412)" fill="none">
      <path d="M0,0H33V28H0Z" stroke="none"/>
      <path d="M 2 2 L 2 26 L 31 26 L 31 2 L 2 2 M 0 0 L 33 0 L 33 28 L 0 28 L 0 0 Z" stroke="none" fill="#12263f"/>
    </g>
    <g id="Trazado_777548" data-name="Trazado 777548" transform="translate(599.766 1412)" fill="none">
      <path d="M0,0H33V28H0Z" stroke="none"/>
      <path d="M 2 2 L 2 26 L 31 26 L 31 2 L 2 2 M 0 0 L 33 0 L 33 28 L 0 28 L 0 0 Z" stroke="none" fill="#12263f"/>
    </g>
    <g id="Trazado_777549" data-name="Trazado 777549" transform="translate(561.766 1412)" fill="none">
      <path d="M0,0H33V28H0Z" stroke="none"/>
      <path d="M 2 2 L 2 26 L 31 26 L 31 2 L 2 2 M 0 0 L 33 0 L 33 28 L 0 28 L 0 0 Z" stroke="none" fill="#12263f"/>
    </g>
    <g id="Trazado_777550" data-name="Trazado 777550" transform="translate(637.766 1412)" fill="none">
      <path d="M0,0H33V28H0Z" stroke="none"/>
      <path d="M 2 2 L 2 26 L 31 26 L 31 2 L 2 2 M 0 0 L 33 0 L 33 28 L 0 28 L 0 0 Z" stroke="none" fill="#12263f"/>
    </g>
    <g id="Trazado_777551" data-name="Trazado 777551" transform="translate(522.766 1449)" fill="none">
      <path d="M0,0H148V15H0Z" stroke="none"/>
      <path d="M 2 2 L 2 13 L 146 13 L 146 2 L 2 2 M 0 0 L 148 0 L 148 15 L 0 15 L 0 0 Z" stroke="none" fill="#12263f"/>
    </g>
    <path id="Trazado_196950" data-name="Trazado 196950" d="M-3045.986-10377.79v12.281" transform="translate(3584.033 11827.528)" fill="none" stroke="#12263f" stroke-width="2"/>
    <path id="Trazado_196953" data-name="Trazado 196953" d="M-3045.986-10377.79v12.281" transform="translate(3605.952 11827.528)" fill="none" stroke="#12263f" stroke-width="2"/>
    <path id="Trazado_196955" data-name="Trazado 196955" d="M-3045.986-10377.79v12.281" transform="translate(3629.201 11827.528)" fill="none" stroke="#12263f" stroke-width="2"/>
    <path id="Trazado_196957" data-name="Trazado 196957" d="M-3045.986-10377.79v12.281" transform="translate(3651.12 11827.528)" fill="none" stroke="#12263f" stroke-width="2"/>
    <path id="Trazado_196959" data-name="Trazado 196959" d="M-3045.986-10377.79v12.281" transform="translate(3673.038 11827.528)" fill="none" stroke="#12263f" stroke-width="2"/>
    <path id="Trazado_196961" data-name="Trazado 196961" d="M-3045.986-10377.79v12.281" transform="translate(3694.956 11827.528)" fill="none" stroke="#12263f" stroke-width="2"/>
    <path id="Trazado_196951" data-name="Trazado 196951" d="M-3045.986-10377.79v12.281" transform="translate(3595.658 11827.528)" fill="none" stroke="#12263f" stroke-width="2"/>
    <path id="Trazado_196952" data-name="Trazado 196952" d="M-3045.986-10377.79v12.281" transform="translate(3617.576 11827.528)" fill="none" stroke="#12263f" stroke-width="2"/>
    <path id="Trazado_196954" data-name="Trazado 196954" d="M-3045.986-10377.79v12.281" transform="translate(3640.826 11827.528)" fill="none" stroke="#12263f" stroke-width="2"/>
    <path id="Trazado_196956" data-name="Trazado 196956" d="M-3045.986-10377.79v12.281" transform="translate(3662.744 11827.528)" fill="none" stroke="#12263f" stroke-width="2"/>
    <path id="Trazado_196958" data-name="Trazado 196958" d="M-3045.986-10377.79v12.281" transform="translate(3684.663 11827.528)" fill="none" stroke="#12263f" stroke-width="2"/>
    <path id="Trazado_196960" data-name="Trazado 196960" d="M-3045.986-10377.79v12.281" transform="translate(3706.581 11827.528)" fill="none" stroke="#12263f" stroke-width="2"/>
    <g id="Trazado_777552" data-name="Trazado 777552" transform="translate(559.766 1424)" fill="#2ec49f">
      <path d="M 160 46 L 1 46 L 1 1 L 160 1 L 160 46 Z" stroke="none"/>
      <path d="M 2 2 L 2 45 L 159 45 L 159 2 L 2 2 M 0 0 L 161 0 L 161 47 L 0 47 L 0 0 Z" stroke="none" fill="#12263f"/>
    </g>
    <g id="Trazado_777553" data-name="Trazado 777553" transform="translate(563.766 1433)" fill="none">
      <path d="M0,0H33V29H0Z" stroke="none"/>
      <path d="M 2 2 L 2 27 L 31 27 L 31 2 L 2 2 M 0 0 L 33 0 L 33 29 L 0 29 L 0 0 Z" stroke="none" fill="#12263f"/>
    </g>
    <g id="Trazado_777554" data-name="Trazado 777554" transform="translate(640.766 1433)" fill="none">
      <path d="M0,0H33V29H0Z" stroke="none"/>
      <path d="M 2 2 L 2 27 L 31 27 L 31 2 L 2 2 M 0 0 L 33 0 L 33 29 L 0 29 L 0 0 Z" stroke="none" fill="#12263f"/>
    </g>
    <g id="Trazado_777555" data-name="Trazado 777555" transform="translate(601.766 1433)" fill="none">
      <path d="M0,0H34V29H0Z" stroke="none"/>
      <path d="M 2 2 L 2 27 L 32 27 L 32 2 L 2 2 M 0 0 L 34 0 L 34 29 L 0 29 L 0 0 Z" stroke="none" fill="#12263f"/>
    </g>
    <g id="Trazado_777556" data-name="Trazado 777556" transform="translate(678.766 1433)" fill="none">
      <path d="M0,0H33V29H0Z" stroke="none"/>
      <path d="M 2 2 L 2 27 L 31 27 L 31 2 L 2 2 M 0 0 L 33 0 L 33 29 L 0 29 L 0 0 Z" stroke="none" fill="#12263f"/>
    </g>
    <g id="Trazado_777557" data-name="Trazado 777557" transform="translate(563.766 1470)" fill="none">
      <path d="M0,0H148V16H0Z" stroke="none"/>
      <path d="M 2 2 L 2 14 L 146 14 L 146 2 L 2 2 M 0 0 L 148 0 L 148 16 L 0 16 L 0 0 Z" stroke="none" fill="#12263f"/>
    </g>
    <path id="Trazado_196950-2" data-name="Trazado 196950" d="M-3045.986-10377.79v12.281" transform="translate(3625.13 11849.446)" fill="none" stroke="#12263f" stroke-width="2"/>
    <path id="Trazado_196953-2" data-name="Trazado 196953" d="M-3045.986-10377.79v12.281" transform="translate(3647.049 11849.446)" fill="none" stroke="#12263f" stroke-width="2"/>
    <path id="Trazado_196955-2" data-name="Trazado 196955" d="M-3045.986-10377.79v12.281" transform="translate(3670.298 11849.446)" fill="none" stroke="#12263f" stroke-width="2"/>
    <path id="Trazado_196957-2" data-name="Trazado 196957" d="M-3045.986-10377.79v12.281" transform="translate(3692.217 11849.446)" fill="none" stroke="#12263f" stroke-width="2"/>
    <path id="Trazado_196959-2" data-name="Trazado 196959" d="M-3045.986-10377.79v12.281" transform="translate(3714.135 11849.446)" fill="none" stroke="#12263f" stroke-width="2"/>
    <path id="Trazado_196961-2" data-name="Trazado 196961" d="M-3045.986-10377.79v12.281" transform="translate(3736.053 11849.446)" fill="none" stroke="#12263f" stroke-width="2"/>
    <path id="Trazado_196951-2" data-name="Trazado 196951" d="M-3045.986-10377.79v12.281" transform="translate(3636.755 11849.446)" fill="none" stroke="#12263f" stroke-width="2"/>
    <path id="Trazado_196952-2" data-name="Trazado 196952" d="M-3045.986-10377.79v12.281" transform="translate(3658.673 11849.446)" fill="none" stroke="#12263f" stroke-width="2"/>
    <path id="Trazado_196954-2" data-name="Trazado 196954" d="M-3045.986-10377.79v12.281" transform="translate(3681.923 11849.446)" fill="none" stroke="#12263f" stroke-width="2"/>
    <path id="Trazado_196956-2" data-name="Trazado 196956" d="M-3045.986-10377.79v12.281" transform="translate(3703.841 11849.446)" fill="none" stroke="#12263f" stroke-width="2"/>
    <path id="Trazado_196958-2" data-name="Trazado 196958" d="M-3045.986-10377.79v12.281" transform="translate(3725.76 11849.446)" fill="none" stroke="#12263f" stroke-width="2"/>
    <path id="Trazado_196960-2" data-name="Trazado 196960" d="M-3045.986-10377.79v12.281" transform="translate(3747.678 11849.446)" fill="none" stroke="#12263f" stroke-width="2"/>
    <g transform="matrix(1, 0, 0, 1, 416.48, 1139.13)" filter="url(#Trazado_196945)">
      <path id="Trazado_196945-2" data-name="Trazado 196945" d="M-2968.187-10512.968h57.739v-58.777l55.732,115.5-55.732,118.962v-57.22h-57.739Z" transform="translate(3251.12 10641.6)" stroke="#12263f" stroke-width="4" fill="url(#linear-gradient-4)"/>
    </g>
    <g id="Trazado_777518" data-name="Trazado 777518" transform="translate(1042.766 1199)" fill="#2ec49f">
      <path d="M 67 26 L 1 26 L 1 1 L 67 1 L 67 26 Z" stroke="none"/>
      <path d="M 2 2 L 2 25 L 66 25 L 66 2 L 2 2 M 0 0 L 68 0 L 68 27 L 0 27 L 0 0 Z" stroke="none" fill="#12263f"/>
    </g>
    <g id="Trazado_777519" data-name="Trazado 777519" transform="translate(1109.766 1199)" fill="#1565c0">
      <path d="M 62 26 L 1 26 L 1 1 L 62 1 L 62 26 Z" stroke="none"/>
      <path d="M 2 2 L 2 25 L 61 25 L 61 2 L 2 2 M 0 0 L 63 0 L 63 27 L 0 27 L 0 0 Z" stroke="none" fill="#12263f"/>
    </g>
    <g id="Trazado_777520" data-name="Trazado 777520" transform="translate(1042.766 1224)" fill="#f59d36">
      <path d="M 129 26 L 1 26 L 1 1 L 129 1 L 129 26 Z" stroke="none"/>
      <path d="M 2 2 L 2 25 L 128 25 L 128 2 L 2 2 M 0 0 L 130 0 L 130 27 L 0 27 L 0 0 Z" stroke="none" fill="#12263f"/>
    </g>
    <path id="Trazado_777521" data-name="Trazado 777521" d="M6.043-1.9H2.7L2.069,0H.044l3.44-9.242H5.25L8.709,0H6.684ZM3.218-3.447H5.529L4.367-6.906Zm8.258.19V0h-1.9V-9.242h3.605a4.171,4.171,0,0,1,1.831.381,2.807,2.807,0,0,1,1.216,1.082,3.018,3.018,0,0,1,.425,1.6,2.654,2.654,0,0,1-.93,2.142,3.873,3.873,0,0,1-2.574.784Zm0-1.542h1.7a1.673,1.673,0,0,0,1.152-.355,1.293,1.293,0,0,0,.4-1.016,1.524,1.524,0,0,0-.4-1.1,1.494,1.494,0,0,0-1.1-.432H11.477Zm8.385,1.542V0h-1.9V-9.242h3.605a4.171,4.171,0,0,1,1.831.381A2.807,2.807,0,0,1,24.61-7.779a3.018,3.018,0,0,1,.425,1.6,2.654,2.654,0,0,1-.93,2.142,3.873,3.873,0,0,1-2.574.784Zm0-1.542h1.7a1.673,1.673,0,0,0,1.152-.355,1.293,1.293,0,0,0,.4-1.016,1.524,1.524,0,0,0-.4-1.1,1.494,1.494,0,0,0-1.1-.432H19.862Z" transform="translate(1063.766 1218.001)" fill="#12263f"/>
    <path id="Trazado_777522" data-name="Trazado 777522" d="M6.043-1.9H2.7L2.069,0H.044l3.44-9.242H5.25L8.709,0H6.684ZM3.218-3.447H5.529L4.367-6.906Zm8.258.19V0h-1.9V-9.242h3.605a4.171,4.171,0,0,1,1.831.381,2.807,2.807,0,0,1,1.216,1.082,3.018,3.018,0,0,1,.425,1.6,2.654,2.654,0,0,1-.93,2.142,3.873,3.873,0,0,1-2.574.784Zm0-1.542h1.7a1.673,1.673,0,0,0,1.152-.355,1.293,1.293,0,0,0,.4-1.016,1.524,1.524,0,0,0-.4-1.1,1.494,1.494,0,0,0-1.1-.432H11.477Zm8.385,1.542V0h-1.9V-9.242h3.605a4.171,4.171,0,0,1,1.831.381A2.807,2.807,0,0,1,24.61-7.779a3.018,3.018,0,0,1,.425,1.6,2.654,2.654,0,0,1-.93,2.142,3.873,3.873,0,0,1-2.574.784Zm0-1.542h1.7a1.673,1.673,0,0,0,1.152-.355,1.293,1.293,0,0,0,.4-1.016,1.524,1.524,0,0,0-.4-1.1,1.494,1.494,0,0,0-1.1-.432H19.862Z" transform="translate(1128.766 1218.001)" fill="#12263f"/>
    <path id="Trazado_777523" data-name="Trazado 777523" d="M5.618-2.425a.977.977,0,0,0-.381-.828,5,5,0,0,0-1.371-.609A9.72,9.72,0,0,1,2.3-4.494,2.562,2.562,0,0,1,.724-6.786a2.232,2.232,0,0,1,.422-1.336,2.753,2.753,0,0,1,1.212-.917,4.563,4.563,0,0,1,1.774-.33A4.154,4.154,0,0,1,5.9-9.01,2.81,2.81,0,0,1,7.1-8a2.649,2.649,0,0,1,.428,1.485h-1.9a1.246,1.246,0,0,0-.4-.987A1.644,1.644,0,0,0,4.1-7.852a1.756,1.756,0,0,0-1.085.3.931.931,0,0,0-.387.778.892.892,0,0,0,.454.755,5.128,5.128,0,0,0,1.336.571A5.773,5.773,0,0,1,6.786-4.24a2.415,2.415,0,0,1,.743,1.8A2.224,2.224,0,0,1,6.621-.555,3.974,3.974,0,0,1,4.177.127a4.719,4.719,0,0,1-1.942-.39A3.074,3.074,0,0,1,.9-1.333a2.739,2.739,0,0,1-.46-1.574H2.349q0,1.53,1.828,1.53a1.778,1.778,0,0,0,1.06-.276A.9.9,0,0,0,5.618-2.425ZM16.409-4.412a5.579,5.579,0,0,1-.482,2.393A3.633,3.633,0,0,1,14.546-.432a3.819,3.819,0,0,1-2.06.559,3.845,3.845,0,0,1-2.05-.552A3.669,3.669,0,0,1,9.039-2a5.42,5.42,0,0,1-.5-2.358v-.457a5.55,5.55,0,0,1,.492-2.4,3.663,3.663,0,0,1,1.39-1.593,3.824,3.824,0,0,1,2.053-.555,3.824,3.824,0,0,1,2.053.555,3.663,3.663,0,0,1,1.39,1.593,5.534,5.534,0,0,1,.492,2.4Zm-1.93-.419a3.889,3.889,0,0,0-.521-2.209,1.7,1.7,0,0,0-1.485-.755,1.7,1.7,0,0,0-1.479.746,3.845,3.845,0,0,0-.527,2.187v.451a3.938,3.938,0,0,0,.521,2.2,1.692,1.692,0,0,0,1.5.781,1.677,1.677,0,0,0,1.473-.752,3.915,3.915,0,0,0,.521-2.193Z" transform="translate(1100.766 1242.001)" fill="#12263f"/>
    <g id="Trazado_777524" data-name="Trazado 777524" transform="translate(1042.766 1306)" fill="#2ec49f">
      <path d="M 67 27 L 1 27 L 1 1 L 67 1 L 67 27 Z" stroke="none"/>
      <path d="M 2 2 L 2 26 L 66 26 L 66 2 L 2 2 M 0 0 L 68 0 L 68 28 L 0 28 L 0 0 Z" stroke="none" fill="#12263f"/>
    </g>
    <g id="Trazado_777525" data-name="Trazado 777525" transform="translate(1109.766 1306)" fill="#1565c0">
      <path d="M 62 27 L 1 27 L 1 1 L 62 1 L 62 27 Z" stroke="none"/>
      <path d="M 2 2 L 2 26 L 61 26 L 61 2 L 2 2 M 0 0 L 63 0 L 63 28 L 0 28 L 0 0 Z" stroke="none" fill="#12263f"/>
    </g>
    <g id="Trazado_777526" data-name="Trazado 777526" transform="translate(1042.766 1330)" fill="#f59d36">
      <path d="M 129 26 L 1 26 L 1 1 L 129 1 L 129 26 Z" stroke="none"/>
      <path d="M 2 2 L 2 25 L 128 25 L 128 2 L 2 2 M 0 0 L 130 0 L 130 27 L 0 27 L 0 0 Z" stroke="none" fill="#12263f"/>
    </g>
    <path id="Trazado_777527" data-name="Trazado 777527" d="M6.043-1.9H2.7L2.069,0H.044l3.44-9.242H5.25L8.709,0H6.684ZM3.218-3.447H5.529L4.367-6.906Zm8.258.19V0h-1.9V-9.242h3.605a4.171,4.171,0,0,1,1.831.381,2.807,2.807,0,0,1,1.216,1.082,3.018,3.018,0,0,1,.425,1.6,2.654,2.654,0,0,1-.93,2.142,3.873,3.873,0,0,1-2.574.784Zm0-1.542h1.7a1.673,1.673,0,0,0,1.152-.355,1.293,1.293,0,0,0,.4-1.016,1.524,1.524,0,0,0-.4-1.1,1.494,1.494,0,0,0-1.1-.432H11.477Zm8.385,1.542V0h-1.9V-9.242h3.605a4.171,4.171,0,0,1,1.831.381A2.807,2.807,0,0,1,24.61-7.779a3.018,3.018,0,0,1,.425,1.6,2.654,2.654,0,0,1-.93,2.142,3.873,3.873,0,0,1-2.574.784Zm0-1.542h1.7a1.673,1.673,0,0,0,1.152-.355,1.293,1.293,0,0,0,.4-1.016,1.524,1.524,0,0,0-.4-1.1,1.494,1.494,0,0,0-1.1-.432H19.862Z" transform="translate(1063.766 1325.001)" fill="#12263f"/>
    <path id="Trazado_777528" data-name="Trazado 777528" d="M6.043-1.9H2.7L2.069,0H.044l3.44-9.242H5.25L8.709,0H6.684ZM3.218-3.447H5.529L4.367-6.906Zm8.258.19V0h-1.9V-9.242h3.605a4.171,4.171,0,0,1,1.831.381,2.807,2.807,0,0,1,1.216,1.082,3.018,3.018,0,0,1,.425,1.6,2.654,2.654,0,0,1-.93,2.142,3.873,3.873,0,0,1-2.574.784Zm0-1.542h1.7a1.673,1.673,0,0,0,1.152-.355,1.293,1.293,0,0,0,.4-1.016,1.524,1.524,0,0,0-.4-1.1,1.494,1.494,0,0,0-1.1-.432H11.477Zm8.385,1.542V0h-1.9V-9.242h3.605a4.171,4.171,0,0,1,1.831.381A2.807,2.807,0,0,1,24.61-7.779a3.018,3.018,0,0,1,.425,1.6,2.654,2.654,0,0,1-.93,2.142,3.873,3.873,0,0,1-2.574.784Zm0-1.542h1.7a1.673,1.673,0,0,0,1.152-.355,1.293,1.293,0,0,0,.4-1.016,1.524,1.524,0,0,0-.4-1.1,1.494,1.494,0,0,0-1.1-.432H19.862Z" transform="translate(1128.766 1325.001)" fill="#12263f"/>
    <path id="Trazado_777529" data-name="Trazado 777529" d="M5.618-2.425a.977.977,0,0,0-.381-.828,5,5,0,0,0-1.371-.609A9.72,9.72,0,0,1,2.3-4.494,2.562,2.562,0,0,1,.724-6.786a2.232,2.232,0,0,1,.422-1.336,2.753,2.753,0,0,1,1.212-.917,4.563,4.563,0,0,1,1.774-.33A4.154,4.154,0,0,1,5.9-9.01,2.81,2.81,0,0,1,7.1-8a2.649,2.649,0,0,1,.428,1.485h-1.9a1.246,1.246,0,0,0-.4-.987A1.644,1.644,0,0,0,4.1-7.852a1.756,1.756,0,0,0-1.085.3.931.931,0,0,0-.387.778.892.892,0,0,0,.454.755,5.128,5.128,0,0,0,1.336.571A5.773,5.773,0,0,1,6.786-4.24a2.415,2.415,0,0,1,.743,1.8A2.224,2.224,0,0,1,6.621-.555,3.974,3.974,0,0,1,4.177.127a4.719,4.719,0,0,1-1.942-.39A3.074,3.074,0,0,1,.9-1.333a2.739,2.739,0,0,1-.46-1.574H2.349q0,1.53,1.828,1.53a1.778,1.778,0,0,0,1.06-.276A.9.9,0,0,0,5.618-2.425ZM16.409-4.412a5.579,5.579,0,0,1-.482,2.393A3.633,3.633,0,0,1,14.546-.432a3.819,3.819,0,0,1-2.06.559,3.845,3.845,0,0,1-2.05-.552A3.669,3.669,0,0,1,9.039-2a5.42,5.42,0,0,1-.5-2.358v-.457a5.55,5.55,0,0,1,.492-2.4,3.663,3.663,0,0,1,1.39-1.593,3.824,3.824,0,0,1,2.053-.555,3.824,3.824,0,0,1,2.053.555,3.663,3.663,0,0,1,1.39,1.593,5.534,5.534,0,0,1,.492,2.4Zm-1.93-.419a3.889,3.889,0,0,0-.521-2.209,1.7,1.7,0,0,0-1.485-.755,1.7,1.7,0,0,0-1.479.746,3.845,3.845,0,0,0-.527,2.187v.451a3.938,3.938,0,0,0,.521,2.2,1.692,1.692,0,0,0,1.5.781,1.677,1.677,0,0,0,1.473-.752,3.915,3.915,0,0,0,.521-2.193Z" transform="translate(1100.766 1350.001)" fill="#12263f"/>
    <g id="Trazado_777530" data-name="Trazado 777530" transform="translate(1042.766 1412.999)" fill="#2ec49f">
      <path d="M 67 26 L 1 26 L 1 1 L 67 1 L 67 26 Z" stroke="none"/>
      <path d="M 2 2 L 2 25 L 66 25 L 66 2 L 2 2 M 0 0 L 68 0 L 68 27 L 0 27 L 0 0 Z" stroke="none" fill="#12263f"/>
    </g>
    <g id="Trazado_777531" data-name="Trazado 777531" transform="translate(1109.766 1412.999)" fill="#1565c0">
      <path d="M 62 26 L 1 26 L 1 1 L 62 1 L 62 26 Z" stroke="none"/>
      <path d="M 2 2 L 2 25 L 61 25 L 61 2 L 2 2 M 0 0 L 63 0 L 63 27 L 0 27 L 0 0 Z" stroke="none" fill="#12263f"/>
    </g>
    <g id="Trazado_777532" data-name="Trazado 777532" transform="translate(1042.766 1437.999)" fill="#f59d36">
      <path d="M 129 26 L 1 26 L 1 1 L 129 1 L 129 26 Z" stroke="none"/>
      <path d="M 2 2 L 2 25 L 128 25 L 128 2 L 2 2 M 0 0 L 130 0 L 130 27 L 0 27 L 0 0 Z" stroke="none" fill="#12263f"/>
    </g>
    <path id="Trazado_777533" data-name="Trazado 777533" d="M6.043-1.9H2.7L2.069,0H.044l3.44-9.242H5.25L8.709,0H6.684ZM3.218-3.447H5.529L4.367-6.906Zm8.258.19V0h-1.9V-9.242h3.605a4.171,4.171,0,0,1,1.831.381,2.807,2.807,0,0,1,1.216,1.082,3.018,3.018,0,0,1,.425,1.6,2.654,2.654,0,0,1-.93,2.142,3.873,3.873,0,0,1-2.574.784Zm0-1.542h1.7a1.673,1.673,0,0,0,1.152-.355,1.293,1.293,0,0,0,.4-1.016,1.524,1.524,0,0,0-.4-1.1,1.494,1.494,0,0,0-1.1-.432H11.477Zm8.385,1.542V0h-1.9V-9.242h3.605a4.171,4.171,0,0,1,1.831.381A2.807,2.807,0,0,1,24.61-7.779a3.018,3.018,0,0,1,.425,1.6,2.654,2.654,0,0,1-.93,2.142,3.873,3.873,0,0,1-2.574.784Zm0-1.542h1.7a1.673,1.673,0,0,0,1.152-.355,1.293,1.293,0,0,0,.4-1.016,1.524,1.524,0,0,0-.4-1.1,1.494,1.494,0,0,0-1.1-.432H19.862Z" transform="translate(1063.766 1431)" fill="#12263f"/>
    <path id="Trazado_777534" data-name="Trazado 777534" d="M6.043-1.9H2.7L2.069,0H.044l3.44-9.242H5.25L8.709,0H6.684ZM3.218-3.447H5.529L4.367-6.906Zm8.258.19V0h-1.9V-9.242h3.605a4.171,4.171,0,0,1,1.831.381,2.807,2.807,0,0,1,1.216,1.082,3.018,3.018,0,0,1,.425,1.6,2.654,2.654,0,0,1-.93,2.142,3.873,3.873,0,0,1-2.574.784Zm0-1.542h1.7a1.673,1.673,0,0,0,1.152-.355,1.293,1.293,0,0,0,.4-1.016,1.524,1.524,0,0,0-.4-1.1,1.494,1.494,0,0,0-1.1-.432H11.477Zm8.385,1.542V0h-1.9V-9.242h3.605a4.171,4.171,0,0,1,1.831.381A2.807,2.807,0,0,1,24.61-7.779a3.018,3.018,0,0,1,.425,1.6,2.654,2.654,0,0,1-.93,2.142,3.873,3.873,0,0,1-2.574.784Zm0-1.542h1.7a1.673,1.673,0,0,0,1.152-.355,1.293,1.293,0,0,0,.4-1.016,1.524,1.524,0,0,0-.4-1.1,1.494,1.494,0,0,0-1.1-.432H19.862Z" transform="translate(1128.766 1431)" fill="#12263f"/>
    <path id="Trazado_777535" data-name="Trazado 777535" d="M5.618-2.425a.977.977,0,0,0-.381-.828,5,5,0,0,0-1.371-.609A9.72,9.72,0,0,1,2.3-4.494,2.562,2.562,0,0,1,.724-6.786a2.232,2.232,0,0,1,.422-1.336,2.753,2.753,0,0,1,1.212-.917,4.563,4.563,0,0,1,1.774-.33A4.154,4.154,0,0,1,5.9-9.01,2.81,2.81,0,0,1,7.1-8a2.649,2.649,0,0,1,.428,1.485h-1.9a1.246,1.246,0,0,0-.4-.987A1.644,1.644,0,0,0,4.1-7.852a1.756,1.756,0,0,0-1.085.3.931.931,0,0,0-.387.778.892.892,0,0,0,.454.755,5.128,5.128,0,0,0,1.336.571A5.773,5.773,0,0,1,6.786-4.24a2.415,2.415,0,0,1,.743,1.8A2.224,2.224,0,0,1,6.621-.555,3.974,3.974,0,0,1,4.177.127a4.719,4.719,0,0,1-1.942-.39A3.074,3.074,0,0,1,.9-1.333a2.739,2.739,0,0,1-.46-1.574H2.349q0,1.53,1.828,1.53a1.778,1.778,0,0,0,1.06-.276A.9.9,0,0,0,5.618-2.425ZM16.409-4.412a5.579,5.579,0,0,1-.482,2.393A3.633,3.633,0,0,1,14.546-.432a3.819,3.819,0,0,1-2.06.559,3.845,3.845,0,0,1-2.05-.552A3.669,3.669,0,0,1,9.039-2a5.42,5.42,0,0,1-.5-2.358v-.457a5.55,5.55,0,0,1,.492-2.4,3.663,3.663,0,0,1,1.39-1.593,3.824,3.824,0,0,1,2.053-.555,3.824,3.824,0,0,1,2.053.555,3.663,3.663,0,0,1,1.39,1.593,5.534,5.534,0,0,1,.492,2.4Zm-1.93-.419a3.889,3.889,0,0,0-.521-2.209,1.7,1.7,0,0,0-1.485-.755,1.7,1.7,0,0,0-1.479.746,3.845,3.845,0,0,0-.527,2.187v.451a3.938,3.938,0,0,0,.521,2.2,1.692,1.692,0,0,0,1.5.781,1.677,1.677,0,0,0,1.473-.752,3.915,3.915,0,0,0,.521-2.193Z" transform="translate(1100.766 1456)" fill="#12263f"/>
    <path id="Trazado_777509" data-name="Trazado 777509" d="M6.043-1.9H2.7L2.069,0H.044l3.44-9.242H5.25L8.709,0H6.684ZM3.218-3.447H5.529L4.367-6.906Zm8.258.19V0h-1.9V-9.242h3.605a4.171,4.171,0,0,1,1.831.381,2.807,2.807,0,0,1,1.216,1.082,3.018,3.018,0,0,1,.425,1.6,2.654,2.654,0,0,1-.93,2.142,3.873,3.873,0,0,1-2.574.784Zm0-1.542h1.7a1.673,1.673,0,0,0,1.152-.355,1.293,1.293,0,0,0,.4-1.016,1.524,1.524,0,0,0-.4-1.1,1.494,1.494,0,0,0-1.1-.432H11.477Zm8.385,1.542V0h-1.9V-9.242h3.605a4.171,4.171,0,0,1,1.831.381A2.807,2.807,0,0,1,24.61-7.779a3.018,3.018,0,0,1,.425,1.6,2.654,2.654,0,0,1-.93,2.142,3.873,3.873,0,0,1-2.574.784Zm0-1.542h1.7a1.673,1.673,0,0,0,1.152-.355,1.293,1.293,0,0,0,.4-1.016,1.524,1.524,0,0,0-.4-1.1,1.494,1.494,0,0,0-1.1-.432H19.862Z" transform="translate(1063.766 1325)" fill="#12263f"/>
    <g transform="matrix(1, 0, 0, 1, 416.48, 1139.13)" filter="url(#Trazado_196963)">
      <path id="Trazado_196963-2" data-name="Trazado 196963" d="M-2840.414-10558.478l13.3-22.62h35.043l4.876,8.436,8.2,14.185-13.075,25.589h-35.043Z" transform="translate(3298.39 10744.08)" stroke="#12263f" stroke-width="2" fill="url(#linear-gradient-5)"/>
    </g>
    <path id="Trazado_777536" data-name="Trazado 777536" d="M3.313-9.242l2.374,6.7,2.361-6.7h2.5V0H8.639V-2.526l.19-4.361L6.335,0H5.027L2.539-6.881l.19,4.354V0H.825V-9.242Z" transform="translate(899.766 1331.001)" fill="#12263f"/>
    <g transform="matrix(1, 0, 0, 1, 416.48, 1139.13)" filter="url(#Trazado_196962)">
      <path id="Trazado_196962-2" data-name="Trazado 196962" d="M-2840.414-10558.478l13.3-22.62h35.043l4.876,8.436,8.2,14.185-13.075,25.589h-35.043Z" transform="translate(3298.39 10638.14)" stroke="#12263f" stroke-width="2" fill="url(#linear-gradient-5)"/>
    </g>
    <path id="Trazado_777537" data-name="Trazado 777537" d="M3.313-9.242l2.374,6.7,2.361-6.7h2.5V0H8.639V-2.526l.19-4.361L6.335,0H5.027L2.539-6.881l.19,4.354V0H.825V-9.242Z" transform="translate(899.766 1224.001)" fill="#12263f"/>
    <g transform="matrix(1, 0, 0, 1, 416.48, 1139.13)" filter="url(#Trazado_196964)">
      <path id="Trazado_196964-2" data-name="Trazado 196964" d="M-2840.414-10558.478l13.3-22.62h35.043l4.876,8.436,8.2,14.185-13.075,25.589h-35.043Z" transform="translate(3298.39 10852.76)" stroke="#12263f" stroke-width="2" fill="url(#linear-gradient-5)"/>
    </g>
    <path id="Trazado_777538" data-name="Trazado 777538" d="M3.313-9.242l2.374,6.7,2.361-6.7h2.5V0H8.639V-2.526l.19-4.361L6.335,0H5.027L2.539-6.881l.19,4.354V0H.825V-9.242Z" transform="translate(899.766 1440)" fill="#12263f"/>
    <path id="Trazado_777510" data-name="Trazado 777510" d="M4.588-12.8,7.875-3.516l3.27-9.281h3.463V0H11.962V-3.5l.264-6.038L8.771,0H6.961L3.516-9.527,3.779-3.5V0H1.143V-12.8ZM22.254,0A2.821,2.821,0,0,1,22-.853,3.073,3.073,0,0,1,19.6.176a3.376,3.376,0,0,1-2.316-.809,2.6,2.6,0,0,1-.918-2.039,2.687,2.687,0,0,1,1.121-2.32,5.529,5.529,0,0,1,3.239-.817h1.169v-.545a1.567,1.567,0,0,0-.338-1.055,1.331,1.331,0,0,0-1.068-.4,1.513,1.513,0,0,0-1.006.308,1.045,1.045,0,0,0-.365.844h-2.54a2.551,2.551,0,0,1,.51-1.529,3.37,3.37,0,0,1,1.441-1.1,5.253,5.253,0,0,1,2.092-.4A4.15,4.15,0,0,1,23.41-8.8a3.09,3.09,0,0,1,1.033,2.483V-2.2A4.546,4.546,0,0,0,24.82-.149V0Zm-2.1-1.767a2.188,2.188,0,0,0,1.037-.25,1.645,1.645,0,0,0,.7-.672V-4.324h-.949q-1.907,0-2.03,1.318l-.009.149a1.017,1.017,0,0,0,.334.782A1.3,1.3,0,0,0,20.153-1.767ZM21.12-13.5h2.769l-2.435,2.725H19.389ZM26-4.843a5.684,5.684,0,0,1,1-3.542,3.261,3.261,0,0,1,2.738-1.3,2.92,2.92,0,0,1,2.435,1.169l.167-.993h2.232V3.656H32.019V-.817a2.928,2.928,0,0,1-2.3.993,3.237,3.237,0,0,1-2.707-1.318A5.963,5.963,0,0,1,26-4.843Zm2.54.18a3.729,3.729,0,0,0,.479,2.077,1.533,1.533,0,0,0,1.349.713,1.708,1.708,0,0,0,1.652-.933V-6.74a1.694,1.694,0,0,0-1.635-.9,1.552,1.552,0,0,0-1.362.713A4.118,4.118,0,0,0,28.538-4.662Zm13.72,3.7a3.185,3.185,0,0,1-2.6,1.143A3,3,0,0,1,37.323-.7,3.752,3.752,0,0,1,36.5-3.278V-9.51h2.54v6.151q0,1.487,1.354,1.487a1.834,1.834,0,0,0,1.775-.9V-9.51h2.549V0H42.328ZM49.315,0H46.767V-9.51h2.549Zm-2.7-11.971a1.251,1.251,0,0,1,.382-.94,1.436,1.436,0,0,1,1.042-.369,1.44,1.44,0,0,1,1.037.369,1.244,1.244,0,0,1,.387.94,1.247,1.247,0,0,1-.391.949,1.443,1.443,0,0,1-1.033.369,1.443,1.443,0,0,1-1.033-.369A1.247,1.247,0,0,1,46.617-11.971ZM53.745-9.51l.079,1.1a3.32,3.32,0,0,1,2.733-1.274,2.759,2.759,0,0,1,2.25.888,4.142,4.142,0,0,1,.756,2.654V0h-2.54V-6.1a1.654,1.654,0,0,0-.352-1.176A1.572,1.572,0,0,0,55.5-7.638a1.747,1.747,0,0,0-1.608.916V0h-2.54V-9.51ZM67,0a2.821,2.821,0,0,1-.255-.853,3.073,3.073,0,0,1-2.4,1.028,3.376,3.376,0,0,1-2.316-.809,2.6,2.6,0,0,1-.918-2.039,2.687,2.687,0,0,1,1.121-2.32A5.529,5.529,0,0,1,65.47-5.81h1.169v-.545A1.567,1.567,0,0,0,66.3-7.409a1.331,1.331,0,0,0-1.068-.4,1.513,1.513,0,0,0-1.006.308,1.045,1.045,0,0,0-.365.844h-2.54a2.551,2.551,0,0,1,.51-1.529,3.37,3.37,0,0,1,1.441-1.1,5.253,5.253,0,0,1,2.092-.4,4.15,4.15,0,0,1,2.791.883,3.09,3.09,0,0,1,1.033,2.483V-2.2a4.546,4.546,0,0,0,.378,2.048V0ZM64.9-1.767a2.188,2.188,0,0,0,1.037-.25,1.645,1.645,0,0,0,.7-.672V-4.324h-.949q-1.907,0-2.03,1.318l-.009.149a1.017,1.017,0,0,0,.334.782A1.3,1.3,0,0,0,64.9-1.767Zm11.391-.861a.818.818,0,0,0-.461-.734,5.241,5.241,0,0,0-1.481-.479q-3.393-.712-3.393-2.883A2.613,2.613,0,0,1,72-8.837a4.237,4.237,0,0,1,2.747-.848,4.56,4.56,0,0,1,2.9.853,2.687,2.687,0,0,1,1.085,2.215h-2.54a1.229,1.229,0,0,0-.352-.9,1.488,1.488,0,0,0-1.1-.356,1.52,1.52,0,0,0-.993.29.916.916,0,0,0-.352.738.783.783,0,0,0,.4.681,4.114,4.114,0,0,0,1.349.448,11.019,11.019,0,0,1,1.6.426,2.628,2.628,0,0,1,2.013,2.558,2.481,2.481,0,0,1-1.116,2.1,4.815,4.815,0,0,1-2.883.8A5.029,5.029,0,0,1,72.637-.25a3.561,3.561,0,0,1-1.455-1.169,2.716,2.716,0,0,1-.527-1.6h2.408a1.326,1.326,0,0,0,.5,1.037,1.987,1.987,0,0,0,1.248.36,1.839,1.839,0,0,0,1.1-.277A.861.861,0,0,0,76.289-2.628Z" transform="translate(832.766 1535)" fill="#12263f"/>
    <path id="Trazado_777511" data-name="Trazado 777511" d="M10.31,0H7.734l.949-5.484H3.718L2.76,0H.185L2.408-12.8H4.983L4.078-7.611H9.053l.9-5.186h2.575Zm6.179-3.621L19.2-9.51h2.76L16.4,1.433A4.76,4.76,0,0,1,15,3.278a3.063,3.063,0,0,1-1.859.589,5.665,5.665,0,0,1-1.2-.185l.185-1.934.343.018A1.858,1.858,0,0,0,14.247.879l.545-1.011L13.236-9.51H15.8ZM30.437-4.729a7.854,7.854,0,0,1-.782,2.654A4.3,4.3,0,0,1,28.169-.352,3.44,3.44,0,0,1,26.2.185a2.745,2.745,0,0,1-2.18-1.028l-.87,4.5H20.672L22.948-9.51l2.285-.009-.167.958a3.036,3.036,0,0,1,2.426-1.125A2.7,2.7,0,0,1,29.663-8.67a4.412,4.412,0,0,1,.826,2.659A10.274,10.274,0,0,1,30.437-4.729Zm-2.461-.18.053-.845a2.351,2.351,0,0,0-.312-1.356,1.12,1.12,0,0,0-.962-.519,2.046,2.046,0,0,0-1.784.915l-.712,3.926a1.387,1.387,0,0,0,1.4.924,1.789,1.789,0,0,0,1.494-.7A4.763,4.763,0,0,0,27.976-4.909ZM35.736.176a4.137,4.137,0,0,1-2.21-.611,3.7,3.7,0,0,1-1.437-1.652A4.605,4.605,0,0,1,31.72-4.4l.026-.352A6.148,6.148,0,0,1,32.555-7.3a4.884,4.884,0,0,1,1.74-1.789,4.306,4.306,0,0,1,2.355-.593,3.29,3.29,0,0,1,2.782,1.351A4.631,4.631,0,0,1,40.148-5L40.008-3.92H34.181a2.041,2.041,0,0,0,.448,1.477,1.711,1.711,0,0,0,1.318.571A3.041,3.041,0,0,0,38.32-2.927l1.134,1.406A3.527,3.527,0,0,1,37.907-.259,5.059,5.059,0,0,1,35.736.176Zm.791-7.813a1.761,1.761,0,0,0-1.217.431,3.784,3.784,0,0,0-.954,1.556h3.41l.053-.229a2.33,2.33,0,0,0,.009-.668,1.276,1.276,0,0,0-.431-.8A1.35,1.35,0,0,0,36.527-7.638Zm10.731.51a5.117,5.117,0,0,0-.835-.088,2.4,2.4,0,0,0-2.1.993L43.225,0H40.746L42.4-9.51l2.329-.009L44.5-8.358A2.615,2.615,0,0,1,46.714-9.7a3.615,3.615,0,0,1,.861.123Zm4.1,3.99L54.07-9.51h2.672L52.146,0H49.772L48.146-9.51H50.66ZM58.9,0H56.4l1.652-9.51h2.5Zm-.554-11.927a1.238,1.238,0,0,1,.387-.976,1.36,1.36,0,0,1,.976-.387,1.367,1.367,0,0,1,.976.343,1.233,1.233,0,0,1,.431.932,1.273,1.273,0,0,1-.365.949,1.367,1.367,0,0,1-1,.422,1.39,1.39,0,0,1-.971-.334A1.227,1.227,0,0,1,58.342-11.927Zm8.165,9.246q.141-.7-.976-1.02l-.8-.2q-2.839-.782-2.76-2.76a2.731,2.731,0,0,1,1.191-2.193,4.434,4.434,0,0,1,2.764-.831,3.978,3.978,0,0,1,2.6.853,2.809,2.809,0,0,1,1.011,2.224l-2.461-.009a1.084,1.084,0,0,0-1.213-1.239,1.745,1.745,0,0,0-1.006.29,1.194,1.194,0,0,0-.523.782q-.132.7,1.063.993l.352.079a7.071,7.071,0,0,1,1.854.664,2.8,2.8,0,0,1,.989.927,2.3,2.3,0,0,1,.321,1.327,2.533,2.533,0,0,1-.584,1.582A3.577,3.577,0,0,1,66.8-.167a5.328,5.328,0,0,1-2.043.343,4.015,4.015,0,0,1-2.637-.91,2.933,2.933,0,0,1-1.072-2.307l2.338.018a1.285,1.285,0,0,0,1.459,1.38,2.076,2.076,0,0,0,1.129-.281A1.111,1.111,0,0,0,66.507-2.681Zm8.991-7a3.814,3.814,0,0,1,2.167.646A3.638,3.638,0,0,1,79-7.308a5.357,5.357,0,0,1,.3,2.448,5.786,5.786,0,0,1-1.578,3.669,4.455,4.455,0,0,1-3.4,1.367,3.8,3.8,0,0,1-2.145-.637A3.624,3.624,0,0,1,70.849-2.18a5.239,5.239,0,0,1-.308-2.426,5.957,5.957,0,0,1,1.6-3.744A4.363,4.363,0,0,1,75.5-9.686Zm-2.5,5.979a2.194,2.194,0,0,0,.4,1.33,1.314,1.314,0,0,0,1.063.5,1.926,1.926,0,0,0,1.793-1.049,5.227,5.227,0,0,0,.606-2.848,2.387,2.387,0,0,0-.409-1.347,1.293,1.293,0,0,0-1.068-.522A1.929,1.929,0,0,0,73.6-6.6,5.173,5.173,0,0,0,72.993-3.706ZM86.528-7.128a5.117,5.117,0,0,0-.835-.088,2.4,2.4,0,0,0-2.1.993L82.494,0H80.016l1.652-9.51L84-9.519l-.229,1.16A2.615,2.615,0,0,1,85.983-9.7a3.615,3.615,0,0,1,.861.123Z" transform="translate(706.766 1334)" fill="#12263f"/>
    <path id="Trazado_777512" data-name="Trazado 777512" d="M2.927,0H.352L2.566-12.8H5.142Zm6.2-9.519L8.912-8.394a3.422,3.422,0,0,1,2.769-1.292,2.281,2.281,0,0,1,1.986.984,3.966,3.966,0,0,1,.466,2.654L13.131,0H10.652l1.02-6.073a2.844,2.844,0,0,0,.018-.624,1.007,1.007,0,0,0-1.125-.923,2.133,2.133,0,0,0-1.749.905L7.629,0H5.15L6.8-9.51ZM15.741,0l1.327-7.655H15.7l.325-1.854,1.371-.009.123-.949a3.748,3.748,0,0,1,1.239-2.386,3.751,3.751,0,0,1,2.575-.848,8.246,8.246,0,0,1,1.345.184l-.22,1.97a3.073,3.073,0,0,0-.729-.105,1.817,1.817,0,0,0-1.129.335,1.525,1.525,0,0,0-.584,1.033l-.132.777h1.837l-.325,1.854H19.564L18.237,0Zm12.19-7.128a5.117,5.117,0,0,0-.835-.088,2.4,2.4,0,0,0-2.1.993L23.9,0H21.419l1.652-9.51L25.4-9.519l-.229,1.16A2.615,2.615,0,0,1,27.387-9.7a3.615,3.615,0,0,1,.861.123ZM33.117,0a2.566,2.566,0,0,1-.1-.861A3.221,3.221,0,0,1,30.595.176a2.919,2.919,0,0,1-2.07-.813A2.46,2.46,0,0,1,27.756-2.6a2.843,2.843,0,0,1,1.305-2.386A5.924,5.924,0,0,1,32.4-5.818l1.16.018.123-.571a1.984,1.984,0,0,0,.026-.554.952.952,0,0,0-.312-.646,1.075,1.075,0,0,0-.708-.242,1.514,1.514,0,0,0-.984.286,1.384,1.384,0,0,0-.519.875L28.7-6.645a2.764,2.764,0,0,1,1.252-2.21,4.851,4.851,0,0,1,2.94-.831,3.507,3.507,0,0,1,2.531.962,2.816,2.816,0,0,1,.765,2.386l-.729,4.553-.044.563a2.714,2.714,0,0,0,.149,1.055L35.552,0ZM31.21-1.749a2.27,2.27,0,0,0,1.872-.932l.308-1.644-.861-.009a2.406,2.406,0,0,0-1.978.835,1.454,1.454,0,0,0-.272.712.844.844,0,0,0,.2.751A1,1,0,0,0,31.21-1.749Zm11.364-.932q.141-.7-.976-1.02l-.8-.2q-2.839-.782-2.76-2.76A2.731,2.731,0,0,1,39.23-8.855a4.434,4.434,0,0,1,2.764-.831,3.978,3.978,0,0,1,2.6.853,2.809,2.809,0,0,1,1.011,2.224l-2.461-.009a1.084,1.084,0,0,0-1.213-1.239,1.745,1.745,0,0,0-1.006.29,1.194,1.194,0,0,0-.523.782q-.132.7,1.063.993l.352.079a7.071,7.071,0,0,1,1.854.664,2.8,2.8,0,0,1,.989.927,2.3,2.3,0,0,1,.321,1.327A2.533,2.533,0,0,1,44.4-1.213,3.577,3.577,0,0,1,42.869-.167a5.328,5.328,0,0,1-2.043.343,4.015,4.015,0,0,1-2.637-.91,2.933,2.933,0,0,1-1.072-2.307l2.338.018a1.285,1.285,0,0,0,1.459,1.38,2.076,2.076,0,0,0,1.129-.281A1.111,1.111,0,0,0,42.574-2.681Zm8.578-9.167L50.739-9.51h1.582L52-7.646H50.414l-.809,4.764a1.211,1.211,0,0,0,.07.686q.123.237.6.255.141.009.756-.044L50.854-.044a4.169,4.169,0,0,1-1.424.2A2.234,2.234,0,0,1,47.61-.606a2.763,2.763,0,0,1-.492-2.021l.817-5.019H46.591l.325-1.863h1.345l.4-2.338Zm7.471,4.72a5.117,5.117,0,0,0-.835-.088,2.4,2.4,0,0,0-2.1.993L54.589,0H52.11l1.652-9.51,2.329-.009-.229,1.16A2.615,2.615,0,0,1,58.078-9.7a3.615,3.615,0,0,1,.861.123ZM64.459-.984A3.283,3.283,0,0,1,61.84.176a2.443,2.443,0,0,1-2.074-.984,3.6,3.6,0,0,1-.545-2.549L60.249-9.51h2.479L61.682-3.324a2.446,2.446,0,0,0-.009.545.9.9,0,0,0,.976.906,2.265,2.265,0,0,0,1.907-.889L65.742-9.51h2.5L66.586,0H64.274ZM72.6-1.863a1.628,1.628,0,0,0,1.143-.374,1.836,1.836,0,0,0,.6-1.042l2.329-.009a3.416,3.416,0,0,1-.628,1.8A3.818,3.818,0,0,1,74.527-.237a4.327,4.327,0,0,1-1.991.422,3.514,3.514,0,0,1-2.742-1.2,4.461,4.461,0,0,1-.976-3.111l.026-.483.009-.1A5.945,5.945,0,0,1,70.418-8.38,4.231,4.231,0,0,1,73.7-9.686a3.428,3.428,0,0,1,2.553,1.05,3.71,3.71,0,0,1,.927,2.676H74.865a1.947,1.947,0,0,0-.334-1.2,1.269,1.269,0,0,0-1-.475q-1.775-.053-2.153,2.593a8.755,8.755,0,0,0-.1,1.617Q71.367-1.89,72.6-1.863Zm10.055-9.984L82.239-9.51h1.582L83.5-7.646H81.914l-.809,4.764a1.211,1.211,0,0,0,.07.686q.123.237.6.255.141.009.756-.044L82.354-.044a4.169,4.169,0,0,1-1.424.2A2.234,2.234,0,0,1,79.11-.606a2.763,2.763,0,0,1-.492-2.021l.817-5.019H78.091l.325-1.863h1.345l.4-2.338ZM89.5-.984A3.283,3.283,0,0,1,86.88.176a2.443,2.443,0,0,1-2.074-.984,3.6,3.6,0,0,1-.545-2.549L85.289-9.51h2.479L86.722-3.324a2.446,2.446,0,0,0-.009.545.9.9,0,0,0,.976.906A2.265,2.265,0,0,0,89.6-2.761L90.782-9.51h2.5L91.626,0H89.314ZM99.984-7.128a5.117,5.117,0,0,0-.835-.088,2.4,2.4,0,0,0-2.1.993L95.95,0H93.472l1.652-9.51,2.329-.009-.229,1.16A2.615,2.615,0,0,1,99.439-9.7a3.615,3.615,0,0,1,.861.123Zm4.465,7.3a4.137,4.137,0,0,1-2.21-.611A3.7,3.7,0,0,1,100.8-2.087a4.605,4.605,0,0,1-.369-2.316l.026-.352a6.148,6.148,0,0,1,.809-2.549,4.884,4.884,0,0,1,1.74-1.789,4.306,4.306,0,0,1,2.355-.593,3.29,3.29,0,0,1,2.782,1.351A4.631,4.631,0,0,1,108.861-5l-.141,1.083h-5.827a2.041,2.041,0,0,0,.448,1.477,1.711,1.711,0,0,0,1.318.571,3.041,3.041,0,0,0,2.373-1.055l1.134,1.406A3.527,3.527,0,0,1,106.62-.259,5.059,5.059,0,0,1,104.449.176Zm.791-7.813a1.761,1.761,0,0,0-1.217.431,3.784,3.784,0,0,0-.954,1.556h3.41l.053-.229a2.33,2.33,0,0,0,.009-.668,1.276,1.276,0,0,0-.431-.8A1.35,1.35,0,0,0,105.24-7.638Z" transform="translate(449.766 1509)" fill="#12263f"/>
    <path id="Trazado_777513" data-name="Trazado 777513" d="M5.88-4.685h-2.1V0H1.143V-12.8H5.9a5.375,5.375,0,0,1,3.5,1.011,3.488,3.488,0,0,1,1.23,2.856,3.937,3.937,0,0,1-.567,2.184A3.866,3.866,0,0,1,8.341-5.353L11.109-.123V0H8.279ZM3.779-6.82H5.906a2.178,2.178,0,0,0,1.538-.505,1.806,1.806,0,0,0,.545-1.393,1.933,1.933,0,0,0-.514-1.424A2.137,2.137,0,0,0,5.9-10.661H3.779Zm13.061,7a4.668,4.668,0,0,1-3.406-1.283A4.561,4.561,0,0,1,12.12-4.526v-.246a5.745,5.745,0,0,1,.554-2.562,4.064,4.064,0,0,1,1.569-1.74,4.4,4.4,0,0,1,2.316-.611,3.947,3.947,0,0,1,3.072,1.23,5,5,0,0,1,1.121,3.489v1.037H14.7a2.36,2.36,0,0,0,.743,1.494,2.245,2.245,0,0,0,1.569.563A2.742,2.742,0,0,0,19.3-2.936l1.248,1.4A3.813,3.813,0,0,1,19-.277,5.075,5.075,0,0,1,16.84.176Zm-.29-7.813a1.587,1.587,0,0,0-1.226.512,2.651,2.651,0,0,0-.6,1.466h3.533v-.2A1.891,1.891,0,0,0,17.8-7.174,1.638,1.638,0,0,0,16.55-7.638Zm14.2,2.971a5.7,5.7,0,0,1-1,3.52A3.2,3.2,0,0,1,27.062.176a2.963,2.963,0,0,1-2.329-1V3.656h-2.54V-9.51h2.355l.088.932a2.985,2.985,0,0,1,2.408-1.107,3.22,3.22,0,0,1,2.733,1.3A5.858,5.858,0,0,1,30.753-4.8Zm-2.54-.194a3.763,3.763,0,0,0-.47-2.054,1.53,1.53,0,0,0-1.367-.723,1.662,1.662,0,0,0-1.644.917v3.906a1.691,1.691,0,0,0,1.661.943Q28.213-1.872,28.213-4.861ZM37.67-7.128a6.9,6.9,0,0,0-.914-.07,1.86,1.86,0,0,0-1.89.976V0h-2.54V-9.51h2.4l.07,1.134a2.354,2.354,0,0,1,2.118-1.31,2.662,2.662,0,0,1,.791.114ZM43.1.176A4.668,4.668,0,0,1,39.7-1.107a4.561,4.561,0,0,1-1.314-3.419v-.246a5.745,5.745,0,0,1,.554-2.562A4.064,4.064,0,0,1,40.5-9.075a4.4,4.4,0,0,1,2.316-.611,3.947,3.947,0,0,1,3.072,1.23,5,5,0,0,1,1.121,3.489v1.037H40.957A2.36,2.36,0,0,0,41.7-2.435a2.245,2.245,0,0,0,1.569.563,2.742,2.742,0,0,0,2.294-1.063l1.248,1.4A3.813,3.813,0,0,1,45.264-.277,5.075,5.075,0,0,1,43.1.176Zm-.29-7.813a1.587,1.587,0,0,0-1.226.512,2.651,2.651,0,0,0-.6,1.466h3.533v-.2a1.891,1.891,0,0,0-.457-1.311A1.638,1.638,0,0,0,42.812-7.638ZM53.6-2.628a.818.818,0,0,0-.461-.734,5.241,5.241,0,0,0-1.481-.479Q48.27-4.553,48.27-6.724a2.613,2.613,0,0,1,1.05-2.114,4.237,4.237,0,0,1,2.747-.848,4.56,4.56,0,0,1,2.9.853,2.687,2.687,0,0,1,1.085,2.215h-2.54a1.229,1.229,0,0,0-.352-.9,1.488,1.488,0,0,0-1.1-.356,1.52,1.52,0,0,0-.993.29.916.916,0,0,0-.352.738.783.783,0,0,0,.4.681,4.114,4.114,0,0,0,1.349.448,11.019,11.019,0,0,1,1.6.426,2.628,2.628,0,0,1,2.013,2.558,2.481,2.481,0,0,1-1.116,2.1,4.815,4.815,0,0,1-2.883.8A5.029,5.029,0,0,1,49.953-.25,3.561,3.561,0,0,1,48.5-1.419a2.716,2.716,0,0,1-.527-1.6h2.408a1.326,1.326,0,0,0,.5,1.037,1.987,1.987,0,0,0,1.248.36,1.839,1.839,0,0,0,1.1-.277A.861.861,0,0,0,53.6-2.628Zm8.481,2.8A4.668,4.668,0,0,1,58.68-1.107a4.561,4.561,0,0,1-1.314-3.419v-.246a5.745,5.745,0,0,1,.554-2.562,4.064,4.064,0,0,1,1.569-1.74A4.4,4.4,0,0,1,61.8-9.686a3.947,3.947,0,0,1,3.072,1.23A5,5,0,0,1,66-4.966v1.037H59.941a2.36,2.36,0,0,0,.743,1.494,2.245,2.245,0,0,0,1.569.563,2.742,2.742,0,0,0,2.294-1.063l1.248,1.4A3.813,3.813,0,0,1,64.248-.277,5.075,5.075,0,0,1,62.086.176ZM61.8-7.638a1.587,1.587,0,0,0-1.226.512,2.651,2.651,0,0,0-.6,1.466H63.5v-.2a1.891,1.891,0,0,0-.457-1.311A1.638,1.638,0,0,0,61.8-7.638Zm7.98-1.872.079,1.1a3.32,3.32,0,0,1,2.733-1.274,2.759,2.759,0,0,1,2.25.888,4.142,4.142,0,0,1,.756,2.654V0h-2.54V-6.1A1.654,1.654,0,0,0,72.7-7.272a1.572,1.572,0,0,0-1.169-.366,1.747,1.747,0,0,0-1.608.916V0h-2.54V-9.51Zm10.784-2.338V-9.51h1.626v1.863H80.561V-2.9a1.133,1.133,0,0,0,.2.756,1.015,1.015,0,0,0,.773.229,4.051,4.051,0,0,0,.747-.062V-.053a5.229,5.229,0,0,1-1.538.229,2.425,2.425,0,0,1-2.725-2.7V-7.646H76.632V-9.51h1.389v-2.338Z" transform="translate(1041.766 1535)" fill="#12263f"/>
    <path id="Trazado_196965" data-name="Trazado 196965" d="M-2784.328-10406.5h64.4" transform="translate(3735.616 11841.854)" fill="none" stroke="#12263f" stroke-width="2" stroke-dasharray="2"/>
    <path id="Trazado_777539" data-name="Trazado 777539" d="M6.5,0,13,11H0Z" transform="translate(1024.766 1428) rotate(90)" fill="#12263f"/>
    <path id="Trazado_196965-2" data-name="Trazado 196965" d="M-2784.328-10406.5h64.4" transform="translate(3735.616 11737.058)" fill="none" stroke="#12263f" stroke-width="2" stroke-dasharray="2"/>
    <path id="Trazado_777540" data-name="Trazado 777540" d="M6.85,0,13.7,10.959H0Z" transform="translate(1024.343 1323.022) rotate(90)" fill="#12263f"/>
    <path id="Trazado_196965-3" data-name="Trazado 196965" d="M-2784.328-10406.5h64.4" transform="translate(3735.616 11632.26)" fill="none" stroke="#12263f" stroke-width="2" stroke-dasharray="2"/>
    <path id="Trazado_777541" data-name="Trazado 777541" d="M6.5,0,13,11H0Z" transform="translate(1024.766 1217.999) rotate(90)" fill="#12263f"/>
  </g>
</svg>
