<svg xmlns="http://www.w3.org/2000/svg" width="442" height="272" viewBox="0 0 442 272">
  <g id="Grupo_1071905" data-name="Grupo 1071905" transform="translate(4179 8147.552)">
    <g id="Trazado_777558" data-name="Trazado 777558" transform="translate(-4179 -8147.552)" fill="#d2e1f1">
      <path d="M 215.5 42.5 L 1.5 42.5 L 1.5 1.5 L 215.5 1.5 L 215.5 42.5 Z" stroke="none"/>
      <path d="M 3 3 L 3 41 L 214 41 L 214 3 L 3 3 M 0 0 L 217 0 L 217 44 L 0 44 L 0 0 Z" stroke="none" fill="#12263f"/>
    </g>
    <g id="Trazado_777559" data-name="Trazado 777559" transform="translate(-4179 -8106.552)" fill="#fefebd">
      <path d="M 215.5 110.5 L 1.5 110.5 L 1.5 1.5 L 215.5 1.5 L 215.5 110.5 Z" stroke="none"/>
      <path d="M 3 3 L 3 109 L 214 109 L 214 3 L 3 3 M 0 0 L 217 0 L 217 112 L 0 112 L 0 0 Z" stroke="none" fill="#12263f"/>
    </g>
    <g id="Trazado_777560" data-name="Trazado 777560" transform="translate(-4179 -7997.552)" fill="#fdf1d7">
      <path d="M 215.5 26.5 L 1.5 26.5 L 1.5 1.5 L 215.5 1.5 L 215.5 26.5 Z" stroke="none"/>
      <path d="M 3 3 L 3 25 L 214 25 L 214 3 L 3 3 M 0 0 L 217 0 L 217 28 L 0 28 L 0 0 Z" stroke="none" fill="#12263f"/>
    </g>
    <g id="Trazado_777561" data-name="Trazado 777561" transform="translate(-3809 -8103.552)" fill="#fedfb3">
      <path d="M 70.5 132.5 L 1.5 132.5 L 1.5 1.5 L 70.5 1.5 L 70.5 132.5 Z" stroke="none"/>
      <path d="M 3 3 L 3 131 L 69 131 L 69 3 L 3 3 M 0 0 L 72 0 L 72 134 L 0 134 L 0 0 Z" stroke="none" fill="#12263f"/>
    </g>
    <g id="Trazado_777562" data-name="Trazado 777562" transform="translate(-4179 -7972.552)" fill="#cdebb9">
      <path d="M 440.5 48.5 L 1.5 48.5 L 1.5 1.5 L 440.5 1.5 L 440.5 48.5 Z" stroke="none"/>
      <path d="M 3 3 L 3 47 L 439 47 L 439 3 L 3 3 M 0 0 L 442 0 L 442 50 L 0 50 L 0 0 Z" stroke="none" fill="#12263f"/>
    </g>
    <g id="Trazado_777563" data-name="Trazado 777563" transform="translate(-4179 -7925.552)" fill="#caecf2">
      <path d="M 440.5 48.5 L 1.5 48.5 L 1.5 1.5 L 440.5 1.5 L 440.5 48.5 Z" stroke="none"/>
      <path d="M 3 3 L 3 47 L 439 47 L 439 3 L 3 3 M 0 0 L 442 0 L 442 50 L 0 50 L 0 0 Z" stroke="none" fill="#12263f"/>
    </g>
    <path id="Trazado_777564" data-name="Trazado 777564" d="M9.3-2.93H4.16L3.184,0H.068L5.361-14.219H8.076L13.4,0H10.283ZM4.951-5.3H8.506L6.719-10.625Zm18.633.117a6.337,6.337,0,0,1-1.108,3.911A3.554,3.554,0,0,1,19.482.2,3.292,3.292,0,0,1,16.895-.918v4.98H14.072V-10.566h2.617l.1,1.035a3.317,3.317,0,0,1,2.676-1.23A3.578,3.578,0,0,1,22.5-9.316a6.509,6.509,0,0,1,1.084,3.984ZM20.762-5.4a4.182,4.182,0,0,0-.522-2.282,1.7,1.7,0,0,0-1.519-.8,1.847,1.847,0,0,0-1.826,1.019v4.339A1.879,1.879,0,0,0,18.74-2.08Q20.762-2.08,20.762-5.4Zm14.082.215a6.337,6.337,0,0,1-1.108,3.911A3.554,3.554,0,0,1,30.742.2,3.292,3.292,0,0,1,28.154-.918v4.98H25.332V-10.566h2.617l.1,1.035a3.317,3.317,0,0,1,2.676-1.23A3.578,3.578,0,0,1,33.76-9.316a6.509,6.509,0,0,1,1.084,3.984ZM32.021-5.4A4.182,4.182,0,0,0,31.5-7.683a1.7,1.7,0,0,0-1.519-.8,1.847,1.847,0,0,0-1.826,1.019v4.339A1.879,1.879,0,0,0,30-2.08Q32.021-2.08,32.021-5.4ZM42.314-2.92a.909.909,0,0,0-.513-.815,5.824,5.824,0,0,0-1.646-.532q-3.77-.791-3.77-3.2a2.9,2.9,0,0,1,1.167-2.349,4.708,4.708,0,0,1,3.052-.942,5.067,5.067,0,0,1,3.218.947,2.985,2.985,0,0,1,1.206,2.461H42.207a1.366,1.366,0,0,0-.391-1,1.653,1.653,0,0,0-1.221-.4,1.689,1.689,0,0,0-1.1.322,1.017,1.017,0,0,0-.391.82.87.87,0,0,0,.444.757,4.571,4.571,0,0,0,1.5.5,12.244,12.244,0,0,1,1.777.474,2.92,2.92,0,0,1,2.236,2.842A2.756,2.756,0,0,1,43.818-.7a5.35,5.35,0,0,1-3.2.894,5.588,5.588,0,0,1-2.358-.474,3.957,3.957,0,0,1-1.616-1.3,3.018,3.018,0,0,1-.586-1.782H38.73a1.473,1.473,0,0,0,.557,1.152,2.208,2.208,0,0,0,1.387.4A2.044,2.044,0,0,0,41.9-2.114.957.957,0,0,0,42.314-2.92Z" transform="translate(-4149 -8119.552)" fill="#12263f"/>
    <path id="Trazado_777565" data-name="Trazado 777565" d="M11.455,0H8.594L9.648-6.094H4.131L3.066,0H.205L2.676-14.219H5.537L4.531-8.457h5.527l1-5.762h2.861ZM18.32-4.023l3.018-6.543H24.4L18.223,1.592a5.289,5.289,0,0,1-1.558,2.051A3.4,3.4,0,0,1,14.6,4.3a6.294,6.294,0,0,1-1.328-.205l.205-2.148.381.02A2.064,2.064,0,0,0,15.83.977l.605-1.123-1.729-10.42h2.852Zm15.5-1.23A8.727,8.727,0,0,1,32.949-2.3,4.782,4.782,0,0,1,31.3-.391a3.823,3.823,0,0,1-2.187.6A3.05,3.05,0,0,1,26.689-.937l-.967,5H22.969L25.5-10.566l2.539-.01-.186,1.064a3.374,3.374,0,0,1,2.7-1.25,3,3,0,0,1,2.412,1.128,4.9,4.9,0,0,1,.918,2.954A11.416,11.416,0,0,1,33.818-5.254Zm-2.734-.2.059-.939A2.612,2.612,0,0,0,30.8-7.9a1.244,1.244,0,0,0-1.069-.577,2.273,2.273,0,0,0-1.982,1.017L26.953-3.1A1.541,1.541,0,0,0,28.506-2.07a1.987,1.987,0,0,0,1.66-.773A5.292,5.292,0,0,0,31.084-5.454ZM39.707.2a4.6,4.6,0,0,1-2.456-.679,4.115,4.115,0,0,1-1.6-1.836,5.117,5.117,0,0,1-.41-2.573l.029-.391a6.831,6.831,0,0,1,.9-2.832A5.427,5.427,0,0,1,38.105-10.1a4.784,4.784,0,0,1,2.617-.659,3.655,3.655,0,0,1,3.091,1.5,5.146,5.146,0,0,1,.8,3.7l-.156,1.2H37.979a2.267,2.267,0,0,0,.5,1.641,1.9,1.9,0,0,0,1.465.635,3.379,3.379,0,0,0,2.637-1.172l1.26,1.563a3.919,3.919,0,0,1-1.719,1.4A5.621,5.621,0,0,1,39.707.2Zm.879-8.682a1.957,1.957,0,0,0-1.353.479,4.2,4.2,0,0,0-1.06,1.729h3.789l.059-.254a2.588,2.588,0,0,0,.01-.742,1.418,1.418,0,0,0-.479-.884A1.5,1.5,0,0,0,40.586-8.486ZM52.51-7.92a5.686,5.686,0,0,0-.928-.1,2.67,2.67,0,0,0-2.334,1.1L48.027,0H45.273l1.836-10.566,2.588-.01-.254,1.289A2.906,2.906,0,0,1,51.9-10.781a4.017,4.017,0,0,1,.957.137ZM57.07-3.486l3.008-7.08h2.969L57.939,0H55.3L53.5-10.566h2.793ZM65.439,0H62.666L64.5-10.566h2.773Zm-.615-13.252a1.376,1.376,0,0,1,.43-1.084,1.512,1.512,0,0,1,1.084-.43,1.519,1.519,0,0,1,1.084.381A1.37,1.37,0,0,1,67.9-13.35a1.415,1.415,0,0,1-.405,1.055,1.519,1.519,0,0,1-1.108.469,1.544,1.544,0,0,1-1.079-.371A1.363,1.363,0,0,1,64.824-13.252ZM73.9-2.979q.156-.781-1.084-1.133l-.889-.225Q68.77-5.205,68.857-7.4a3.035,3.035,0,0,1,1.323-2.437,4.927,4.927,0,0,1,3.071-.923,4.42,4.42,0,0,1,2.891.947,3.121,3.121,0,0,1,1.123,2.471l-2.734-.01A1.2,1.2,0,0,0,73.184-8.73a1.939,1.939,0,0,0-1.118.322,1.327,1.327,0,0,0-.581.869q-.146.781,1.182,1.1l.391.088a7.856,7.856,0,0,1,2.061.737,3.11,3.11,0,0,1,1.1,1.03,2.55,2.55,0,0,1,.356,1.475,2.814,2.814,0,0,1-.649,1.758,3.975,3.975,0,0,1-1.7,1.162A5.92,5.92,0,0,1,71.953.2a4.461,4.461,0,0,1-2.93-1.011,3.259,3.259,0,0,1-1.191-2.563l2.6.02a1.428,1.428,0,0,0,1.621,1.533,2.306,2.306,0,0,0,1.255-.312A1.234,1.234,0,0,0,73.9-2.979Zm9.99-7.783a4.238,4.238,0,0,1,2.407.718A4.042,4.042,0,0,1,87.778-8.12a5.952,5.952,0,0,1,.337,2.72,6.429,6.429,0,0,1-1.753,4.077A4.95,4.95,0,0,1,82.588.2a4.225,4.225,0,0,1-2.383-.708,4.027,4.027,0,0,1-1.484-1.909,5.821,5.821,0,0,1-.342-2.7,6.619,6.619,0,0,1,1.777-4.16A4.847,4.847,0,0,1,83.887-10.762ZM81.1-4.118a2.438,2.438,0,0,0,.439,1.477,1.46,1.46,0,0,0,1.182.561,2.141,2.141,0,0,0,1.992-1.165,5.808,5.808,0,0,0,.674-3.164,2.652,2.652,0,0,0-.454-1.5,1.436,1.436,0,0,0-1.187-.58,2.143,2.143,0,0,0-1.968,1.155A5.748,5.748,0,0,0,81.1-4.118Zm15.039-3.8a5.686,5.686,0,0,0-.928-.1,2.67,2.67,0,0,0-2.334,1.1L91.66,0H88.906l1.836-10.566,2.588-.01-.254,1.289a2.906,2.906,0,0,1,2.461-1.494,4.017,4.017,0,0,1,.957.137Zm6.1,2.139a14.987,14.987,0,0,1,.6-4.258,11.236,11.236,0,0,1,1.758-3.579,6.564,6.564,0,0,1,2.52-2.163l.547,1.523A6.8,6.8,0,0,0,105.439-11a15.1,15.1,0,0,0-.8,5.156v.3a15.391,15.391,0,0,0,.791,5.176,6.93,6.93,0,0,0,2.236,3.311l-.547,1.494a6.566,6.566,0,0,1-2.476-2.1,11.048,11.048,0,0,1-1.753-3.481,14.9,14.9,0,0,1-.645-4.121Zm10.908-8.437,3.652,10.313,3.633-10.312h3.848V0h-2.939V-3.887l.293-6.709L117.8,0h-2.012l-3.828-10.586.293,6.7V0h-2.93V-14.219Zm17.52,0,3.652,10.313,3.633-10.312h3.848V0h-2.939V-3.887l.293-6.709L135.322,0h-2.012l-3.828-10.586.293,6.7V0h-2.93V-14.219Zm17.52,0,3.652,10.313,3.633-10.312h3.848V0h-2.939V-3.887l.293-6.709L152.842,0H150.83L147-10.586l.293,6.7V0h-2.93V-14.219Zm18.369,8.662a14.221,14.221,0,0,1-.635,4.248,11.531,11.531,0,0,1-1.826,3.6,6.579,6.579,0,0,1-2.549,2.148l-.547-1.494a6.867,6.867,0,0,0,2.188-3.223,14.923,14.923,0,0,0,.83-5.01V-5.8a15.261,15.261,0,0,0-.8-5.146,7.158,7.158,0,0,0-2.222-3.34l.547-1.494a6.581,6.581,0,0,1,2.5,2.09,11.383,11.383,0,0,1,1.826,3.525A14.12,14.12,0,0,1,166.563-6Z" transform="translate(-4042 -7936.552)" fill="#12263f"/>
    <path id="Trazado_777566" data-name="Trazado 777566" d="M1.3-1.387A1.421,1.421,0,0,1,1.753-2.48,1.611,1.611,0,0,1,2.891-2.9a1.624,1.624,0,0,1,1.147.42,1.421,1.421,0,0,1,.454,1.094A1.4,1.4,0,0,1,4.043-.308,1.631,1.631,0,0,1,2.891.107,1.618,1.618,0,0,1,1.748-.308,1.4,1.4,0,0,1,1.3-1.387Zm4.619,0A1.421,1.421,0,0,1,6.372-2.48,1.611,1.611,0,0,1,7.51-2.9a1.624,1.624,0,0,1,1.147.42,1.421,1.421,0,0,1,.454,1.094A1.4,1.4,0,0,1,8.662-.308,1.631,1.631,0,0,1,7.51.107,1.618,1.618,0,0,1,6.367-.308,1.4,1.4,0,0,1,5.918-1.387Zm4.531,0A1.421,1.421,0,0,1,10.9-2.48a1.611,1.611,0,0,1,1.138-.42,1.624,1.624,0,0,1,1.147.42,1.421,1.421,0,0,1,.454,1.094,1.4,1.4,0,0,1-.449,1.079,1.631,1.631,0,0,1-1.152.415A1.618,1.618,0,0,1,10.9-.308,1.4,1.4,0,0,1,10.449-1.387Z" transform="translate(-3887 -8027.552)" fill="#12263f"/>
    <path id="Trazado_777567" data-name="Trazado 777567" d="M11.455,0H8.594L9.648-6.094H4.131L3.066,0H.205L2.676-14.219H5.537L4.531-8.457h5.527l1-5.762h2.861Zm8.5,0a2.851,2.851,0,0,1-.107-.957A3.579,3.579,0,0,1,17.148.2a3.243,3.243,0,0,1-2.3-.9,2.733,2.733,0,0,1-.854-2.183,3.159,3.159,0,0,1,1.45-2.651,6.583,6.583,0,0,1,3.706-.923l1.289.02.137-.635a2.2,2.2,0,0,0,.029-.615,1.058,1.058,0,0,0-.347-.718,1.194,1.194,0,0,0-.786-.269,1.682,1.682,0,0,0-1.094.317,1.538,1.538,0,0,0-.576.972l-2.764.01a3.072,3.072,0,0,1,1.392-2.456,5.389,5.389,0,0,1,3.267-.923A3.9,3.9,0,0,1,22.51-9.692a3.128,3.128,0,0,1,.85,2.651l-.811,5.059-.049.625a3.015,3.015,0,0,0,.166,1.172L22.656,0ZM17.832-1.943a2.522,2.522,0,0,0,2.08-1.035L20.254-4.8l-.957-.01a2.674,2.674,0,0,0-2.2.928,1.615,1.615,0,0,0-.3.791.937.937,0,0,0,.22.835A1.113,1.113,0,0,0,17.832-1.943ZM31.572-7.92a5.686,5.686,0,0,0-.928-.1,2.67,2.67,0,0,0-2.334,1.1L27.09,0H24.336l1.836-10.566,2.588-.01-.254,1.289a2.906,2.906,0,0,1,2.461-1.494,4.017,4.017,0,0,1,.957.137Zm5.186-2.852A3.007,3.007,0,0,1,39.141-9.59L40.176-15h2.764l-2.6,15H37.881l.156-1.133A3.42,3.42,0,0,1,35.283.205a3.042,3.042,0,0,1-1.729-.518,3.259,3.259,0,0,1-1.147-1.46A5.88,5.88,0,0,1,31.963-3.9a8,8,0,0,1,.029-1.191l.059-.439a8.458,8.458,0,0,1,.9-2.852,4.708,4.708,0,0,1,1.641-1.826A3.868,3.868,0,0,1,36.758-10.771Zm-2,5.684a7.909,7.909,0,0,0-.049,1.25q.1,1.719,1.387,1.748a2.357,2.357,0,0,0,2.021-1.094l.752-4.2a1.56,1.56,0,0,0-1.523-1.094,2.007,2.007,0,0,0-1.675.776A5.22,5.22,0,0,0,34.756-5.088ZM52.08-3.848l2.51-6.719h2.744L52.891,0h-2.3L49.8-6.611,46.719,0h-2.3l-.781-10.566h2.578l.166,6.65,3.018-6.65h1.992ZM63.008,0A2.851,2.851,0,0,1,62.9-.957,3.579,3.579,0,0,1,60.205.2a3.243,3.243,0,0,1-2.3-.9,2.733,2.733,0,0,1-.854-2.183A3.159,3.159,0,0,1,58.5-5.542a6.583,6.583,0,0,1,3.706-.923l1.289.02.137-.635a2.2,2.2,0,0,0,.029-.615,1.058,1.058,0,0,0-.347-.718,1.194,1.194,0,0,0-.786-.269,1.682,1.682,0,0,0-1.094.317,1.538,1.538,0,0,0-.576.972l-2.764.01a3.072,3.072,0,0,1,1.392-2.456,5.389,5.389,0,0,1,3.267-.923,3.9,3.9,0,0,1,2.813,1.069,3.128,3.128,0,0,1,.85,2.651l-.811,5.059-.049.625a3.015,3.015,0,0,0,.166,1.172L65.713,0ZM60.889-1.943a2.522,2.522,0,0,0,2.08-1.035L63.311-4.8l-.957-.01a2.674,2.674,0,0,0-2.2.928,1.615,1.615,0,0,0-.3.791.937.937,0,0,0,.22.835A1.113,1.113,0,0,0,60.889-1.943ZM74.629-7.92a5.686,5.686,0,0,0-.928-.1,2.67,2.67,0,0,0-2.334,1.1L70.146,0H67.393l1.836-10.566,2.588-.01-.254,1.289a2.906,2.906,0,0,1,2.461-1.494,4.017,4.017,0,0,1,.957.137ZM79.59.2a4.6,4.6,0,0,1-2.456-.679,4.115,4.115,0,0,1-1.6-1.836,5.117,5.117,0,0,1-.41-2.573l.029-.391a6.831,6.831,0,0,1,.9-2.832A5.427,5.427,0,0,1,77.988-10.1a4.784,4.784,0,0,1,2.617-.659A3.655,3.655,0,0,1,83.7-9.26a5.146,5.146,0,0,1,.8,3.7l-.156,1.2H77.861a2.267,2.267,0,0,0,.5,1.641,1.9,1.9,0,0,0,1.465.635,3.379,3.379,0,0,0,2.637-1.172l1.26,1.563A3.919,3.919,0,0,1,82-.288,5.621,5.621,0,0,1,79.59.2Zm.879-8.682a1.957,1.957,0,0,0-1.353.479,4.2,4.2,0,0,0-1.06,1.729h3.789l.059-.254a2.588,2.588,0,0,0,.01-.742,1.418,1.418,0,0,0-.479-.884A1.5,1.5,0,0,0,80.469-8.486Z" transform="translate(-4001 -7888.552)" fill="#12263f"/>
    <path id="Trazado_777568" data-name="Trazado 777568" d="M9.3-2.93H4.16L3.184,0H.068L5.361-14.219H8.076L13.4,0H10.283ZM4.951-5.3H8.506L6.719-10.625Zm18.633.117a6.337,6.337,0,0,1-1.108,3.911A3.554,3.554,0,0,1,19.482.2,3.292,3.292,0,0,1,16.895-.918v4.98H14.072V-10.566h2.617l.1,1.035a3.317,3.317,0,0,1,2.676-1.23A3.578,3.578,0,0,1,22.5-9.316a6.509,6.509,0,0,1,1.084,3.984ZM20.762-5.4a4.182,4.182,0,0,0-.522-2.282,1.7,1.7,0,0,0-1.519-.8,1.847,1.847,0,0,0-1.826,1.019v4.339A1.879,1.879,0,0,0,18.74-2.08Q20.762-2.08,20.762-5.4Zm14.082.215a6.337,6.337,0,0,1-1.108,3.911A3.554,3.554,0,0,1,30.742.2,3.292,3.292,0,0,1,28.154-.918v4.98H25.332V-10.566h2.617l.1,1.035a3.317,3.317,0,0,1,2.676-1.23A3.578,3.578,0,0,1,33.76-9.316a6.509,6.509,0,0,1,1.084,3.984ZM32.021-5.4A4.182,4.182,0,0,0,31.5-7.683a1.7,1.7,0,0,0-1.519-.8,1.847,1.847,0,0,0-1.826,1.019v4.339A1.879,1.879,0,0,0,30-2.08Q32.021-2.08,32.021-5.4ZM42.314-2.92a.909.909,0,0,0-.513-.815,5.824,5.824,0,0,0-1.646-.532q-3.77-.791-3.77-3.2a2.9,2.9,0,0,1,1.167-2.349,4.708,4.708,0,0,1,3.052-.942,5.067,5.067,0,0,1,3.218.947,2.985,2.985,0,0,1,1.206,2.461H42.207a1.366,1.366,0,0,0-.391-1,1.653,1.653,0,0,0-1.221-.4,1.689,1.689,0,0,0-1.1.322,1.017,1.017,0,0,0-.391.82.87.87,0,0,0,.444.757,4.571,4.571,0,0,0,1.5.5,12.244,12.244,0,0,1,1.777.474,2.92,2.92,0,0,1,2.236,2.842A2.756,2.756,0,0,1,43.818-.7a5.35,5.35,0,0,1-3.2.894,5.588,5.588,0,0,1-2.358-.474,3.957,3.957,0,0,1-1.616-1.3,3.018,3.018,0,0,1-.586-1.782H38.73a1.473,1.473,0,0,0,.557,1.152,2.208,2.208,0,0,0,1.387.4A2.044,2.044,0,0,0,41.9-2.114.957.957,0,0,0,42.314-2.92Z" transform="translate(-4045 -8119.552)" fill="#12263f"/>
    <path id="Trazado_777569" data-name="Trazado 777569" d="M5.1-14.219,8.75-3.906l3.633-10.312H16.23V0H13.291V-3.887l.293-6.709L9.746,0H7.734L3.906-10.586l.293,6.7V0H1.27V-14.219Zm13.1,8.857a6.193,6.193,0,0,1,1.157-3.916,3.75,3.75,0,0,1,3.12-1.484A3.289,3.289,0,0,1,25.176-9.57l.117-1h2.559V-.352a4.516,4.516,0,0,1-.63,2.412,4.045,4.045,0,0,1-1.772,1.563,6.231,6.231,0,0,1-2.676.537A5.794,5.794,0,0,1,20.508,3.7a4.021,4.021,0,0,1-1.67-1.2L20.088.781a3.306,3.306,0,0,0,2.559,1.182,2.42,2.42,0,0,0,1.748-.6,2.253,2.253,0,0,0,.625-1.7V-.908A3.264,3.264,0,0,1,22.451.2,3.74,3.74,0,0,1,19.37-1.294a6.191,6.191,0,0,1-1.177-3.95Zm2.822.2A3.877,3.877,0,0,0,21.592-2.9a1.831,1.831,0,0,0,1.582.819,1.958,1.958,0,0,0,1.846-.971V-7.515a1.954,1.954,0,0,0-1.826-.971,1.843,1.843,0,0,0-1.6.834A4.37,4.37,0,0,0,21.016-5.161Zm11.65-5.406.088,1.182a3.713,3.713,0,0,1,3.037-1.377,2.818,2.818,0,0,1,2.8,1.611,3.628,3.628,0,0,1,3.174-1.611,3.152,3.152,0,0,1,2.559,1,4.6,4.6,0,0,1,.84,3.013V0H42.334V-6.754a2.02,2.02,0,0,0-.352-1.316,1.556,1.556,0,0,0-1.24-.416,1.762,1.762,0,0,0-1.758,1.214L38.994,0H36.172V-6.744a2,2,0,0,0-.361-1.331,1.571,1.571,0,0,0-1.23-.411,1.828,1.828,0,0,0-1.738,1V0H30.02V-10.566Zm18.047-2.6v2.6H52.52V-8.5H50.713v5.273a1.259,1.259,0,0,0,.225.84,1.128,1.128,0,0,0,.859.254,4.5,4.5,0,0,0,.83-.068V-.059A5.81,5.81,0,0,1,50.918.2q-2.969,0-3.027-3V-8.5H46.348v-2.07h1.543v-2.6Z" transform="translate(-3799 -8024.552)" fill="#12263f"/>
    <path id="Trazado_777570" data-name="Trazado 777570" d="M-32.622-14.219l1.748,10.283,5.3-10.283h3.809L-24.233,0H-27.1l.7-4.053,1.387-6.328L-30.464,0h-1.963l-1.9-10.742-.918,7L-35.9,0h-2.861l2.471-14.219Zm16.816,3.457a4.238,4.238,0,0,1,2.407.718A4.042,4.042,0,0,1-11.914-8.12a5.952,5.952,0,0,1,.337,2.72A6.429,6.429,0,0,1-13.33-1.323,4.95,4.95,0,0,1-17.1.2a4.225,4.225,0,0,1-2.383-.708,4.027,4.027,0,0,1-1.484-1.909,5.821,5.821,0,0,1-.342-2.7,6.619,6.619,0,0,1,1.777-4.16A4.847,4.847,0,0,1-15.806-10.762Zm-2.783,6.644a2.438,2.438,0,0,0,.439,1.477,1.46,1.46,0,0,0,1.182.561,2.141,2.141,0,0,0,1.992-1.165A5.808,5.808,0,0,0-14.3-6.409a2.652,2.652,0,0,0-.454-1.5,1.436,1.436,0,0,0-1.187-.58A2.143,2.143,0,0,0-17.91-7.331,5.748,5.748,0,0,0-18.589-4.118Zm13.047-6.653A3.007,3.007,0,0,1-3.159-9.59L-2.124-15H.64l-2.6,15H-4.419l.156-1.133A3.42,3.42,0,0,1-7.017.205,3.042,3.042,0,0,1-8.745-.312a3.259,3.259,0,0,1-1.147-1.46A5.88,5.88,0,0,1-10.337-3.9a8,8,0,0,1,.029-1.191l.059-.439a8.458,8.458,0,0,1,.9-2.852,4.708,4.708,0,0,1,1.641-1.826A3.868,3.868,0,0,1-5.542-10.771Zm-2,5.684a7.909,7.909,0,0,0-.049,1.25q.1,1.719,1.387,1.748A2.357,2.357,0,0,0-4.185-3.184l.752-4.2A1.56,1.56,0,0,0-4.956-8.477,2.007,2.007,0,0,0-6.631-7.7,5.22,5.22,0,0,0-7.544-5.088ZM3.149,0H.376L2.212-10.566H4.985ZM2.534-13.252a1.376,1.376,0,0,1,.43-1.084,1.512,1.512,0,0,1,1.084-.43,1.519,1.519,0,0,1,1.084.381A1.37,1.37,0,0,1,5.61-13.35a1.415,1.415,0,0,1-.405,1.055,1.519,1.519,0,0,1-1.108.469A1.544,1.544,0,0,1,3.018-12.2,1.363,1.363,0,0,1,2.534-13.252ZM6.147,0,7.622-8.5H6.089l.371-2.07H7.886l.088-.508a4.966,4.966,0,0,1,1.689-3.081,5.12,5.12,0,0,1,3.408-1.069,8.294,8.294,0,0,1,1.587.19q.776.171,1.548.386l-.6,2.354a8.047,8.047,0,0,0-2.49-.488,2.6,2.6,0,0,0-1.592.464,2.131,2.131,0,0,0-.811,1.3l-.088.449h2.139L12.4-8.5H10.386L8.911,0Zm8.9,0H12.271l1.836-10.566H16.87Zm7.363.2a4.6,4.6,0,0,1-2.456-.679,4.115,4.115,0,0,1-1.6-1.836,5.117,5.117,0,0,1-.41-2.573l.029-.391a6.831,6.831,0,0,1,.9-2.832A5.427,5.427,0,0,1,20.806-10.1a4.784,4.784,0,0,1,2.617-.659,3.655,3.655,0,0,1,3.091,1.5,5.146,5.146,0,0,1,.8,3.7l-.156,1.2H20.679a2.267,2.267,0,0,0,.5,1.641,1.9,1.9,0,0,0,1.465.635,3.379,3.379,0,0,0,2.637-1.172l1.26,1.563a3.919,3.919,0,0,1-1.719,1.4A5.621,5.621,0,0,1,22.407.2Zm.879-8.682a1.957,1.957,0,0,0-1.353.479,4.2,4.2,0,0,0-1.06,1.729h3.789l.059-.254a2.588,2.588,0,0,0,.01-.742,1.418,1.418,0,0,0-.479-.884A1.5,1.5,0,0,0,23.286-8.486Zm9.932-2.285A3.007,3.007,0,0,1,35.6-9.59L36.636-15H39.4L36.8,0H34.341L34.5-1.133A3.42,3.42,0,0,1,31.743.205a3.042,3.042,0,0,1-1.729-.518,3.259,3.259,0,0,1-1.147-1.46A5.88,5.88,0,0,1,28.423-3.9a8,8,0,0,1,.029-1.191l.059-.439a8.458,8.458,0,0,1,.9-2.852,4.708,4.708,0,0,1,1.641-1.826A3.868,3.868,0,0,1,33.218-10.771Zm-2,5.684a7.909,7.909,0,0,0-.049,1.25q.1,1.719,1.387,1.748a2.357,2.357,0,0,0,2.021-1.094l.752-4.2A1.56,1.56,0,0,0,33.8-8.477a2.007,2.007,0,0,0-1.675.776A5.22,5.22,0,0,0,31.216-5.088ZM-29.409,20.2a4.8,4.8,0,0,1-2.231,1.489,9.4,9.4,0,0,1-3.315.493,5.143,5.143,0,0,1-2.559-.64,4.465,4.465,0,0,1-1.738-1.812,6.409,6.409,0,0,1-.723-2.7,12.3,12.3,0,0,1,.3-3.306A9.3,9.3,0,0,1-38.32,10.4a6.345,6.345,0,0,1,2.31-2.139,6.085,6.085,0,0,1,2.988-.679,4.943,4.943,0,0,1,3.486,1.255A5.206,5.206,0,0,1-28.1,12.322l-2.754-.01a2.913,2.913,0,0,0-.635-1.758,2.163,2.163,0,0,0-1.572-.605,3.084,3.084,0,0,0-2.847,1.587,9.875,9.875,0,0,0-1.187,4.771,4.194,4.194,0,0,0,.513,2.588,2.124,2.124,0,0,0,1.86.938,3.964,3.964,0,0,0,2.48-.693l.479-2.451h-2.6l.381-2.158h5.43Zm8.281.7a3.648,3.648,0,0,1-2.91,1.289,2.715,2.715,0,0,1-2.3-1.094,4,4,0,0,1-.605-2.832l1.143-6.836h2.754l-1.162,6.873a2.718,2.718,0,0,0-.01.606A1,1,0,0,0-23.14,19.92a2.517,2.517,0,0,0,2.119-.987l1.318-7.5h2.773L-18.765,22h-2.568Zm9.434,1.289a4.6,4.6,0,0,1-2.456-.679,4.115,4.115,0,0,1-1.6-1.836,5.117,5.117,0,0,1-.41-2.573l.029-.391a6.831,6.831,0,0,1,.9-2.832A5.427,5.427,0,0,1-13.3,11.9a4.784,4.784,0,0,1,2.617-.659,3.655,3.655,0,0,1,3.091,1.5,5.146,5.146,0,0,1,.8,3.7l-.156,1.2h-6.475a2.267,2.267,0,0,0,.5,1.641,1.9,1.9,0,0,0,1.465.635,3.379,3.379,0,0,0,2.637-1.172l1.26,1.563a3.919,3.919,0,0,1-1.719,1.4A5.621,5.621,0,0,1-11.694,22.2Zm.879-8.682a1.957,1.957,0,0,0-1.353.479,4.2,4.2,0,0,0-1.06,1.729h3.789l.059-.254a2.588,2.588,0,0,0,.01-.742,1.418,1.418,0,0,0-.479-.884A1.5,1.5,0,0,0-10.815,13.514ZM0,19.021q.156-.781-1.084-1.133l-.889-.225q-3.154-.869-3.066-3.066a3.035,3.035,0,0,1,1.323-2.437,4.927,4.927,0,0,1,3.071-.923,4.42,4.42,0,0,1,2.891.947,3.121,3.121,0,0,1,1.123,2.471L.63,14.646A1.2,1.2,0,0,0-.718,13.27a1.939,1.939,0,0,0-1.118.322,1.327,1.327,0,0,0-.581.869q-.146.781,1.182,1.1l.391.088a7.856,7.856,0,0,1,2.061.737,3.11,3.11,0,0,1,1.1,1.03,2.55,2.55,0,0,1,.356,1.475,2.814,2.814,0,0,1-.649,1.758,3.975,3.975,0,0,1-1.7,1.162,5.92,5.92,0,0,1-2.271.381,4.461,4.461,0,0,1-2.93-1.011,3.259,3.259,0,0,1-1.191-2.563l2.6.02a1.428,1.428,0,0,0,1.621,1.533A2.306,2.306,0,0,0-.6,19.861,1.234,1.234,0,0,0,0,19.021ZM9.526,8.836l-.459,2.6h1.758l-.361,2.07H8.706l-.9,5.293a1.346,1.346,0,0,0,.078.762q.137.264.664.283.156.01.84-.049l-.2,2.158a4.632,4.632,0,0,1-1.582.225,2.482,2.482,0,0,1-2.021-.85,3.07,3.07,0,0,1-.547-2.246L5.952,13.5H4.458l.361-2.07H6.313l.449-2.6ZM21.411,22.2a5.01,5.01,0,0,1-2.5-.669,4.515,4.515,0,0,1-1.709-1.846,6.835,6.835,0,0,1-.728-2.769,11.129,11.129,0,0,1,.342-3.418A9.121,9.121,0,0,1,18.267,10.3,6.57,6.57,0,0,1,20.605,8.24a6.055,6.055,0,0,1,2.905-.654,4.958,4.958,0,0,1,2.51.679A4.484,4.484,0,0,1,27.71,10.13a6.915,6.915,0,0,1,.7,2.759,11.485,11.485,0,0,1-.371,3.535,8.971,8.971,0,0,1-1.455,3.145,6.519,6.519,0,0,1-2.31,1.992A6.038,6.038,0,0,1,21.411,22.2Zm4.053-7.7.078-.928a4.532,4.532,0,0,0-.464-2.637,1.959,1.959,0,0,0-1.7-.937,3.091,3.091,0,0,0-2.837,1.582,9.319,9.319,0,0,0-1.187,4.59,4.7,4.7,0,0,0,.459,2.661,1.954,1.954,0,0,0,1.729.972,2.932,2.932,0,0,0,2.539-1.2A7.238,7.238,0,0,0,25.4,15.027Zm11.553,3.7q.205-1.162-1.143-1.777l-1.885-.752q-3.281-1.465-3.115-4.033a3.7,3.7,0,0,1,.781-2.109,4.7,4.7,0,0,1,2-1.44,7.088,7.088,0,0,1,2.783-.5,4.822,4.822,0,0,1,3.33,1.226,4.084,4.084,0,0,1,1.25,3.179H38.169a2.035,2.035,0,0,0-.425-1.5,1.914,1.914,0,0,0-1.47-.557,2.963,2.963,0,0,0-1.7.444,1.823,1.823,0,0,0-.859,1.274q-.186,1.064,1.426,1.689l1.289.488.742.342q2.881,1.426,2.7,4a3.863,3.863,0,0,1-.806,2.173,4.542,4.542,0,0,1-1.953,1.4,6.957,6.957,0,0,1-2.72.459,6.092,6.092,0,0,1-2.7-.635,4.186,4.186,0,0,1-1.8-1.709,4.425,4.425,0,0,1-.537-2.344l2.861.01q-.137,2.314,2.275,2.354a2.989,2.989,0,0,0,1.719-.459A1.787,1.787,0,0,0,37.017,18.2Z" transform="translate(-4021 -8054.552)" fill="#12263f"/>
    <path id="Trazado_777571" data-name="Trazado 777571" d="M-32.622-14.219l1.748,10.283,5.3-10.283h3.809L-24.233,0H-27.1l.7-4.053,1.387-6.328L-30.464,0h-1.963l-1.9-10.742-.918,7L-35.9,0h-2.861l2.471-14.219Zm16.816,3.457a4.238,4.238,0,0,1,2.407.718A4.042,4.042,0,0,1-11.914-8.12a5.952,5.952,0,0,1,.337,2.72A6.429,6.429,0,0,1-13.33-1.323,4.95,4.95,0,0,1-17.1.2a4.225,4.225,0,0,1-2.383-.708,4.027,4.027,0,0,1-1.484-1.909,5.821,5.821,0,0,1-.342-2.7,6.619,6.619,0,0,1,1.777-4.16A4.847,4.847,0,0,1-15.806-10.762Zm-2.783,6.644a2.438,2.438,0,0,0,.439,1.477,1.46,1.46,0,0,0,1.182.561,2.141,2.141,0,0,0,1.992-1.165A5.808,5.808,0,0,0-14.3-6.409a2.652,2.652,0,0,0-.454-1.5,1.436,1.436,0,0,0-1.187-.58A2.143,2.143,0,0,0-17.91-7.331,5.748,5.748,0,0,0-18.589-4.118Zm13.047-6.653A3.007,3.007,0,0,1-3.159-9.59L-2.124-15H.64l-2.6,15H-4.419l.156-1.133A3.42,3.42,0,0,1-7.017.205,3.042,3.042,0,0,1-8.745-.312a3.259,3.259,0,0,1-1.147-1.46A5.88,5.88,0,0,1-10.337-3.9a8,8,0,0,1,.029-1.191l.059-.439a8.458,8.458,0,0,1,.9-2.852,4.708,4.708,0,0,1,1.641-1.826A3.868,3.868,0,0,1-5.542-10.771Zm-2,5.684a7.909,7.909,0,0,0-.049,1.25q.1,1.719,1.387,1.748A2.357,2.357,0,0,0-4.185-3.184l.752-4.2A1.56,1.56,0,0,0-4.956-8.477,2.007,2.007,0,0,0-6.631-7.7,5.22,5.22,0,0,0-7.544-5.088ZM3.149,0H.376L2.212-10.566H4.985ZM2.534-13.252a1.376,1.376,0,0,1,.43-1.084,1.512,1.512,0,0,1,1.084-.43,1.519,1.519,0,0,1,1.084.381A1.37,1.37,0,0,1,5.61-13.35a1.415,1.415,0,0,1-.405,1.055,1.519,1.519,0,0,1-1.108.469A1.544,1.544,0,0,1,3.018-12.2,1.363,1.363,0,0,1,2.534-13.252ZM6.147,0,7.622-8.5H6.089l.371-2.07H7.886l.088-.508a4.966,4.966,0,0,1,1.689-3.081,5.12,5.12,0,0,1,3.408-1.069,8.294,8.294,0,0,1,1.587.19q.776.171,1.548.386l-.6,2.354a8.047,8.047,0,0,0-2.49-.488,2.6,2.6,0,0,0-1.592.464,2.131,2.131,0,0,0-.811,1.3l-.088.449h2.139L12.4-8.5H10.386L8.911,0Zm8.9,0H12.271l1.836-10.566H16.87Zm7.363.2a4.6,4.6,0,0,1-2.456-.679,4.115,4.115,0,0,1-1.6-1.836,5.117,5.117,0,0,1-.41-2.573l.029-.391a6.831,6.831,0,0,1,.9-2.832A5.427,5.427,0,0,1,20.806-10.1a4.784,4.784,0,0,1,2.617-.659,3.655,3.655,0,0,1,3.091,1.5,5.146,5.146,0,0,1,.8,3.7l-.156,1.2H20.679a2.267,2.267,0,0,0,.5,1.641,1.9,1.9,0,0,0,1.465.635,3.379,3.379,0,0,0,2.637-1.172l1.26,1.563a3.919,3.919,0,0,1-1.719,1.4A5.621,5.621,0,0,1,22.407.2Zm.879-8.682a1.957,1.957,0,0,0-1.353.479,4.2,4.2,0,0,0-1.06,1.729h3.789l.059-.254a2.588,2.588,0,0,0,.01-.742,1.418,1.418,0,0,0-.479-.884A1.5,1.5,0,0,0,23.286-8.486Zm9.932-2.285A3.007,3.007,0,0,1,35.6-9.59L36.636-15H39.4L36.8,0H34.341L34.5-1.133A3.42,3.42,0,0,1,31.743.205a3.042,3.042,0,0,1-1.729-.518,3.259,3.259,0,0,1-1.147-1.46A5.88,5.88,0,0,1,28.423-3.9a8,8,0,0,1,.029-1.191l.059-.439a8.458,8.458,0,0,1,.9-2.852,4.708,4.708,0,0,1,1.641-1.826A3.868,3.868,0,0,1,33.218-10.771Zm-2,5.684a7.909,7.909,0,0,0-.049,1.25q.1,1.719,1.387,1.748a2.357,2.357,0,0,0,2.021-1.094l.752-4.2A1.56,1.56,0,0,0,33.8-8.477a2.007,2.007,0,0,0-1.675.776A5.22,5.22,0,0,0,31.216-5.088ZM-29.409,20.2a4.8,4.8,0,0,1-2.231,1.489,9.4,9.4,0,0,1-3.315.493,5.143,5.143,0,0,1-2.559-.64,4.465,4.465,0,0,1-1.738-1.812,6.409,6.409,0,0,1-.723-2.7,12.3,12.3,0,0,1,.3-3.306A9.3,9.3,0,0,1-38.32,10.4a6.345,6.345,0,0,1,2.31-2.139,6.085,6.085,0,0,1,2.988-.679,4.943,4.943,0,0,1,3.486,1.255A5.206,5.206,0,0,1-28.1,12.322l-2.754-.01a2.913,2.913,0,0,0-.635-1.758,2.163,2.163,0,0,0-1.572-.605,3.084,3.084,0,0,0-2.847,1.587,9.875,9.875,0,0,0-1.187,4.771,4.194,4.194,0,0,0,.513,2.588,2.124,2.124,0,0,0,1.86.938,3.964,3.964,0,0,0,2.48-.693l.479-2.451h-2.6l.381-2.158h5.43Zm8.281.7a3.648,3.648,0,0,1-2.91,1.289,2.715,2.715,0,0,1-2.3-1.094,4,4,0,0,1-.605-2.832l1.143-6.836h2.754l-1.162,6.873a2.718,2.718,0,0,0-.01.606A1,1,0,0,0-23.14,19.92a2.517,2.517,0,0,0,2.119-.987l1.318-7.5h2.773L-18.765,22h-2.568Zm9.434,1.289a4.6,4.6,0,0,1-2.456-.679,4.115,4.115,0,0,1-1.6-1.836,5.117,5.117,0,0,1-.41-2.573l.029-.391a6.831,6.831,0,0,1,.9-2.832A5.427,5.427,0,0,1-13.3,11.9a4.784,4.784,0,0,1,2.617-.659,3.655,3.655,0,0,1,3.091,1.5,5.146,5.146,0,0,1,.8,3.7l-.156,1.2h-6.475a2.267,2.267,0,0,0,.5,1.641,1.9,1.9,0,0,0,1.465.635,3.379,3.379,0,0,0,2.637-1.172l1.26,1.563a3.919,3.919,0,0,1-1.719,1.4A5.621,5.621,0,0,1-11.694,22.2Zm.879-8.682a1.957,1.957,0,0,0-1.353.479,4.2,4.2,0,0,0-1.06,1.729h3.789l.059-.254a2.588,2.588,0,0,0,.01-.742,1.418,1.418,0,0,0-.479-.884A1.5,1.5,0,0,0-10.815,13.514ZM0,19.021q.156-.781-1.084-1.133l-.889-.225q-3.154-.869-3.066-3.066a3.035,3.035,0,0,1,1.323-2.437,4.927,4.927,0,0,1,3.071-.923,4.42,4.42,0,0,1,2.891.947,3.121,3.121,0,0,1,1.123,2.471L.63,14.646A1.2,1.2,0,0,0-.718,13.27a1.939,1.939,0,0,0-1.118.322,1.327,1.327,0,0,0-.581.869q-.146.781,1.182,1.1l.391.088a7.856,7.856,0,0,1,2.061.737,3.11,3.11,0,0,1,1.1,1.03,2.55,2.55,0,0,1,.356,1.475,2.814,2.814,0,0,1-.649,1.758,3.975,3.975,0,0,1-1.7,1.162,5.92,5.92,0,0,1-2.271.381,4.461,4.461,0,0,1-2.93-1.011,3.259,3.259,0,0,1-1.191-2.563l2.6.02a1.428,1.428,0,0,0,1.621,1.533A2.306,2.306,0,0,0-.6,19.861,1.234,1.234,0,0,0,0,19.021ZM9.526,8.836l-.459,2.6h1.758l-.361,2.07H8.706l-.9,5.293a1.346,1.346,0,0,0,.078.762q.137.264.664.283.156.01.84-.049l-.2,2.158a4.632,4.632,0,0,1-1.582.225,2.482,2.482,0,0,1-2.021-.85,3.07,3.07,0,0,1-.547-2.246L5.952,13.5H4.458l.361-2.07H6.313l.449-2.6ZM21.411,22.2a5.01,5.01,0,0,1-2.5-.669,4.515,4.515,0,0,1-1.709-1.846,6.835,6.835,0,0,1-.728-2.769,11.129,11.129,0,0,1,.342-3.418A9.121,9.121,0,0,1,18.267,10.3,6.57,6.57,0,0,1,20.605,8.24a6.055,6.055,0,0,1,2.905-.654,4.958,4.958,0,0,1,2.51.679A4.484,4.484,0,0,1,27.71,10.13a6.915,6.915,0,0,1,.7,2.759,11.485,11.485,0,0,1-.371,3.535,8.971,8.971,0,0,1-1.455,3.145,6.519,6.519,0,0,1-2.31,1.992A6.038,6.038,0,0,1,21.411,22.2Zm4.053-7.7.078-.928a4.532,4.532,0,0,0-.464-2.637,1.959,1.959,0,0,0-1.7-.937,3.091,3.091,0,0,0-2.837,1.582,9.319,9.319,0,0,0-1.187,4.59,4.7,4.7,0,0,0,.459,2.661,1.954,1.954,0,0,0,1.729.972,2.932,2.932,0,0,0,2.539-1.2A7.238,7.238,0,0,0,25.4,15.027Zm11.553,3.7q.205-1.162-1.143-1.777l-1.885-.752q-3.281-1.465-3.115-4.033a3.7,3.7,0,0,1,.781-2.109,4.7,4.7,0,0,1,2-1.44,7.088,7.088,0,0,1,2.783-.5,4.822,4.822,0,0,1,3.33,1.226,4.084,4.084,0,0,1,1.25,3.179H38.169a2.035,2.035,0,0,0-.425-1.5,1.914,1.914,0,0,0-1.47-.557,2.963,2.963,0,0,0-1.7.444,1.823,1.823,0,0,0-.859,1.274q-.186,1.064,1.426,1.689l1.289.488.742.342q2.881,1.426,2.7,4a3.863,3.863,0,0,1-.806,2.173,4.542,4.542,0,0,1-1.953,1.4,6.957,6.957,0,0,1-2.72.459,6.092,6.092,0,0,1-2.7-.635,4.186,4.186,0,0,1-1.8-1.709,4.425,4.425,0,0,1-.537-2.344l2.861.01q-.137,2.314,2.275,2.354a2.989,2.989,0,0,0,1.719-.459A1.787,1.787,0,0,0,37.017,18.2Z" transform="translate(-4126 -8054.552)" fill="#12263f"/>
    <path id="Trazado_196996" data-name="Trazado 196996" d="M-3164.5-7429v175" transform="translate(-906 -718.552)" fill="none" stroke="#12263f" stroke-width="3"/>
  </g>
</svg>
