<svg xmlns="http://www.w3.org/2000/svg" width="105.35" height="104.987" viewBox="0 0 105.35 104.987">
  <g id="R2USI0" transform="translate(-5222.419 -4008.511)">
    <g id="Grupo_155275" data-name="Grupo 155275" transform="translate(5222.419 4008.511)">
      <path id="Trazado_197107" data-name="Trazado 197107" d="M5275.357,4060.916c-4.48,0-9.2.04-13.912-.01-6.989-.072-11.461-5.053-10.66-11.983.2-1.727-.447-1.958-1.9-1.958-5.644,0-11.3.111-16.926-.21-5.843-.333-9.625-4.775-9.538-10.611a10.188,10.188,0,0,1,9.9-10.118c1.97-.065,2.547-.561,2.989-2.545a19.171,19.171,0,0,1,31.249-10.313,2.046,2.046,0,0,0,2.769.27,12.018,12.018,0,0,1,17.434,7.6,3.781,3.781,0,0,0,2.8,3.012,12.456,12.456,0,0,1,4.912,3.022c1.075,1.047,1.842.885,3.053.274a11.993,11.993,0,0,1,17.61,10.63c.035,1.675.447,2.1,2.1,2.128,6.262.1,10.554,4.443,10.528,10.465-.025,5.938-4.508,10.277-10.734,10.341-3.7.038-7.4.007-11.146.007,1.148,2.979.48,5.928.584,8.827.026.75-.546,1.182-1.123,1.569-.364.244-.9.178-.9.964.006,3.613-4.114,7.792-7.47,7.553-.742-.053-.873.266-1.026.722-.169.506-.414,1.1-.908,1.117-3.193.114-2.461,2.437-2.471,4.309-.023,4.8.019,9.607-.023,14.411-.014,1.428-.107,2.7,1.9,2.77.813.027,1.259.744,1.359,1.595.63,5.33-2.4,8.746-7.771,8.746q-28.819,0-57.642,0c-5.307,0-8.446-3.689-7.566-8.87.127-.738.475-1.415,1.21-1.417,2.365-.012,2-1.63,2-3.111q-.015-14.538,0-29.074c.006-4.6,2-6.589,6.63-6.592,12.641-.007,25.281.013,37.922-.016C5272.92,4064.41,5276.067,4065.508,5275.357,4060.916Zm-22.466,7.06c-6.743,0-13.489.066-20.23-.038-2.276-.036-3.155.707-3.135,3.049q.13,14.793-.007,29.588c-.018,1.875.462,2.438,2.378,2.4,6.826-.118,13.656-.046,20.484-.046,1.258,0,2.443-.079,3.346,1.224.687.989,6.386,1.1,7.061.11.953-1.4,2.209-1.334,3.557-1.334q10.37,0,20.736,0c1.1,0,2.175.2,2.15-1.57-.077-5.985-.031-11.97-.027-17.955,0-.717-.03-1.419-1-1.392-2.217.063-3.252-3.141-5.819-2.095-.037.015-.132-.092-.189-.151-1.667-1.67-3.921-3.081-4.813-5.094-.738-1.665-1.521-3.386-2.14-5.1-.493-1.364-.891-1.63-2.124-1.623C5266.38,4067.994,5259.636,4067.976,5252.892,4067.976Zm58.677-10.565v-.008c2.105,0,4.216.1,6.315-.021a6.919,6.919,0,0,0,.322-13.754c-1.251-.132-2.521-.089-3.784-.115-2.985-.059-3.369-.521-2.853-3.453a8.582,8.582,0,0,0-3.773-9.169,8.262,8.262,0,0,0-10.083.5c-1.541,1.219-2.559,1.33-4.019-.214-4.564-4.825-10.183-6.513-16.535-4.375-6.522,2.2-10.194,6.92-10.751,13.833-.175,2.158-1.093,3.043-3.191,2.862a16.138,16.138,0,0,0-2.021-.023,6.835,6.835,0,0,0-6.886,7.148,6.665,6.665,0,0,0,6.94,6.77c4.885.057,9.771.007,14.656.025a2.785,2.785,0,0,0,2.269-.815,28.808,28.808,0,0,1,3.973-3.868c1.328-.95,3.1-.477,4.709-1.842,1.656-1.408,4.7-.426,7.13-.4a2.2,2.2,0,0,1,2.149,1.782c.173.5.64.381,1.056.178a2.259,2.259,0,0,1,3.058.979c2.479,3.6,5.921,4.625,10.058,3.989A8.426,8.426,0,0,1,5311.568,4057.411Zm-28.166-35.054c-1.38-6.439-8.357-8.974-13.775-4.963-1.619,1.2-2.6,1.184-4.036-.307-4.679-4.876-10.375-6.486-16.8-4.187s-9.844,7.147-10.486,13.849c-.2,2.091-1,2.862-2.978,2.753a25.87,25.87,0,0,0-3.033.024,6.666,6.666,0,0,0-6.319,5.819c-.675,4.64,2.514,8.138,7.612,8.2,5.729.066,11.461-.022,17.19.038a5.3,5.3,0,0,0,3.874-1.327,8.122,8.122,0,0,1,6.037-2.147c1.753.144,2.231-.568,2.546-2.155a18.8,18.8,0,0,1,5.471-10.021C5272.812,4023.917,5277.849,4022.491,5283.4,4022.357Zm19.566,43.86c.279-1.4-.02-2.351-1.7-2.671a1.716,1.716,0,0,1-1.134-2.9c1.147-1.539.2-2.2-.688-3.124-.873-.9-1.609-1.6-2.97-.658-1.634,1.125-2.831.366-3.1-1.4-.268-1.75-1.368-1.592-2.566-1.6s-2.308-.129-2.576,1.6c-.281,1.8-1.481,2.508-3.1,1.4-1.371-.943-2.129-.257-2.956.678-.734.827-1.9,1.366-.8,2.878,1.037,1.434.629,2.875-1.247,3.228-1.708.321-1.5,1.413-1.531,2.587-.028,1.23-.061,2.33,1.563,2.606,1.851.315,2.228,1.712,1.328,2.988-1.086,1.54-.206,2.192.688,3.126s1.647,1.531,2.986.6c1.643-1.138,2.64-.338,3.122,1.407.249.9.168,2.428,1.582,2.016,1.218-.354,3.152.333,3.5-1.969.295-1.969,1.585-2.546,3.285-1.353,1.285.9,1.983.142,2.762-.69s1.87-1.406.856-2.9c-.949-1.4-.86-2.8,1.179-3.213C5303,4068.537,5303.181,4067.525,5302.969,4066.217Zm-43.891,43.739q14.65,0,29.3,0a7.711,7.711,0,0,0,2.009-.1c1.324-.365,1.473-1.522,1.4-2.642-.081-1.246-1.139-.744-1.767-.747-7.324-.037-14.648-.021-21.974-.028a2.417,2.417,0,0,0-2.15.909c-1.126,1.34-11.778,1.382-13.129.232a.5.5,0,0,1-.162-.19c-.412-1.2-1.424-.942-2.313-.944-7.24,0-14.48-.02-21.721.026-.667,0-1.949-.6-1.851.844.075,1.1.158,2.48,1.8,2.607.671.052,1.347.034,2.02.034Q5244.808,4109.957,5259.078,4109.955Z" transform="translate(-5222.419 -4008.511)" fill="#12263f"/>
      <path id="Trazado_197108" data-name="Trazado 197108" d="M5386.208,4140.566c-.633,4.86-3.868,7.966-8.676,8.1-4.121.111-8.249-.035-12.371.06-1.441.033-1.646-.57-1.62-1.785.024-1.132.045-1.886,1.561-1.846,3.786.1,7.574.038,11.361.031,4.6-.01,6.348-1.755,6.365-6.423.018-5.806,0-11.614.006-17.421,0-2.8.5-3.075,3.374-1.917-.588.529-.431,1.238-.432,1.893q-.013,8.708,0,17.418C5385.777,4139.33,5385.625,4140.036,5386.208,4140.566Z" transform="translate(-5292.107 -4062.934)" fill="#12263f"/>
      <path id="Trazado_197109" data-name="Trazado 197109" d="M5407.885,4141.192c-.584-.531-.432-1.237-.432-1.894q-.012-8.708,0-17.418c0-.656-.156-1.363.432-1.893Z" transform="translate(-5313.784 -4063.56)" fill="#12263f"/>
      <path id="Trazado_197110" data-name="Trazado 197110" d="M5279.8,4160.463c-1.174.154-1.968-.021-1.931-1.517.032-1.256.128-2.059,1.743-2,1.31.046,1.792.423,1.738,1.745C5281.308,4159.8,5281.337,4160.779,5279.8,4160.463Z" transform="translate(-5249.803 -4081.808)" fill="#12263f"/>
      <path id="Trazado_197111" data-name="Trazado 197111" d="M5293.412,4157c1.538-.316,1.754.524,1.789,1.848.037,1.362-.45,1.67-1.729,1.69-1.443.021-1.881-.466-1.857-1.883C5291.638,4157.331,5292.076,4156.777,5293.412,4157Z" transform="translate(-5256.589 -4081.806)" fill="#12263f"/>
      <path id="Trazado_197112" data-name="Trazado 197112" d="M5305.668,4159.053c-.375-1.916.526-2.106,1.815-2.094,1.11.01,1.613.234,1.667,1.507.1,2.256-1.817,1.621-2.8,1.887C5305.2,4160.665,5305.82,4159.312,5305.668,4159.053Z" transform="translate(-5263.487 -4081.818)" fill="#12263f"/>
      <path id="Trazado_197113" data-name="Trazado 197113" d="M5350.536,4122.683a6.7,6.7,0,0,1-7.01-6.7c0-3.644,2.007-6.964,7.77-7.03,3.212-.038,6.031,3.239,6.034,6.853A6.6,6.6,0,0,1,5350.536,4122.683Zm-3.529-6.93a3.6,3.6,0,0,0,3.373,3.673,3.877,3.877,0,0,0,3.656-3.5,3.658,3.658,0,0,0-3.486-3.583A3.384,3.384,0,0,0,5347.007,4115.753Z" transform="translate(-5282.225 -4058.112)" fill="#12263f"/>
    </g>
  </g>
</svg>
