<svg xmlns="http://www.w3.org/2000/svg" width="102.516" height="102.513" viewBox="0 0 102.516 102.513">
  <g id="_1pvvsT.tif" data-name="1pvvsT.tif" transform="translate(-4320.028 -3751.292)">
    <g id="Grupo_155274" data-name="Grupo 155274" transform="translate(4320.028 3751.292)">
      <path id="Trazado_197101" data-name="Trazado 197101" d="M4381.689,3751.292c1.923.377,3.876.643,5.764,1.15a30.177,30.177,0,0,1,15.789,10.336,30.812,30.812,0,0,1,6.616,15.093,9.181,9.181,0,0,1,.173,1.888c-.046.848.423,1.112,1.1,1.377a17.595,17.595,0,0,1-5.183,34.041,14.351,14.351,0,0,1-2,.042,1.625,1.625,0,0,1-1.611-1.7,1.664,1.664,0,0,1,1.769-1.548,15.84,15.84,0,0,0,7.247-1.584,14.382,14.382,0,0,0,4.074-22.511,14.139,14.139,0,0,0-6.917-4.161,1.969,1.969,0,0,1-1.686-2.029,26.737,26.737,0,0,0-1.9-9.443c-3.7-8.93-10.23-14.694-19.624-16.924a27.425,27.425,0,0,0-29.637,12.345c-.159.254-.3.517-.46.773-.807,1.32-1.393,1.56-2.815,1a10.793,10.793,0,0,0-14.393,7.888,2.775,2.775,0,0,1-2.423,2.458,16.35,16.35,0,0,0,4.253,32.175c1.568.008,3.136,0,4.7,0,1.661,0,2.232.547,2.238,2.212.014,4.237,0,8.475,0,12.712,0,2.736.007,5.472,0,8.208,0,1.834-.541,2.357-2.4,2.367-1.167.006-2.336.033-3.5-.011-.635-.024-.906.195-1.136.806a7.032,7.032,0,0,1-12.02,2.11,7.053,7.053,0,1,1,11.954-7.123c.308.76.653,1.025,1.435.953.725-.067,1.461-.014,2.27-.014v-18.994c-1.539,0-3.062.037-4.582-.006a19.588,19.588,0,0,1-18.586-16.993,1.81,1.81,0,0,0-.185-.449v-4.2c.092-.452.18-.9.276-1.355,1.657-7.712,6.188-12.868,13.666-15.438a1.657,1.657,0,0,0,.906-.965,14.183,14.183,0,0,1,17.012-9.91,1.094,1.094,0,0,0,1.386-.543,30.493,30.493,0,0,1,19.216-13.292c1.319-.3,2.662-.5,3.994-.747Zm-44.811,84.555a3.768,3.768,0,1,0-3.843,3.757A3.762,3.762,0,0,0,4336.878,3835.847Z" transform="translate(-4320.028 -3751.292)" fill="#12263f"/>
      <path id="Trazado_197102" data-name="Trazado 197102" d="M4654.375,4057.083c-2.4,0-4.662,0-6.922,0-.767,0-1.538.031-2.3-.036a1.635,1.635,0,1,1,.166-3.26c3.035-.017,6.07-.006,9.106-.007,3.125,0,3.271.146,3.271,3.263v18.952c1.064,0,2.088.046,3.1-.037.217-.018.464-.477.581-.779a7.086,7.086,0,0,1,6.821-4.618,7.068,7.068,0,1,1-6.677,9.74,1.342,1.342,0,0,0-1.6-1.037c-1,.074-2,.019-3,.017-2.052,0-2.548-.49-2.55-2.516q0-7.206,0-14.412Zm9.9,20.524a3.768,3.768,0,1,0,7.537.045,3.769,3.769,0,1,0-7.537-.045Z" transform="translate(-4578.625 -3993.105)" fill="#12263f"/>
      <path id="Trazado_197103" data-name="Trazado 197103" d="M4480.456,4057.09h-1.213c-2.534,0-5.068.019-7.6-.011-1.279-.015-1.965-.63-1.97-1.64,0-1.065.7-1.648,2.042-1.65q4.8-.009,9.6,0c2.059,0,2.545.478,2.545,2.512,0,8.069.011,16.139-.015,24.208a1.321,1.321,0,0,0,1,1.506,6.974,6.974,0,0,1,4.256,8.021,7.082,7.082,0,1,1-9.475-8.087c.6-.224.909-.421.906-1.157-.033-7.6-.02-15.205-.023-22.808C4480.514,4057.722,4480.481,4057.463,4480.456,4057.09Zm5.491,31.443a3.764,3.764,0,1,0-3.706,3.777A3.706,3.706,0,0,0,4485.947,4088.533Z" transform="translate(-4439.657 -3993.112)" fill="#12263f"/>
      <path id="Trazado_197104" data-name="Trazado 197104" d="M4567.407,4057.064c-2.749,0-5.411,0-8.074,0a8.219,8.219,0,0,1-1.293-.073,1.554,1.554,0,0,1-1.424-1.636,1.584,1.584,0,0,1,1.61-1.576c1.333-.041,2.668-.014,4-.015q3.2,0,6.406,0c1.576,0,2.165.588,2.166,2.182q.007,12.313-.013,24.625a1.178,1.178,0,0,0,.9,1.366,7.021,7.021,0,0,1,4.431,7.766,7.08,7.08,0,1,1-9.535-7.788c.542-.205.891-.361.888-1.07-.03-7.708-.02-15.416-.021-23.125C4567.454,4057.556,4567.432,4057.394,4567.407,4057.064Zm1.755,27.69a3.767,3.767,0,1,0,3.738,3.739A3.7,3.7,0,0,0,4569.162,4084.754Z" transform="translate(-4509.161 -3993.086)" fill="#12263f"/>
      <path id="Trazado_197105" data-name="Trazado 197105" d="M4609.991,3794.908a21.97,21.97,0,0,1,15.637,7.769,1.664,1.664,0,1,1-2.464,2.179,19.674,19.674,0,0,0-7.742-5.484,20.117,20.117,0,0,0-6.632-1.263c-.921-.032-1.625-.513-1.648-1.4a2.861,2.861,0,0,1,.824-1.641c.2-.231.739-.194,1.129-.225A5.674,5.674,0,0,1,4609.991,3794.908Z" transform="translate(-4549.553 -3786.104)" fill="#12263f"/>
      <path id="Trazado_197106" data-name="Trazado 197106" d="M4707.243,3868.113c.028.3.076.6.08.894a1.749,1.749,0,0,1-1.584,1.938c-.935.042-1.615-.706-1.74-1.8-.168-1.479-.362-2.959-.618-4.426-.125-.712-.433-1.391-.628-2.093a1.6,1.6,0,0,1,.979-2.1,1.523,1.523,0,0,1,2.069,1.01c.638,2.148,1.146,4.334,1.707,6.506Z" transform="translate(-4625.918 -3838.528)" fill="#12263f"/>
    </g>
  </g>
</svg>
