<svg id="Design-elements" xmlns="http://www.w3.org/2000/svg" width="44.003" height="41.519" viewBox="0 0 44.003 41.519">
  <path id="dots-03" d="M37.737,38.39a3.133,3.133,0,1,1,3.134,3.128A3.129,3.129,0,0,1,37.737,38.39Zm-18.868,0A3.128,3.128,0,1,1,22,41.519,3.127,3.127,0,0,1,18.868,38.39ZM0,38.39a3.126,3.126,0,1,1,3.126,3.128A3.126,3.126,0,0,1,0,38.39ZM37.737,20.766A3.133,3.133,0,1,1,40.871,23.9,3.131,3.131,0,0,1,37.737,20.766Zm-18.868,0A3.128,3.128,0,1,1,22,23.9,3.128,3.128,0,0,1,18.868,20.766ZM0,20.766A3.126,3.126,0,1,1,3.126,23.9,3.127,3.127,0,0,1,0,20.766ZM37.737,3.134a3.133,3.133,0,1,1,3.134,3.132A3.133,3.133,0,0,1,37.737,3.134Zm-18.868,0A3.128,3.128,0,1,1,22,6.266,3.131,3.131,0,0,1,18.868,3.134ZM0,3.134A3.126,3.126,0,1,1,3.126,6.266,3.13,3.13,0,0,1,0,3.134Z" transform="translate(0 0)" fill="#12263f"/>
</svg>
