<svg xmlns="http://www.w3.org/2000/svg" width="610" height="263" viewBox="0 0 610 263">
  <g id="Grupo_1071886" data-name="Grupo 1071886" transform="translate(-653 -839)">
    <path id="Trazado_777437" data-name="Trazado 777437" d="M10,0H600a10,10,0,0,1,10,10V253a10,10,0,0,1-10,10H10A10,10,0,0,1,0,253V10A10,10,0,0,1,10,0Z" transform="translate(653 839)" fill="#fff"/>
    <path id="Trazado_777443" data-name="Trazado 777443" d="M.154,0,2.007-10.664l3.062.007a4.193,4.193,0,0,1,1.937.487A3.661,3.661,0,0,1,8.4-8.833,4.578,4.578,0,0,1,9.045-6.87a6.479,6.479,0,0,1-.015,1.3l-.051.388A6.091,6.091,0,0,1,7.137-1.417,5.211,5.211,0,0,1,3.45,0ZM3.845-8.884,2.607-1.765l.894.007A2.932,2.932,0,0,0,5.878-2.842,5.6,5.6,0,0,0,6.907-6.116l.015-.234A2.954,2.954,0,0,0,6.46-8.2a1.761,1.761,0,0,0-1.443-.674ZM14.136,0a2.138,2.138,0,0,1-.081-.718,2.684,2.684,0,0,1-2.021.864,2.432,2.432,0,0,1-1.725-.677,2.05,2.05,0,0,1-.641-1.637,2.369,2.369,0,0,1,1.088-1.989,4.937,4.937,0,0,1,2.78-.692l.967.015.1-.476a1.654,1.654,0,0,0,.022-.461.793.793,0,0,0-.26-.538.9.9,0,0,0-.59-.2,1.261,1.261,0,0,0-.82.238,1.154,1.154,0,0,0-.432.729l-2.073.007A2.3,2.3,0,0,1,11.5-7.379a4.042,4.042,0,0,1,2.45-.692,2.922,2.922,0,0,1,2.109.8,2.346,2.346,0,0,1,.637,1.989l-.608,3.794-.037.469a2.261,2.261,0,0,0,.125.879L16.165,0ZM12.546-1.458a1.891,1.891,0,0,0,1.56-.776l.256-1.37-.718-.007a2.005,2.005,0,0,0-1.648.7,1.211,1.211,0,0,0-.227.593.7.7,0,0,0,.165.626A.835.835,0,0,0,12.546-1.458Zm9.067-8.416L21.27-7.925h1.318l-.271,1.553H21L20.325-2.4a1.009,1.009,0,0,0,.059.571q.1.2.5.212.117.007.63-.037L21.365-.037a3.474,3.474,0,0,1-1.187.168,1.861,1.861,0,0,1-1.516-.637,2.3,2.3,0,0,1-.41-1.685l.681-4.182H17.813l.271-1.553H19.2l.337-1.948ZM27,0a2.138,2.138,0,0,1-.081-.718A2.684,2.684,0,0,1,24.9.146,2.432,2.432,0,0,1,23.17-.531a2.05,2.05,0,0,1-.641-1.637,2.369,2.369,0,0,1,1.088-1.989,4.937,4.937,0,0,1,2.78-.692l.967.015.1-.476a1.654,1.654,0,0,0,.022-.461.793.793,0,0,0-.26-.538.9.9,0,0,0-.59-.2,1.261,1.261,0,0,0-.82.238,1.154,1.154,0,0,0-.432.729l-2.073.007a2.3,2.3,0,0,1,1.044-1.842,4.042,4.042,0,0,1,2.45-.692,2.922,2.922,0,0,1,2.109.8,2.346,2.346,0,0,1,.637,1.989l-.608,3.794-.037.469a2.261,2.261,0,0,0,.125.879L29.026,0ZM25.408-1.458a1.891,1.891,0,0,0,1.56-.776l.256-1.37-.718-.007a2.005,2.005,0,0,0-1.648.7,1.211,1.211,0,0,0-.227.593A.7.7,0,0,0,24.8-1.7.835.835,0,0,0,25.408-1.458ZM37.9-3.94a5.682,5.682,0,0,1-1.143,3A2.843,2.843,0,0,1,34.373.154a2.21,2.21,0,0,1-1.9-1.011l-.3.857H30.286l1.948-11.25h2.073l-.8,4.05a2.469,2.469,0,0,1,1.934-.872,2.236,2.236,0,0,1,1.805.824,3.647,3.647,0,0,1,.7,2.238A8.562,8.562,0,0,1,37.9-3.94Zm-2.051-.154a6.144,6.144,0,0,0,.044-.97q-.081-1.278-1.055-1.3a1.719,1.719,0,0,0-1.516.83l-.571,3.159a1.179,1.179,0,0,0,1.187.823q1.523.044,1.868-2.219ZM43.132,0a2.138,2.138,0,0,1-.081-.718A2.684,2.684,0,0,1,41.03.146a2.432,2.432,0,0,1-1.725-.677,2.05,2.05,0,0,1-.641-1.637,2.369,2.369,0,0,1,1.088-1.989,4.937,4.937,0,0,1,2.78-.692l.967.015.1-.476a1.654,1.654,0,0,0,.022-.461.793.793,0,0,0-.26-.538.9.9,0,0,0-.59-.2,1.261,1.261,0,0,0-.82.238,1.154,1.154,0,0,0-.432.729l-2.073.007a2.3,2.3,0,0,1,1.044-1.842,4.042,4.042,0,0,1,2.45-.692,2.922,2.922,0,0,1,2.109.8,2.346,2.346,0,0,1,.637,1.989l-.608,3.794-.037.469a2.261,2.261,0,0,0,.125.879L45.161,0ZM41.543-1.458a1.891,1.891,0,0,0,1.56-.776l.256-1.37-.718-.007a2.005,2.005,0,0,0-1.648.7,1.211,1.211,0,0,0-.227.593.7.7,0,0,0,.165.626A.835.835,0,0,0,41.543-1.458Zm9.47-.776q.117-.586-.813-.85l-.667-.168q-2.366-.652-2.3-2.3a2.276,2.276,0,0,1,.992-1.827,3.7,3.7,0,0,1,2.3-.692,3.315,3.315,0,0,1,2.168.71,2.341,2.341,0,0,1,.842,1.853l-2.051-.007a.9.9,0,0,0-1.011-1.033,1.455,1.455,0,0,0-.839.242,1,1,0,0,0-.436.652q-.11.586.886.828l.293.066a5.892,5.892,0,0,1,1.545.553,2.332,2.332,0,0,1,.824.773,1.912,1.912,0,0,1,.267,1.106,2.111,2.111,0,0,1-.487,1.318,2.981,2.981,0,0,1-1.274.872,4.44,4.44,0,0,1-1.7.286,3.345,3.345,0,0,1-2.2-.758,2.444,2.444,0,0,1-.894-1.923l1.948.015a1.071,1.071,0,0,0,1.216,1.15A1.73,1.73,0,0,0,50.57-1.6.926.926,0,0,0,51.013-2.234ZM57.737.146a3.448,3.448,0,0,1-1.842-.509A3.086,3.086,0,0,1,54.7-1.74a3.838,3.838,0,0,1-.308-1.93l.022-.293a5.123,5.123,0,0,1,.674-2.124,4.07,4.07,0,0,1,1.45-1.49A3.588,3.588,0,0,1,58.5-8.071a2.741,2.741,0,0,1,2.318,1.126,3.859,3.859,0,0,1,.6,2.776l-.117.9H56.44a1.7,1.7,0,0,0,.374,1.23,1.426,1.426,0,0,0,1.1.476,2.534,2.534,0,0,0,1.978-.879l.945,1.172A2.939,2.939,0,0,1,59.546-.216,4.215,4.215,0,0,1,57.737.146ZM58.4-6.365a1.468,1.468,0,0,0-1.014.359,3.153,3.153,0,0,0-.795,1.3h2.842l.044-.19a1.941,1.941,0,0,0,.007-.557,1.063,1.063,0,0,0-.359-.663A1.125,1.125,0,0,0,58.4-6.365Z" transform="translate(1150.36 1054.097)" fill="#12263f"/>
    <g id="Grupo_155297" data-name="Grupo 155297" transform="translate(1125.313 905.221)">
      <path id="Trazado_197168" data-name="Trazado 197168" d="M6080.808,7690.441c1.807.174,3.615.341,5.422.523,10.595,1.069,20.922,3.162,30.442,8.2a25.978,25.978,0,0,1,10.058,8.565,13.254,13.254,0,0,1,2.229,7.43c-.02,7.805-.012,15.61-.027,23.416a5.7,5.7,0,0,1-.192,1.748,2.683,2.683,0,0,1-5.2-.959c-.038-3.945-.019-7.889-.021-11.835v-1.341c-2.31,1.5-4.418,3.06-6.694,4.317-7.012,3.869-14.647,5.892-22.477,7.246a114.926,114.926,0,0,1-24.2,1.514c-11.834-.468-23.456-2.188-34.343-7.135-3.47-1.576-6.663-3.758-9.991-5.669,0,2.422.21,5.133-.046,7.8-.463,4.834,1.887,8.079,5.5,10.738,5.245,3.86,11.263,5.96,17.479,7.559a106.965,106.965,0,0,0,25.676,3.05,2.718,2.718,0,0,1,2.782,1.791,2.511,2.511,0,0,1-.908,3.051,3.664,3.664,0,0,1-1.886.585c-11.974-.058-23.731-1.5-35.045-5.664a44.825,44.825,0,0,1-13.461-7.616c-.035.44-.086.786-.087,1.132-.007,3.52.15,7.05-.045,10.56-.213,3.817,1.453,6.6,4.186,8.949a36.583,36.583,0,0,0,11.383,6.309,86.621,86.621,0,0,0,23.409,4.883c.634.05,1.266.131,1.9.2a2.726,2.726,0,0,1,2.59,2.888,2.647,2.647,0,0,1-2.955,2.5c-3.373-.3-6.753-.592-10.1-1.1a71.645,71.645,0,0,1-21.127-6.122c-3.173-1.559-6.131-3.553-9.184-5.348a6.227,6.227,0,0,0-.054.718c-.006,3.818.049,7.637-.024,11.454a8.829,8.829,0,0,0,2.136,5.958,25.6,25.6,0,0,0,9.1,6.571,66.374,66.374,0,0,0,19.035,5.621c4.225.632,8.5.934,12.752,1.356,1.249.124,2.354.441,2.884,1.712a2.374,2.374,0,0,1-.442,2.825,3.359,3.359,0,0,1-2.094.949c-12.828-.613-25.343-2.643-36.865-8.746a27.054,27.054,0,0,1-9.084-7.431,16.232,16.232,0,0,1-2.98-7.438v-72.038a17.1,17.1,0,0,1,2.524-6.707,25.155,25.155,0,0,1,8.2-7.293c9.169-5.365,19.288-7.606,29.685-8.887,2.642-.326,5.3-.527,7.949-.787Zm-6.244,43.7c5.4-.47,10.808-.808,16.185-1.444a70,70,0,0,0,20.155-5.36c3.977-1.755,7.766-3.84,10.545-7.317,2.729-3.415,2.7-6.891-.028-10.313-2.5-3.128-5.849-5.123-9.4-6.776-8.752-4.072-18.082-5.836-27.618-6.623a115.854,115.854,0,0,0-23.851.454,80.286,80.286,0,0,0-21.343,5.319c-4.009,1.681-7.808,3.715-10.793,6.982-3.441,3.766-3.455,7.794-.057,11.57.368.409.757.8,1.163,1.174,3.9,3.564,8.6,5.664,13.517,7.332C6053.248,7732.6,6063.813,7733.793,6074.563,7734.143Z" transform="translate(-6020.235 -7690.441)" fill="#12263f"/>
      <path id="Trazado_197169" data-name="Trazado 197169" d="M6282.489,7972.123c-5.926,8.516-16.415,8.6-22.5,3.25a14.969,14.969,0,1,1,20.97-21.287,7.262,7.262,0,0,0,.747-.349c4.614-2.766,9.215-5.551,13.844-8.292a1.145,1.145,0,0,0,.619-1.594,14.794,14.794,0,0,1,11.752-18.892c10.781-1.885,17.4,7.216,17.5,14.291.1,7.338-5.449,14.185-12.669,15.161a14.814,14.814,0,0,1-12.239-3.655c-.382-.333-.746-.687-1.121-1.026-.028-.025-.081-.022-.252-.067l-15.336,9.2a16.944,16.944,0,0,1,.786,7.528,1.161,1.161,0,0,0,.606.892c3.989,1.639,8.006,3.214,12,4.844.841.344,1.025-.292,1.356-.731a15,15,0,0,1,23.108-.975,15.3,15.3,0,0,1,1.913,17.19c-3.06,5.441-9.414,8.621-15.185,7.563-6.794-1.247-11.65-5.965-12.584-12.376a44.615,44.615,0,0,1-.105-4.543c-.015-.343-.185-.883-.428-.983C6291.02,7975.52,6286.742,7973.823,6282.489,7972.123Zm18.57,8.227a9.4,9.4,0,0,0,9.384,9.493,9.483,9.483,0,1,0-9.384-9.493Zm0-40.649a9.462,9.462,0,0,0,18.924-.045,9.462,9.462,0,1,0-18.924.045Zm-40.719,24.326a9.46,9.46,0,0,0,18.92.179,9.56,9.56,0,0,0-9.456-9.62A9.459,9.459,0,0,0,6260.339,7964.026Z" transform="translate(-6195.014 -7864.975)" fill="#12263f"/>
    </g>
    <path id="Trazado_197267" data-name="Trazado 197267" d="M7964.6,4333.175h-60.652c-9.836-2.51-13.153-9.123-13.026-18.357.329-23.858.11-47.724.11-71.586,0-14.777.039-29.553-.02-44.329-.021-5.218,1.837-9.515,6.1-12.458,2.025-1.4,4.54-2.089,6.832-3.1H7964.6c9.8,2.5,13.093,9.091,13.025,18.361-.265,36.259-.107,72.521-.109,108.781,0,2.8.039,5.606-.032,8.407a12.971,12.971,0,0,1-5.463,10.695C7969.811,4331.155,7967.091,4332,7964.6,4333.175Zm9.325-126.25H7894.6v97.406h34.82c-2.94-4.2-5.816-7.976-8.294-11.994a18.463,18.463,0,0,1-2.811-7.15c-.454-3.811,2.713-5.718,6.219-4.08a19.424,19.424,0,0,1,3.131,2.134c.979.723,1.918,1.5,3.279,2.581,0-6.65-.062-12.665.022-18.676.055-3.873,2.65-6.746,5.857-6.767,3.122-.02,5.705,2.674,5.951,6.412.142,2.18.025,4.377.025,6.634,2.754.167,5.125.4,6.256,3.069a1.525,1.525,0,0,0,1.245.586,4.97,4.97,0,0,1,5.658,3.931c5.108.546,6.54,1.416,6.859,5.843.4,5.6,1.3,11.375-1.787,16.654a2.28,2.28,0,0,0-.089.9h12.983Zm.456,101.278h-80.021c0,2.782-.03,5.395.015,8.006a23.753,23.753,0,0,0,.3,3.542,11.475,11.475,0,0,0,11.062,9.78q28.533.141,57.069,0c5.112-.021,10.071-3.926,10.839-8.788C7974.285,4316.692,7974.157,4312.516,7974.38,4308.2Zm-.415-105.135c1.549-10.706-4.972-16.453-13.972-16.253-17.568.389-35.152.1-52.729.117-9.038.006-14.639,7.184-12.515,16.136Zm-18.1,80.924a20.479,20.479,0,0,1-.066,3.736c-.116.619-.925,1.109-1.421,1.658-.343-.571-.933-1.123-.98-1.717-.126-1.6.034-3.225-.02-4.836-.087-2.721-.813-3.28-4.084-2.952a36.951,36.951,0,0,1-.061,4.468c-.068.559-.832,1.035-1.279,1.548-.4-.547-1.092-1.069-1.143-1.646-.143-1.685.04-3.394-.032-5.088-.115-2.706-.879-3.241-3.981-2.757a18.014,18.014,0,0,1-.044,3.216,12.818,12.818,0,0,1-1.1,2.634c-.449-.925-1.246-1.836-1.283-2.778-.15-3.731-.036-7.473-.07-11.209-.032-3.277-1.414-5.359-3.471-5.368s-3.412,2.051-3.423,5.367c-.021,7.049,0,14.1-.01,21.148a5.459,5.459,0,0,1-.123,2.013c-.22.522-.87.863-1.331,1.285a6.348,6.348,0,0,1-1.02-1.5c-.231-.7.074-1.807-.344-2.172a63.773,63.773,0,0,0-7.181-5.649c-1.581-1.019-2.955-.032-2.63,1.872a13.806,13.806,0,0,0,1.975,5.1c2.826,4.328,5.831,8.544,8.906,12.7a3.831,3.831,0,0,0,2.653,1.354c7.134.109,14.271.121,21.4-.013a3.817,3.817,0,0,0,2.7-1.628c3.217-5.31,2.333-11.109,1.573-16.813C7959.706,4283.917,7958.1,4283.365,7955.87,4283.992Z" transform="translate(-7093.298 -3285.514)" fill="#12263f"/>
    <path id="Trazado_197268" data-name="Trazado 197268" d="M7910.492,4250.866c0-8.145.236-8.379,8.406-8.379,7.969,0,8.243.277,8.243,8.331,0,8.146-.229,8.372-8.45,8.372C7910.771,4259.189,7910.492,4258.906,7910.492,4250.866Z" transform="translate(-7102.896 -3314.516)" fill="#12263f"/>
    <path id="Trazado_197269" data-name="Trazado 197269" d="M7910.492,4299.6c0-7.855.368-8.217,8.35-8.217,7.95,0,8.3.351,8.3,8.306,0,8.21-.215,8.426-8.388,8.426C7910.722,4308.115,7910.492,4307.879,7910.492,4299.6Z" transform="translate(-7102.896 -3338.493)" fill="#12263f"/>
    <path id="Trazado_197270" data-name="Trazado 197270" d="M8025.472,4300.019c0,7.785-.314,8.1-8.169,8.1-8.317,0-8.481-.165-8.481-8.586,0-7.78.369-8.146,8.2-8.146C8025.2,4291.383,8025.472,4291.664,8025.472,4300.019Z" transform="translate(-7151.114 -3338.493)" fill="#12263f"/>
    <path id="Trazado_197271" data-name="Trazado 197271" d="M8017.166,4259.189c-8.116,0-8.345-.23-8.345-8.474,0-7.951.283-8.229,8.344-8.229,8.01,0,8.307.292,8.307,8.226,0,1.018,0,2.035,0,3.053-.013,4.106-1.339,5.411-5.5,5.423C8019.032,4259.191,8018.1,4259.189,8017.166,4259.189Z" transform="translate(-7151.114 -3314.516)" fill="#12263f"/>
    <path id="Trazado_197272" data-name="Trazado 197272" d="M7967.774,4259.189c-7.784,0-8.209-.421-8.209-8.127,0-8.306.267-8.575,8.532-8.575,7.8,0,8.212.405,8.212,8.135C7976.309,4258.909,7976.03,4259.189,7967.774,4259.189Z" transform="translate(-7126.961 -3314.516)" fill="#12263f"/>
    <path id="Trazado_197273" data-name="Trazado 197273" d="M7967.772,4308.115c-7.808,0-8.207-.394-8.207-8.126,0-8.271.332-8.606,8.535-8.606,7.734,0,8.209.472,8.209,8.169C7976.309,4307.859,7976.054,4308.115,7967.772,4308.115Z" transform="translate(-7126.961 -3338.493)" fill="#12263f"/>
    <path id="Trazado_197274" data-name="Trazado 197274" d="M7966.43,4450c-2.539,0-5.089.14-7.608-.079-.812-.071-1.542-1.081-2.31-1.662.762-.615,1.51-1.741,2.291-1.764q7.863-.237,15.733.005c.754.023,1.472,1.205,2.207,1.851-.729.549-1.429,1.516-2.194,1.571C7971.854,4450.115,7969.138,4450,7966.43,4450Z" transform="translate(-7125.464 -3414.498)" fill="#12263f"/>
    <path id="Trazado_197275" data-name="Trazado 197275" d="M7954.242,4206.282c-1.926-.137-3.155-1.208-2.7-2.921a4.235,4.235,0,0,1,2.669-2.649c1.607-.289,2.854.95,2.833,2.771A2.647,2.647,0,0,1,7954.242,4206.282Z" transform="translate(-7122.98 -3294.01)" fill="#12263f"/>
    <path id="Trazado_197276" data-name="Trazado 197276" d="M7976.183,4202.62c-.166,2.674-1.148,3.672-2.942,3.648a2.524,2.524,0,0,1-2.749-2.649c-.071-1.859,1.1-3.077,2.717-2.909C7974.379,4200.833,7975.43,4202.1,7976.183,4202.62Z" transform="translate(-7132.318 -3294.021)" fill="#12263f"/>
    <path id="Trazado_197277" data-name="Trazado 197277" d="M7992.425,4206.287a2.642,2.642,0,0,1-2.877-2.735c-.055-1.828,1.174-3.083,2.779-2.835a4.225,4.225,0,0,1,2.721,2.6C7995.531,4205,7994.352,4206.123,7992.425,4206.287Z" transform="translate(-7141.662 -3294.018)" fill="#12263f"/>
    <path id="Trazado_197278" data-name="Trazado 197278" d="M27.618,25.93c-2.058,3.528-4.024,6.9-5.977,10.245.566.511.872.776,1.166,1.054Q25.339,39.611,27.868,42a53.933,53.933,0,0,1-5.77,4.131c-4.93,2.664-9.977,5.114-15,7.6-4.66,2.311-5.653,1.751-6.007-3.577Q.434,40.325.018,30.476c-.2-4.635,1.215-5.473,5.27-3.323,1.073.57,2.138,1.153,3.646,1.968,2.016-3.494,3.961-6.866,6.012-10.419a20.451,20.451,0,0,1-2.534-1.718C11.105,15.762,9.9,14.426,8.66,13.137c1.272-1.11,2.392-2.508,3.843-3.277,5.68-3,11.456-5.828,17.213-8.684,4.3-2.132,5.34-1.525,5.6,3.132.387,6.833.865,13.662,1.12,20.5a5.35,5.35,0,0,1-1.3,3.852c-.586.509-2.44-.248-3.631-.691A35.091,35.091,0,0,1,27.618,25.93ZM19.956,41.708c-5.118-3.652-5.12-3.652-2.34-8.5,1.638-2.852,3.489-5.6,4.874-8.573,1.845-3.953,4.1-6.109,8.975-2.46-.364-5.645-.672-10.443-1.022-15.854L16.671,13.31c2.041,2.036,5.581,2.75,3.495,6.328-2.623,4.5-5.058,9.121-7.944,13.443-.644.965-2.807,1.061-4.311,1.247-.766.095-1.618-.5-2.743-.89.266,5.185.508,9.906.786,15.325Z" transform="translate(781.028 897.83) rotate(90)" fill="#12263f"/>
    <path id="Trazado_197279" data-name="Trazado 197279" d="M15.062,36.483,8.98,25.921c-1.666.927-3.153,1.8-4.679,2.6-2.727,1.424-4.414.478-4.3-2.5C.317,18.223.823,10.435,1.4,2.657,1.584.137,3.173-.622,5.455.516,12.307,3.93,19.171,7.324,25.966,10.852c2.66,1.382,2.746,3.252.242,5-1.337.932-2.787,1.7-4.575,2.777L27.57,29.063a19.432,19.432,0,0,1,2.072-.905c1.982-.582,3.978-1.109,5.97-1.657a30.745,30.745,0,0,1,.866,5.817c-.249,6.426-.776,12.839-1.145,19.261-.2,3.549-1.839,4.237-4.868,2.693-6.455-3.288-12.971-6.459-19.4-9.8-3.321-1.725-3.259-3.5.01-5.574C12.223,38.17,13.4,37.488,15.062,36.483ZM5.141,22.39c4.71-3.691,6.881-1.881,8.658,1.843,1.409,2.953,3.244,5.7,4.881,8.548,2.985,5.193,2.983,5.194-1.9,9.06L30.895,48.93V33.776c-5.354,1.685-5.352,1.685-8.465-3.705-1.368-2.369-2.75-4.73-4.117-7.1-3.184-5.526-3.182-5.527,1.387-9.759L6.081,6.362C5.76,11.837,5.482,16.58,5.141,22.39Z" transform="translate(781.08 1001.815) rotate(90)" fill="#12263f"/>
    <path id="Trazado_197280" data-name="Trazado 197280" d="M8.411,37.756V25.3c-1.994,0-3.736.078-5.468-.019C.45,25.145-.828,23.778.589,21.513Q7.008,11.253,13.844,1.257c1.328-1.951,3.135-1.473,4.351.354C22.517,8.1,26.838,14.593,31,21.186c1.491,2.362.552,3.945-2.294,4.1-1.733.093-3.474.017-5.438.017V37.748a48.13,48.13,0,0,1,5.688.045c2.407.295,3.546,1.774,2.128,4.006-4.252,6.7-8.62,13.323-13.038,19.912-1.29,1.924-3.068,1.905-4.346,0Q7.057,51.84.646,41.811c-1.433-2.25-.271-3.7,2.126-4.011A46.621,46.621,0,0,1,8.411,37.756ZM15.885,7.091,7.424,19.939C13.6,20.95,13.6,20.95,13.6,26.952c0,2.741.05,5.483-.019,8.221-.05,2.036.384,4.482-.585,5.974-.828,1.273-3.345,1.45-5.445,2.233l8.315,12.7,8.6-13.15c-6.336-.612-6.338-.612-6.342-6.208,0-3.289.255-6.6-.054-9.86-.421-4.437.635-7.263,6.469-6.489Z" transform="translate(785.081 952.212) rotate(90)" fill="#12263f"/>
    <path id="Trazado_193789" data-name="Trazado 193789" d="M1984.395,35.249c.672.355,1.331.734,2.016,1.061a6.376,6.376,0,0,1,2.961,7.92,2.763,2.763,0,0,1-2.9,1.559c-7.844-.021-15.689-.01-23.533-.01-3.137,0-6.276.008-9.413,0-2.237-.008-3.072-.907-3.208-3.086-.2-3.259.871-5.655,4.121-6.792a8.822,8.822,0,0,0,1.383-.857c-.65-.059-.994-.117-1.34-.118-4.952-.009-9.9,0-14.855-.016-3.653-.009-5.846-2.186-5.849-5.863q-.019-22.063,0-44.126a5.378,5.378,0,0,1,5.648-5.78,7.843,7.843,0,0,1,1.176.006,4.747,4.747,0,0,0,4.635-1.78c1.181-1.419,2.582-1.5,4.232-.587,1.06.588,1.615.29,1.926-.832a3.107,3.107,0,0,1,3.406-2.589c1.029-.016,2.06-.025,3.088,0a3.058,3.058,0,0,1,3.2,2.493c.3,1.256.9,1.448,1.969.871a3.08,3.08,0,0,1,4.233.693,5.039,5.039,0,0,0,4.354,1.761c9.511-.081,19.022-.041,28.534-.04,3.855,0,6.012,2.141,6.014,6.006q.01,21.916,0,43.832c0,3.731-2.207,5.927-5.946,5.933q-7.867.012-15.732,0Zm18.9-12.33c0-.571,0-1.007,0-1.443q0-17.944,0-35.887c0-2.857-.721-3.577-3.556-3.577-9.069,0-18.139.035-27.208-.026-1.325-.009-2.125.181-2.632,1.569-.421,1.153-.37,1.681.882,2a3.02,3.02,0,0,1,2.49,3.189c.031.98.015,1.961.006,2.941-.02,2.128-.639,2.985-2.694,3.624-.953.3-1.276.787-.788,1.719,1.087,2.077.938,3.011-.735,4.692-.691.695-1.365,1.412-2.1,2.059a3.113,3.113,0,0,1-3.69.44c-1.444-.712-1.71-.612-2.2.928a3.051,3.051,0,0,1-3.21,2.291c-2.268-.123-4.969.935-6.337-2.037a1.256,1.256,0,0,1-.044-.14c-.568-1.7-.78-1.79-2.3-1.042a2.991,2.991,0,0,1-3.768-.541c-.8-.8-1.619-1.572-2.39-2.393a3.069,3.069,0,0,1-.54-3.9c.678-1.35.533-1.689-.93-2.16a3.046,3.046,0,0,1-2.346-3.312c.087-2.229-.876-4.866,2.014-6.2.176-.082.414-.074.55-.192.4-.344,1.142-.867,1.068-1.076-.3-.854-.708-2.13-1.355-2.327-3.129-.95-4.794.426-4.794,3.68q0,17.8,0,35.593v1.535Zm0,3.051h-66.609c0,.951,0,1.821,0,2.692.011,2.568.761,3.332,3.315,3.333q20.369.008,40.737.005,9.78,0,19.56-.005c2.091,0,2.957-.871,2.992-2.923C2003.3,28.095,2003.287,27.119,2003.287,25.97ZM1958.095,4.558c1.034-3.621,3.357-4.584,6.776-2.916l2.675-2.624c-2.057-2.9-.492-5.929,2.728-6.809v-3.738c-3.32-.664-4.46-3.465-2.76-6.736l-2.61-2.653a4.266,4.266,0,0,1-6.839-2.713h-3.731c-.314,3.108-4.1,4.6-7.075,2.569a11.662,11.662,0,0,1-1.385,1.78,1.556,1.556,0,0,0-.386,2.235,3.79,3.79,0,0,1,.109,2.51c-.474,1.692-1.485,2.982-3.418,2.964v3.925c2.876.169,4.753,3.7,2.92,6.626l2.5,2.748c.432-.245.794-.488,1.187-.666,1.653-.747,4.574.155,4.992,1.868.435,1.781,1.463,1.729,2.764,1.636C1957.029,4.529,1957.519,4.558,1958.095,4.558Zm28.448,38.228c.416-2.551.073-3.022-1.973-4.162a14.9,14.9,0,0,1-3.535-2.776,2.556,2.556,0,0,0-2.1-.948c-5.831.031-11.662.047-17.493-.007a3.071,3.071,0,0,0-2.721,1.206,11.163,11.163,0,0,1-3.215,2.484c-2.188,1.191-2.535,1.7-2.073,4.2Z" transform="translate(-971.081 951.529)" fill="#12263f"/>
    <path id="Trazado_193790" data-name="Trazado 193790" d="M2081.261,57.374c-1.682-1.279-2.7-.382-3.511,1.521-.21.491-1.227.8-1.91.887a16.9,16.9,0,0,1-3.662.038,2.64,2.64,0,0,1-2.418-2.06c-.256-1-.608-1.322-1.628-.767a2.916,2.916,0,0,1-3.745-.622c-.515-.525-1.047-1.031-1.562-1.556-1.485-1.514-1.615-2.092-.746-4.036.368-.822.231-1.2-.666-1.493-1.74-.566-2.289-1.425-2.316-3.286-.012-.784-.015-1.569,0-2.353a2.837,2.837,0,0,1,2.279-3.149c.859-.281,1.079-.605.634-1.475-.835-1.633-.621-2.637.669-3.965.615-.632,1.236-1.26,1.884-1.857a2.705,2.705,0,0,1,3.38-.523c1.154.683,1.571.327,1.788-.815a1.7,1.7,0,0,1,.386-.78c1.687-1.872,3.914-1.168,5.953-1.13a2.6,2.6,0,0,1,2.415,2.234c.231.886.6,1.079,1.459.633,1.621-.836,2.636-.62,3.969.67.6.58,1.188,1.169,1.765,1.77a2.838,2.838,0,0,1,.53,3.628c-.549.967-.357,1.444.737,1.612a1.737,1.737,0,0,1,.8.337c1.929,1.565,1.322,3.75,1.3,5.747a2.651,2.651,0,0,1-2.165,2.647c-1.168.282-1.162.783-.61,1.651a2.653,2.653,0,0,1,.383,1.243C2086.749,53.977,2083.461,57.339,2081.261,57.374Zm-16.749-5.027,1.956,2.013c3-1.243,4.279-.758,6.014,2.148a1.147,1.147,0,0,0,.805.424c.76.058,1.528.02,2.24.02.96-3.037,3.162-3.945,6.083-2.582l1.994-2.019c-1.411-2.186-.669-5,2.491-6.177v-2.7c-2.7-.687-3.954-3.314-2.563-6.207l-1.912-1.954c-2.48,1.6-5.3.347-6.216-2.521a15.049,15.049,0,0,0-1.861.021,1.547,1.547,0,0,0-1.053.475c-1.641,2.824-2.795,3.258-6.019,2.111l-1.923,1.912c1.306,2.765.635,4.707-1.934,5.932a1.221,1.221,0,0,0-.561.839,18.844,18.844,0,0,0-.026,2.141C2065.068,47.468,2066.021,49.787,2064.512,52.348Z" transform="translate(-1059.375 911.757)" fill="#12263f"/>
    <path id="Trazado_193791" data-name="Trazado 193791" d="M2053.574,156.785a1.991,1.991,0,1,1-2-1.941A2.041,2.041,0,0,1,2053.574,156.785Z" transform="translate(-1052.686 823.648)" fill="#12263f"/>
    <path id="Trazado_193792" data-name="Trazado 193792" d="M1993.475,21.653a6.83,6.83,0,1,1,6.858-6.788A6.833,6.833,0,0,1,1993.475,21.653Zm.078-10.775a3.933,3.933,0,1,0,3.883,3.972A3.978,3.978,0,0,0,1993.553,10.878Z" transform="translate(-1008.329 927.114)" fill="#12263f"/>
    <path id="Trazado_193793" data-name="Trazado 193793" d="M2089.1,66.2a6.133,6.133,0,0,1,12.264-.091,6.133,6.133,0,1,1-12.264.091Zm2.915-.058a3.207,3.207,0,0,0,3.2,3.287,3.286,3.286,0,0,0,3.26-3.259,3.225,3.225,0,0,0-3.159-3.187A3.152,3.152,0,0,0,2092.02,66.145Z" transform="translate(-1080.525 890.427)" fill="#12263f"/>
    <path id="Trazado_192890" data-name="Trazado 192890" d="M3919.574-970.451q.621-2.658,1.24-5.316a6.074,6.074,0,0,1,3.538-4.278c2.773-1.275,5.606-2.425,8.44-3.563a3.079,3.079,0,0,0,1.256-4.973c-3.209-3.909-3.757-8.432-2.675-13.129a8.88,8.88,0,0,1,9.79-6.6,9.409,9.409,0,0,1,7.855,8.924c.161,4.1-.6,7.843-3.313,11.082a3.57,3.57,0,0,0-.255,3.655c.127.344.651.614,1.05.774,2.285.917,4.566,1.85,6.888,2.664,4.14,1.452,6.093,4.516,6.6,8.692a20.958,20.958,0,0,1,.267,3.3c-.02.535-.494,1.053-.763,1.579h-39.919Zm38.375.408c-.107-.84-.188-1.51-.279-2.18-.452-3.333-1.992-5.774-5.355-6.895-2.375-.791-4.695-1.751-7.018-2.688a4.05,4.05,0,0,1-1.569-1.022c-1.191-1.412-1.316-5.242-.095-6.66a13.2,13.2,0,0,0,3.051-9.713,7.112,7.112,0,0,0-5.974-6.8,6.564,6.564,0,0,0-7.122,5.11c-.723,3.668-.528,7.366,2.023,10.418a6.72,6.72,0,0,1,1.418,5.354,3.75,3.75,0,0,1-2.688,3.469c-3.017,1.128-6.02,2.333-8.913,3.744-2.218,1.081-3.773,5.378-3.137,7.862Z" transform="translate(-3245.953 1885.05)" fill="#12263f"/>
    <path id="Trazado_192891" data-name="Trazado 192891" d="M3994.617-1062.544a27.423,27.423,0,0,0,2.141,4.806,9.22,9.22,0,0,0,8.382,4.063,7.569,7.569,0,0,1,6.354,2.309,7.932,7.932,0,0,0,1.709,1.353,1.845,1.845,0,0,0,1.37.273c.3-.116.507-.751.548-1.176.083-.86.025-1.734.025-2.611a3.316,3.316,0,0,0,1.258-.206,1.588,1.588,0,0,0,.693-1.053c0-.27-.5-.715-.84-.787a10.345,10.345,0,0,0-1.962-.056c-.836-.012-1.184.428-1.165,1.23.012.5,0,1,0,1.752-1.094-.863-1.948-1.635-2.9-2.253a4.546,4.546,0,0,0-1.961-.7,46.738,46.738,0,0,1-5.22-.314,8.127,8.127,0,0,1-6.4-8.476,8.226,8.226,0,0,1,8.043-7.721q6.344-.146,12.693,0c4.379.1,7.6,3.305,8.046,7.835.07.714.13,1.385,1.029,1.347.954-.04,1-.768.979-1.511a10.327,10.327,0,0,0-8.259-9.486,5.819,5.819,0,0,1-.7-.216h-14.884a2.38,2.38,0,0,1-.482.195,9.086,9.086,0,0,0-6.39,3.967,31.038,31.038,0,0,0-2.1,4.813Z" transform="translate(-3334.617 1936.051)" fill="#2ec49f"/>
    <path id="Trazado_777444" data-name="Trazado 777444" d="M1.8-2.051H-1.8L-2.481,0H-4.662L-.957-9.953h1.9L4.669,0H2.488ZM-1.244-3.712H1.244L-.007-7.437Z" transform="translate(674.254 874.939)" fill="#2ec49f"/>
    <path id="Trazado_192890-2" data-name="Trazado 192890" d="M3919.574-970.451q.621-2.658,1.24-5.316a6.074,6.074,0,0,1,3.538-4.278c2.773-1.275,5.606-2.425,8.44-3.563a3.079,3.079,0,0,0,1.256-4.973c-3.209-3.909-3.757-8.432-2.675-13.129a8.88,8.88,0,0,1,9.79-6.6,9.409,9.409,0,0,1,7.855,8.924c.161,4.1-.6,7.843-3.313,11.082a3.57,3.57,0,0,0-.255,3.655c.127.344.651.614,1.05.774,2.285.917,4.566,1.85,6.888,2.664,4.14,1.452,6.093,4.516,6.6,8.692a20.958,20.958,0,0,1,.267,3.3c-.02.535-.494,1.053-.763,1.579h-39.919Zm38.375.408c-.107-.84-.188-1.51-.279-2.18-.452-3.333-1.992-5.774-5.355-6.895-2.375-.791-4.695-1.751-7.018-2.688a4.05,4.05,0,0,1-1.569-1.022c-1.191-1.412-1.316-5.242-.095-6.66a13.2,13.2,0,0,0,3.051-9.713,7.112,7.112,0,0,0-5.974-6.8,6.564,6.564,0,0,0-7.122,5.11c-.723,3.668-.528,7.366,2.023,10.418a6.72,6.72,0,0,1,1.418,5.354,3.75,3.75,0,0,1-2.688,3.469c-3.017,1.128-6.02,2.333-8.913,3.744-2.218,1.081-3.773,5.378-3.137,7.862Z" transform="translate(-3245.953 1964.956)" fill="#12263f"/>
    <path id="Trazado_192891-2" data-name="Trazado 192891" d="M3994.617-1062.544a27.423,27.423,0,0,0,2.141,4.806,9.22,9.22,0,0,0,8.382,4.063,7.569,7.569,0,0,1,6.354,2.309,7.932,7.932,0,0,0,1.709,1.353,1.845,1.845,0,0,0,1.37.273c.3-.116.507-.751.548-1.176.083-.86.025-1.734.025-2.611a3.316,3.316,0,0,0,1.258-.206,1.588,1.588,0,0,0,.693-1.053c0-.27-.5-.715-.84-.787a10.345,10.345,0,0,0-1.962-.056c-.836-.012-1.184.428-1.165,1.23.012.5,0,1,0,1.752-1.094-.863-1.948-1.635-2.9-2.253a4.546,4.546,0,0,0-1.961-.7,46.738,46.738,0,0,1-5.22-.314,8.127,8.127,0,0,1-6.4-8.476,8.226,8.226,0,0,1,8.043-7.721q6.344-.146,12.693,0c4.379.1,7.6,3.305,8.046,7.835.07.714.13,1.385,1.029,1.347.954-.04,1-.768.979-1.511a10.327,10.327,0,0,0-8.259-9.486,5.819,5.819,0,0,1-.7-.216h-14.884a2.38,2.38,0,0,1-.482.195,9.086,9.086,0,0,0-6.39,3.967,31.038,31.038,0,0,0-2.1,4.813Z" transform="translate(-3334.617 2015.957)" fill="#2ec49f"/>
    <path id="Trazado_777445" data-name="Trazado 777445" d="M-3.579,0V-9.953H-.092a4.578,4.578,0,0,1,2.748.694,2.373,2.373,0,0,1,.937,2.034,2.249,2.249,0,0,1-.376,1.289A2.172,2.172,0,0,1,2.17-5.12a2.1,2.1,0,0,1,1.207.772,2.284,2.284,0,0,1,.441,1.422A2.627,2.627,0,0,1,2.9-.752,4.124,4.124,0,0,1,.291,0Zm2.051-4.334v2.687H.229A1.7,1.7,0,0,0,1.36-1.993a1.184,1.184,0,0,0,.407-.954A1.25,1.25,0,0,0,.352-4.334Zm0-1.449H-.01q1.552-.027,1.552-1.237a1.143,1.143,0,0,0-.393-.974,2.067,2.067,0,0,0-1.241-.3H-1.528Z" transform="translate(674.254 954.846)" fill="#2ec49f"/>
    <path id="Trazado_192890-3" data-name="Trazado 192890" d="M3919.574-970.451q.621-2.658,1.24-5.316a6.074,6.074,0,0,1,3.538-4.278c2.773-1.275,5.606-2.425,8.44-3.563a3.079,3.079,0,0,0,1.256-4.973c-3.209-3.909-3.757-8.432-2.675-13.129a8.88,8.88,0,0,1,9.79-6.6,9.409,9.409,0,0,1,7.855,8.924c.161,4.1-.6,7.843-3.313,11.082a3.57,3.57,0,0,0-.255,3.655c.127.344.651.614,1.05.774,2.285.917,4.566,1.85,6.888,2.664,4.14,1.452,6.093,4.516,6.6,8.692a20.958,20.958,0,0,1,.267,3.3c-.02.535-.494,1.053-.763,1.579h-39.919Zm38.375.408c-.107-.84-.188-1.51-.279-2.18-.452-3.333-1.992-5.774-5.355-6.895-2.375-.791-4.695-1.751-7.018-2.688a4.05,4.05,0,0,1-1.569-1.022c-1.191-1.412-1.316-5.242-.095-6.66a13.2,13.2,0,0,0,3.051-9.713,7.112,7.112,0,0,0-5.974-6.8,6.564,6.564,0,0,0-7.122,5.11c-.723,3.668-.528,7.366,2.023,10.418a6.72,6.72,0,0,1,1.418,5.354,3.75,3.75,0,0,1-2.688,3.469c-3.017,1.128-6.02,2.333-8.913,3.744-2.218,1.081-3.773,5.378-3.137,7.862Z" transform="translate(-3245.953 2041.86)" fill="#12263f"/>
    <path id="Trazado_192891-3" data-name="Trazado 192891" d="M3994.617-1062.544a27.423,27.423,0,0,0,2.141,4.806,9.22,9.22,0,0,0,8.382,4.063,7.569,7.569,0,0,1,6.354,2.309,7.932,7.932,0,0,0,1.709,1.353,1.845,1.845,0,0,0,1.37.273c.3-.116.507-.751.548-1.176.083-.86.025-1.734.025-2.611a3.316,3.316,0,0,0,1.258-.206,1.588,1.588,0,0,0,.693-1.053c0-.27-.5-.715-.84-.787a10.345,10.345,0,0,0-1.962-.056c-.836-.012-1.184.428-1.165,1.23.012.5,0,1,0,1.752-1.094-.863-1.948-1.635-2.9-2.253a4.546,4.546,0,0,0-1.961-.7,46.738,46.738,0,0,1-5.22-.314,8.127,8.127,0,0,1-6.4-8.476,8.226,8.226,0,0,1,8.043-7.721q6.344-.146,12.693,0c4.379.1,7.6,3.305,8.046,7.835.07.714.13,1.385,1.029,1.347.954-.04,1-.768.979-1.511a10.327,10.327,0,0,0-8.259-9.486,5.819,5.819,0,0,1-.7-.216h-14.884a2.38,2.38,0,0,1-.482.195,9.086,9.086,0,0,0-6.39,3.967,31.038,31.038,0,0,0-2.1,4.813Z" transform="translate(-3334.617 2092.861)" fill="#2ec49f"/>
    <path id="Trazado_777446" data-name="Trazado 777446" d="M4.122-3.315A3.522,3.522,0,0,1,2.936-.786,4.165,4.165,0,0,1,.116.137,3.745,3.745,0,0,1-2.9-1.152a5.284,5.284,0,0,1-1.1-3.538V-5.3a5.966,5.966,0,0,1,.506-2.529A3.791,3.791,0,0,1-2.041-9.505,4.05,4.05,0,0,1,.144-10.09a4.058,4.058,0,0,1,2.775.923A3.785,3.785,0,0,1,4.136-6.576H2.085a2.079,2.079,0,0,0-.537-1.4,1.987,1.987,0,0,0-1.4-.434,1.742,1.742,0,0,0-1.535.735,4.118,4.118,0,0,0-.523,2.28v.752a4.408,4.408,0,0,0,.489,2.358,1.71,1.71,0,0,0,1.542.745,2.025,2.025,0,0,0,1.418-.434,1.961,1.961,0,0,0,.537-1.343Z" transform="translate(674.254 1031.75)" fill="#2ec49f"/>
    <path id="Trazado_197282" data-name="Trazado 197282" d="M8.411,37.756V25.3c-1.994,0-3.736.078-5.468-.019C.45,25.145-.828,23.778.589,21.513Q7.008,11.253,13.844,1.257c1.328-1.951,3.135-1.473,4.351.354C22.517,8.1,26.838,14.593,31,21.186c1.491,2.362.552,3.945-2.294,4.1-1.733.093-3.474.017-5.438.017V37.748a48.13,48.13,0,0,1,5.688.045c2.407.295,3.546,1.774,2.128,4.006-4.252,6.7-8.62,13.323-13.038,19.912-1.29,1.924-3.068,1.905-4.346,0Q7.057,51.84.646,41.811c-1.433-2.25-.271-3.7,2.126-4.011A46.621,46.621,0,0,1,8.411,37.756ZM15.885,7.091,7.424,19.939C13.6,20.95,13.6,20.95,13.6,26.952c0,2.741.05,5.483-.019,8.221-.05,2.036.384,4.482-.585,5.974-.828,1.273-3.345,1.45-5.445,2.233l8.315,12.7,8.6-13.15c-6.336-.612-6.338-.612-6.342-6.208,0-3.289.255-6.6-.054-9.86-.421-4.437.635-7.263,6.469-6.489Z" transform="translate(785.081 952.212) rotate(90)" fill="#12263f"/>
    <path id="Trazado_197283" data-name="Trazado 197283" d="M8.411,37.756V25.3c-1.994,0-3.736.078-5.468-.019C.45,25.145-.828,23.778.589,21.513Q7.008,11.253,13.844,1.257c1.328-1.951,3.135-1.473,4.351.354C22.517,8.1,26.838,14.593,31,21.186c1.491,2.362.552,3.945-2.294,4.1-1.733.093-3.474.017-5.438.017V37.748a48.13,48.13,0,0,1,5.688.045c2.407.295,3.546,1.774,2.128,4.006-4.252,6.7-8.62,13.323-13.038,19.912-1.29,1.924-3.068,1.905-4.346,0Q7.057,51.84.646,41.811c-1.433-2.25-.271-3.7,2.126-4.011A46.621,46.621,0,0,1,8.411,37.756ZM15.885,7.091,7.424,19.939C13.6,20.95,13.6,20.95,13.6,26.952c0,2.741.05,5.483-.019,8.221-.05,2.036.384,4.482-.585,5.974-.828,1.273-3.345,1.45-5.445,2.233l8.315,12.7,8.6-13.15c-6.336-.612-6.338-.612-6.342-6.208,0-3.289.255-6.6-.054-9.86-.421-4.437.635-7.263,6.469-6.489Z" transform="translate(954.445 952.212) rotate(90)" fill="#12263f"/>
    <path id="Trazado_197284" data-name="Trazado 197284" d="M8.411,37.756V25.3c-1.994,0-3.736.078-5.468-.019C.45,25.145-.828,23.778.589,21.513Q7.008,11.253,13.844,1.257c1.328-1.951,3.135-1.473,4.351.354C22.517,8.1,26.838,14.593,31,21.186c1.491,2.362.552,3.945-2.294,4.1-1.733.093-3.474.017-5.438.017V37.748a48.13,48.13,0,0,1,5.688.045c2.407.295,3.546,1.774,2.128,4.006-4.252,6.7-8.62,13.323-13.038,19.912-1.29,1.924-3.068,1.905-4.346,0Q7.057,51.84.646,41.811c-1.433-2.25-.271-3.7,2.126-4.011A46.621,46.621,0,0,1,8.411,37.756ZM15.885,7.091,7.424,19.939C13.6,20.95,13.6,20.95,13.6,26.952c0,2.741.05,5.483-.019,8.221-.05,2.036.384,4.482-.585,5.974-.828,1.273-3.345,1.45-5.445,2.233l8.315,12.7,8.6-13.15c-6.336-.612-6.338-.612-6.342-6.208,0-3.289.255-6.6-.054-9.86-.421-4.437.635-7.263,6.469-6.489Z" transform="translate(1110.801 952.212) rotate(90)" fill="#12263f"/>
    <path id="Trazado_777440" data-name="Trazado 777440" d="M.952,0V-10.664H4.233a4.983,4.983,0,0,1,2.516.634,4.418,4.418,0,0,1,1.732,1.8A5.557,5.557,0,0,1,9.1-5.574v.491a5.573,5.573,0,0,1-.612,2.644A4.38,4.38,0,0,1,6.768-.645,5.021,5.021,0,0,1,4.255,0Zm2.2-8.884v7.119H4.211a2.386,2.386,0,0,0,1.97-.842,3.806,3.806,0,0,0,.7-2.41v-.564A3.867,3.867,0,0,0,6.2-8.046a2.378,2.378,0,0,0-1.97-.839ZM16.567-2.2H12.715L11.982,0H9.646l3.97-10.664h2.036L19.644,0H17.307Zm-3.259-1.78h2.666l-1.34-3.992Zm10.2-6.687L26.25-2.93l2.725-7.734H31.86V0h-2.2V-2.915l.22-5.032L27,0H25.488L22.617-7.939l.22,5.024V0h-2.2V-10.664Z" transform="translate(1058.988 872.999)" fill="#12263f"/>
    <path id="Trazado_777441" data-name="Trazado 777441" d="M6.423-2.2H2.7L1.6,0H-.762l5.7-10.664H6.921L8.95,0H6.76ZM3.582-3.977H6.152l-.6-3.97ZM17.5-3.94a6.545,6.545,0,0,1-.652,2.212A3.587,3.587,0,0,1,15.608-.293a2.867,2.867,0,0,1-1.641.447A2.288,2.288,0,0,1,12.151-.7l-.725,3.75H9.36l1.9-10.972,1.9-.007-.139.8a2.53,2.53,0,0,1,2.021-.937,2.251,2.251,0,0,1,1.809.846,3.677,3.677,0,0,1,.688,2.216A8.562,8.562,0,0,1,17.5-3.94Zm-2.051-.15.044-.7a1.959,1.959,0,0,0-.26-1.13.933.933,0,0,0-.8-.433,1.7,1.7,0,0,0-1.487.763l-.593,3.272a1.156,1.156,0,0,0,1.165.77,1.49,1.49,0,0,0,1.245-.58A3.969,3.969,0,0,0,15.447-4.091ZM20.332,0h-2.08l1.956-11.25H22.28Zm3.933,0h-2.08l1.377-7.925h2.08ZM23.8-9.939a1.032,1.032,0,0,1,.322-.813,1.134,1.134,0,0,1,.813-.322,1.139,1.139,0,0,1,.813.286,1.027,1.027,0,0,1,.359.776,1.061,1.061,0,0,1-.3.791,1.139,1.139,0,0,1-.831.352,1.158,1.158,0,0,1-.809-.278A1.023,1.023,0,0,1,23.8-9.939Zm5.684,8.386a1.357,1.357,0,0,0,.952-.311,1.53,1.53,0,0,0,.5-.868l1.941-.007a2.847,2.847,0,0,1-.524,1.5A3.182,3.182,0,0,1,31.095-.2a3.606,3.606,0,0,1-1.659.352,2.928,2.928,0,0,1-2.285-1,3.717,3.717,0,0,1-.813-2.593l.022-.4.007-.081a4.954,4.954,0,0,1,1.3-3.065A3.526,3.526,0,0,1,30.4-8.071a2.857,2.857,0,0,1,2.128.875,3.091,3.091,0,0,1,.773,2.23H31.377a1.622,1.622,0,0,0-.278-1,1.057,1.057,0,0,0-.835-.4Q28.784-6.409,28.469-4.2a7.3,7.3,0,0,0-.081,1.348Q28.462-1.575,29.487-1.553ZM38.262,0a2.138,2.138,0,0,1-.081-.718A2.684,2.684,0,0,1,36.16.146a2.432,2.432,0,0,1-1.725-.677,2.05,2.05,0,0,1-.641-1.637,2.369,2.369,0,0,1,1.088-1.989,4.937,4.937,0,0,1,2.78-.692l.967.015.1-.476a1.654,1.654,0,0,0,.022-.461.793.793,0,0,0-.26-.538.9.9,0,0,0-.59-.2,1.261,1.261,0,0,0-.82.238,1.154,1.154,0,0,0-.432.729l-2.073.007a2.3,2.3,0,0,1,1.044-1.842,4.042,4.042,0,0,1,2.45-.692,2.922,2.922,0,0,1,2.109.8,2.346,2.346,0,0,1,.637,1.989L40.21-1.487l-.037.469a2.261,2.261,0,0,0,.125.879L40.291,0ZM36.672-1.458a1.891,1.891,0,0,0,1.56-.776l.256-1.37-.718-.007a2.005,2.005,0,0,0-1.648.7,1.211,1.211,0,0,0-.227.593.7.7,0,0,0,.165.626A.835.835,0,0,0,36.672-1.458Zm8.35-.1a1.357,1.357,0,0,0,.952-.311,1.53,1.53,0,0,0,.5-.868l1.941-.007a2.847,2.847,0,0,1-.524,1.5A3.182,3.182,0,0,1,46.63-.2a3.606,3.606,0,0,1-1.659.352,2.928,2.928,0,0,1-2.285-1,3.717,3.717,0,0,1-.813-2.593l.022-.4.007-.081a4.954,4.954,0,0,1,1.3-3.065,3.526,3.526,0,0,1,2.732-1.088,2.857,2.857,0,0,1,2.128.875,3.091,3.091,0,0,1,.773,2.23H46.912a1.622,1.622,0,0,0-.278-1,1.057,1.057,0,0,0-.835-.4Q44.319-6.409,44-4.2a7.3,7.3,0,0,0-.081,1.348Q44-1.575,45.022-1.553ZM53.4-9.873l-.344,1.948h1.318L54.1-6.372H52.786L52.112-2.4a1.009,1.009,0,0,0,.059.571q.1.2.5.212.117.007.63-.037L53.152-.037a3.474,3.474,0,0,1-1.187.168,1.861,1.861,0,0,1-1.516-.637,2.3,2.3,0,0,1-.41-1.685l.681-4.182H49.6l.271-1.553h1.121l.337-1.948ZM56.382,0H54.3l1.377-7.925h2.08ZM55.92-9.939a1.032,1.032,0,0,1,.322-.813,1.134,1.134,0,0,1,.813-.322,1.139,1.139,0,0,1,.813.286,1.027,1.027,0,0,1,.359.776,1.061,1.061,0,0,1-.3.791,1.139,1.139,0,0,1-.831.352,1.158,1.158,0,0,1-.809-.278A1.023,1.023,0,0,1,55.92-9.939Zm6.746,1.868a3.179,3.179,0,0,1,1.805.538A3.032,3.032,0,0,1,65.585-6.09a4.464,4.464,0,0,1,.253,2.04A4.822,4.822,0,0,1,64.523-.992,3.712,3.712,0,0,1,61.692.146,3.169,3.169,0,0,1,59.9-.385a3.02,3.02,0,0,1-1.113-1.432,4.366,4.366,0,0,1-.256-2.021,4.964,4.964,0,0,1,1.333-3.12A3.636,3.636,0,0,1,62.666-8.071ZM60.579-3.089a1.829,1.829,0,0,0,.33,1.108,1.1,1.1,0,0,0,.886.421,1.605,1.605,0,0,0,1.494-.874,4.356,4.356,0,0,0,.505-2.373,1.989,1.989,0,0,0-.341-1.122,1.077,1.077,0,0,0-.89-.435,1.607,1.607,0,0,0-1.476.867A4.311,4.311,0,0,0,60.579-3.089ZM69.7-7.932l-.176.938a2.852,2.852,0,0,1,2.307-1.077,1.9,1.9,0,0,1,1.655.82,3.305,3.305,0,0,1,.388,2.212L73.037,0H70.972l.85-5.061a2.37,2.37,0,0,0,.015-.52A.839.839,0,0,0,70.9-6.35a1.778,1.778,0,0,0-1.458.754L68.452,0H66.387l1.377-7.925Z" transform="translate(800.438 1068.468)" fill="#12263f"/>
    <path id="Trazado_197285" data-name="Trazado 197285" d="M5708.858-9626.184s-21.979,69.666-95.738,34.814" transform="translate(-4709.962 10664.483)" fill="none" stroke="#12263f" stroke-width="6"/>
    <path id="Trazado_777442" data-name="Trazado 777442" d="M10.014,0,20.028,17.525H0Z" transform="translate(887.267 1073.634) rotate(-58)" fill="#12263f"/>
    <path id="Trazado_197286" data-name="Trazado 197286" d="M6998.513,4847.528h-2.61c-1.066,0-1.4-.371-1.212-1.418q.793-4.43,1.62-8.855c.12-.651.411-.874,1.082-.874h38.462l7.7,0c.851,0,1.076.156,1.235.992.507,2.668,1,5.339,1.494,8.01.058.313.118.625.173.938a.951.951,0,0,1-.991,1.207c-.958.012-1.918,0-2.9,0a21.868,21.868,0,0,1-7.539,15.616,21.334,21.334,0,0,1-15.682,5.454A22.128,22.128,0,0,1,6998.513,4847.528Zm-1.9-1.849h47.855c-.036-.144-.07-.254-.09-.368-.384-2.144-.774-4.286-1.14-6.433-.084-.5-.249-.695-.822-.694q-21.867.034-43.735.018c-.1,0-.2.008-.3,0-.278-.026-.416.047-.456.372-.08.648-.227,1.288-.346,1.931C6997.255,4842.216,6996.937,4843.93,6996.612,4845.679Zm15.326,1.865c-.013.115-.025.181-.025.246q0,8.358-.01,16.717c0,.306.15.409.375.509a20.057,20.057,0,0,0,7.64,1.767,20.314,20.314,0,0,0,8.771-1.706.676.676,0,0,0,.5-.735q-.024-8.131-.011-16.261v-.537Zm-11.549.011a19.9,19.9,0,0,0,9.633,16.177v-16.177Zm30.674,16.3a20.459,20.459,0,0,0,9.66-16.3h-9.66Z" transform="translate(-5941.333 -3954.674)" fill="#12263f"/>
    <path id="Trazado_197287" data-name="Trazado 197287" d="M7196.586,4968.987a6.8,6.8,0,1,1-6.836-6.8A6.816,6.816,0,0,1,7196.586,4968.987Zm-6.79-4.959a4.963,4.963,0,1,0,4.958,4.979A5,5,0,0,0,7189.8,4964.028Z" transform="translate(-6110.586 -4067.727)" fill="#12263f"/>
    <path id="Trazado_197288" data-name="Trazado 197288" d="M7222.312,4998.414a3.147,3.147,0,0,1,3.109,3.125,3.107,3.107,0,0,1-3.154,3.139,3.132,3.132,0,1,1,.045-6.265Zm-1.331,3.123a1.4,1.4,0,0,0,1.305,1.3,1.364,1.364,0,0,0,1.3-1.291,1.3,1.3,0,0,0-2.607-.008Z" transform="translate(-6143.083 -4100.284)" fill="#12263f"/>
    <path id="Trazado_197285-2" data-name="Trazado 197285" d="M1025.424,2152.406v19.952" transform="translate(53.732 -1232.981)" fill="none" stroke="#12263f" stroke-width="6"/>
    <path id="Trazado_777438" data-name="Trazado 777438" d="M6.879,0l6.879,11.694H0Z" transform="translate(1086.104 945.5) rotate(180)" fill="#12263f"/>
    <path id="Trazado_777439" data-name="Trazado 777439" d="M2.2-2.831a3.819,3.819,0,0,1,.216-1.417,2.907,2.907,0,0,1,.79-1.039,4.041,4.041,0,0,0,.765-.833,1.307,1.307,0,0,0,.19-.677q0-1.075-.99-1.075a1,1,0,0,0-.752.289,1.137,1.137,0,0,0-.3.8H.286a2.448,2.448,0,0,1,.784-1.9,3.052,3.052,0,0,1,2.1-.686,3.065,3.065,0,0,1,2.088.651A2.317,2.317,0,0,1,6-6.878a2.239,2.239,0,0,1-.241,1.02,4.2,4.2,0,0,1-.844,1.064l-.514.489a1.743,1.743,0,0,0-.552,1.086l-.025.388ZM2.019-.885a.924.924,0,0,1,.289-.7,1.028,1.028,0,0,1,.74-.275,1.028,1.028,0,0,1,.74.275.924.924,0,0,1,.289.7.917.917,0,0,1-.282.69,1.03,1.03,0,0,1-.746.272A1.03,1.03,0,0,1,2.3-.2.917.917,0,0,1,2.019-.885Z" transform="translate(937.158 1053.743)" fill="#12263f"/>
  </g>
</svg>
