<svg xmlns="http://www.w3.org/2000/svg" xmlns:xlink="http://www.w3.org/1999/xlink" width="418" height="162" viewBox="0 0 418 162">
  <defs>
    <filter id="Trazado_777482" x="0" y="70" width="28" height="92" filterUnits="userSpaceOnUse">
      <feOffset dy="2" input="SourceAlpha"/>
      <feGaussianBlur stdDeviation="2" result="blur"/>
      <feFlood flood-opacity="0.161"/>
      <feComposite operator="in" in2="blur"/>
      <feComposite in="SourceGraphic"/>
    </filter>
    <filter id="Trazado_777483" x="135" y="34" width="29" height="92" filterUnits="userSpaceOnUse">
      <feOffset dy="2" input="SourceAlpha"/>
      <feGaussianBlur stdDeviation="2" result="blur-2"/>
      <feFlood flood-opacity="0.161"/>
      <feComposite operator="in" in2="blur-2"/>
      <feComposite in="SourceGraphic"/>
    </filter>
    <filter id="Trazado_777484" x="276" y="0" width="28" height="92" filterUnits="userSpaceOnUse">
      <feOffset dy="2" input="SourceAlpha"/>
      <feGaussianBlur stdDeviation="2" result="blur-3"/>
      <feFlood flood-opacity="0.161"/>
      <feComposite operator="in" in2="blur-3"/>
      <feComposite in="SourceGraphic"/>
    </filter>
    <filter id="Trazado_777485" x="0" y="70" width="140" height="27" filterUnits="userSpaceOnUse">
      <feOffset dy="2" input="SourceAlpha"/>
      <feGaussianBlur stdDeviation="2" result="blur-4"/>
      <feFlood flood-opacity="0.161"/>
      <feComposite operator="in" in2="blur-4"/>
      <feComposite in="SourceGraphic"/>
    </filter>
    <filter id="Trazado_777486" x="135" y="34" width="142" height="28" filterUnits="userSpaceOnUse">
      <feOffset dy="2" input="SourceAlpha"/>
      <feGaussianBlur stdDeviation="2" result="blur-5"/>
      <feFlood flood-opacity="0.161"/>
      <feComposite operator="in" in2="blur-5"/>
      <feComposite in="SourceGraphic"/>
    </filter>
    <filter id="Trazado_777487" x="276" y="0" width="142" height="28" filterUnits="userSpaceOnUse">
      <feOffset dy="2" input="SourceAlpha"/>
      <feGaussianBlur stdDeviation="2" result="blur-6"/>
      <feFlood flood-opacity="0.161"/>
      <feComposite operator="in" in2="blur-6"/>
      <feComposite in="SourceGraphic"/>
    </filter>
    <filter id="Trazado_196923" x="102.672" y="34.599" width="37.559" height="38.536" filterUnits="userSpaceOnUse">
      <feOffset dy="2" input="SourceAlpha"/>
      <feGaussianBlur stdDeviation="2" result="blur-7"/>
      <feFlood flood-opacity="0.161"/>
      <feComposite operator="in" in2="blur-7"/>
      <feComposite in="SourceGraphic"/>
    </filter>
    <filter id="Trazado_196924" x="240.075" y="0" width="37.559" height="38.536" filterUnits="userSpaceOnUse">
      <feOffset dy="2" input="SourceAlpha"/>
      <feGaussianBlur stdDeviation="2" result="blur-8"/>
      <feFlood flood-opacity="0.161"/>
      <feComposite operator="in" in2="blur-8"/>
      <feComposite in="SourceGraphic"/>
    </filter>
  </defs>
  <g id="Grupo_1071894" data-name="Grupo 1071894" transform="translate(6856 994.614)">
    <g transform="matrix(1, 0, 0, 1, -6856, -994.61)" filter="url(#Trazado_777482)">
      <path id="Trazado_777482-2" data-name="Trazado 777482" d="M0,0H16V80H0Z" transform="translate(6 74)" fill="#2ec49f"/>
    </g>
    <g transform="matrix(1, 0, 0, 1, -6856, -994.61)" filter="url(#Trazado_777483)">
      <path id="Trazado_777483-2" data-name="Trazado 777483" d="M0,0H17V80H0Z" transform="translate(141 38)" fill="#1565c0"/>
    </g>
    <g transform="matrix(1, 0, 0, 1, -6856, -994.61)" filter="url(#Trazado_777484)">
      <path id="Trazado_777484-2" data-name="Trazado 777484" d="M0,0H16V80H0Z" transform="translate(282 4)" fill="#f59d36"/>
    </g>
    <g transform="matrix(1, 0, 0, 1, -6856, -994.61)" filter="url(#Trazado_777485)">
      <path id="Trazado_777485-2" data-name="Trazado 777485" d="M0,0H128V15H0Z" transform="translate(6 74)" fill="#2ec49f"/>
    </g>
    <g transform="matrix(1, 0, 0, 1, -6856, -994.61)" filter="url(#Trazado_777486)">
      <path id="Trazado_777486-2" data-name="Trazado 777486" d="M0,0H130V16H0Z" transform="translate(141 38)" fill="#1565c0"/>
    </g>
    <g transform="matrix(1, 0, 0, 1, -6856, -994.61)" filter="url(#Trazado_777487)">
      <path id="Trazado_777487-2" data-name="Trazado 777487" d="M0,0H130V16H0Z" transform="translate(282 4)" fill="#f59d36"/>
    </g>
    <g transform="matrix(1, 0, 0, 1, -6856, -994.61)" filter="url(#Trazado_196923)">
      <path id="Trazado_196923-2" data-name="Trazado 196923" d="M-7825.293,1888.679h25.559v-26.536Z" transform="translate(7933.96 -1823.54)" fill="#2ec49f"/>
    </g>
    <g transform="matrix(1, 0, 0, 1, -6856, -994.61)" filter="url(#Trazado_196924)">
      <path id="Trazado_196924-2" data-name="Trazado 196924" d="M-7825.293,1888.679h25.559v-26.536Z" transform="translate(8071.37 -1858.14)" fill="#1565c0"/>
    </g>
    <path id="Trazado_777488" data-name="Trazado 777488" d="M8.422-9.953V-3.4A3.356,3.356,0,0,1,7.4-.813a3.94,3.94,0,0,1-2.792.95A3.984,3.984,0,0,1,1.839-.786,3.3,3.3,0,0,1,.793-3.322V-9.953H2.844v6.569a1.9,1.9,0,0,0,.468,1.425,1.8,1.8,0,0,0,1.3.448q1.729,0,1.757-1.818V-9.953ZM11.792-7.4l.062.854a2.582,2.582,0,0,1,2.126-.991,2.146,2.146,0,0,1,1.75.69,3.221,3.221,0,0,1,.588,2.064V0H14.342V-4.741a1.287,1.287,0,0,0-.273-.915,1.222,1.222,0,0,0-.909-.284,1.359,1.359,0,0,0-1.251.713V0H9.933V-7.4ZM19.9,0H17.917V-7.4H19.9ZM17.8-9.311a.973.973,0,0,1,.3-.731,1.117,1.117,0,0,1,.81-.287,1.12,1.12,0,0,1,.807.287.967.967,0,0,1,.3.731.97.97,0,0,1-.3.738,1.122,1.122,0,0,1-.8.287,1.122,1.122,0,0,1-.8-.287A.97.97,0,0,1,17.8-9.311Zm3.418,5.558a4.457,4.457,0,0,1,.776-2.755,2.517,2.517,0,0,1,2.123-1.025,2.265,2.265,0,0,1,1.784.807V-10.5h1.982V0H26.1L26-.786a2.325,2.325,0,0,1-1.9.923,2.511,2.511,0,0,1-2.1-1.029A4.6,4.6,0,0,1,21.219-3.753Zm1.976.141a2.936,2.936,0,0,0,.362,1.6,1.179,1.179,0,0,0,1.053.556A1.321,1.321,0,0,0,25.9-2.232V-5.164a1.3,1.3,0,0,0-1.278-.776Q23.194-5.94,23.194-3.612ZM31.5,0H29.518V-7.4H31.5ZM29.4-9.311a.973.973,0,0,1,.3-.731,1.117,1.117,0,0,1,.81-.287,1.12,1.12,0,0,1,.807.287.967.967,0,0,1,.3.731.97.97,0,0,1-.3.738,1.122,1.122,0,0,1-.8.287,1.122,1.122,0,0,1-.8-.287A.97.97,0,0,1,29.4-9.311Zm7.882,3.767a5.367,5.367,0,0,0-.711-.055,1.447,1.447,0,0,0-1.47.759V0H33.127V-7.4h1.866l.055.882A1.831,1.831,0,0,1,36.7-7.533a2.07,2.07,0,0,1,.615.089ZM41.508.137a3.631,3.631,0,0,1-2.649-1,3.548,3.548,0,0,1-1.022-2.659v-.191A4.468,4.468,0,0,1,38.268-5.7a3.161,3.161,0,0,1,1.22-1.354,3.425,3.425,0,0,1,1.8-.475,3.07,3.07,0,0,1,2.389.957,3.889,3.889,0,0,1,.872,2.714v.807H39.84a1.835,1.835,0,0,0,.578,1.162,1.746,1.746,0,0,0,1.22.438,2.132,2.132,0,0,0,1.784-.827L44.393-1.2a2.966,2.966,0,0,1-1.2.981A3.947,3.947,0,0,1,41.508.137ZM41.282-5.94a1.234,1.234,0,0,0-.954.4A2.062,2.062,0,0,0,39.86-4.4h2.748V-4.56a1.471,1.471,0,0,0-.355-1.02A1.274,1.274,0,0,0,41.282-5.94Zm7.465,4.484a1.3,1.3,0,0,0,.889-.3,1.054,1.054,0,0,0,.355-.8h1.853a2.534,2.534,0,0,1-.41,1.377,2.706,2.706,0,0,1-1.1.971,3.455,3.455,0,0,1-1.548.345,3.211,3.211,0,0,1-2.5-1.008,3.99,3.99,0,0,1-.916-2.786v-.13a3.944,3.944,0,0,1,.909-2.728,3.174,3.174,0,0,1,2.5-1.019,3.111,3.111,0,0,1,2.225.79,2.8,2.8,0,0,1,.851,2.1H49.991a1.358,1.358,0,0,0-.355-.938,1.185,1.185,0,0,0-.9-.361,1.19,1.19,0,0,0-1.042.5A2.916,2.916,0,0,0,47.339-3.8V-3.6a2.953,2.953,0,0,0,.349,1.643A1.2,1.2,0,0,0,48.747-1.456Zm7.3,0a1.3,1.3,0,0,0,.889-.3,1.054,1.054,0,0,0,.355-.8h1.853a2.534,2.534,0,0,1-.41,1.377,2.706,2.706,0,0,1-1.1.971,3.455,3.455,0,0,1-1.548.345,3.211,3.211,0,0,1-2.5-1.008,3.99,3.99,0,0,1-.916-2.786v-.13a3.944,3.944,0,0,1,.909-2.728,3.174,3.174,0,0,1,2.5-1.019,3.111,3.111,0,0,1,2.225.79,2.8,2.8,0,0,1,.851,2.1H57.292a1.358,1.358,0,0,0-.355-.938,1.185,1.185,0,0,0-.9-.361,1.19,1.19,0,0,0-1.042.5A2.916,2.916,0,0,0,54.64-3.8V-3.6a2.953,2.953,0,0,0,.349,1.643A1.2,1.2,0,0,0,56.048-1.456ZM62.357,0H60.375V-7.4h1.982Zm-2.1-9.311a.973.973,0,0,1,.3-.731,1.117,1.117,0,0,1,.81-.287,1.12,1.12,0,0,1,.807.287.967.967,0,0,1,.3.731.97.97,0,0,1-.3.738,1.122,1.122,0,0,1-.8.287,1.122,1.122,0,0,1-.8-.287A.97.97,0,0,1,60.259-9.311Zm3.418,5.544A4.387,4.387,0,0,1,64.1-5.729a3.1,3.1,0,0,1,1.22-1.333,3.56,3.56,0,0,1,1.849-.472,3.368,3.368,0,0,1,2.444.916A3.676,3.676,0,0,1,70.67-4.129l.014.506a3.866,3.866,0,0,1-.95,2.731A3.3,3.3,0,0,1,67.184.137,3.319,3.319,0,0,1,64.63-.889a3.934,3.934,0,0,1-.954-2.789Zm1.976.14a2.765,2.765,0,0,0,.4,1.612,1.308,1.308,0,0,0,1.135.558A1.311,1.311,0,0,0,68.3-2.007a3.025,3.025,0,0,0,.4-1.763,2.737,2.737,0,0,0-.4-1.6A1.311,1.311,0,0,0,67.17-5.94a1.29,1.29,0,0,0-1.121.565A3.076,3.076,0,0,0,65.652-3.626ZM73.719-7.4l.062.854a2.582,2.582,0,0,1,2.126-.991,2.146,2.146,0,0,1,1.75.69,3.221,3.221,0,0,1,.588,2.064V0H76.269V-4.741A1.287,1.287,0,0,0,76-5.656a1.222,1.222,0,0,0-.909-.284,1.359,1.359,0,0,0-1.251.713V0H71.859V-7.4ZM84.027,0a2.194,2.194,0,0,1-.2-.663,2.39,2.39,0,0,1-1.866.8,2.626,2.626,0,0,1-1.8-.629,2.023,2.023,0,0,1-.714-1.586,2.09,2.09,0,0,1,.872-1.8,4.3,4.3,0,0,1,2.519-.636h.909v-.424a1.219,1.219,0,0,0-.263-.82,1.035,1.035,0,0,0-.831-.308,1.177,1.177,0,0,0-.783.239.813.813,0,0,0-.284.656H79.611a1.985,1.985,0,0,1,.4-1.189,2.621,2.621,0,0,1,1.121-.858,4.086,4.086,0,0,1,1.627-.311,3.228,3.228,0,0,1,2.17.687,2.4,2.4,0,0,1,.8,1.931v3.206a3.536,3.536,0,0,0,.294,1.593V0ZM82.394-1.374a1.7,1.7,0,0,0,.807-.195,1.28,1.28,0,0,0,.547-.523V-3.363h-.738q-1.483,0-1.579,1.025l-.007.116a.791.791,0,0,0,.26.608A1.009,1.009,0,0,0,82.394-1.374ZM89.332,0H87.35V-10.5h1.982Z" transform="translate(-6831 -888.614)" fill="#12263f"/>
    <path id="Trazado_777489" data-name="Trazado 777489" d="M.889,0V-9.953H4.375a4.578,4.578,0,0,1,2.748.694A2.373,2.373,0,0,1,8.06-7.226a2.249,2.249,0,0,1-.376,1.289,2.172,2.172,0,0,1-1.046.817,2.1,2.1,0,0,1,1.207.772,2.284,2.284,0,0,1,.441,1.422A2.627,2.627,0,0,1,7.369-.752,4.124,4.124,0,0,1,4.758,0ZM2.939-4.334v2.687H4.7a1.7,1.7,0,0,0,1.131-.345,1.184,1.184,0,0,0,.407-.954A1.25,1.25,0,0,0,4.819-4.334Zm0-1.449H4.457q1.552-.027,1.552-1.237a1.143,1.143,0,0,0-.393-.974,2.067,2.067,0,0,0-1.241-.3H2.939ZM11.778,0H9.8V-7.4h1.982ZM9.68-9.311a.973.973,0,0,1,.3-.731,1.117,1.117,0,0,1,.81-.287,1.12,1.12,0,0,1,.807.287.967.967,0,0,1,.3.731.97.97,0,0,1-.3.738,1.122,1.122,0,0,1-.8.287,1.122,1.122,0,0,1-.8-.287A.97.97,0,0,1,9.68-9.311ZM13.1-3.753a4.457,4.457,0,0,1,.776-2.755A2.517,2.517,0,0,1,16-7.533a2.265,2.265,0,0,1,1.784.807V-10.5h1.982V0H17.979l-.1-.786a2.325,2.325,0,0,1-1.9.923,2.511,2.511,0,0,1-2.1-1.029A4.6,4.6,0,0,1,13.1-3.753Zm1.976.141a2.936,2.936,0,0,0,.362,1.6,1.179,1.179,0,0,0,1.053.556,1.321,1.321,0,0,0,1.292-.776V-5.164A1.3,1.3,0,0,0,16.5-5.94Q15.073-5.94,15.073-3.612ZM23.379,0H21.4V-7.4h1.982Zm-2.1-9.311a.973.973,0,0,1,.3-.731,1.117,1.117,0,0,1,.81-.287,1.12,1.12,0,0,1,.807.287.967.967,0,0,1,.3.731.97.97,0,0,1-.3.738,1.122,1.122,0,0,1-.8.287,1.122,1.122,0,0,1-.8-.287A.97.97,0,0,1,21.28-9.311Zm7.882,3.767a5.367,5.367,0,0,0-.711-.055,1.447,1.447,0,0,0-1.47.759V0H25.006V-7.4h1.866l.055.882a1.831,1.831,0,0,1,1.647-1.019,2.07,2.07,0,0,1,.615.089ZM33.387.137a3.631,3.631,0,0,1-2.649-1,3.548,3.548,0,0,1-1.022-2.659v-.191A4.468,4.468,0,0,1,30.146-5.7a3.161,3.161,0,0,1,1.22-1.354,3.425,3.425,0,0,1,1.8-.475,3.07,3.07,0,0,1,2.389.957,3.889,3.889,0,0,1,.872,2.714v.807h-4.71A1.835,1.835,0,0,0,32.3-1.894a1.746,1.746,0,0,0,1.22.438A2.132,2.132,0,0,0,35.3-2.283L36.271-1.2a2.966,2.966,0,0,1-1.2.981A3.947,3.947,0,0,1,33.387.137ZM33.161-5.94a1.234,1.234,0,0,0-.954.4,2.062,2.062,0,0,0-.468,1.14h2.748V-4.56a1.471,1.471,0,0,0-.355-1.02A1.274,1.274,0,0,0,33.161-5.94Zm7.465,4.484a1.3,1.3,0,0,0,.889-.3,1.054,1.054,0,0,0,.355-.8h1.853a2.534,2.534,0,0,1-.41,1.377,2.706,2.706,0,0,1-1.1.971A3.455,3.455,0,0,1,40.66.137a3.211,3.211,0,0,1-2.5-1.008,3.99,3.99,0,0,1-.916-2.786v-.13a3.944,3.944,0,0,1,.909-2.728,3.174,3.174,0,0,1,2.5-1.019,3.111,3.111,0,0,1,2.225.79,2.8,2.8,0,0,1,.851,2.1H41.87a1.358,1.358,0,0,0-.355-.938,1.185,1.185,0,0,0-.9-.361,1.19,1.19,0,0,0-1.042.5A2.916,2.916,0,0,0,39.218-3.8V-3.6a2.953,2.953,0,0,0,.349,1.643A1.2,1.2,0,0,0,40.626-1.456Zm7.3,0a1.3,1.3,0,0,0,.889-.3,1.054,1.054,0,0,0,.355-.8h1.853a2.534,2.534,0,0,1-.41,1.377,2.706,2.706,0,0,1-1.1.971,3.455,3.455,0,0,1-1.548.345,3.211,3.211,0,0,1-2.5-1.008,3.99,3.99,0,0,1-.916-2.786v-.13a3.944,3.944,0,0,1,.909-2.728,3.174,3.174,0,0,1,2.5-1.019,3.111,3.111,0,0,1,2.225.79,2.8,2.8,0,0,1,.851,2.1H49.171a1.358,1.358,0,0,0-.355-.938,1.185,1.185,0,0,0-.9-.361,1.19,1.19,0,0,0-1.042.5A2.916,2.916,0,0,0,46.519-3.8V-3.6a2.953,2.953,0,0,0,.349,1.643A1.2,1.2,0,0,0,47.927-1.456ZM54.236,0H52.254V-7.4h1.982Zm-2.1-9.311a.973.973,0,0,1,.3-.731,1.117,1.117,0,0,1,.81-.287,1.12,1.12,0,0,1,.807.287.967.967,0,0,1,.3.731.97.97,0,0,1-.3.738,1.122,1.122,0,0,1-.8.287,1.122,1.122,0,0,1-.8-.287A.97.97,0,0,1,52.138-9.311Zm3.418,5.544a4.387,4.387,0,0,1,.424-1.962A3.1,3.1,0,0,1,57.2-7.062a3.56,3.56,0,0,1,1.849-.472,3.368,3.368,0,0,1,2.444.916,3.676,3.676,0,0,1,1.056,2.488l.014.506a3.866,3.866,0,0,1-.95,2.731A3.3,3.3,0,0,1,59.063.137,3.319,3.319,0,0,1,56.509-.889a3.934,3.934,0,0,1-.954-2.789Zm1.976.14a2.765,2.765,0,0,0,.4,1.612,1.308,1.308,0,0,0,1.135.558,1.311,1.311,0,0,0,1.121-.551,3.025,3.025,0,0,0,.4-1.763,2.737,2.737,0,0,0-.4-1.6,1.311,1.311,0,0,0-1.135-.568,1.29,1.29,0,0,0-1.121.565A3.076,3.076,0,0,0,57.531-3.626ZM65.6-7.4l.062.854a2.582,2.582,0,0,1,2.126-.991,2.146,2.146,0,0,1,1.75.69,3.221,3.221,0,0,1,.588,2.064V0H68.147V-4.741a1.287,1.287,0,0,0-.273-.915,1.222,1.222,0,0,0-.909-.284,1.359,1.359,0,0,0-1.251.713V0H63.738V-7.4ZM75.906,0a2.194,2.194,0,0,1-.2-.663,2.39,2.39,0,0,1-1.866.8,2.626,2.626,0,0,1-1.8-.629,2.023,2.023,0,0,1-.714-1.586,2.09,2.09,0,0,1,.872-1.8,4.3,4.3,0,0,1,2.519-.636h.909v-.424a1.219,1.219,0,0,0-.263-.82,1.035,1.035,0,0,0-.831-.308,1.177,1.177,0,0,0-.783.239.813.813,0,0,0-.284.656H71.49a1.985,1.985,0,0,1,.4-1.189,2.621,2.621,0,0,1,1.121-.858,4.086,4.086,0,0,1,1.627-.311,3.228,3.228,0,0,1,2.17.687,2.4,2.4,0,0,1,.8,1.931v3.206A3.536,3.536,0,0,0,77.9-.116V0ZM74.272-1.374a1.7,1.7,0,0,0,.807-.195,1.28,1.28,0,0,0,.547-.523V-3.363h-.738q-1.483,0-1.579,1.025l-.007.116a.791.791,0,0,0,.26.608A1.009,1.009,0,0,0,74.272-1.374ZM81.211,0H79.229V-10.5h1.982Z" transform="translate(-6693 -923.614)" fill="#12263f"/>
    <path id="Trazado_777490" data-name="Trazado 777490" d="M8.381-8.292H5.332V0H3.281V-8.292H.273V-9.953H8.381Zm4.751,2.748a5.367,5.367,0,0,0-.711-.055,1.447,1.447,0,0,0-1.47.759V0H8.976V-7.4h1.866l.055.882a1.831,1.831,0,0,1,1.647-1.019,2.07,2.07,0,0,1,.615.089ZM18.163,0a2.194,2.194,0,0,1-.2-.663,2.39,2.39,0,0,1-1.866.8,2.626,2.626,0,0,1-1.8-.629,2.023,2.023,0,0,1-.714-1.586,2.09,2.09,0,0,1,.872-1.8,4.3,4.3,0,0,1,2.519-.636h.909v-.424a1.219,1.219,0,0,0-.263-.82,1.035,1.035,0,0,0-.831-.308,1.177,1.177,0,0,0-.783.239.813.813,0,0,0-.284.656H13.747a1.984,1.984,0,0,1,.4-1.189,2.621,2.621,0,0,1,1.121-.858,4.086,4.086,0,0,1,1.627-.311,3.228,3.228,0,0,1,2.17.687,2.4,2.4,0,0,1,.8,1.931v3.206a3.536,3.536,0,0,0,.294,1.593V0ZM16.529-1.374a1.7,1.7,0,0,0,.807-.195,1.28,1.28,0,0,0,.547-.523V-3.363h-.738q-1.483,0-1.579,1.025l-.007.116a.791.791,0,0,0,.26.608A1.009,1.009,0,0,0,16.529-1.374ZM23.2-7.4l.062.854a2.582,2.582,0,0,1,2.126-.991,2.146,2.146,0,0,1,1.75.69,3.221,3.221,0,0,1,.588,2.064V0H25.751V-4.741a1.287,1.287,0,0,0-.273-.915,1.222,1.222,0,0,0-.909-.284,1.359,1.359,0,0,0-1.251.713V0H21.342V-7.4ZM33.229-2.044a.637.637,0,0,0-.359-.571,4.077,4.077,0,0,0-1.152-.373Q29.08-3.541,29.08-5.229A2.032,2.032,0,0,1,29.9-6.874a3.3,3.3,0,0,1,2.136-.66,3.547,3.547,0,0,1,2.252.663,2.09,2.09,0,0,1,.844,1.723H33.154a.956.956,0,0,0-.273-.7,1.157,1.157,0,0,0-.854-.277,1.182,1.182,0,0,0-.772.226.712.712,0,0,0-.273.574.609.609,0,0,0,.311.53,3.2,3.2,0,0,0,1.049.349,8.571,8.571,0,0,1,1.244.332A2.044,2.044,0,0,1,35.15-2.126a1.929,1.929,0,0,1-.868,1.637A3.745,3.745,0,0,1,32.04.137a3.912,3.912,0,0,1-1.651-.332A2.77,2.77,0,0,1,29.258-1.1a2.113,2.113,0,0,1-.41-1.248h1.873a1.031,1.031,0,0,0,.39.807,1.546,1.546,0,0,0,.971.28,1.43,1.43,0,0,0,.858-.215A.67.67,0,0,0,33.229-2.044ZM38.507,0H36.524V-7.4h1.982Zm-2.1-9.311a.973.973,0,0,1,.3-.731,1.117,1.117,0,0,1,.81-.287,1.12,1.12,0,0,1,.807.287.967.967,0,0,1,.3.731.97.97,0,0,1-.3.738,1.122,1.122,0,0,1-.8.287,1.122,1.122,0,0,1-.8-.287A.97.97,0,0,1,36.408-9.311Zm6.091.1V-7.4h1.265v1.449H42.5v3.691a.881.881,0,0,0,.157.588.79.79,0,0,0,.6.178,3.151,3.151,0,0,0,.581-.048v1.5a4.067,4.067,0,0,1-1.2.178,1.886,1.886,0,0,1-2.119-2.1V-5.947h-1.08V-7.4h1.08V-9.215ZM46.949,0H44.967V-7.4h1.982Zm-2.1-9.311a.973.973,0,0,1,.3-.731,1.117,1.117,0,0,1,.81-.287,1.12,1.12,0,0,1,.807.287.967.967,0,0,1,.3.731.97.97,0,0,1-.3.738,1.122,1.122,0,0,1-.8.287,1.122,1.122,0,0,1-.8-.287A.97.97,0,0,1,44.851-9.311Zm6.494,6.9L52.719-7.4h2.064L52.288,0H50.4l-2.5-7.4h2.064Zm3.9-1.354a4.387,4.387,0,0,1,.424-1.962,3.1,3.1,0,0,1,1.22-1.333,3.56,3.56,0,0,1,1.849-.472,3.368,3.368,0,0,1,2.444.916,3.676,3.676,0,0,1,1.056,2.488l.014.506A3.866,3.866,0,0,1,61.3-.892,3.3,3.3,0,0,1,58.748.137,3.319,3.319,0,0,1,56.195-.889a3.934,3.934,0,0,1-.954-2.789Zm1.976.14a2.765,2.765,0,0,0,.4,1.612,1.308,1.308,0,0,0,1.135.558,1.311,1.311,0,0,0,1.121-.551,3.025,3.025,0,0,0,.4-1.763,2.737,2.737,0,0,0-.4-1.6,1.311,1.311,0,0,0-1.135-.568,1.29,1.29,0,0,0-1.121.565A3.076,3.076,0,0,0,57.217-3.626Z" transform="translate(-6555 -957.614)" fill="#12263f"/>
  </g>
</svg>
