<svg xmlns="http://www.w3.org/2000/svg" xmlns:xlink="http://www.w3.org/1999/xlink" width="98.16" height="98.16" viewBox="0 0 98.16 98.16">
  <defs>
    <radialGradient id="radial-gradient" cx="0.076" cy="0.019" r="1.465" gradientTransform="translate(0.001)" gradientUnits="objectBoundingBox">
      <stop offset="0" stop-color="#f6f6f7"/>
      <stop offset="0.477" stop-color="#f9f9fa"/>
      <stop offset="0.715" stop-color="#fff"/>
    </radialGradient>
  </defs>
  <g id="Grupo_152063" data-name="Grupo 152063" transform="translate(0)">
    <g id="Grupo_42274" data-name="Grupo 42274" transform="translate(0 0)">
      <g id="Grupo_18423" data-name="Grupo 18423" transform="translate(0 0)">
        <g id="Grupo_18421" data-name="Grupo 18421">
          <g id="Grupo_18420" data-name="Grupo 18420">
            <g id="Grupo_18419" data-name="Grupo 18419">
              <path id="Trazado_40936" data-name="Trazado 40936" d="M292.783,2194.8a49.08,49.08,0,1,1-49.079-49.078A49.079,49.079,0,0,1,292.783,2194.8Z" transform="translate(-194.623 -2145.721)" fill="#fff"/>
            </g>
          </g>
        </g>
        <path id="Trazado_40937" data-name="Trazado 40937" d="M292.383,2194.366a49.078,49.078,0,1,0-49.079,49.08A48.884,48.884,0,0,0,292.383,2194.366Z" transform="translate(-194.223 -2145.287)" fill="url(#radial-gradient)"/>
        <path id="Trazado_40938" data-name="Trazado 40938" d="M277.257,2190.874a37.462,37.462,0,1,0-37.462,37.463A37.323,37.323,0,0,0,277.257,2190.874Z" transform="translate(-190.566 -2141.633)" fill="none" stroke="#2b3990" stroke-miterlimit="10" stroke-width="4"/>
        <g id="Grupo_18422" data-name="Grupo 18422" transform="translate(8.695 27.555)">
          <path id="Trazado_40939" data-name="Trazado 40939" d="M285.047,2164.488a49.085,49.085,0,0,1-84.5,48.875,48.929,48.929,0,0,0,84.5-48.875Z" transform="translate(-200.545 -2164.488)" fill="#eceef0"/>
        </g>
      </g>
    </g>
    <g id="_264fZ8" data-name="264fZ8" transform="translate(25.436 25.242)">
      <g id="Grupo_152070" data-name="Grupo 152070">
        <path id="Trazado_194714" data-name="Trazado 194714" d="M1213.586-643.825c0,3.658.005,7.317,0,10.975,0,1.817-.186,2.012-1.914,2.013q-10.011.01-20.022,0c-1.694,0-2-.288-2-1.974-.01-7.415.01-14.831-.018-22.246-.005-1.351.454-1.975,1.9-1.966q10.085.063,20.17,0c1.39-.008,1.936.5,1.911,1.924C1213.542-651.34,1213.586-647.582,1213.586-643.825ZM1191.7-655.116v6.127h19.844v-6.127Zm-.035,14.48h19.892v-6.239h-19.892Zm.039,2.087v5.7h19.846v-5.7Z" transform="translate(-1180.98 678.075)" fill="#12263f"/>
        <path id="Trazado_194715" data-name="Trazado 194715" d="M1167.658-700.4c-3.89.514-7.716-3.761-7.083-7.937a7.031,7.031,0,0,1,4.839-6.02,1.306,1.306,0,0,0,1.025-1.484,11.8,11.8,0,0,1,9.832-11.836c5.108-1.072,10.567,1.856,12.921,7.033a1.649,1.649,0,0,0,1.806,1.1c2.969-.022,5.954-.165,8.9.08a9.942,9.942,0,0,1,8.5,6.1,10.388,10.388,0,0,1-.757,10.378l-1.3-.865a24.307,24.307,0,0,0,1.081-4.34c.3-4.956-2.777-8.843-7.7-9.387a87.172,87.172,0,0,0-9.492-.064l-.156,1.5h-1.668a10.406,10.406,0,0,0-5.8-8.8,9.575,9.575,0,0,0-7.215-.565c-5.682,1.673-8.025,6.9-6.282,13.991l-1.466.818-.931-1.974a5.049,5.049,0,0,0-4.236,4.86,5.246,5.246,0,0,0,3.993,5.522C1167.635-702.01,1168.113-701.563,1167.658-700.4Z" transform="translate(-1160.506 727.894)" fill="#12263f"/>
        <path id="Trazado_194716" data-name="Trazado 194716" d="M1278.176-653.445l-2.913,3.255-1.115-2.026c1.008-.947,2.317-2.279,3.756-3.45a1.7,1.7,0,0,1,1.634.129c2.266,2.133,4.458,4.346,6.617,6.588a1.7,1.7,0,0,1,.441,1.413c-.124.347-.8.577-1.267.7a8.761,8.761,0,0,1-1.659.121c-.062,1.033-.117,1.951-.175,2.921h-1.745v-4.8l1.2-.1Z" transform="translate(-1240.391 677.229)" fill="#12263f"/>
        <path id="Trazado_194717" data-name="Trazado 194717" d="M1283.644-618.778c-1.923.172-1.932.164-1.65-1.737l1.65-.081Z" transform="translate(-1245.813 652.469)" fill="#12263f"/>
        <path id="Trazado_194718" data-name="Trazado 194718" d="M1283.7-606.347v1.665c-1.923.335-2.009.251-1.684-1.665Z" transform="translate(-1245.82 642.452)" fill="#12263f"/>
        <path id="Trazado_194719" data-name="Trazado 194719" d="M1301.208-606.612c.351,1.93.311,1.975-1.567,1.84a7.2,7.2,0,0,1-.127-.8c-.016-.285.021-.572.039-.971Z" transform="translate(-1258.219 642.639)" fill="#12263f"/>
        <path id="Trazado_194720" data-name="Trazado 194720" d="M1281.929-592.405h1.754v1.689C1281.812-590.4,1281.805-590.407,1281.929-592.405Z" transform="translate(-1245.829 632.652)" fill="#12263f"/>
        <path id="Trazado_194721" data-name="Trazado 194721" d="M1301.588-590.552h-1.705v-1.775h1.705Z" transform="translate(-1258.481 632.597)" fill="#12263f"/>
        <path id="Trazado_194722" data-name="Trazado 194722" d="M1283.708-576.862c-1.918.25-1.94.228-1.73-1.681.255-.031.532-.083.811-.092s.572.02.919.036Z" transform="translate(-1245.833 622.974)" fill="#12263f"/>
        <path id="Trazado_194723" data-name="Trazado 194723" d="M1299.614-576.62v-1.65h1.667C1301.69-576.474,1301.565-576.337,1299.614-576.62Z" transform="translate(-1258.292 622.716)" fill="#12263f"/>
        <path id="Trazado_194724" data-name="Trazado 194724" d="M1207.713-585.474v-1.668h1.843C1210.018-585.318,1209.885-585.19,1207.713-585.474Z" transform="translate(-1193.69 628.952)" fill="#12263f"/>
        <path id="Trazado_194725" data-name="Trazado 194725" d="M1228.4-585.453h-1.848v-1.786h1.848Z" transform="translate(-1206.932 629.02)" fill="#12263f"/>
        <path id="Trazado_194726" data-name="Trazado 194726" d="M1246.67-587.286v1.787h-1.828v-1.787Z" transform="translate(-1219.79 629.053)" fill="#12263f"/>
      </g>
    </g>
  </g>
</svg>
