<svg xmlns="http://www.w3.org/2000/svg" width="29.655" height="111.217" viewBox="0 0 29.655 111.217">
  <g id="Grupo_1071784" data-name="Grupo 1071784" transform="translate(-701.457 -1841.739)">
    <path id="Trazado_195433" data-name="Trazado 195433" d="M1366.81,413.814a2.111,2.111,0,1,1-2.107,2.112A2.109,2.109,0,0,1,1366.81,413.814Z" transform="translate(-663.246 1427.925)" fill="#5793ce" fill-rule="evenodd"/>
    <path id="Trazado_195434" data-name="Trazado 195434" d="M1378.758,413.814a2.111,2.111,0,1,1-2.109,2.112A2.11,2.11,0,0,1,1378.758,413.814Z" transform="translate(-662.477 1427.925)" fill="#5793ce" fill-rule="evenodd"/>
    <path id="Trazado_195435" data-name="Trazado 195435" d="M1390.707,413.814a2.111,2.111,0,1,1-2.112,2.112A2.111,2.111,0,0,1,1390.707,413.814Z" transform="translate(-661.706 1427.925)" fill="#5793ce" fill-rule="evenodd"/>
    <path id="Trazado_195439" data-name="Trazado 195439" d="M1366.81,424.981a2.108,2.108,0,1,1-2.107,2.108A2.107,2.107,0,0,1,1366.81,424.981Z" transform="translate(-663.246 1428.645)" fill="#5793ce" fill-rule="evenodd"/>
    <path id="Trazado_195440" data-name="Trazado 195440" d="M1378.758,424.981a2.108,2.108,0,1,1-2.109,2.108A2.108,2.108,0,0,1,1378.758,424.981Z" transform="translate(-662.477 1428.645)" fill="#5793ce" fill-rule="evenodd"/>
    <path id="Trazado_195441" data-name="Trazado 195441" d="M1390.707,424.981a2.108,2.108,0,1,1-2.112,2.108A2.11,2.11,0,0,1,1390.707,424.981Z" transform="translate(-661.706 1428.645)" fill="#5793ce" fill-rule="evenodd"/>
    <path id="Trazado_195445" data-name="Trazado 195445" d="M1366.81,436.139a2.108,2.108,0,1,1-2.107,2.108A2.107,2.107,0,0,1,1366.81,436.139Z" transform="translate(-663.246 1429.363)" fill="#5793ce" fill-rule="evenodd"/>
    <path id="Trazado_195446" data-name="Trazado 195446" d="M1378.758,436.139a2.108,2.108,0,1,1-2.109,2.108A2.108,2.108,0,0,1,1378.758,436.139Z" transform="translate(-662.477 1429.363)" fill="#5793ce" fill-rule="evenodd"/>
    <path id="Trazado_195447" data-name="Trazado 195447" d="M1390.707,436.139a2.108,2.108,0,1,1-2.112,2.108A2.109,2.109,0,0,1,1390.707,436.139Z" transform="translate(-661.706 1429.363)" fill="#5793ce" fill-rule="evenodd"/>
    <path id="Trazado_195451" data-name="Trazado 195451" d="M1366.81,447.308a2.108,2.108,0,1,1-2.107,2.109A2.108,2.108,0,0,1,1366.81,447.308Z" transform="translate(-663.246 1430.083)" fill="#5793ce" fill-rule="evenodd"/>
    <path id="Trazado_195452" data-name="Trazado 195452" d="M1378.758,447.308a2.108,2.108,0,1,1-2.109,2.109A2.109,2.109,0,0,1,1378.758,447.308Z" transform="translate(-662.477 1430.083)" fill="#5793ce" fill-rule="evenodd"/>
    <path id="Trazado_195453" data-name="Trazado 195453" d="M1390.707,447.308a2.108,2.108,0,1,1-2.112,2.109A2.11,2.11,0,0,1,1390.707,447.308Z" transform="translate(-661.706 1430.083)" fill="#5793ce" fill-rule="evenodd"/>
    <path id="Trazado_195457" data-name="Trazado 195457" d="M1366.81,458.466a2.108,2.108,0,1,1-2.107,2.108A2.107,2.107,0,0,1,1366.81,458.466Z" transform="translate(-663.246 1430.803)" fill="#5793ce" fill-rule="evenodd"/>
    <path id="Trazado_195458" data-name="Trazado 195458" d="M1378.758,458.466a2.108,2.108,0,1,1-2.109,2.108A2.108,2.108,0,0,1,1378.758,458.466Z" transform="translate(-662.477 1430.803)" fill="#5793ce" fill-rule="evenodd"/>
    <path id="Trazado_195459" data-name="Trazado 195459" d="M1390.707,458.466a2.108,2.108,0,1,1-2.112,2.108A2.11,2.11,0,0,1,1390.707,458.466Z" transform="translate(-661.706 1430.803)" fill="#5793ce" fill-rule="evenodd"/>
    <path id="Trazado_195463" data-name="Trazado 195463" d="M1366.81,469.633a2.108,2.108,0,1,1-2.107,2.108A2.107,2.107,0,0,1,1366.81,469.633Z" transform="translate(-663.246 1431.522)" fill="#5793ce" fill-rule="evenodd"/>
    <path id="Trazado_195464" data-name="Trazado 195464" d="M1378.758,469.633a2.108,2.108,0,1,1-2.109,2.108A2.108,2.108,0,0,1,1378.758,469.633Z" transform="translate(-662.477 1431.522)" fill="#5793ce" fill-rule="evenodd"/>
    <path id="Trazado_195465" data-name="Trazado 195465" d="M1390.707,469.633a2.108,2.108,0,1,1-2.112,2.108A2.109,2.109,0,0,1,1390.707,469.633Z" transform="translate(-661.706 1431.522)" fill="#5793ce" fill-rule="evenodd"/>
    <path id="Trazado_196121" data-name="Trazado 196121" d="M1366.81,413.814a2.111,2.111,0,1,1-2.107,2.112A2.109,2.109,0,0,1,1366.81,413.814Z" transform="translate(-663.246 1499.273)" fill="#5793ce" fill-rule="evenodd"/>
    <path id="Trazado_196122" data-name="Trazado 196122" d="M1378.758,413.814a2.111,2.111,0,1,1-2.109,2.112A2.11,2.11,0,0,1,1378.758,413.814Z" transform="translate(-662.477 1499.273)" fill="#5793ce" fill-rule="evenodd"/>
    <path id="Trazado_196123" data-name="Trazado 196123" d="M1390.707,413.814a2.111,2.111,0,1,1-2.112,2.112A2.111,2.111,0,0,1,1390.707,413.814Z" transform="translate(-661.706 1499.273)" fill="#5793ce" fill-rule="evenodd"/>
    <path id="Trazado_196124" data-name="Trazado 196124" d="M1366.81,424.981a2.108,2.108,0,1,1-2.107,2.108A2.107,2.107,0,0,1,1366.81,424.981Z" transform="translate(-663.246 1499.993)" fill="#5793ce" fill-rule="evenodd"/>
    <path id="Trazado_196125" data-name="Trazado 196125" d="M1378.758,424.981a2.108,2.108,0,1,1-2.109,2.108A2.108,2.108,0,0,1,1378.758,424.981Z" transform="translate(-662.477 1499.993)" fill="#5793ce" fill-rule="evenodd"/>
    <path id="Trazado_196126" data-name="Trazado 196126" d="M1390.707,424.981a2.108,2.108,0,1,1-2.112,2.108A2.11,2.11,0,0,1,1390.707,424.981Z" transform="translate(-661.706 1499.993)" fill="#5793ce" fill-rule="evenodd"/>
    <path id="Trazado_196127" data-name="Trazado 196127" d="M1366.81,436.139a2.108,2.108,0,1,1-2.107,2.108A2.107,2.107,0,0,1,1366.81,436.139Z" transform="translate(-663.246 1500.712)" fill="#5793ce" fill-rule="evenodd"/>
    <path id="Trazado_196128" data-name="Trazado 196128" d="M1378.758,436.139a2.108,2.108,0,1,1-2.109,2.108A2.108,2.108,0,0,1,1378.758,436.139Z" transform="translate(-662.477 1500.712)" fill="#5793ce" fill-rule="evenodd"/>
    <path id="Trazado_196129" data-name="Trazado 196129" d="M1390.707,436.139a2.108,2.108,0,1,1-2.112,2.108A2.109,2.109,0,0,1,1390.707,436.139Z" transform="translate(-661.706 1500.712)" fill="#5793ce" fill-rule="evenodd"/>
    <path id="Trazado_196130" data-name="Trazado 196130" d="M1366.81,447.308a2.108,2.108,0,1,1-2.107,2.109A2.108,2.108,0,0,1,1366.81,447.308Z" transform="translate(-663.246 1501.432)" fill="#5793ce" fill-rule="evenodd"/>
    <path id="Trazado_196131" data-name="Trazado 196131" d="M1378.758,447.308a2.108,2.108,0,1,1-2.109,2.109A2.109,2.109,0,0,1,1378.758,447.308Z" transform="translate(-662.477 1501.432)" fill="#5793ce" fill-rule="evenodd"/>
    <path id="Trazado_196132" data-name="Trazado 196132" d="M1390.707,447.308a2.108,2.108,0,1,1-2.112,2.109A2.11,2.11,0,0,1,1390.707,447.308Z" transform="translate(-661.706 1501.432)" fill="#5793ce" fill-rule="evenodd"/>
  </g>
</svg>
