<svg xmlns="http://www.w3.org/2000/svg" xmlns:xlink="http://www.w3.org/1999/xlink" width="334.001" height="239.809" viewBox="0 0 334.001 239.809">
  <defs>
    <linearGradient id="linear-gradient" x1="0.5" x2="0.5" y2="1" gradientUnits="objectBoundingBox">
      <stop offset="0" stop-color="#fff"/>
      <stop offset="1" stop-color="#d2e6ee"/>
    </linearGradient>
    <linearGradient id="linear-gradient-2" x1="0.5" x2="0.5" y2="1" gradientUnits="objectBoundingBox">
      <stop offset="0" stop-color="#dedede"/>
      <stop offset="0.517" stop-color="#fff"/>
      <stop offset="1" stop-color="#dedede"/>
    </linearGradient>
    <linearGradient id="linear-gradient-3" x1="0.5" x2="0.5" y2="1" gradientUnits="objectBoundingBox">
      <stop offset="0" stop-color="#f5f5f5"/>
      <stop offset="0.25" stop-color="#f5f5f5"/>
      <stop offset="1" stop-color="#a7b3cf"/>
    </linearGradient>
  </defs>
  <g id="Grupo_1071832" data-name="Grupo 1071832" transform="translate(3716.897 2505.286)">
    <ellipse id="Elipse_5928" data-name="Elipse 5928" cx="114.956" cy="117.195" rx="114.956" ry="117.195" transform="translate(-3612.809 -2505.286)" fill="#fff"/>
    <ellipse id="Elipse_5929" data-name="Elipse 5929" cx="104.655" cy="104.655" rx="104.655" ry="104.655" transform="translate(-3716.897 -2474.944)" fill="#fff"/>
    <g id="Grupo_154584" data-name="Grupo 154584" transform="translate(-3701.769 -2488.266)">
      <path id="Trazado_196639" data-name="Trazado 196639" d="M1987.91,775a24.252,24.252,0,0,0-5.922,2.119q.6.732,1.273,1.4a19.429,19.429,0,0,0,8.669,5.025,16.258,16.258,0,0,1-2.415-3.9,27.845,27.845,0,0,1-1.6-4.652m24.132,2.119A24.292,24.292,0,0,0,2006.12,775a27.821,27.821,0,0,1-1.6,4.652,16.263,16.263,0,0,1-2.415,3.9,19.434,19.434,0,0,0,8.668-5.026Q2011.439,777.855,2012.042,777.122Zm-5.674-21.545a24.081,24.081,0,0,0,6.274-2.392,19.5,19.5,0,0,0-10.541-7.2,16.25,16.25,0,0,1,2.415,3.9A28.94,28.94,0,0,1,2006.368,755.577Zm-24.98-2.392a24.076,24.076,0,0,0,6.274,2.392,28.971,28.971,0,0,1,1.852-5.69,16.273,16.273,0,0,1,2.415-3.9,19.49,19.49,0,0,0-10.541,7.2Zm14.62,3.437V745.472c-2.195.666-3.8,3.345-4.663,5.249a26.87,26.87,0,0,0-1.715,5.272A40.972,40.972,0,0,0,1996.007,756.623Zm-6.124,17.98a25.673,25.673,0,0,0,1.461,4.218c.867,1.9,2.468,4.583,4.663,5.249V774.018A41.215,41.215,0,0,0,1989.884,774.6Zm8.139-.584v10.051c2.2-.666,3.8-3.344,4.663-5.249a25.7,25.7,0,0,0,1.461-4.218A41.215,41.215,0,0,0,1998.023,774.018Zm0-28.547v11.151a40.977,40.977,0,0,0,6.377-.63,26.915,26.915,0,0,0-1.714-5.272C2001.819,748.816,2000.218,746.138,1998.023,745.472Zm15.736,9.393a25.2,25.2,0,0,1-7.007,2.693,43.29,43.29,0,0,1,.573,6.2h9.116A19.358,19.358,0,0,0,2013.759,754.865Zm-15.736,8.9h7.286a41.484,41.484,0,0,0-.527-5.792,43.083,43.083,0,0,1-6.759.668Zm-9.3,0h7.286v-5.124a43.1,43.1,0,0,1-6.76-.668A41.483,41.483,0,0,0,1988.721,763.762Zm-11.133,0h9.117a43.287,43.287,0,0,1,.571-6.205,25.229,25.229,0,0,1-7.006-2.693A19.36,19.36,0,0,0,1977.588,763.762Zm9.117,2.016h-9.117a19.347,19.347,0,0,0,3.191,9.709,25.9,25.9,0,0,1,6.689-2.448A42.568,42.568,0,0,1,1986.706,765.778Zm2.734,6.859a42.961,42.961,0,0,1,6.568-.634v-6.225h-7.287A40.655,40.655,0,0,0,1989.439,772.637Zm15.151,0a40.629,40.629,0,0,0,.719-6.859h-7.286V772A42.959,42.959,0,0,1,2004.59,772.637Zm11.851-6.859h-9.116a42.62,42.62,0,0,1-.764,7.261,25.949,25.949,0,0,1,6.69,2.448A19.348,19.348,0,0,0,2016.441,765.778ZM1997.015,743.3a21.466,21.466,0,1,1-15.18,6.288A21.4,21.4,0,0,1,1997.015,743.3Z" transform="translate(-1943.489 -727.231)" fill="#f6f6f6" fill-rule="evenodd"/>
      <path id="Trazado_196640" data-name="Trazado 196640" d="M2637.978,606.41h90.829a15.317,15.317,0,0,1,15.138,15.4V813.084a15.317,15.317,0,0,1-15.138,15.4h-90.829a15.317,15.317,0,0,1-15.138-15.4V621.813a15.317,15.317,0,0,1,15.138-15.4" transform="translate(-2514.786 -606.41)" fill="#496281" fill-rule="evenodd"/>
      <path id="Trazado_196641" data-name="Trazado 196641" d="M2581.8,606.41h90.829a15.317,15.317,0,0,1,15.138,15.4V813.084a15.317,15.317,0,0,1-15.138,15.4H2581.8a15.317,15.317,0,0,1-15.138-15.4V621.813a15.317,15.317,0,0,1,15.138-15.4" transform="translate(-2465.204 -606.41)" fill="#f59d36" fill-rule="evenodd"/>
      <path id="Trazado_196642" data-name="Trazado 196642" d="M2629.048,666.154A8.086,8.086,0,0,0,2621,674.2V864.838a8.086,8.086,0,0,0,8.043,8.044h92.257a8.086,8.086,0,0,0,8.044-8.044V674.2a8.086,8.086,0,0,0-8.044-8.043h-19.468a4.863,4.863,0,0,1-4.849,4.849h-45.441a4.863,4.863,0,0,1-4.849-4.849Z" transform="translate(-2513.167 -659.14)" fill-rule="evenodd" fill="url(#linear-gradient)"/>
      <path id="Trazado_196643" data-name="Trazado 196643" d="M2762.9,2175.781a11.6,11.6,0,1,1-11.6,11.6,11.6,11.6,0,0,1,11.6-11.6" transform="translate(-2628.159 -1991.53)" fill="#2ec49f" fill-rule="evenodd"/>
      <path id="Trazado_196644" data-name="Trazado 196644" d="M3429.1,712.431h-6.249a.492.492,0,0,0,0,.985h6.249a.492.492,0,1,0,0-.985" transform="translate(-3220.435 -699.984)" fill="#c3dcfa" fill-rule="evenodd"/>
      <path id="Trazado_196645" data-name="Trazado 196645" d="M3429.1,732.433h-6.249a.493.493,0,0,0,0,.985h6.249a.493.493,0,1,0,0-.985" transform="translate(-3220.435 -717.637)" fill="#c3dcfa" fill-rule="evenodd"/>
      <path id="Trazado_196646" data-name="Trazado 196646" d="M3429.1,751.054h-6.249a.492.492,0,1,0,0,.985h6.249a.492.492,0,1,0,0-.985" transform="translate(-3220.435 -734.072)" fill="#c3dcfa" fill-rule="evenodd"/>
      <rect id="Rectángulo_46124" data-name="Rectángulo 46124" width="298.42" height="0.669" transform="translate(0 221.572)" fill="#000446"/>
      <path id="Trazado_196647" data-name="Trazado 196647" d="M3429.2,1929.676h-44.258v.076a11.8,11.8,0,0,0-10.181,11.836v42.879a11.727,11.727,0,0,0,11.461,11.911h51a11.726,11.726,0,0,0,11.461-11.911v-42.879a11.828,11.828,0,0,0-9.606-11.754l-.805-.158Z" transform="translate(-3178.432 -1774.319)" fill="#178368" fill-rule="evenodd"/>
      <path id="Trazado_196648" data-name="Trazado 196648" d="M3423.29,1556.044v-18.16c-.012-.264-.02-.53-.02-.8s.007-.532.02-.8v-.029h0a17.909,17.909,0,0,1,35.732,0v19.781h10.264V1536.02l-.012-.243a28.171,28.171,0,0,0-56.237,0l0,.043c-.019.423-.03.846-.03,1.269q0,.5.02,1.008v17.948Z" transform="translate(-3212.184 -1403.323)" fill="#496281" fill-rule="evenodd"/>
      <path id="Trazado_196649" data-name="Trazado 196649" d="M3406.143,1907.225h10.747a.672.672,0,0,1,.67.67v2.566a.672.672,0,0,1-.67.67h-10.747a.672.672,0,0,1-.67-.67v-2.566a.672.672,0,0,1,.67-.67" transform="translate(-3205.535 -1754.504)" fill="#178368" fill-rule="evenodd"/>
      <path id="Trazado_196650" data-name="Trazado 196650" d="M3798,1907.225h10.747a.672.672,0,0,1,.67.67v2.566a.672.672,0,0,1-.67.67H3798a.672.672,0,0,1-.67-.67v-2.566a.672.672,0,0,1,.67-.67" transform="translate(-3551.383 -1754.504)" fill="#178368" fill-rule="evenodd"/>
      <path id="Trazado_196651" data-name="Trazado 196651" d="M3368.816,1929.676h-44.258v.076a11.8,11.8,0,0,0-10.181,11.836v42.879a11.727,11.727,0,0,0,11.461,11.911h51a11.726,11.726,0,0,0,11.461-11.911v-42.879a11.829,11.829,0,0,0-9.606-11.754l-.829-.158Z" transform="translate(-3125.134 -1774.319)" fill="#2ec49f" fill-rule="evenodd"/>
      <path id="Trazado_196652" data-name="Trazado 196652" d="M3402.516,1966.442h-38.53v.066a10.27,10.27,0,0,0-8.864,10.3v37.329a10.209,10.209,0,0,0,9.978,10.37h44.4a10.209,10.209,0,0,0,9.978-10.37v-37.329a10.3,10.3,0,0,0-8.363-10.232v-.137Z" transform="translate(-3161.096 -1806.769)" fill="#1d8168" fill-rule="evenodd"/>
      <path id="Trazado_196653" data-name="Trazado 196653" d="M3579.187,2092.609a8.39,8.39,0,0,0-8.391-8.391,8.505,8.505,0,0,0-.981.057,8.392,8.392,0,0,0-2.928,15.761v13.87a3.962,3.962,0,0,0,2.928,1.953,5.036,5.036,0,0,0,4.89-1.953v-13.869a8.391,8.391,0,0,0,4.482-7.427" transform="translate(-3344.042 -1910.717)" fill="#fff" fill-rule="evenodd"/>
      <path id="Trazado_196654" data-name="Trazado 196654" d="M2513.444,954.976c-2.093-1.273-4.267-2.605-4.891-3.052-26.939-19.239-43.961-54.8-41.309-87.738l.654-8.119,8.047-1.267c14.117-2.221,24.492-6.483,36.895-13.477l.6-.341v-2.524h4.26v.122l.215-.122,5.08,2.864c12.47,7.032,22.814,11.129,36.987,13.493l7.96,1.327.648,8.044c2.769,34.388-15.9,71.628-44.916,90.178l-5.974,3.214h-4.26Z" transform="translate(-2377.219 -811.215)" fill="#12263f" fill-rule="evenodd"/>
      <path id="Trazado_196655" data-name="Trazado 196655" d="M2479.59,957.578c-1.22-.781-7.967-4.808-9.15-5.653-26.939-19.239-43.961-54.8-41.309-87.738l.654-8.119,8.046-1.267c14.117-2.221,24.492-6.483,36.895-13.477l5.08-2.864,5.08,2.864c12.47,7.032,22.814,11.129,36.988,13.493l7.96,1.327.648,8.044c2.769,34.388-15.9,71.628-44.916,90.178Z" transform="translate(-2343.579 -811.215)" fill-rule="evenodd" fill="url(#linear-gradient-2)"/>
      <path id="Trazado_196656" data-name="Trazado 196656" d="M2555.174,936.451c-13.945,7.864-25.158,12.356-40.677,14.8-2.552,31.7,15.295,65.26,40.677,81.379,25.383-16.119,43.23-49.677,40.678-81.379-15.81-2.636-26.732-6.934-40.678-14.8" transform="translate(-2418.949 -897.703)" fill="#496281" fill-rule="evenodd"/>
      <path id="Trazado_196658" data-name="Trazado 196658" d="M2756.526,1277.987a3.956,3.956,0,0,0-3.5,3.917v14.191a3.954,3.954,0,0,0,3.942,3.942h17.542a3.953,3.953,0,0,0,3.942-3.942V1281.9a3.957,3.957,0,0,0-3.3-3.89v-3.336l0-.081a9.323,9.323,0,0,0-18.612,0v.014q-.01.21-.01.42,0,.167.006.334Zm15.223-.025h-11.826V1275.3c0-.087-.006-.175-.006-.264s0-.176.006-.264v-.01h0a5.927,5.927,0,0,1,11.826,0v3.2Z" transform="translate(-2629.686 -1188.425)" fill="#496281" fill-rule="evenodd"/>
      <path id="Trazado_196659" data-name="Trazado 196659" d="M2768.715,1280.344a3.963,3.963,0,0,0-1.846,7.47v6.55a2.267,2.267,0,0,0,3.692,0v-6.55a3.963,3.963,0,0,0-1.846-7.47m9.409-4.173v-3.213l0-.08a9.324,9.324,0,0,0-18.612,0v.014c-.006.14-.01.28-.01.42q0,.167.007.334v2.5a3.956,3.956,0,0,0-3.5,3.917v14.191a3.954,3.954,0,0,0,3.942,3.942h17.542a3.953,3.953,0,0,0,3.942-3.942v-14.191A3.957,3.957,0,0,0,2778.124,1276.172Zm-15.223-.052v-2.543c0-.087-.007-.175-.007-.264s0-.176.007-.263v-.01h0a5.927,5.927,0,0,1,11.825,0v3.08Z" transform="translate(-2632.314 -1186.907)" fill="#f59d36" fill-rule="evenodd"/>
      <path id="Trazado_196660" data-name="Trazado 196660" d="M2718.818,1110.066l-5.1-7.854v7.854h-3.927v-14.7h3.908l5.122,7.93v-7.93h3.946v14.7Zm-16.259-11.421h-2.3v3.168h2.3a1.693,1.693,0,0,0,.645-.123,1.656,1.656,0,0,0,.531-.338,1.693,1.693,0,0,0,.36-.5,1.524,1.524,0,0,0,0-1.246,1.693,1.693,0,0,0-.36-.5,1.656,1.656,0,0,0-.531-.338A1.694,1.694,0,0,0,2702.559,1098.645Zm.285,6.868h-2.675v4.572h-3.946v-14.722h6.621a5.846,5.846,0,0,1,2.039.36,5.577,5.577,0,0,1,1.726,1.005,4.823,4.823,0,0,1,1.2,1.556,4.47,4.47,0,0,1,.446,1.992,4.758,4.758,0,0,1-.446,2.049,5.477,5.477,0,0,1-1.2,1.66,5.637,5.637,0,0,1-1.726,1.119A5.243,5.243,0,0,1,2702.844,1105.513Zm-14.02,4.572h-3.548l-5.483-14.684h4.4l2.846,7.608,2.846-7.608h4.4Z" transform="translate(-2565.053 -1037.958)" fill="#fff"/>
      <path id="Trazado_196661" data-name="Trazado 196661" d="M2430.486,1936.651h78.392a9.465,9.465,0,0,1,9.437,9.437h0a9.465,9.465,0,0,1-9.437,9.437h-78.392a9.465,9.465,0,0,1-9.437-9.437h0a9.465,9.465,0,0,1,9.437-9.437" transform="translate(-2336.687 -1780.475)" fill-rule="evenodd" fill="url(#linear-gradient-3)"/>
      <path id="Trazado_196662" data-name="Trazado 196662" d="M3027.155,1975.739H3039.3a4.778,4.778,0,0,1,4.764,4.764h0a4.778,4.778,0,0,1-4.764,4.764h-12.146a4.778,4.778,0,0,1-4.764-4.764h0a4.778,4.778,0,0,1,4.764-4.764" transform="translate(-2867.428 -1814.974)" fill="#afafaf" fill-rule="evenodd"/>
      <g id="Grupo_154576" data-name="Grupo 154576" transform="translate(94.688 162.027)">
        <path id="Trazado_196663" data-name="Trazado 196663" d="M2516.92,1992.354a6.139,6.139,0,0,1-.684.91,3.936,3.936,0,0,1-.839.7,4.031,4.031,0,0,1-1.031.446,4.6,4.6,0,0,1-1.25.16,4.022,4.022,0,0,1-1.6-.321,4.276,4.276,0,0,1-1.31-.866,3.985,3.985,0,0,1-.882-1.283,4.01,4.01,0,0,1,0-3.142,3.985,3.985,0,0,1,.882-1.283,4.278,4.278,0,0,1,1.31-.866,4.024,4.024,0,0,1,1.6-.321,4.666,4.666,0,0,1,1.271.16,3.928,3.928,0,0,1,1.026.449,3.882,3.882,0,0,1,.828.7,6.777,6.777,0,0,1,.679.9.206.206,0,0,1,.021.182.224.224,0,0,1-.128.139l-1.518.6a.277.277,0,0,1-.214,0,.322.322,0,0,1-.16-.128,2.264,2.264,0,0,0-.748-.754,2.028,2.028,0,0,0-1.058-.262,1.748,1.748,0,0,0-.765.172,2.085,2.085,0,0,0-.625.455,2.09,2.09,0,0,0-.417,2.207,2.012,2.012,0,0,0,.417.648,2.138,2.138,0,0,0,.625.45,1.748,1.748,0,0,0,.765.171,2.038,2.038,0,0,0,1.063-.283,2.187,2.187,0,0,0,.754-.732.324.324,0,0,1,.155-.128.265.265,0,0,1,.208,0l1.518.6a.225.225,0,0,1,.128.134A.222.222,0,0,1,2516.92,1992.354Z" transform="translate(-2509 -1986.486)" fill="#fff"/>
      </g>
      <g id="Grupo_154577" data-name="Grupo 154577" transform="translate(102.743 162.005)">
        <path id="Trazado_196664" data-name="Trazado 196664" d="M2577.606,1990.356a3.9,3.9,0,0,1,.321-1.571,4.182,4.182,0,0,1,.866-1.288,4.066,4.066,0,0,1,1.282-.871,4.01,4.01,0,0,1,3.142,0,4.1,4.1,0,0,1,2.159,2.159,4.011,4.011,0,0,1,0,3.142,4.1,4.1,0,0,1-2.159,2.159,4.007,4.007,0,0,1-3.142,0,4.065,4.065,0,0,1-1.282-.871,4.185,4.185,0,0,1-.866-1.288A3.9,3.9,0,0,1,2577.606,1990.356Zm2.116,0a2,2,0,0,0,.15.77,2.073,2.073,0,0,0,.411.641,2.007,2.007,0,0,0,.615.443,1.771,1.771,0,0,0,1.5,0,2.073,2.073,0,0,0,.62-.443,2.036,2.036,0,0,0,.417-.641,2.039,2.039,0,0,0,0-1.534,1.958,1.958,0,0,0-.417-.641,2.119,2.119,0,0,0-.62-.438,1.771,1.771,0,0,0-1.5,0,2.051,2.051,0,0,0-.615.438,2.055,2.055,0,0,0-.561,1.405Z" transform="translate(-2577.606 -1986.305)" fill="#fff"/>
      </g>
      <g id="Grupo_154578" data-name="Grupo 154578" transform="translate(111.621 162.144)">
        <path id="Trazado_196665" data-name="Trazado 196665" d="M2660.565,1987.745v7.31a.255.255,0,0,1-.256.257h-1.578a.468.468,0,0,1-.224-.064.556.556,0,0,1-.181-.15l-2.784-3.923q-.064-.085-.133-.069t-.07.123v3.826a.256.256,0,0,1-.258.257h-1.6a.249.249,0,0,1-.183-.075.247.247,0,0,1-.075-.182v-7.31a.255.255,0,0,1,.256-.257h1.6a.505.505,0,0,1,.225.059.5.5,0,0,1,.181.144l2.779,3.922a.144.144,0,0,0,.134.075c.046-.007.069-.046.069-.118v-3.826a.255.255,0,0,1,.257-.257h1.582a.255.255,0,0,1,.257.257Z" transform="translate(-2653.223 -1987.488)" fill="#fff"/>
      </g>
      <g id="Grupo_154579" data-name="Grupo 154579" transform="translate(120.252 162.144)">
        <path id="Trazado_196666" data-name="Trazado 196666" d="M2734.086,1987.745v7.31a.255.255,0,0,1-.256.257h-1.579a.467.467,0,0,1-.224-.064.556.556,0,0,1-.181-.15l-2.784-3.923c-.043-.057-.087-.08-.134-.069s-.069.052-.069.123v3.826a.257.257,0,0,1-.258.257H2727a.249.249,0,0,1-.183-.075.246.246,0,0,1-.075-.182v-7.31a.255.255,0,0,1,.257-.257h1.6a.563.563,0,0,1,.406.2l2.779,3.922a.144.144,0,0,0,.134.075q.069-.011.069-.118v-3.826a.255.255,0,0,1,.257-.257h1.582a.255.255,0,0,1,.256.257Z" transform="translate(-2726.744 -1987.488)" fill="#fff"/>
      </g>
      <g id="Grupo_154580" data-name="Grupo 154580" transform="translate(128.863 162.144)">
        <path id="Trazado_196667" data-name="Trazado 196667" d="M2802.2,1989.711v.449a.256.256,0,0,0,.257.256h2.9a.255.255,0,0,1,.256.257v1.475a.255.255,0,0,1-.256.256h-2.9a.256.256,0,0,0-.257.257v.406a.256.256,0,0,0,.257.256h3.324a.255.255,0,0,1,.257.257v1.475a.255.255,0,0,1-.257.257h-5.44a.255.255,0,0,1-.256-.257v-7.31a.255.255,0,0,1,.256-.257h5.44a.255.255,0,0,1,.257.257v1.454a.255.255,0,0,1-.257.256h-3.324a.256.256,0,0,0-.257.257Z" transform="translate(-2800.084 -1987.488)" fill="#fff"/>
      </g>
      <g id="Grupo_154581" data-name="Grupo 154581" transform="translate(135.271 162.027)">
        <path id="Trazado_196668" data-name="Trazado 196668" d="M2862.59,1992.354a6.139,6.139,0,0,1-.684.91,3.936,3.936,0,0,1-.839.7,4.034,4.034,0,0,1-1.031.446,4.605,4.605,0,0,1-1.25.16,4.023,4.023,0,0,1-1.6-.321,4.274,4.274,0,0,1-1.309-.866,3.985,3.985,0,0,1-.882-1.283,4.01,4.01,0,0,1,0-3.142,3.985,3.985,0,0,1,.882-1.283,4.277,4.277,0,0,1,1.309-.866,4.025,4.025,0,0,1,1.6-.321,4.667,4.667,0,0,1,1.272.16,3.931,3.931,0,0,1,1.026.449,3.881,3.881,0,0,1,.828.7,6.757,6.757,0,0,1,.679.9.207.207,0,0,1,.021.182.224.224,0,0,1-.128.139l-1.518.6a.276.276,0,0,1-.213,0,.321.321,0,0,1-.16-.128,2.262,2.262,0,0,0-.748-.754,2.028,2.028,0,0,0-1.058-.262,1.747,1.747,0,0,0-.764.172,2.1,2.1,0,0,0-1.191,1.886,2.049,2.049,0,0,0,.149.777,2.02,2.02,0,0,0,.417.648,2.132,2.132,0,0,0,.625.45,1.747,1.747,0,0,0,.764.171,2.04,2.04,0,0,0,1.063-.283,2.187,2.187,0,0,0,.754-.732.323.323,0,0,1,.155-.128.265.265,0,0,1,.208,0l1.518.6a.226.226,0,0,1,.128.134A.223.223,0,0,1,2862.59,1992.354Z" transform="translate(-2854.67 -1986.486)" fill="#fff"/>
      </g>
      <g id="Grupo_154582" data-name="Grupo 154582" transform="translate(142.834 162.144)">
        <path id="Trazado_196669" data-name="Trazado 196669" d="M2924.989,1989.455h-1.5a.256.256,0,0,0-.257.257v5.344a.257.257,0,0,1-.069.182.242.242,0,0,1-.187.075h-1.6a.256.256,0,0,1-.257-.257v-5.344a.257.257,0,0,0-.069-.182.244.244,0,0,0-.187-.075h-1.518a.255.255,0,0,1-.256-.256v-1.454a.255.255,0,0,1,.256-.257h5.643a.244.244,0,0,1,.187.075.258.258,0,0,1,.069.182v1.454a.257.257,0,0,1-.069.182A.243.243,0,0,1,2924.989,1989.455Z" transform="translate(-2919.089 -1987.488)" fill="#fff"/>
      </g>
      <path id="Trazado_196670" data-name="Trazado 196670" d="M3038.875,1985.477a3.621,3.621,0,1,1-3.621,3.621,3.621,3.621,0,0,1,3.621-3.621" transform="translate(-2878.781 -1823.569)" fill="#fff" fill-rule="evenodd"/>
      <path id="Trazado_196671" data-name="Trazado 196671" d="M2131.256,1316.988a15.257,15.257,0,0,1-.9,4.934,14.238,14.238,0,0,0,.056,8.772c.855,2.906-1.663,7.943-2.278,8.148s-8.546,1.641-10.187,1.5-9.229-9.024-9.229-9.024l.821-7.794Z" transform="translate(-2061.02 -1233.563)" fill="#12263f" fill-rule="evenodd"/>
      <path id="Trazado_196672" data-name="Trazado 196672" d="M2131.469,1580.934l6.164,50.99-3.141,48.162c.106.144.21.285.314.423.08.11.16.216.241.321.193.254.383.494.574.718.086.1.171.2.26.3a8.511,8.511,0,0,0,4.741,2.3,3.392,3.392,0,0,1,2.84,1.972.8.8,0,0,1,.059.147.884.884,0,0,1-.87,1.129l-13.742-.43a1.327,1.327,0,0,1-1.289-1.459l.917-6a.218.218,0,0,1,0-.025c-.333-11.71-2.983-28.871-.812-42.55,0,0-12.98-25.66-12.927-26.284s16.665-29.714,16.665-29.714" transform="translate(-2066.396 -1466.521)" fill="#f7aaac"/>
      <path id="Trazado_196673" data-name="Trazado 196673" d="M2071.646,1965.032c-.6,5.154,3,8.212,2.4,13.367-.008,12.9-9.05,27.773-12.108,40.8-.1.431.668,4.53.581,4.958-1.358,1.452-5.229,3.5-5.643-3.2,1.731-11.252,3.884-29.435,8.34-43.124l-2.814-13.647Z" transform="translate(-2015.27 -1804.784)" fill="#f7aaac"/>
      <path id="Trazado_196674" data-name="Trazado 196674" d="M2100.389,1640.556c2.972,9.867,1.417,28.809-.125,45.018-11.16,2.866-27.585,2.089-31.688-1.378,2.738-21.141,4.131-41.455,8.5-45.2,9.215-21.536,21.957-3.915,23.308,1.555" transform="translate(-2025.595 -1508.566)" fill="#12263f" fill-rule="evenodd"/>
      <path id="Trazado_196675" data-name="Trazado 196675" d="M2298.189,1432.392c0,.007-2.813,9,.181,16.1,2.231,5.293,18.879,2.588,17.615-5.554-.112-.722-7.647,1.751-10.244,1.452-1.164-.134-2.042-1.143-2.62-2.491-3.591-8.383-1.789-13.9-8.124-18.109-.721-.464,1.083,5.424,3.192,8.6" transform="translate(-2225.291 -1327.806)" fill="#2ec49f" fill-rule="evenodd"/>
      <path id="Trazado_196676" data-name="Trazado 196676" d="M2078.829,1411.411c-2.625,10.709,7.887,12.052,5.506,33.672,7.875,1.094,17.952,1.47,24.723-.2-1.083-7.955-.186-16.072.129-20.416a21.9,21.9,0,0,0-3.7-14.432c-2.316-3.586-22.221-5.243-26.657,1.372" transform="translate(-2034.27 -1312.918)" fill="#2ec49f" fill-rule="evenodd"/>
      <path id="Trazado_196677" data-name="Trazado 196677" d="M2131.315,1659.179c.078,1.337.094,2.783.034,4.353l2.04.911,5.787-.193-7.86-5.071Z" transform="translate(-2080.968 -1535.579)" fill="#1d886d" fill-rule="evenodd"/>
      <path id="Trazado_196678" data-name="Trazado 196678" d="M2187.313,1277.872l-.661,2.56.283.418c1.019,1.958-1.44,4.714-3.065,4.156-4.236-.956-6.491-5.275-4.718-6.785l.715-.456,1.123-3.57c-.212-.072-1.533-1.4-1.96-1.674a2.515,2.515,0,0,1-.644-2.327c.219-.963,1.6-.247,1.6-.247-1.1-2.929-2.563-5.477.658-6.942s9.576-1.076,9.576-1.076l3.958-.247c-.806,1.118-1.389,3.83-1.184,6.684.291,4.055-2.16,8.8-5.682,9.509" transform="translate(-2122.46 -1184.749)" fill="#f7aaac" fill-rule="evenodd"/>
      <path id="Trazado_196679" data-name="Trazado 196679" d="M2214.315,1376.56s1.068,4.071,2.657,4.854.8.311,1.443.41l.661-2.56c-1.208-.136-2.313-.542-4.761-2.7" transform="translate(-2154.224 -1286.141)" fill="#e16e73" fill-rule="evenodd"/>
      <path id="Trazado_196680" data-name="Trazado 196680" d="M2028.983,1430.063c-9.772,3.03-10.505,22.288-9.113,28.258,1.185,4.848,15.667,10.19,19.862,8.874,2.023-.634,3.362-3,.608-5.171-4.106-2.292-12.8-5.284-12.932-6.473-.138-3.351,1.343-9.559,3.03-12.036,2.437-3.577,4.106-13.811-1.454-13.453" transform="translate(-1982.131 -1333.355)" fill="#2ec49f" fill-rule="evenodd"/>
      <path id="Trazado_196681" data-name="Trazado 196681" d="M2187.127,1708.757l1.552.434,3.4-.74c.375-.188,2.844-.872,2.215-.022-.442.6-1.837,1.606-1.8,1.668.493.817,5.185,1.879,5.234,1.953.688,1.03-2.33.53-2.846.468a18.936,18.936,0,0,1,1.909.9,1.037,1.037,0,0,1-.962.333,12.737,12.737,0,0,0-1.992-.36c-.138.109,1.94.892,1.8.984a.91.91,0,0,1-.751.148,17.561,17.561,0,0,0-1.943-.452c-.177.079,1.345.551,1.177.61-.131.046-.156.286-.29.274-3.6-.326-3.621-2.169-7.758-2.432-2.3-.147.277-3.378,1.05-3.764" transform="translate(-2128.477 -1578.681)" fill="#f7aaac" fill-rule="evenodd"/>
      <path id="Trazado_196682" data-name="Trazado 196682" d="M2036.109,1236.807s5.334,1.565,7.731.428c4.143-1.97,4.563-11.016-6.647-10.821-8.92.156-7.246,9.9-18.88,10.706-6.169.426-10.541,5.583-8.454,14.094.016.019,1.538-2.71,3.816-2.378-3.713,4.289-1.846,9.978-1.288,10.849,2.105-5.515,6.2-11.317,17.084-12.063,4.609-1.743.554-11.563,6.638-10.814" transform="translate(-1973.306 -1153.619)" fill="#12263f" fill-rule="evenodd"/>
      <path id="Trazado_196683" data-name="Trazado 196683" d="M2234.723,2445.147s4.785,1.324,4.57,2.8c-.434,2.979-16.858,1.012-16.946.9-.582-.723-.651-4.085.133-5.088.583-.746,7.01,3.244,12.243,1.385" transform="translate(-2160.919 -2227.966)" fill="#355298" fill-rule="evenodd"/>
      <path id="Trazado_196684" data-name="Trazado 196684" d="M2052.781,2451.648c-.1,1.913-7.013,1.363-8.053.79-1.546-.853.338-6.869.921-6.2,0,0,1.8,2.835,3.932,2.263s1.383-1.2,1.747-.487c.681,1.344,1.548,1.871,1.453,3.635" transform="translate(-2004.022 -2230.189)" fill="#355298" fill-rule="evenodd"/>
      <path id="Trazado_196685" data-name="Trazado 196685" d="M2398.969,1510.753l.736-.007,4.389,2.021-5.912,11.138-4.46-.575-.67-.675Z" transform="translate(-2311.978 -1404.573)" fill="#355298" fill-rule="evenodd"/>
      <path id="Trazado_196686" data-name="Trazado 196686" d="M2424.994,1552.674c-.293-.305.084-1-.261-1.444-.512-.666-1.637-1.515-1.659-1.705-.04-.35,1.839.1,2.041.092.176-.006-1.5-1.545-1.458-1.969-.014-.287.011-.635.465-.328a19.83,19.83,0,0,1,1.723,1.34c.075-.487-1.477-2.688-.926-3.174.255-.224,1.469,1.8,1.658,1.652.336-.259-.787-2.872-.406-3.406.292.133,1.207.61,1.912,2.877.035.11.611-1.382.69-1.3.376.393.52,3.927.286,4.6a3.888,3.888,0,0,1-4.062,2.766" transform="translate(-2338.472 -1433.686)" fill="#f7aaac" fill-rule="evenodd"/>
      <path id="Trazado_196687" data-name="Trazado 196687" d="M2800.889,2251.064a8.354,8.354,0,0,0-4.656,1.841,4.651,4.651,0,0,0-.881.885.969.969,0,0,0,.048.942.951.951,0,0,0,1.234.341c.163-.08.64-.56.961-.807a6.507,6.507,0,0,1,8.551.607.83.83,0,0,0,.35.239.956.956,0,0,0,1.146-1.4,3.788,3.788,0,0,0-.589-.59,7.617,7.617,0,0,0-.652-.525,8.374,8.374,0,0,0-5.51-1.531" transform="translate(-2666.957 -2057.954)" fill="#fff" fill-rule="evenodd"/>
      <path id="Trazado_196688" data-name="Trazado 196688" d="M2818.6,2279.069a5,5,0,0,0-3.186,1.446.958.958,0,1,0,1.193,1.5c.06-.048.134-.143.189-.194s.139-.119.209-.174a3.307,3.307,0,0,1,2.4-.66,3.134,3.134,0,0,1,1.156.384,3.017,3.017,0,0,1,.458.311l.4.366c.9.615,2.362-.59.913-1.757a5.062,5.062,0,0,0-3.731-1.22" transform="translate(-2684.431 -2082.675)" fill="#fff" fill-rule="evenodd"/>
      <path id="Trazado_196689" data-name="Trazado 196689" d="M2836.694,2309.341a1.56,1.56,0,1,0,1.752,1.334,1.555,1.555,0,0,0-1.752-1.334" transform="translate(-2702.336 -2109.396)" fill="#fff" fill-rule="evenodd"/>
      <path id="Trazado_196690" data-name="Trazado 196690" d="M2777.913,2226.98c.015-.054-.01-.007.046-.055a10.771,10.771,0,0,1,1.315-.863,9.739,9.739,0,0,1,5.714-1.136,9.683,9.683,0,0,1,3.555,1.081,11.288,11.288,0,0,1,1.4.906l1.071.952a1.5,1.5,0,0,1,.168.115,1.007,1.007,0,0,0,.853-.021.959.959,0,0,0,.374-1.36,4.35,4.35,0,0,0-.5-.523,11.131,11.131,0,0,0-2.352-1.694,11.749,11.749,0,0,0-11.275.046,11.4,11.4,0,0,0-1.231.792,15.08,15.08,0,0,0-1.228,1.026l-.25.261a.956.956,0,0,0,1.239,1.418l.529-.47a3.287,3.287,0,0,1,.575-.475" transform="translate(-2649.394 -2033.171)" fill="#fff" fill-rule="evenodd"/>
      <path id="Trazado_196691" data-name="Trazado 196691" d="M3003.045,2175.781a11.6,11.6,0,1,1-11.6,11.6,11.6,11.6,0,0,1,11.6-11.6" transform="translate(-2840.111 -1991.53)" fill="#12263f" fill-rule="evenodd"/>
      <path id="Trazado_196692" data-name="Trazado 196692" d="M3041.036,2251.064a8.353,8.353,0,0,0-4.656,1.841,4.636,4.636,0,0,0-.881.885.968.968,0,0,0,.048.942.951.951,0,0,0,1.234.341c.163-.08.64-.56.961-.807a6.508,6.508,0,0,1,8.551.607.826.826,0,0,0,.35.239.956.956,0,0,0,1.146-1.4,3.79,3.79,0,0,0-.589-.59,7.617,7.617,0,0,0-.652-.525,8.375,8.375,0,0,0-5.511-1.531" transform="translate(-2878.91 -2057.954)" fill="#ddeaf8" fill-rule="evenodd"/>
      <path id="Trazado_196693" data-name="Trazado 196693" d="M3058.751,2279.069a5,5,0,0,0-3.186,1.446.958.958,0,1,0,1.193,1.5c.06-.048.135-.143.189-.194s.139-.119.21-.174a3.307,3.307,0,0,1,2.4-.66,3.13,3.13,0,0,1,1.156.384,2.993,2.993,0,0,1,.458.311l.4.366c.9.615,2.362-.59.912-1.757a5.062,5.062,0,0,0-3.731-1.22" transform="translate(-2896.384 -2082.675)" fill="#ddeaf8" fill-rule="evenodd"/>
      <path id="Trazado_196694" data-name="Trazado 196694" d="M3076.841,2309.341a1.56,1.56,0,1,0,1.752,1.334,1.555,1.555,0,0,0-1.752-1.334" transform="translate(-2914.288 -2109.396)" fill="#ddeaf8" fill-rule="evenodd"/>
      <path id="Trazado_196695" data-name="Trazado 196695" d="M3018.061,2226.98c.015-.054-.01-.007.046-.055a10.771,10.771,0,0,1,1.315-.863,9.738,9.738,0,0,1,5.714-1.136,9.682,9.682,0,0,1,3.555,1.081,11.27,11.27,0,0,1,1.4.906l1.071.952a1.522,1.522,0,0,1,.168.115,1.007,1.007,0,0,0,.853-.021.959.959,0,0,0,.374-1.36,4.333,4.333,0,0,0-.5-.523,11.123,11.123,0,0,0-2.352-1.694,11.749,11.749,0,0,0-11.275.046,11.38,11.38,0,0,0-1.231.792,15.08,15.08,0,0,0-1.228,1.026l-.25.261a.956.956,0,0,0,1.239,1.418l.529-.47a3.288,3.288,0,0,1,.575-.475" transform="translate(-2861.348 -2033.171)" fill="#7ba9e3" fill-rule="evenodd"/>
    </g>
  </g>
</svg>
