<svg xmlns="http://www.w3.org/2000/svg" xmlns:xlink="http://www.w3.org/1999/xlink" width="114.636" height="114.636" viewBox="0 0 114.636 114.636">
  <defs>
    <radialGradient id="radial-gradient" cx="0.076" cy="0.019" r="1.465" gradientTransform="translate(0.001)" gradientUnits="objectBoundingBox">
      <stop offset="0" stop-color="#f6f6f7"/>
      <stop offset="0.477" stop-color="#f9f9fa"/>
      <stop offset="0.715" stop-color="#fff"/>
    </radialGradient>
  </defs>
  <g id="Grupo_1071818" data-name="Grupo 1071818" transform="translate(-742.974 -941)">
    <g id="Grupo_1071813" data-name="Grupo 1071813" transform="translate(742.974 941)">
      <g id="Grupo_18423" data-name="Grupo 18423" transform="translate(0 0)">
        <g id="Grupo_18421" data-name="Grupo 18421">
          <g id="Grupo_18420" data-name="Grupo 18420">
            <g id="Grupo_18419" data-name="Grupo 18419">
              <path id="Trazado_40936" data-name="Trazado 40936" d="M309.259,2203.037a57.318,57.318,0,1,1-57.317-57.316A57.317,57.317,0,0,1,309.259,2203.037Z" transform="translate(-194.623 -2145.721)" fill="#fff"/>
            </g>
          </g>
        </g>
        <path id="Trazado_40937" data-name="Trazado 40937" d="M308.648,2202.372a57.316,57.316,0,1,0-57.317,57.319A57.091,57.091,0,0,0,308.648,2202.372Z" transform="translate(-194.013 -2145.056)" fill="url(#radial-gradient)"/>
        <path id="Trazado_40938" data-name="Trazado 40938" d="M289.672,2196.986a43.75,43.75,0,1,0-43.75,43.75A43.587,43.587,0,0,0,289.672,2196.986Z" transform="translate(-188.43 -2139.479)" fill="none" stroke="#2b3990" stroke-miterlimit="10" stroke-width="4"/>
        <g id="Grupo_18422" data-name="Grupo 18422" transform="translate(10.154 32.18)">
          <path id="Trazado_40939" data-name="Trazado 40939" d="M299.231,2164.488a57.325,57.325,0,0,1-98.686,57.081,57.143,57.143,0,0,0,98.686-57.081Z" transform="translate(-200.545 -2164.488)" fill="#eceef0"/>
        </g>
      </g>
    </g>
    <g id="Grupo_1071812" data-name="Grupo 1071812" transform="translate(773.974 969)">
      <path id="Trazado_184068" data-name="Trazado 184068" d="M4964.363,865.234a13.206,13.206,0,0,1,3.207-8.051,12.9,12.9,0,0,1,20.154.83,1.459,1.459,0,0,0,1.343.687,11.213,11.213,0,0,1,10.282,5.969,1.844,1.844,0,0,0,1.036.809,9.784,9.784,0,0,1,7.592,9.817,9.674,9.674,0,0,1-8.637,9.315c-.408.049-.814.108-1.359.181,0,.655-.026,1.3.006,1.941.044.863-.309,1.354-1.2,1.253-.782-.089-1.12.222-1.257.968a5.074,5.074,0,0,1-.522,1.343c-.471.924-1.039,1.8.183,2.65.151.1.065.893-.159,1.136-1.143,1.245-2.365,2.418-3.565,3.61a.938.938,0,0,1-1.582-.119c-.473-.618-.912-.578-1.567-.229-.934.5-1.955.831-2.954,1.241-.254,1.977-.254,1.977-2.713,2.172v4.6c.05.036.1.1.158.105,2.139.042,2.1-.137,2.091,2.235,0,1-.022,2,.006,3,.022.784-.329,1.157-1.1,1.158-1.346,0-2.693-.007-4.039,0-.812.006-1.2-.344-1.179-1.189.032-1.277,0-2.555.011-3.832.008-1.215.133-1.327,1.4-1.347.27,0,.539-.023.862-.038v-4.685c-.739-.066-1.605.1-2.108-.259-.456-.322-.515-1.206-.8-1.975-.955-.418-2.1-.959-3.281-1.4-.235-.088-.679.128-.914.333-.9.793-1.125.816-1.972-.024-.981-.972-1.955-1.951-2.93-2.928-1.042-1.045-1.042-1.149.01-2.246.117-.123.224-.255.3-.338-.465-1.2-.874-2.368-1.382-3.489a1.11,1.11,0,0,0-.883-.426c-1.025.031-1.47-.384-1.384-1.417.047-.578.008-1.164.008-1.852a10.01,10.01,0,0,1-8.022-3.915,9.374,9.374,0,0,1-1.975-5.975C4955.586,870.709,4958.311,866.2,4964.363,865.234Zm33.616,17.771a16.923,16.923,0,0,0,1.991-.211,7.928,7.928,0,0,0,6.273-8.021,7.823,7.823,0,0,0-6.663-7.668A1.91,1.91,0,0,1,4998,865.88a9.319,9.319,0,0,0-9.6-5.4,1.4,1.4,0,0,1-1.542-.7,11.2,11.2,0,0,0-20.759,5.767c-.033.987-.3,1.391-1.356,1.443a7.994,7.994,0,0,0-1.416,15.746,17.415,17.415,0,0,0,2.076.265c.225-1.737.228-1.727,1.938-2.17a.83.83,0,0,0,.463-.451c.469-1.135.9-2.284,1.367-3.47-.11-.117-.249-.269-.392-.416-.952-.978-.952-1.109.022-2.087.828-.832,1.666-1.654,2.489-2.491,1.356-1.379,1.421-1.6,2.927-.082.042.043.123.047.069.028,1.072-.441,2.036-.907,3.047-1.229.664-.211.989-.477.886-1.212-.09-.641.071-1.209.881-1.215,1.761-.014,3.522-.043,5.279.031.31.013.882.542.849.755-.2,1.252.53,1.552,1.507,1.836a20.523,20.523,0,0,1,2.472,1.073c.142-.131.295-.267.442-.409.986-.953,1.178-.95,2.176.048q1.244,1.244,2.49,2.489c1.374,1.374,1.374,1.373.055,2.833a.339.339,0,0,0-.057.136,28.459,28.459,0,0,1,1.231,2.988c.209.712.517.949,1.22.873.81-.088,1.238.3,1.21,1.142C4997.971,882.271,4997.979,882.542,4997.979,883.005Zm-27.689-7.5c1.05,1.257,1,1.234.231,2.8a19.858,19.858,0,0,0-1.2,3.168c-.218.745-.542,1.152-1.354,1.077a3.132,3.132,0,0,0-.681.084V886.3c1.451-.344,1.921.43,2.187,1.654a10.957,10.957,0,0,0,1.034,2.574c.792,1.554.822,1.539-.225,2.83l2.5,2.573c1.308-1.1,1.294-1.07,2.807-.287a11.6,11.6,0,0,0,2.469,1.027c1.209.3,2.258.6,1.779,2.247h3.7c.206-1.726.224-1.681.931-1.961,1.432-.568,2.829-1.228,4.273-1.76a2.108,2.108,0,0,1,1.273.151c.264.091.453.4.69.624l2.543-2.6c-1.073-1.284-1.046-1.269-.243-2.846a11.727,11.727,0,0,0,1-2.478c.292-1.191.65-2.153,2.2-1.747v-3.789c-1.593.432-1.884-.562-2.216-1.727a14.807,14.807,0,0,0-1.373-3.1,1.184,1.184,0,0,1,.222-1.719,2.756,2.756,0,0,0,.364-.44c-.858-.9-1.659-1.747-2.485-2.618-.651.439-1.036,1.322-2.12.741-1.32-.707-2.789-1.131-4.152-1.764a2.109,2.109,0,0,1-.8-1.005,2.49,2.49,0,0,1-.023-.953H4979.8c.555,1.678-.513,1.963-1.731,2.252a7.772,7.772,0,0,0-2.369.992c-1.079.694-2.031,1.124-2.856-.328Zm10.083,31.672v2.882h2.752v-2.882Z" transform="translate(-4955.523 -852.734)" fill="#2b3990"/>
      <path id="Trazado_184069" data-name="Trazado 184069" d="M5158.848,1060.044c-1.766,0-3.482-.01-5.2.005-.635.006-1.272-.056-1.267-.841.005-.77.631-.855,1.272-.849,1.9.015,3.8.029,5.691-.005.952-.017,1.275.406,1.267,1.315-.027,2.895-.009,5.79-.009,8.646.1.083.147.164.2.163,2.438-.05,2.084.257,2.1,2.324.009.966-.026,1.933.01,2.9.031.856-.381,1.185-1.185,1.18-1.311-.009-2.622-.019-3.933,0-.883.014-1.249-.4-1.234-1.262.021-1.207,0-2.415.005-3.622,0-1.318.159-1.468,1.484-1.487.24,0,.479-.021.8-.035Zm2.3,13.045v-2.861h-2.776v2.861Z" transform="translate(-5111.595 -1015.75)" fill="#2b3990"/>
      <path id="Trazado_184070" data-name="Trazado 184070" d="M4968.757,1060.065c0,2.654,0,5.166,0,7.678,0,.234.021.469.031.686,2.279.317,2.279.317,2.279,2.671,0,.9-.019,1.794.006,2.689a.935.935,0,0,1-1.042,1.1q-2.121.017-4.241,0c-.725-.005-1.047-.394-1.04-1.114.014-1.276,0-2.552,0-3.827s.137-1.395,1.434-1.418c.267-.005.533-.029.9-.05v-8.3c0-1.794,0-1.794,1.781-1.794,1.759,0,3.517.01,5.275,0,.639-.005,1.134.188,1.121.895-.012.665-.511.8-1.094.794C4972.417,1060.056,4970.663,1060.065,4968.757,1060.065Zm-2.211,10.188v2.85h2.755v-2.85Z" transform="translate(-4962.84 -1015.772)" fill="#2b3990"/>
      <path id="Trazado_184071" data-name="Trazado 184071" d="M5027.166,872.632a11.365,11.365,0,0,1,5.414,1.529c.567.333,1,.749.583,1.4-.391.615-.952.369-1.456.068a8.538,8.538,0,0,0-6.269-1.1c-3.26.679-5.081,2.981-5.537,6.847-.072.608-.084,1.28-.9,1.227-.842-.055-.863-.74-.817-1.4A8.8,8.8,0,0,1,5027.166,872.632Z" transform="translate(-5005.192 -868.509)" fill="#2b3990"/>
      <path id="Trazado_184072" data-name="Trazado 184072" d="M5043.125,975.214a8.474,8.474,0,0,0,8.394-8.158c.033-.659.2-1.254.943-1.2.775.053.784.719.759,1.341a10.213,10.213,0,0,1-20.41-.824c.174-5.4,4.716-9.979,9.854-9.883a1.518,1.518,0,0,1,1.1.521c.361.541-.125,1.061-.978,1.122a8.436,8.436,0,0,0-7.426,4.827A8.52,8.52,0,0,0,5043.125,975.214Z" transform="translate(-5016.794 -934.99)" fill="#2b3990"/>
      <path id="Trazado_184073" data-name="Trazado 184073" d="M5067.4,985.64a5.156,5.156,0,0,1-4.726,5.219c-.592.059-1.177.043-1.278-.685-.112-.8.467-.949,1.11-1.025a3.467,3.467,0,0,0,3.221-3.425,3.523,3.523,0,0,0-7.026-.408c-.074.653-.165,1.226-.962,1.154-.842-.076-.75-.761-.714-1.349a5.2,5.2,0,0,1,10.375.52Z" transform="translate(-5035.978 -953.977)" fill="#2b3990"/>
    </g>
  </g>
</svg>
