<svg xmlns="http://www.w3.org/2000/svg" xmlns:xlink="http://www.w3.org/1999/xlink" width="767.034" height="399.871" viewBox="0 0 767.034 399.871">
  <defs>
    <linearGradient id="linear-gradient" x1="0.5" x2="0.5" y2="1" gradientUnits="objectBoundingBox">
      <stop offset="0" stop-color="#fff"/>
      <stop offset="1" stop-color="#d2e6ee"/>
    </linearGradient>
    <filter id="Trazado_777324" x="8.283" y="47.871" width="359" height="352" filterUnits="userSpaceOnUse">
      <feOffset dy="3" input="SourceAlpha"/>
      <feGaussianBlur stdDeviation="3" result="blur"/>
      <feFlood flood-opacity="0.161"/>
      <feComposite operator="in" in2="blur"/>
      <feComposite in="SourceGraphic"/>
    </filter>
    <linearGradient id="linear-gradient-2" x1="0.5" x2="0.5" y2="1" gradientUnits="objectBoundingBox">
      <stop offset="0" stop-color="#f5f5f5"/>
      <stop offset="0.25" stop-color="#f5f5f5"/>
      <stop offset="1" stop-color="#a7b3cf"/>
    </linearGradient>
    <linearGradient id="linear-gradient-4" x1="0.5" x2="0.5" y2="1" gradientUnits="objectBoundingBox">
      <stop offset="0" stop-color="#4dd0e1"/>
      <stop offset="1" stop-color="#039be5"/>
    </linearGradient>
    <filter id="Trazado_196945" x="271.937" y="62.985" width="135.686" height="254.185" filterUnits="userSpaceOnUse">
      <feOffset dy="3" input="SourceAlpha"/>
      <feGaussianBlur stdDeviation="3" result="blur-2"/>
      <feFlood flood-opacity="0.161"/>
      <feComposite operator="in" in2="blur-2"/>
      <feComposite in="SourceGraphic"/>
    </filter>
    <linearGradient id="linear-gradient-5" x1="0.5" x2="0.5" y2="1" gradientUnits="objectBoundingBox">
      <stop offset="0" stop-color="#dedede"/>
      <stop offset="0.517" stop-color="#fff"/>
      <stop offset="1" stop-color="#dedede"/>
    </linearGradient>
    <filter id="Trazado_196963" x="447.831" y="155.982" width="81.694" height="68.209" filterUnits="userSpaceOnUse">
      <feOffset dy="3" input="SourceAlpha"/>
      <feGaussianBlur stdDeviation="3" result="blur-3"/>
      <feFlood flood-opacity="0.161"/>
      <feComposite operator="in" in2="blur-3"/>
      <feComposite in="SourceGraphic"/>
    </filter>
    <filter id="Trazado_196962" x="447.831" y="50.043" width="81.694" height="68.209" filterUnits="userSpaceOnUse">
      <feOffset dy="3" input="SourceAlpha"/>
      <feGaussianBlur stdDeviation="3" result="blur-4"/>
      <feFlood flood-opacity="0.161"/>
      <feComposite operator="in" in2="blur-4"/>
      <feComposite in="SourceGraphic"/>
    </filter>
    <filter id="Trazado_196964" x="447.831" y="264.662" width="81.694" height="68.209" filterUnits="userSpaceOnUse">
      <feOffset dy="3" input="SourceAlpha"/>
      <feGaussianBlur stdDeviation="3" result="blur-5"/>
      <feFlood flood-opacity="0.161"/>
      <feComposite operator="in" in2="blur-5"/>
      <feComposite in="SourceGraphic"/>
    </filter>
  </defs>
  <g id="Grupo_1071885" data-name="Grupo 1071885" transform="translate(-416.483 -1139.129)">
    <g id="Grupo_1071884" data-name="Grupo 1071884">
      <path id="Trazado_196942" data-name="Trazado 196942" d="M-3173.266-10622.738v349.882" transform="translate(3591.749 11761.867)" fill="none" stroke="#12263f" stroke-width="4" stroke-dasharray="10"/>
      <path id="Trazado_196943" data-name="Trazado 196943" d="M-3173.266-10622.738v349.882" transform="translate(3993.129 11761.867)" fill="none" stroke="#12263f" stroke-width="4" stroke-dasharray="10"/>
      <path id="Trazado_196944" data-name="Trazado 196944" d="M-3173.266-10622.738v349.882" transform="translate(4354.783 11761.867)" fill="none" stroke="#12263f" stroke-width="4" stroke-dasharray="10"/>
      <g transform="matrix(1, 0, 0, 1, 416.48, 1139.13)" filter="url(#Trazado_777324)">
        <g id="Trazado_777324-2" data-name="Trazado 777324" transform="translate(17.28 53.87)" fill="url(#linear-gradient)">
          <path d="M 339 332 L 2 332 L 2 2 L 339 2 L 339 332 Z" stroke="none"/>
          <path d="M 4 4 L 4 330 L 337 330 L 337 4 L 4 4 M 0 0 L 341 0 L 341 334 L 0 334 L 0 0 Z" stroke="none" fill="#12263f"/>
        </g>
      </g>
      <path id="Trazado_196946" data-name="Trazado 196946" d="M5983.871,4155.978v54.739s39.736,13.786,61.227-1.621l-.4-53.118" transform="translate(-5496.538 -2883.754)" fill="#f59d36" stroke="#12263f" stroke-width="2"/>
      <path id="Trazado_777358" data-name="Trazado 777358" d="M30.411,0c16.8,0,30.411,3.812,30.411,8.515S47.207,17.03,30.411,17.03,0,13.218,0,8.515,13.615,0,30.411,0Z" transform="translate(487.332 1263.709)" fill="#f59d36" stroke="#12263f" stroke-width="2"/>
      <path id="Trazado_196946-2" data-name="Trazado 196946" d="M5983.871,4155.978v54.739s39.736,13.786,61.227-1.621l-.4-53.118" transform="translate(-5528.521 -2864.575)" fill="#f59d36" stroke="#12263f" stroke-width="2"/>
      <path id="Trazado_777359" data-name="Trazado 777359" d="M30.411,0c16.8,0,30.411,3.812,30.411,8.515S47.207,17.03,30.411,17.03,0,13.218,0,8.515,13.615,0,30.411,0Z" transform="translate(455.35 1282.888)" fill="#f59d36" stroke="#12263f" stroke-width="2"/>
      <path id="Trazado_196946-3" data-name="Trazado 196946" d="M5983.871,4155.978v54.739s39.736,13.786,61.227-1.621l-.4-53.118" transform="translate(-5467.295 -2863.205)" fill="#f59d36" stroke="#12263f" stroke-width="2"/>
      <path id="Trazado_777360" data-name="Trazado 777360" d="M30.411,0c16.8,0,30.411,3.812,30.411,8.515S47.207,17.03,30.411,17.03,0,13.218,0,8.515,13.615,0,30.411,0Z" transform="translate(516.575 1284.258)" fill="#f59d36" stroke="#12263f" stroke-width="2"/>
      <path id="Trazado_196946-4" data-name="Trazado 196946" d="M5983.871,4155.978v54.739s39.736,13.786,61.227-1.621l-.4-53.118" transform="translate(-5497.908 -2856.355)" fill="#f59d36" stroke="#12263f" stroke-width="2"/>
      <path id="Trazado_777361" data-name="Trazado 777361" d="M30.411,0c16.8,0,30.411,3.812,30.411,8.515S47.207,17.03,30.411,17.03,0,13.218,0,8.515,13.615,0,30.411,0Z" transform="translate(485.962 1291.107)" fill="#f59d36" stroke="#12263f" stroke-width="2"/>
      <g id="Trazado_777330" data-name="Trazado 777330" transform="translate(601.766 1221)" fill="url(#linear-gradient-2)">
        <path d="M 59 62 L 1 62 L 1 1 L 59 1 L 59 62 Z" stroke="none"/>
        <path d="M 2 2 L 2 61 L 58 61 L 58 2 L 2 2 M 0 0 L 60 0 L 60 63 L 0 63 L 0 0 Z" stroke="none" fill="#12263f"/>
      </g>
      <path id="Trazado_196947" data-name="Trazado 196947" d="M-3030.193-10563.956v-14.975" transform="translate(3644.671 11784.921)" fill="none" stroke="#12263f" stroke-width="2"/>
      <path id="Trazado_196948" data-name="Trazado 196948" d="M-3030.193-10563.956v-14.975" transform="translate(3661.109 11784.921)" fill="none" stroke="#12263f" stroke-width="2"/>
      <path id="Trazado_196949" data-name="Trazado 196949" d="M-3030.193-10563.956v-14.975" transform="translate(3677.548 11784.921)" fill="none" stroke="#12263f" stroke-width="2"/>
      <path id="Trazado_196947-2" data-name="Trazado 196947" d="M-3030.193-10563.956v-14.975" transform="translate(3644.671 11862.911)" fill="none" stroke="#12263f" stroke-width="2"/>
      <path id="Trazado_196948-2" data-name="Trazado 196948" d="M-3030.193-10563.956v-14.975" transform="translate(3661.109 11862.911)" fill="none" stroke="#12263f" stroke-width="2"/>
      <path id="Trazado_196949-2" data-name="Trazado 196949" d="M-3030.193-10563.956v-14.975" transform="translate(3677.548 11862.911)" fill="none" stroke="#12263f" stroke-width="2"/>
      <path id="Trazado_196947-3" data-name="Trazado 196947" d="M0,14.975V0" transform="translate(588.543 1268.911) rotate(-90)" fill="none" stroke="#12263f" stroke-width="2"/>
      <path id="Trazado_196948-3" data-name="Trazado 196948" d="M0,14.975V0" transform="translate(588.543 1252.473) rotate(-90)" fill="none" stroke="#12263f" stroke-width="2"/>
      <path id="Trazado_196949-3" data-name="Trazado 196949" d="M0,14.975V0" transform="translate(588.543 1236.033) rotate(-90)" fill="none" stroke="#12263f" stroke-width="2"/>
      <path id="Trazado_196947-4" data-name="Trazado 196947" d="M0,14.975V0" transform="translate(661.054 1268.911) rotate(-90)" fill="none" stroke="#12263f" stroke-width="2"/>
      <path id="Trazado_196948-4" data-name="Trazado 196948" d="M0,14.975V0" transform="translate(661.054 1252.473) rotate(-90)" fill="none" stroke="#12263f" stroke-width="2"/>
      <path id="Trazado_196949-4" data-name="Trazado 196949" d="M0,14.975V0" transform="translate(661.054 1236.033) rotate(-90)" fill="none" stroke="#12263f" stroke-width="2"/>
      <g id="Trazado_777331" data-name="Trazado 777331" transform="translate(610.766 1230)" fill="none">
        <path d="M0,0H42V45H0Z" stroke="none"/>
        <path d="M 2 2 L 2 43 L 40 43 L 40 2 L 2 2 M 0 0 L 42 0 L 42 45 L 0 45 L 0 0 Z" stroke="none" fill="#12263f"/>
      </g>
      <g id="Trazado_777332" data-name="Trazado 777332" transform="translate(668.168 1292.693)" fill="url(#linear-gradient-2)">
        <path d="M 57.90571594238281 62.01541519165039 L 1.000006079673767 62.01541519165039 L 1.000006079673767 1.000005722045898 L 57.90571594238281 1.000005722045898 L 57.90571594238281 62.01541519165039 Z" stroke="none"/>
        <path d="M 1.999996185302734 1.999996185302734 L 1.999996185302734 61.01540374755859 L 56.90570449829102 61.01540374755859 L 56.90570449829102 1.999996185302734 L 1.999996185302734 1.999996185302734 M -3.814697265625e-06 -3.814697265625e-06 L 58.90570449829102 -3.814697265625e-06 L 58.90570449829102 63.01540756225586 L -3.814697265625e-06 63.01540756225586 L -3.814697265625e-06 -3.814697265625e-06 Z" stroke="none" fill="#12263f"/>
      </g>
      <path id="Trazado_196947-5" data-name="Trazado 196947" d="M-3030.193-10563.956v-14.975" transform="translate(3710.426 11856.649)" fill="none" stroke="#12263f" stroke-width="2"/>
      <path id="Trazado_196948-5" data-name="Trazado 196948" d="M-3030.193-10563.956v-14.975" transform="translate(3726.865 11856.649)" fill="none" stroke="#12263f" stroke-width="2"/>
      <path id="Trazado_196949-5" data-name="Trazado 196949" d="M-3030.193-10563.956v-14.975" transform="translate(3743.304 11856.649)" fill="none" stroke="#12263f" stroke-width="2"/>
      <path id="Trazado_196947-6" data-name="Trazado 196947" d="M-3030.193-10563.956v-14.975" transform="translate(3710.426 11934.64)" fill="none" stroke="#12263f" stroke-width="2"/>
      <path id="Trazado_196948-6" data-name="Trazado 196948" d="M-3030.193-10563.956v-14.975" transform="translate(3726.865 11934.64)" fill="none" stroke="#12263f" stroke-width="2"/>
      <path id="Trazado_196949-6" data-name="Trazado 196949" d="M-3030.193-10563.956v-14.975" transform="translate(3743.304 11934.64)" fill="none" stroke="#12263f" stroke-width="2"/>
      <path id="Trazado_196947-7" data-name="Trazado 196947" d="M0,14.975V0" transform="translate(654.298 1340.641) rotate(-90)" fill="none" stroke="#12263f" stroke-width="2"/>
      <path id="Trazado_196948-7" data-name="Trazado 196948" d="M0,14.975V0" transform="translate(654.298 1324.202) rotate(-90)" fill="none" stroke="#12263f" stroke-width="2"/>
      <path id="Trazado_196949-7" data-name="Trazado 196949" d="M0,14.975V0" transform="translate(654.298 1307.763) rotate(-90)" fill="none" stroke="#12263f" stroke-width="2"/>
      <path id="Trazado_196947-8" data-name="Trazado 196947" d="M0,14.975V0" transform="translate(726.809 1340.641) rotate(-90)" fill="none" stroke="#12263f" stroke-width="2"/>
      <path id="Trazado_196948-8" data-name="Trazado 196948" d="M0,14.975V0" transform="translate(726.809 1324.202) rotate(-90)" fill="none" stroke="#12263f" stroke-width="2"/>
      <path id="Trazado_196949-8" data-name="Trazado 196949" d="M0,14.975V0" transform="translate(726.809 1307.763) rotate(-90)" fill="none" stroke="#12263f" stroke-width="2"/>
      <g id="Trazado_777333" data-name="Trazado 777333" transform="translate(676.388 1302.283)" fill="none">
        <path d="M0,0H42.467V43.837H0Z" stroke="none"/>
        <path d="M 1.999992370605469 2.000003814697266 L 1.999992370605469 41.8368034362793 L 40.46690368652344 41.8368034362793 L 40.46690368652344 2.000003814697266 L 1.999992370605469 2.000003814697266 M -7.62939453125e-06 3.814697265625e-06 L 42.46690368652344 3.814697265625e-06 L 42.46690368652344 43.8368034362793 L -7.62939453125e-06 43.8368034362793 L -7.62939453125e-06 3.814697265625e-06 Z" stroke="none" fill="#12263f"/>
      </g>
      <g id="Trazado_777362" data-name="Trazado 777362" transform="translate(518.766 1402)" fill="#2ec49f">
        <path d="M 159 47 L 1 47 L 1 1 L 159 1 L 159 47 Z" stroke="none"/>
        <path d="M 2 2 L 2 46 L 158 46 L 158 2 L 2 2 M 0 0 L 160 0 L 160 48 L 0 48 L 0 0 Z" stroke="none" fill="#12263f"/>
      </g>
      <g id="Trazado_777363" data-name="Trazado 777363" transform="translate(522.766 1412)" fill="none">
        <path d="M0,0H33V28H0Z" stroke="none"/>
        <path d="M 2 2 L 2 26 L 31 26 L 31 2 L 2 2 M 0 0 L 33 0 L 33 28 L 0 28 L 0 0 Z" stroke="none" fill="#12263f"/>
      </g>
      <g id="Trazado_777364" data-name="Trazado 777364" transform="translate(599.766 1412)" fill="none">
        <path d="M0,0H33V28H0Z" stroke="none"/>
        <path d="M 2 2 L 2 26 L 31 26 L 31 2 L 2 2 M 0 0 L 33 0 L 33 28 L 0 28 L 0 0 Z" stroke="none" fill="#12263f"/>
      </g>
      <g id="Trazado_777365" data-name="Trazado 777365" transform="translate(561.766 1412)" fill="none">
        <path d="M0,0H33V28H0Z" stroke="none"/>
        <path d="M 2 2 L 2 26 L 31 26 L 31 2 L 2 2 M 0 0 L 33 0 L 33 28 L 0 28 L 0 0 Z" stroke="none" fill="#12263f"/>
      </g>
      <g id="Trazado_777366" data-name="Trazado 777366" transform="translate(637.766 1412)" fill="none">
        <path d="M0,0H33V28H0Z" stroke="none"/>
        <path d="M 2 2 L 2 26 L 31 26 L 31 2 L 2 2 M 0 0 L 33 0 L 33 28 L 0 28 L 0 0 Z" stroke="none" fill="#12263f"/>
      </g>
      <g id="Trazado_777367" data-name="Trazado 777367" transform="translate(522.766 1449)" fill="none">
        <path d="M0,0H148V15H0Z" stroke="none"/>
        <path d="M 2 2 L 2 13 L 146 13 L 146 2 L 2 2 M 0 0 L 148 0 L 148 15 L 0 15 L 0 0 Z" stroke="none" fill="#12263f"/>
      </g>
      <path id="Trazado_196950" data-name="Trazado 196950" d="M-3045.986-10377.79v12.281" transform="translate(3584.033 11827.528)" fill="none" stroke="#12263f" stroke-width="2"/>
      <path id="Trazado_196953" data-name="Trazado 196953" d="M-3045.986-10377.79v12.281" transform="translate(3605.952 11827.528)" fill="none" stroke="#12263f" stroke-width="2"/>
      <path id="Trazado_196955" data-name="Trazado 196955" d="M-3045.986-10377.79v12.281" transform="translate(3629.201 11827.528)" fill="none" stroke="#12263f" stroke-width="2"/>
      <path id="Trazado_196957" data-name="Trazado 196957" d="M-3045.986-10377.79v12.281" transform="translate(3651.12 11827.528)" fill="none" stroke="#12263f" stroke-width="2"/>
      <path id="Trazado_196959" data-name="Trazado 196959" d="M-3045.986-10377.79v12.281" transform="translate(3673.038 11827.528)" fill="none" stroke="#12263f" stroke-width="2"/>
      <path id="Trazado_196961" data-name="Trazado 196961" d="M-3045.986-10377.79v12.281" transform="translate(3694.956 11827.528)" fill="none" stroke="#12263f" stroke-width="2"/>
      <path id="Trazado_196951" data-name="Trazado 196951" d="M-3045.986-10377.79v12.281" transform="translate(3595.658 11827.528)" fill="none" stroke="#12263f" stroke-width="2"/>
      <path id="Trazado_196952" data-name="Trazado 196952" d="M-3045.986-10377.79v12.281" transform="translate(3617.576 11827.528)" fill="none" stroke="#12263f" stroke-width="2"/>
      <path id="Trazado_196954" data-name="Trazado 196954" d="M-3045.986-10377.79v12.281" transform="translate(3640.826 11827.528)" fill="none" stroke="#12263f" stroke-width="2"/>
      <path id="Trazado_196956" data-name="Trazado 196956" d="M-3045.986-10377.79v12.281" transform="translate(3662.744 11827.528)" fill="none" stroke="#12263f" stroke-width="2"/>
      <path id="Trazado_196958" data-name="Trazado 196958" d="M-3045.986-10377.79v12.281" transform="translate(3684.663 11827.528)" fill="none" stroke="#12263f" stroke-width="2"/>
      <path id="Trazado_196960" data-name="Trazado 196960" d="M-3045.986-10377.79v12.281" transform="translate(3706.581 11827.528)" fill="none" stroke="#12263f" stroke-width="2"/>
      <g id="Trazado_777368" data-name="Trazado 777368" transform="translate(559.766 1424)" fill="#2ec49f">
        <path d="M 160 46 L 1 46 L 1 1 L 160 1 L 160 46 Z" stroke="none"/>
        <path d="M 2 2 L 2 45 L 159 45 L 159 2 L 2 2 M 0 0 L 161 0 L 161 47 L 0 47 L 0 0 Z" stroke="none" fill="#12263f"/>
      </g>
      <g id="Trazado_777369" data-name="Trazado 777369" transform="translate(563.766 1433)" fill="none">
        <path d="M0,0H33V29H0Z" stroke="none"/>
        <path d="M 2 2 L 2 27 L 31 27 L 31 2 L 2 2 M 0 0 L 33 0 L 33 29 L 0 29 L 0 0 Z" stroke="none" fill="#12263f"/>
      </g>
      <g id="Trazado_777370" data-name="Trazado 777370" transform="translate(640.766 1433)" fill="none">
        <path d="M0,0H33V29H0Z" stroke="none"/>
        <path d="M 2 2 L 2 27 L 31 27 L 31 2 L 2 2 M 0 0 L 33 0 L 33 29 L 0 29 L 0 0 Z" stroke="none" fill="#12263f"/>
      </g>
      <g id="Trazado_777371" data-name="Trazado 777371" transform="translate(601.766 1433)" fill="none">
        <path d="M0,0H34V29H0Z" stroke="none"/>
        <path d="M 2 2 L 2 27 L 32 27 L 32 2 L 2 2 M 0 0 L 34 0 L 34 29 L 0 29 L 0 0 Z" stroke="none" fill="#12263f"/>
      </g>
      <g id="Trazado_777372" data-name="Trazado 777372" transform="translate(678.766 1433)" fill="none">
        <path d="M0,0H33V29H0Z" stroke="none"/>
        <path d="M 2 2 L 2 27 L 31 27 L 31 2 L 2 2 M 0 0 L 33 0 L 33 29 L 0 29 L 0 0 Z" stroke="none" fill="#12263f"/>
      </g>
      <g id="Trazado_777373" data-name="Trazado 777373" transform="translate(563.766 1470)" fill="none">
        <path d="M0,0H148V16H0Z" stroke="none"/>
        <path d="M 2 2 L 2 14 L 146 14 L 146 2 L 2 2 M 0 0 L 148 0 L 148 16 L 0 16 L 0 0 Z" stroke="none" fill="#12263f"/>
      </g>
      <path id="Trazado_196950-2" data-name="Trazado 196950" d="M-3045.986-10377.79v12.281" transform="translate(3625.13 11849.446)" fill="none" stroke="#12263f" stroke-width="2"/>
      <path id="Trazado_196953-2" data-name="Trazado 196953" d="M-3045.986-10377.79v12.281" transform="translate(3647.049 11849.446)" fill="none" stroke="#12263f" stroke-width="2"/>
      <path id="Trazado_196955-2" data-name="Trazado 196955" d="M-3045.986-10377.79v12.281" transform="translate(3670.298 11849.446)" fill="none" stroke="#12263f" stroke-width="2"/>
      <path id="Trazado_196957-2" data-name="Trazado 196957" d="M-3045.986-10377.79v12.281" transform="translate(3692.217 11849.446)" fill="none" stroke="#12263f" stroke-width="2"/>
      <path id="Trazado_196959-2" data-name="Trazado 196959" d="M-3045.986-10377.79v12.281" transform="translate(3714.135 11849.446)" fill="none" stroke="#12263f" stroke-width="2"/>
      <path id="Trazado_196961-2" data-name="Trazado 196961" d="M-3045.986-10377.79v12.281" transform="translate(3736.053 11849.446)" fill="none" stroke="#12263f" stroke-width="2"/>
      <path id="Trazado_196951-2" data-name="Trazado 196951" d="M-3045.986-10377.79v12.281" transform="translate(3636.755 11849.446)" fill="none" stroke="#12263f" stroke-width="2"/>
      <path id="Trazado_196952-2" data-name="Trazado 196952" d="M-3045.986-10377.79v12.281" transform="translate(3658.673 11849.446)" fill="none" stroke="#12263f" stroke-width="2"/>
      <path id="Trazado_196954-2" data-name="Trazado 196954" d="M-3045.986-10377.79v12.281" transform="translate(3681.923 11849.446)" fill="none" stroke="#12263f" stroke-width="2"/>
      <path id="Trazado_196956-2" data-name="Trazado 196956" d="M-3045.986-10377.79v12.281" transform="translate(3703.841 11849.446)" fill="none" stroke="#12263f" stroke-width="2"/>
      <path id="Trazado_196958-2" data-name="Trazado 196958" d="M-3045.986-10377.79v12.281" transform="translate(3725.76 11849.446)" fill="none" stroke="#12263f" stroke-width="2"/>
      <path id="Trazado_196960-2" data-name="Trazado 196960" d="M-3045.986-10377.79v12.281" transform="translate(3747.678 11849.446)" fill="none" stroke="#12263f" stroke-width="2"/>
      <g transform="matrix(1, 0, 0, 1, 416.48, 1139.13)" filter="url(#Trazado_196945)">
        <path id="Trazado_196945-2" data-name="Trazado 196945" d="M-2968.187-10512.968h57.739v-58.777l55.732,115.5-55.732,118.962v-57.22h-57.739Z" transform="translate(3251.12 10641.6)" stroke="#12263f" stroke-width="4" fill="url(#linear-gradient-4)"/>
      </g>
      <g id="Trazado_777334" data-name="Trazado 777334" transform="translate(1042.766 1199)" fill="#2ec49f">
        <path d="M 67 26 L 1 26 L 1 1 L 67 1 L 67 26 Z" stroke="none"/>
        <path d="M 2 2 L 2 25 L 66 25 L 66 2 L 2 2 M 0 0 L 68 0 L 68 27 L 0 27 L 0 0 Z" stroke="none" fill="#12263f"/>
      </g>
      <g id="Trazado_777335" data-name="Trazado 777335" transform="translate(1109.766 1199)" fill="#1565c0">
        <path d="M 62 26 L 1 26 L 1 1 L 62 1 L 62 26 Z" stroke="none"/>
        <path d="M 2 2 L 2 25 L 61 25 L 61 2 L 2 2 M 0 0 L 63 0 L 63 27 L 0 27 L 0 0 Z" stroke="none" fill="#12263f"/>
      </g>
      <g id="Trazado_777336" data-name="Trazado 777336" transform="translate(1042.766 1224)" fill="#f59d36">
        <path d="M 129 26 L 1 26 L 1 1 L 129 1 L 129 26 Z" stroke="none"/>
        <path d="M 2 2 L 2 25 L 128 25 L 128 2 L 2 2 M 0 0 L 130 0 L 130 27 L 0 27 L 0 0 Z" stroke="none" fill="#12263f"/>
      </g>
      <path id="Trazado_777337" data-name="Trazado 777337" d="M6.043-1.9H2.7L2.069,0H.044l3.44-9.242H5.25L8.709,0H6.684ZM3.218-3.447H5.529L4.367-6.906Zm8.258.19V0h-1.9V-9.242h3.605a4.171,4.171,0,0,1,1.831.381,2.807,2.807,0,0,1,1.216,1.082,3.018,3.018,0,0,1,.425,1.6,2.654,2.654,0,0,1-.93,2.142,3.873,3.873,0,0,1-2.574.784Zm0-1.542h1.7a1.673,1.673,0,0,0,1.152-.355,1.293,1.293,0,0,0,.4-1.016,1.524,1.524,0,0,0-.4-1.1,1.494,1.494,0,0,0-1.1-.432H11.477Zm8.385,1.542V0h-1.9V-9.242h3.605a4.171,4.171,0,0,1,1.831.381A2.807,2.807,0,0,1,24.61-7.779a3.018,3.018,0,0,1,.425,1.6,2.654,2.654,0,0,1-.93,2.142,3.873,3.873,0,0,1-2.574.784Zm0-1.542h1.7a1.673,1.673,0,0,0,1.152-.355,1.293,1.293,0,0,0,.4-1.016,1.524,1.524,0,0,0-.4-1.1,1.494,1.494,0,0,0-1.1-.432H19.862Z" transform="translate(1063.766 1218.001)" fill="#12263f"/>
      <path id="Trazado_777338" data-name="Trazado 777338" d="M6.043-1.9H2.7L2.069,0H.044l3.44-9.242H5.25L8.709,0H6.684ZM3.218-3.447H5.529L4.367-6.906Zm8.258.19V0h-1.9V-9.242h3.605a4.171,4.171,0,0,1,1.831.381,2.807,2.807,0,0,1,1.216,1.082,3.018,3.018,0,0,1,.425,1.6,2.654,2.654,0,0,1-.93,2.142,3.873,3.873,0,0,1-2.574.784Zm0-1.542h1.7a1.673,1.673,0,0,0,1.152-.355,1.293,1.293,0,0,0,.4-1.016,1.524,1.524,0,0,0-.4-1.1,1.494,1.494,0,0,0-1.1-.432H11.477Zm8.385,1.542V0h-1.9V-9.242h3.605a4.171,4.171,0,0,1,1.831.381A2.807,2.807,0,0,1,24.61-7.779a3.018,3.018,0,0,1,.425,1.6,2.654,2.654,0,0,1-.93,2.142,3.873,3.873,0,0,1-2.574.784Zm0-1.542h1.7a1.673,1.673,0,0,0,1.152-.355,1.293,1.293,0,0,0,.4-1.016,1.524,1.524,0,0,0-.4-1.1,1.494,1.494,0,0,0-1.1-.432H19.862Z" transform="translate(1128.766 1218.001)" fill="#12263f"/>
      <path id="Trazado_777339" data-name="Trazado 777339" d="M5.618-2.425a.977.977,0,0,0-.381-.828,5,5,0,0,0-1.371-.609A9.72,9.72,0,0,1,2.3-4.494,2.562,2.562,0,0,1,.724-6.786a2.232,2.232,0,0,1,.422-1.336,2.753,2.753,0,0,1,1.212-.917,4.563,4.563,0,0,1,1.774-.33A4.154,4.154,0,0,1,5.9-9.01,2.81,2.81,0,0,1,7.1-8a2.649,2.649,0,0,1,.428,1.485h-1.9a1.246,1.246,0,0,0-.4-.987A1.644,1.644,0,0,0,4.1-7.852a1.756,1.756,0,0,0-1.085.3.931.931,0,0,0-.387.778.892.892,0,0,0,.454.755,5.128,5.128,0,0,0,1.336.571A5.773,5.773,0,0,1,6.786-4.24a2.415,2.415,0,0,1,.743,1.8A2.224,2.224,0,0,1,6.621-.555,3.974,3.974,0,0,1,4.177.127a4.719,4.719,0,0,1-1.942-.39A3.074,3.074,0,0,1,.9-1.333a2.739,2.739,0,0,1-.46-1.574H2.349q0,1.53,1.828,1.53a1.778,1.778,0,0,0,1.06-.276A.9.9,0,0,0,5.618-2.425ZM16.409-4.412a5.579,5.579,0,0,1-.482,2.393A3.633,3.633,0,0,1,14.546-.432a3.819,3.819,0,0,1-2.06.559,3.845,3.845,0,0,1-2.05-.552A3.669,3.669,0,0,1,9.039-2a5.42,5.42,0,0,1-.5-2.358v-.457a5.55,5.55,0,0,1,.492-2.4,3.663,3.663,0,0,1,1.39-1.593,3.824,3.824,0,0,1,2.053-.555,3.824,3.824,0,0,1,2.053.555,3.663,3.663,0,0,1,1.39,1.593,5.534,5.534,0,0,1,.492,2.4Zm-1.93-.419a3.889,3.889,0,0,0-.521-2.209,1.7,1.7,0,0,0-1.485-.755,1.7,1.7,0,0,0-1.479.746,3.845,3.845,0,0,0-.527,2.187v.451a3.938,3.938,0,0,0,.521,2.2,1.692,1.692,0,0,0,1.5.781,1.677,1.677,0,0,0,1.473-.752,3.915,3.915,0,0,0,.521-2.193Z" transform="translate(1100.766 1242.001)" fill="#12263f"/>
      <g id="Trazado_777340" data-name="Trazado 777340" transform="translate(1042.766 1306)" fill="#2ec49f">
        <path d="M 67 27 L 1 27 L 1 1 L 67 1 L 67 27 Z" stroke="none"/>
        <path d="M 2 2 L 2 26 L 66 26 L 66 2 L 2 2 M 0 0 L 68 0 L 68 28 L 0 28 L 0 0 Z" stroke="none" fill="#12263f"/>
      </g>
      <g id="Trazado_777341" data-name="Trazado 777341" transform="translate(1109.766 1306)" fill="#1565c0">
        <path d="M 62 27 L 1 27 L 1 1 L 62 1 L 62 27 Z" stroke="none"/>
        <path d="M 2 2 L 2 26 L 61 26 L 61 2 L 2 2 M 0 0 L 63 0 L 63 28 L 0 28 L 0 0 Z" stroke="none" fill="#12263f"/>
      </g>
      <g id="Trazado_777342" data-name="Trazado 777342" transform="translate(1042.766 1330)" fill="#f59d36">
        <path d="M 129 26 L 1 26 L 1 1 L 129 1 L 129 26 Z" stroke="none"/>
        <path d="M 2 2 L 2 25 L 128 25 L 128 2 L 2 2 M 0 0 L 130 0 L 130 27 L 0 27 L 0 0 Z" stroke="none" fill="#12263f"/>
      </g>
      <path id="Trazado_777343" data-name="Trazado 777343" d="M6.043-1.9H2.7L2.069,0H.044l3.44-9.242H5.25L8.709,0H6.684ZM3.218-3.447H5.529L4.367-6.906Zm8.258.19V0h-1.9V-9.242h3.605a4.171,4.171,0,0,1,1.831.381,2.807,2.807,0,0,1,1.216,1.082,3.018,3.018,0,0,1,.425,1.6,2.654,2.654,0,0,1-.93,2.142,3.873,3.873,0,0,1-2.574.784Zm0-1.542h1.7a1.673,1.673,0,0,0,1.152-.355,1.293,1.293,0,0,0,.4-1.016,1.524,1.524,0,0,0-.4-1.1,1.494,1.494,0,0,0-1.1-.432H11.477Zm8.385,1.542V0h-1.9V-9.242h3.605a4.171,4.171,0,0,1,1.831.381A2.807,2.807,0,0,1,24.61-7.779a3.018,3.018,0,0,1,.425,1.6,2.654,2.654,0,0,1-.93,2.142,3.873,3.873,0,0,1-2.574.784Zm0-1.542h1.7a1.673,1.673,0,0,0,1.152-.355,1.293,1.293,0,0,0,.4-1.016,1.524,1.524,0,0,0-.4-1.1,1.494,1.494,0,0,0-1.1-.432H19.862Z" transform="translate(1063.766 1325.001)" fill="#12263f"/>
      <path id="Trazado_777344" data-name="Trazado 777344" d="M6.043-1.9H2.7L2.069,0H.044l3.44-9.242H5.25L8.709,0H6.684ZM3.218-3.447H5.529L4.367-6.906Zm8.258.19V0h-1.9V-9.242h3.605a4.171,4.171,0,0,1,1.831.381,2.807,2.807,0,0,1,1.216,1.082,3.018,3.018,0,0,1,.425,1.6,2.654,2.654,0,0,1-.93,2.142,3.873,3.873,0,0,1-2.574.784Zm0-1.542h1.7a1.673,1.673,0,0,0,1.152-.355,1.293,1.293,0,0,0,.4-1.016,1.524,1.524,0,0,0-.4-1.1,1.494,1.494,0,0,0-1.1-.432H11.477Zm8.385,1.542V0h-1.9V-9.242h3.605a4.171,4.171,0,0,1,1.831.381A2.807,2.807,0,0,1,24.61-7.779a3.018,3.018,0,0,1,.425,1.6,2.654,2.654,0,0,1-.93,2.142,3.873,3.873,0,0,1-2.574.784Zm0-1.542h1.7a1.673,1.673,0,0,0,1.152-.355,1.293,1.293,0,0,0,.4-1.016,1.524,1.524,0,0,0-.4-1.1,1.494,1.494,0,0,0-1.1-.432H19.862Z" transform="translate(1128.766 1325.001)" fill="#12263f"/>
      <path id="Trazado_777345" data-name="Trazado 777345" d="M5.618-2.425a.977.977,0,0,0-.381-.828,5,5,0,0,0-1.371-.609A9.72,9.72,0,0,1,2.3-4.494,2.562,2.562,0,0,1,.724-6.786a2.232,2.232,0,0,1,.422-1.336,2.753,2.753,0,0,1,1.212-.917,4.563,4.563,0,0,1,1.774-.33A4.154,4.154,0,0,1,5.9-9.01,2.81,2.81,0,0,1,7.1-8a2.649,2.649,0,0,1,.428,1.485h-1.9a1.246,1.246,0,0,0-.4-.987A1.644,1.644,0,0,0,4.1-7.852a1.756,1.756,0,0,0-1.085.3.931.931,0,0,0-.387.778.892.892,0,0,0,.454.755,5.128,5.128,0,0,0,1.336.571A5.773,5.773,0,0,1,6.786-4.24a2.415,2.415,0,0,1,.743,1.8A2.224,2.224,0,0,1,6.621-.555,3.974,3.974,0,0,1,4.177.127a4.719,4.719,0,0,1-1.942-.39A3.074,3.074,0,0,1,.9-1.333a2.739,2.739,0,0,1-.46-1.574H2.349q0,1.53,1.828,1.53a1.778,1.778,0,0,0,1.06-.276A.9.9,0,0,0,5.618-2.425ZM16.409-4.412a5.579,5.579,0,0,1-.482,2.393A3.633,3.633,0,0,1,14.546-.432a3.819,3.819,0,0,1-2.06.559,3.845,3.845,0,0,1-2.05-.552A3.669,3.669,0,0,1,9.039-2a5.42,5.42,0,0,1-.5-2.358v-.457a5.55,5.55,0,0,1,.492-2.4,3.663,3.663,0,0,1,1.39-1.593,3.824,3.824,0,0,1,2.053-.555,3.824,3.824,0,0,1,2.053.555,3.663,3.663,0,0,1,1.39,1.593,5.534,5.534,0,0,1,.492,2.4Zm-1.93-.419a3.889,3.889,0,0,0-.521-2.209,1.7,1.7,0,0,0-1.485-.755,1.7,1.7,0,0,0-1.479.746,3.845,3.845,0,0,0-.527,2.187v.451a3.938,3.938,0,0,0,.521,2.2,1.692,1.692,0,0,0,1.5.781,1.677,1.677,0,0,0,1.473-.752,3.915,3.915,0,0,0,.521-2.193Z" transform="translate(1100.766 1350.001)" fill="#12263f"/>
      <g id="Trazado_777346" data-name="Trazado 777346" transform="translate(1042.766 1412.999)" fill="#2ec49f">
        <path d="M 67 26 L 1 26 L 1 1 L 67 1 L 67 26 Z" stroke="none"/>
        <path d="M 2 2 L 2 25 L 66 25 L 66 2 L 2 2 M 0 0 L 68 0 L 68 27 L 0 27 L 0 0 Z" stroke="none" fill="#12263f"/>
      </g>
      <g id="Trazado_777347" data-name="Trazado 777347" transform="translate(1109.766 1412.999)" fill="#1565c0">
        <path d="M 62 26 L 1 26 L 1 1 L 62 1 L 62 26 Z" stroke="none"/>
        <path d="M 2 2 L 2 25 L 61 25 L 61 2 L 2 2 M 0 0 L 63 0 L 63 27 L 0 27 L 0 0 Z" stroke="none" fill="#12263f"/>
      </g>
      <g id="Trazado_777348" data-name="Trazado 777348" transform="translate(1042.766 1437.999)" fill="#f59d36">
        <path d="M 129 26 L 1 26 L 1 1 L 129 1 L 129 26 Z" stroke="none"/>
        <path d="M 2 2 L 2 25 L 128 25 L 128 2 L 2 2 M 0 0 L 130 0 L 130 27 L 0 27 L 0 0 Z" stroke="none" fill="#12263f"/>
      </g>
      <path id="Trazado_777349" data-name="Trazado 777349" d="M6.043-1.9H2.7L2.069,0H.044l3.44-9.242H5.25L8.709,0H6.684ZM3.218-3.447H5.529L4.367-6.906Zm8.258.19V0h-1.9V-9.242h3.605a4.171,4.171,0,0,1,1.831.381,2.807,2.807,0,0,1,1.216,1.082,3.018,3.018,0,0,1,.425,1.6,2.654,2.654,0,0,1-.93,2.142,3.873,3.873,0,0,1-2.574.784Zm0-1.542h1.7a1.673,1.673,0,0,0,1.152-.355,1.293,1.293,0,0,0,.4-1.016,1.524,1.524,0,0,0-.4-1.1,1.494,1.494,0,0,0-1.1-.432H11.477Zm8.385,1.542V0h-1.9V-9.242h3.605a4.171,4.171,0,0,1,1.831.381A2.807,2.807,0,0,1,24.61-7.779a3.018,3.018,0,0,1,.425,1.6,2.654,2.654,0,0,1-.93,2.142,3.873,3.873,0,0,1-2.574.784Zm0-1.542h1.7a1.673,1.673,0,0,0,1.152-.355,1.293,1.293,0,0,0,.4-1.016,1.524,1.524,0,0,0-.4-1.1,1.494,1.494,0,0,0-1.1-.432H19.862Z" transform="translate(1063.766 1431)" fill="#12263f"/>
      <path id="Trazado_777350" data-name="Trazado 777350" d="M6.043-1.9H2.7L2.069,0H.044l3.44-9.242H5.25L8.709,0H6.684ZM3.218-3.447H5.529L4.367-6.906Zm8.258.19V0h-1.9V-9.242h3.605a4.171,4.171,0,0,1,1.831.381,2.807,2.807,0,0,1,1.216,1.082,3.018,3.018,0,0,1,.425,1.6,2.654,2.654,0,0,1-.93,2.142,3.873,3.873,0,0,1-2.574.784Zm0-1.542h1.7a1.673,1.673,0,0,0,1.152-.355,1.293,1.293,0,0,0,.4-1.016,1.524,1.524,0,0,0-.4-1.1,1.494,1.494,0,0,0-1.1-.432H11.477Zm8.385,1.542V0h-1.9V-9.242h3.605a4.171,4.171,0,0,1,1.831.381A2.807,2.807,0,0,1,24.61-7.779a3.018,3.018,0,0,1,.425,1.6,2.654,2.654,0,0,1-.93,2.142,3.873,3.873,0,0,1-2.574.784Zm0-1.542h1.7a1.673,1.673,0,0,0,1.152-.355,1.293,1.293,0,0,0,.4-1.016,1.524,1.524,0,0,0-.4-1.1,1.494,1.494,0,0,0-1.1-.432H19.862Z" transform="translate(1128.766 1431)" fill="#12263f"/>
      <path id="Trazado_777351" data-name="Trazado 777351" d="M5.618-2.425a.977.977,0,0,0-.381-.828,5,5,0,0,0-1.371-.609A9.72,9.72,0,0,1,2.3-4.494,2.562,2.562,0,0,1,.724-6.786a2.232,2.232,0,0,1,.422-1.336,2.753,2.753,0,0,1,1.212-.917,4.563,4.563,0,0,1,1.774-.33A4.154,4.154,0,0,1,5.9-9.01,2.81,2.81,0,0,1,7.1-8a2.649,2.649,0,0,1,.428,1.485h-1.9a1.246,1.246,0,0,0-.4-.987A1.644,1.644,0,0,0,4.1-7.852a1.756,1.756,0,0,0-1.085.3.931.931,0,0,0-.387.778.892.892,0,0,0,.454.755,5.128,5.128,0,0,0,1.336.571A5.773,5.773,0,0,1,6.786-4.24a2.415,2.415,0,0,1,.743,1.8A2.224,2.224,0,0,1,6.621-.555,3.974,3.974,0,0,1,4.177.127a4.719,4.719,0,0,1-1.942-.39A3.074,3.074,0,0,1,.9-1.333a2.739,2.739,0,0,1-.46-1.574H2.349q0,1.53,1.828,1.53a1.778,1.778,0,0,0,1.06-.276A.9.9,0,0,0,5.618-2.425ZM16.409-4.412a5.579,5.579,0,0,1-.482,2.393A3.633,3.633,0,0,1,14.546-.432a3.819,3.819,0,0,1-2.06.559,3.845,3.845,0,0,1-2.05-.552A3.669,3.669,0,0,1,9.039-2a5.42,5.42,0,0,1-.5-2.358v-.457a5.55,5.55,0,0,1,.492-2.4,3.663,3.663,0,0,1,1.39-1.593,3.824,3.824,0,0,1,2.053-.555,3.824,3.824,0,0,1,2.053.555,3.663,3.663,0,0,1,1.39,1.593,5.534,5.534,0,0,1,.492,2.4Zm-1.93-.419a3.889,3.889,0,0,0-.521-2.209,1.7,1.7,0,0,0-1.485-.755,1.7,1.7,0,0,0-1.479.746,3.845,3.845,0,0,0-.527,2.187v.451a3.938,3.938,0,0,0,.521,2.2,1.692,1.692,0,0,0,1.5.781,1.677,1.677,0,0,0,1.473-.752,3.915,3.915,0,0,0,.521-2.193Z" transform="translate(1100.766 1456)" fill="#12263f"/>
      <path id="Trazado_777325" data-name="Trazado 777325" d="M6.043-1.9H2.7L2.069,0H.044l3.44-9.242H5.25L8.709,0H6.684ZM3.218-3.447H5.529L4.367-6.906Zm8.258.19V0h-1.9V-9.242h3.605a4.171,4.171,0,0,1,1.831.381,2.807,2.807,0,0,1,1.216,1.082,3.018,3.018,0,0,1,.425,1.6,2.654,2.654,0,0,1-.93,2.142,3.873,3.873,0,0,1-2.574.784Zm0-1.542h1.7a1.673,1.673,0,0,0,1.152-.355,1.293,1.293,0,0,0,.4-1.016,1.524,1.524,0,0,0-.4-1.1,1.494,1.494,0,0,0-1.1-.432H11.477Zm8.385,1.542V0h-1.9V-9.242h3.605a4.171,4.171,0,0,1,1.831.381A2.807,2.807,0,0,1,24.61-7.779a3.018,3.018,0,0,1,.425,1.6,2.654,2.654,0,0,1-.93,2.142,3.873,3.873,0,0,1-2.574.784Zm0-1.542h1.7a1.673,1.673,0,0,0,1.152-.355,1.293,1.293,0,0,0,.4-1.016,1.524,1.524,0,0,0-.4-1.1,1.494,1.494,0,0,0-1.1-.432H19.862Z" transform="translate(1063.766 1325)" fill="#12263f"/>
      <g transform="matrix(1, 0, 0, 1, 416.48, 1139.13)" filter="url(#Trazado_196963)">
        <path id="Trazado_196963-2" data-name="Trazado 196963" d="M-2840.414-10558.478l13.3-22.62h35.043l4.876,8.436,8.2,14.185-13.075,25.589h-35.043Z" transform="translate(3298.39 10744.08)" stroke="#12263f" stroke-width="2" fill="url(#linear-gradient-5)"/>
      </g>
      <path id="Trazado_777352" data-name="Trazado 777352" d="M3.313-9.242l2.374,6.7,2.361-6.7h2.5V0H8.639V-2.526l.19-4.361L6.335,0H5.027L2.539-6.881l.19,4.354V0H.825V-9.242Z" transform="translate(899.766 1331.001)" fill="#12263f"/>
      <g transform="matrix(1, 0, 0, 1, 416.48, 1139.13)" filter="url(#Trazado_196962)">
        <path id="Trazado_196962-2" data-name="Trazado 196962" d="M-2840.414-10558.478l13.3-22.62h35.043l4.876,8.436,8.2,14.185-13.075,25.589h-35.043Z" transform="translate(3298.39 10638.14)" stroke="#12263f" stroke-width="2" fill="url(#linear-gradient-5)"/>
      </g>
      <path id="Trazado_777353" data-name="Trazado 777353" d="M3.313-9.242l2.374,6.7,2.361-6.7h2.5V0H8.639V-2.526l.19-4.361L6.335,0H5.027L2.539-6.881l.19,4.354V0H.825V-9.242Z" transform="translate(899.766 1224.001)" fill="#12263f"/>
      <g transform="matrix(1, 0, 0, 1, 416.48, 1139.13)" filter="url(#Trazado_196964)">
        <path id="Trazado_196964-2" data-name="Trazado 196964" d="M-2840.414-10558.478l13.3-22.62h35.043l4.876,8.436,8.2,14.185-13.075,25.589h-35.043Z" transform="translate(3298.39 10852.76)" stroke="#12263f" stroke-width="2" fill="url(#linear-gradient-5)"/>
      </g>
      <path id="Trazado_777354" data-name="Trazado 777354" d="M3.313-9.242l2.374,6.7,2.361-6.7h2.5V0H8.639V-2.526l.19-4.361L6.335,0H5.027L2.539-6.881l.19,4.354V0H.825V-9.242Z" transform="translate(899.766 1440)" fill="#12263f"/>
      <path id="Trazado_777326" data-name="Trazado 777326" d="M4.588-12.8,7.875-3.516l3.27-9.281h3.463V0H11.962V-3.5l.264-6.038L8.771,0H6.961L3.516-9.527,3.779-3.5V0H1.143V-12.8ZM22.254,0A2.821,2.821,0,0,1,22-.853,3.073,3.073,0,0,1,19.6.176a3.376,3.376,0,0,1-2.316-.809,2.6,2.6,0,0,1-.918-2.039,2.687,2.687,0,0,1,1.121-2.32,5.529,5.529,0,0,1,3.239-.817h1.169v-.545a1.567,1.567,0,0,0-.338-1.055,1.331,1.331,0,0,0-1.068-.4,1.513,1.513,0,0,0-1.006.308,1.045,1.045,0,0,0-.365.844h-2.54a2.551,2.551,0,0,1,.51-1.529,3.37,3.37,0,0,1,1.441-1.1,5.253,5.253,0,0,1,2.092-.4A4.15,4.15,0,0,1,23.41-8.8a3.09,3.09,0,0,1,1.033,2.483V-2.2A4.546,4.546,0,0,0,24.82-.149V0Zm-2.1-1.767a2.188,2.188,0,0,0,1.037-.25,1.645,1.645,0,0,0,.7-.672V-4.324h-.949q-1.907,0-2.03,1.318l-.009.149a1.017,1.017,0,0,0,.334.782A1.3,1.3,0,0,0,20.153-1.767ZM21.12-13.5h2.769l-2.435,2.725H19.389ZM26-4.843a5.684,5.684,0,0,1,1-3.542,3.261,3.261,0,0,1,2.738-1.3,2.92,2.92,0,0,1,2.435,1.169l.167-.993h2.232V3.656H32.019V-.817a2.928,2.928,0,0,1-2.3.993,3.237,3.237,0,0,1-2.707-1.318A5.963,5.963,0,0,1,26-4.843Zm2.54.18a3.729,3.729,0,0,0,.479,2.077,1.533,1.533,0,0,0,1.349.713,1.708,1.708,0,0,0,1.652-.933V-6.74a1.694,1.694,0,0,0-1.635-.9,1.552,1.552,0,0,0-1.362.713A4.118,4.118,0,0,0,28.538-4.662Zm13.72,3.7a3.185,3.185,0,0,1-2.6,1.143A3,3,0,0,1,37.323-.7,3.752,3.752,0,0,1,36.5-3.278V-9.51h2.54v6.151q0,1.487,1.354,1.487a1.834,1.834,0,0,0,1.775-.9V-9.51h2.549V0H42.328ZM49.315,0H46.767V-9.51h2.549Zm-2.7-11.971a1.251,1.251,0,0,1,.382-.94,1.436,1.436,0,0,1,1.042-.369,1.44,1.44,0,0,1,1.037.369,1.244,1.244,0,0,1,.387.94,1.247,1.247,0,0,1-.391.949,1.443,1.443,0,0,1-1.033.369,1.443,1.443,0,0,1-1.033-.369A1.247,1.247,0,0,1,46.617-11.971ZM53.745-9.51l.079,1.1a3.32,3.32,0,0,1,2.733-1.274,2.759,2.759,0,0,1,2.25.888,4.142,4.142,0,0,1,.756,2.654V0h-2.54V-6.1a1.654,1.654,0,0,0-.352-1.176A1.572,1.572,0,0,0,55.5-7.638a1.747,1.747,0,0,0-1.608.916V0h-2.54V-9.51ZM67,0a2.821,2.821,0,0,1-.255-.853,3.073,3.073,0,0,1-2.4,1.028,3.376,3.376,0,0,1-2.316-.809,2.6,2.6,0,0,1-.918-2.039,2.687,2.687,0,0,1,1.121-2.32A5.529,5.529,0,0,1,65.47-5.81h1.169v-.545A1.567,1.567,0,0,0,66.3-7.409a1.331,1.331,0,0,0-1.068-.4,1.513,1.513,0,0,0-1.006.308,1.045,1.045,0,0,0-.365.844h-2.54a2.551,2.551,0,0,1,.51-1.529,3.37,3.37,0,0,1,1.441-1.1,5.253,5.253,0,0,1,2.092-.4,4.15,4.15,0,0,1,2.791.883,3.09,3.09,0,0,1,1.033,2.483V-2.2a4.546,4.546,0,0,0,.378,2.048V0ZM64.9-1.767a2.188,2.188,0,0,0,1.037-.25,1.645,1.645,0,0,0,.7-.672V-4.324h-.949q-1.907,0-2.03,1.318l-.009.149a1.017,1.017,0,0,0,.334.782A1.3,1.3,0,0,0,64.9-1.767Zm11.391-.861a.818.818,0,0,0-.461-.734,5.241,5.241,0,0,0-1.481-.479q-3.393-.712-3.393-2.883A2.613,2.613,0,0,1,72-8.837a4.237,4.237,0,0,1,2.747-.848,4.56,4.56,0,0,1,2.9.853,2.687,2.687,0,0,1,1.085,2.215h-2.54a1.229,1.229,0,0,0-.352-.9,1.488,1.488,0,0,0-1.1-.356,1.52,1.52,0,0,0-.993.29.916.916,0,0,0-.352.738.783.783,0,0,0,.4.681,4.114,4.114,0,0,0,1.349.448,11.019,11.019,0,0,1,1.6.426,2.628,2.628,0,0,1,2.013,2.558,2.481,2.481,0,0,1-1.116,2.1,4.815,4.815,0,0,1-2.883.8A5.029,5.029,0,0,1,72.637-.25a3.561,3.561,0,0,1-1.455-1.169,2.716,2.716,0,0,1-.527-1.6h2.408a1.326,1.326,0,0,0,.5,1.037,1.987,1.987,0,0,0,1.248.36,1.839,1.839,0,0,0,1.1-.277A.861.861,0,0,0,76.289-2.628Z" transform="translate(832.766 1535)" fill="#12263f"/>
      <path id="Trazado_777327" data-name="Trazado 777327" d="M11.558,0H8.921V-5.484H3.779V0H1.143V-12.8H3.779v5.186H8.921V-12.8h2.637Zm4.816,0H13.825V-9.51h2.549Zm-2.7-11.971a1.251,1.251,0,0,1,.382-.94A1.436,1.436,0,0,1,15.1-13.28a1.44,1.44,0,0,1,1.037.369,1.244,1.244,0,0,1,.387.94,1.247,1.247,0,0,1-.391.949,1.443,1.443,0,0,1-1.033.369,1.443,1.443,0,0,1-1.033-.369A1.247,1.247,0,0,1,13.676-11.971Zm13.351,7.3a5.7,5.7,0,0,1-1,3.52A3.2,3.2,0,0,1,23.335.176a2.963,2.963,0,0,1-2.329-1V3.656h-2.54V-9.51h2.355l.088.932a2.985,2.985,0,0,1,2.408-1.107,3.22,3.22,0,0,1,2.733,1.3A5.858,5.858,0,0,1,27.026-4.8Zm-2.54-.194a3.763,3.763,0,0,0-.47-2.054,1.53,1.53,0,0,0-1.367-.723,1.662,1.662,0,0,0-1.644.917v3.906a1.691,1.691,0,0,0,1.661.943Q24.486-1.872,24.486-4.861ZM32.977.176a4.668,4.668,0,0,1-3.406-1.283,4.561,4.561,0,0,1-1.314-3.419v-.246a5.745,5.745,0,0,1,.554-2.562,4.064,4.064,0,0,1,1.569-1.74A4.4,4.4,0,0,1,32.7-9.686a3.947,3.947,0,0,1,3.072,1.23,5,5,0,0,1,1.121,3.489v1.037H30.832a2.36,2.36,0,0,0,.743,1.494,2.245,2.245,0,0,0,1.569.563,2.742,2.742,0,0,0,2.294-1.063l1.248,1.4A3.813,3.813,0,0,1,35.139-.277,5.075,5.075,0,0,1,32.977.176Zm-.29-7.813a1.587,1.587,0,0,0-1.226.512,2.651,2.651,0,0,0-.6,1.466h3.533v-.2a1.891,1.891,0,0,0-.457-1.311A1.638,1.638,0,0,0,32.687-7.638Zm10.986.51a6.9,6.9,0,0,0-.914-.07,1.86,1.86,0,0,0-1.89.976V0h-2.54V-9.51h2.4l.07,1.134a2.354,2.354,0,0,1,2.118-1.31,2.662,2.662,0,0,1,.791.114ZM48.612-3.1,50.379-9.51h2.654L49.825,0H47.4L44.191-9.51h2.654ZM56.83,0H54.281V-9.51H56.83Zm-2.7-11.971a1.251,1.251,0,0,1,.382-.94,1.436,1.436,0,0,1,1.042-.369,1.44,1.44,0,0,1,1.037.369,1.244,1.244,0,0,1,.387.94,1.247,1.247,0,0,1-.391.949,1.443,1.443,0,0,1-1.033.369,1.443,1.443,0,0,1-1.033-.369A1.247,1.247,0,0,1,54.132-11.971Zm9.94,9.343a.818.818,0,0,0-.461-.734,5.241,5.241,0,0,0-1.481-.479q-3.393-.712-3.393-2.883a2.613,2.613,0,0,1,1.05-2.114,4.237,4.237,0,0,1,2.747-.848,4.56,4.56,0,0,1,2.9.853,2.687,2.687,0,0,1,1.085,2.215h-2.54a1.229,1.229,0,0,0-.352-.9,1.488,1.488,0,0,0-1.1-.356,1.52,1.52,0,0,0-.993.29.916.916,0,0,0-.352.738.783.783,0,0,0,.4.681,4.114,4.114,0,0,0,1.349.448,11.019,11.019,0,0,1,1.6.426,2.628,2.628,0,0,1,2.013,2.558,2.481,2.481,0,0,1-1.116,2.1,4.815,4.815,0,0,1-2.883.8A5.029,5.029,0,0,1,60.42-.25a3.561,3.561,0,0,1-1.455-1.169,2.716,2.716,0,0,1-.527-1.6h2.408a1.326,1.326,0,0,0,.5,1.037,1.987,1.987,0,0,0,1.248.36A1.839,1.839,0,0,0,63.7-1.9.861.861,0,0,0,64.072-2.628Zm3.709-2.215a5.64,5.64,0,0,1,.545-2.522A3.989,3.989,0,0,1,69.9-9.079a4.577,4.577,0,0,1,2.377-.606,4.33,4.33,0,0,1,3.142,1.178,4.727,4.727,0,0,1,1.358,3.2l.018.65a4.97,4.97,0,0,1-1.222,3.511A4.247,4.247,0,0,1,72.29.176a4.268,4.268,0,0,1-3.283-1.318,5.058,5.058,0,0,1-1.226-3.586Zm2.54.18a3.555,3.555,0,0,0,.51,2.073,1.682,1.682,0,0,0,1.459.717,1.686,1.686,0,0,0,1.441-.709,3.89,3.89,0,0,0,.519-2.267,3.519,3.519,0,0,0-.519-2.06,1.686,1.686,0,0,0-1.459-.731,1.658,1.658,0,0,0-1.441.726A3.955,3.955,0,0,0,70.321-4.662ZM83.7-7.128a6.9,6.9,0,0,0-.914-.07,1.86,1.86,0,0,0-1.89.976V0h-2.54V-9.51h2.4l.07,1.134a2.354,2.354,0,0,1,2.118-1.31,2.662,2.662,0,0,1,.791.114Z" transform="translate(706.766 1334)" fill="#12263f"/>
      <path id="Trazado_777328" data-name="Trazado 777328" d="M3.946,0H1.31V-12.8H3.946ZM8.561-9.51l.079,1.1a3.32,3.32,0,0,1,2.733-1.274,2.759,2.759,0,0,1,2.25.888,4.142,4.142,0,0,1,.756,2.654V0h-2.54V-6.1a1.654,1.654,0,0,0-.352-1.176,1.572,1.572,0,0,0-1.169-.366,1.747,1.747,0,0,0-1.608.916V0H6.17V-9.51ZM17,0V-7.646H15.583V-9.51H17v-.809a3.283,3.283,0,0,1,.918-2.483,3.557,3.557,0,0,1,2.571-.883,5.987,5.987,0,0,1,1.292.174l-.026,1.953a3.238,3.238,0,0,0-.773-.079q-1.433,0-1.433,1.356v.771h1.89v1.863h-1.89V0ZM28.1-7.128a6.9,6.9,0,0,0-.914-.07,1.86,1.86,0,0,0-1.89.976V0h-2.54V-9.51h2.4l.07,1.134a2.354,2.354,0,0,1,2.118-1.31,2.662,2.662,0,0,1,.791.114ZM34.567,0a2.821,2.821,0,0,1-.255-.853,3.073,3.073,0,0,1-2.4,1.028A3.376,3.376,0,0,1,29.6-.633a2.6,2.6,0,0,1-.918-2.039A2.687,2.687,0,0,1,29.8-4.992a5.529,5.529,0,0,1,3.239-.817h1.169v-.545a1.567,1.567,0,0,0-.338-1.055A1.331,1.331,0,0,0,32.8-7.8a1.513,1.513,0,0,0-1.006.308,1.045,1.045,0,0,0-.365.844H28.89a2.551,2.551,0,0,1,.51-1.529,3.37,3.37,0,0,1,1.441-1.1,5.253,5.253,0,0,1,2.092-.4,4.15,4.15,0,0,1,2.791.883,3.09,3.09,0,0,1,1.033,2.483V-2.2a4.546,4.546,0,0,0,.378,2.048V0Zm-2.1-1.767a2.188,2.188,0,0,0,1.037-.25,1.645,1.645,0,0,0,.7-.672V-4.324h-.949q-1.907,0-2.03,1.318l-.009.149a1.017,1.017,0,0,0,.334.782A1.3,1.3,0,0,0,32.467-1.767ZM43.084.176a4.668,4.668,0,0,1-3.406-1.283,4.561,4.561,0,0,1-1.314-3.419v-.246a5.745,5.745,0,0,1,.554-2.562,4.064,4.064,0,0,1,1.569-1.74A4.4,4.4,0,0,1,42.8-9.686a3.947,3.947,0,0,1,3.072,1.23A5,5,0,0,1,47-4.966v1.037H40.939a2.36,2.36,0,0,0,.743,1.494,2.245,2.245,0,0,0,1.569.563,2.742,2.742,0,0,0,2.294-1.063l1.248,1.4A3.813,3.813,0,0,1,45.246-.277,5.075,5.075,0,0,1,43.084.176Zm-.29-7.813a1.587,1.587,0,0,0-1.226.512,2.651,2.651,0,0,0-.6,1.466H44.5v-.2a1.891,1.891,0,0,0-.457-1.311A1.638,1.638,0,0,0,42.794-7.638Zm10.793,5.01a.818.818,0,0,0-.461-.734,5.241,5.241,0,0,0-1.481-.479q-3.393-.712-3.393-2.883A2.613,2.613,0,0,1,49.3-8.837a4.237,4.237,0,0,1,2.747-.848,4.56,4.56,0,0,1,2.9.853A2.687,2.687,0,0,1,56.03-6.618H53.49a1.229,1.229,0,0,0-.352-.9,1.488,1.488,0,0,0-1.1-.356,1.52,1.52,0,0,0-.993.29.916.916,0,0,0-.352.738.783.783,0,0,0,.4.681,4.114,4.114,0,0,0,1.349.448,11.019,11.019,0,0,1,1.6.426,2.628,2.628,0,0,1,2.013,2.558,2.481,2.481,0,0,1-1.116,2.1,4.815,4.815,0,0,1-2.883.8A5.029,5.029,0,0,1,49.935-.25,3.561,3.561,0,0,1,48.48-1.419a2.716,2.716,0,0,1-.527-1.6h2.408a1.326,1.326,0,0,0,.5,1.037,1.987,1.987,0,0,0,1.248.36,1.839,1.839,0,0,0,1.1-.277A.861.861,0,0,0,53.587-2.628Zm7.146-9.22V-9.51h1.626v1.863H60.732V-2.9a1.133,1.133,0,0,0,.2.756,1.015,1.015,0,0,0,.773.229,4.051,4.051,0,0,0,.747-.062V-.053a5.229,5.229,0,0,1-1.538.229,2.425,2.425,0,0,1-2.725-2.7V-7.646H56.8V-9.51h1.389v-2.338Zm8.385,4.72A6.9,6.9,0,0,0,68.2-7.2a1.86,1.86,0,0,0-1.89.976V0h-2.54V-9.51h2.4l.07,1.134a2.354,2.354,0,0,1,2.118-1.31,2.662,2.662,0,0,1,.791.114ZM76.034-.967a3.185,3.185,0,0,1-2.6,1.143A3,3,0,0,1,71.1-.7a3.752,3.752,0,0,1-.822-2.575V-9.51h2.54v6.151q0,1.487,1.354,1.487a1.834,1.834,0,0,0,1.775-.9V-9.51H78.5V0H76.1Zm8.332-.905a1.666,1.666,0,0,0,1.143-.387,1.355,1.355,0,0,0,.457-1.028h2.382a3.258,3.258,0,0,1-.527,1.771A3.48,3.48,0,0,1,86.4-.268,4.442,4.442,0,0,1,84.41.176a4.129,4.129,0,0,1-3.217-1.3A5.13,5.13,0,0,1,80.016-4.7v-.167a5.071,5.071,0,0,1,1.169-3.507,4.08,4.08,0,0,1,3.208-1.31A4,4,0,0,1,87.253-8.67a3.594,3.594,0,0,1,1.094,2.7H85.966a1.745,1.745,0,0,0-.457-1.206,1.524,1.524,0,0,0-1.16-.464,1.53,1.53,0,0,0-1.34.647,3.749,3.749,0,0,0-.453,2.1v.264A3.8,3.8,0,0,0,83-2.515,1.549,1.549,0,0,0,84.366-1.872Zm8.473-9.976V-9.51h1.626v1.863H92.839V-2.9a1.133,1.133,0,0,0,.2.756,1.015,1.015,0,0,0,.773.229,4.051,4.051,0,0,0,.747-.062V-.053a5.229,5.229,0,0,1-1.538.229,2.425,2.425,0,0,1-2.725-2.7V-7.646H88.91V-9.51H90.3v-2.338ZM101.575-.967a3.185,3.185,0,0,1-2.6,1.143A3,3,0,0,1,96.64-.7a3.752,3.752,0,0,1-.822-2.575V-9.51h2.54v6.151q0,1.487,1.354,1.487a1.834,1.834,0,0,0,1.775-.9V-9.51h2.549V0h-2.391ZM111.3-7.128a6.9,6.9,0,0,0-.914-.07,1.86,1.86,0,0,0-1.89.976V0h-2.54V-9.51h2.4l.07,1.134a2.354,2.354,0,0,1,2.118-1.31,2.662,2.662,0,0,1,.791.114ZM117.765,0a2.821,2.821,0,0,1-.255-.853,3.073,3.073,0,0,1-2.4,1.028,3.376,3.376,0,0,1-2.316-.809,2.6,2.6,0,0,1-.918-2.039A2.687,2.687,0,0,1,113-4.992a5.529,5.529,0,0,1,3.239-.817H117.4v-.545a1.567,1.567,0,0,0-.338-1.055A1.331,1.331,0,0,0,116-7.8a1.513,1.513,0,0,0-1.006.308,1.045,1.045,0,0,0-.365.844h-2.54a2.551,2.551,0,0,1,.51-1.529,3.37,3.37,0,0,1,1.441-1.1,5.253,5.253,0,0,1,2.092-.4,4.15,4.15,0,0,1,2.791.883,3.09,3.09,0,0,1,1.033,2.483V-2.2a4.546,4.546,0,0,0,.378,2.048V0Zm-2.1-1.767a2.188,2.188,0,0,0,1.037-.25,1.645,1.645,0,0,0,.7-.672V-4.324h-.949q-1.907,0-2.03,1.318l-.009.149a1.017,1.017,0,0,0,.334.782A1.3,1.3,0,0,0,115.664-1.767Z" transform="translate(449.766 1509)" fill="#12263f"/>
      <path id="Trazado_777329" data-name="Trazado 777329" d="M5.88-4.685h-2.1V0H1.143V-12.8H5.9a5.375,5.375,0,0,1,3.5,1.011,3.488,3.488,0,0,1,1.23,2.856,3.937,3.937,0,0,1-.567,2.184A3.866,3.866,0,0,1,8.341-5.353L11.109-.123V0H8.279ZM3.779-6.82H5.906a2.178,2.178,0,0,0,1.538-.505,1.806,1.806,0,0,0,.545-1.393,1.933,1.933,0,0,0-.514-1.424A2.137,2.137,0,0,0,5.9-10.661H3.779Zm13.061,7a4.668,4.668,0,0,1-3.406-1.283A4.561,4.561,0,0,1,12.12-4.526v-.246a5.745,5.745,0,0,1,.554-2.562,4.064,4.064,0,0,1,1.569-1.74,4.4,4.4,0,0,1,2.316-.611,3.947,3.947,0,0,1,3.072,1.23,5,5,0,0,1,1.121,3.489v1.037H14.7a2.36,2.36,0,0,0,.743,1.494,2.245,2.245,0,0,0,1.569.563A2.742,2.742,0,0,0,19.3-2.936l1.248,1.4A3.813,3.813,0,0,1,19-.277,5.075,5.075,0,0,1,16.84.176Zm-.29-7.813a1.587,1.587,0,0,0-1.226.512,2.651,2.651,0,0,0-.6,1.466h3.533v-.2A1.891,1.891,0,0,0,17.8-7.174,1.638,1.638,0,0,0,16.55-7.638Zm14.2,2.971a5.7,5.7,0,0,1-1,3.52A3.2,3.2,0,0,1,27.062.176a2.963,2.963,0,0,1-2.329-1V3.656h-2.54V-9.51h2.355l.088.932a2.985,2.985,0,0,1,2.408-1.107,3.22,3.22,0,0,1,2.733,1.3A5.858,5.858,0,0,1,30.753-4.8Zm-2.54-.194a3.763,3.763,0,0,0-.47-2.054,1.53,1.53,0,0,0-1.367-.723,1.662,1.662,0,0,0-1.644.917v3.906a1.691,1.691,0,0,0,1.661.943Q28.213-1.872,28.213-4.861ZM37.67-7.128a6.9,6.9,0,0,0-.914-.07,1.86,1.86,0,0,0-1.89.976V0h-2.54V-9.51h2.4l.07,1.134a2.354,2.354,0,0,1,2.118-1.31,2.662,2.662,0,0,1,.791.114ZM43.1.176A4.668,4.668,0,0,1,39.7-1.107a4.561,4.561,0,0,1-1.314-3.419v-.246a5.745,5.745,0,0,1,.554-2.562A4.064,4.064,0,0,1,40.5-9.075a4.4,4.4,0,0,1,2.316-.611,3.947,3.947,0,0,1,3.072,1.23,5,5,0,0,1,1.121,3.489v1.037H40.957A2.36,2.36,0,0,0,41.7-2.435a2.245,2.245,0,0,0,1.569.563,2.742,2.742,0,0,0,2.294-1.063l1.248,1.4A3.813,3.813,0,0,1,45.264-.277,5.075,5.075,0,0,1,43.1.176Zm-.29-7.813a1.587,1.587,0,0,0-1.226.512,2.651,2.651,0,0,0-.6,1.466h3.533v-.2a1.891,1.891,0,0,0-.457-1.311A1.638,1.638,0,0,0,42.812-7.638ZM53.6-2.628a.818.818,0,0,0-.461-.734,5.241,5.241,0,0,0-1.481-.479Q48.27-4.553,48.27-6.724a2.613,2.613,0,0,1,1.05-2.114,4.237,4.237,0,0,1,2.747-.848,4.56,4.56,0,0,1,2.9.853,2.687,2.687,0,0,1,1.085,2.215h-2.54a1.229,1.229,0,0,0-.352-.9,1.488,1.488,0,0,0-1.1-.356,1.52,1.52,0,0,0-.993.29.916.916,0,0,0-.352.738.783.783,0,0,0,.4.681,4.114,4.114,0,0,0,1.349.448,11.019,11.019,0,0,1,1.6.426,2.628,2.628,0,0,1,2.013,2.558,2.481,2.481,0,0,1-1.116,2.1,4.815,4.815,0,0,1-2.883.8A5.029,5.029,0,0,1,49.953-.25,3.561,3.561,0,0,1,48.5-1.419a2.716,2.716,0,0,1-.527-1.6h2.408a1.326,1.326,0,0,0,.5,1.037,1.987,1.987,0,0,0,1.248.36,1.839,1.839,0,0,0,1.1-.277A.861.861,0,0,0,53.6-2.628Zm8.481,2.8A4.668,4.668,0,0,1,58.68-1.107a4.561,4.561,0,0,1-1.314-3.419v-.246a5.745,5.745,0,0,1,.554-2.562,4.064,4.064,0,0,1,1.569-1.74A4.4,4.4,0,0,1,61.8-9.686a3.947,3.947,0,0,1,3.072,1.23A5,5,0,0,1,66-4.966v1.037H59.941a2.36,2.36,0,0,0,.743,1.494,2.245,2.245,0,0,0,1.569.563,2.742,2.742,0,0,0,2.294-1.063l1.248,1.4A3.813,3.813,0,0,1,64.248-.277,5.075,5.075,0,0,1,62.086.176ZM61.8-7.638a1.587,1.587,0,0,0-1.226.512,2.651,2.651,0,0,0-.6,1.466H63.5v-.2a1.891,1.891,0,0,0-.457-1.311A1.638,1.638,0,0,0,61.8-7.638Zm7.98-1.872.079,1.1a3.32,3.32,0,0,1,2.733-1.274,2.759,2.759,0,0,1,2.25.888,4.142,4.142,0,0,1,.756,2.654V0h-2.54V-6.1A1.654,1.654,0,0,0,72.7-7.272a1.572,1.572,0,0,0-1.169-.366,1.747,1.747,0,0,0-1.608.916V0h-2.54V-9.51Zm10.784-2.338V-9.51h1.626v1.863H80.561V-2.9a1.133,1.133,0,0,0,.2.756,1.015,1.015,0,0,0,.773.229,4.051,4.051,0,0,0,.747-.062V-.053a5.229,5.229,0,0,1-1.538.229,2.425,2.425,0,0,1-2.725-2.7V-7.646H76.632V-9.51h1.389v-2.338ZM89.112,0a2.821,2.821,0,0,1-.255-.853,3.073,3.073,0,0,1-2.4,1.028,3.376,3.376,0,0,1-2.316-.809,2.6,2.6,0,0,1-.918-2.039,2.687,2.687,0,0,1,1.121-2.32,5.529,5.529,0,0,1,3.239-.817h1.169v-.545a1.567,1.567,0,0,0-.338-1.055,1.331,1.331,0,0,0-1.068-.4,1.513,1.513,0,0,0-1.006.308,1.045,1.045,0,0,0-.365.844h-2.54a2.551,2.551,0,0,1,.51-1.529,3.37,3.37,0,0,1,1.441-1.1,5.253,5.253,0,0,1,2.092-.4,4.15,4.15,0,0,1,2.791.883A3.09,3.09,0,0,1,91.3-6.319V-2.2a4.546,4.546,0,0,0,.378,2.048V0Zm-2.1-1.767a2.188,2.188,0,0,0,1.037-.25,1.645,1.645,0,0,0,.7-.672V-4.324H87.8q-1.907,0-2.03,1.318l-.009.149a1.017,1.017,0,0,0,.334.782A1.3,1.3,0,0,0,87.012-1.767ZM98.6-7.128a6.9,6.9,0,0,0-.914-.07,1.86,1.86,0,0,0-1.89.976V0h-2.54V-9.51h2.4l.07,1.134a2.354,2.354,0,0,1,2.118-1.31,2.662,2.662,0,0,1,.791.114Z" transform="translate(1041.766 1535)" fill="#12263f"/>
      <path id="Trazado_196965" data-name="Trazado 196965" d="M-2784.328-10406.5h64.4" transform="translate(3735.616 11841.854)" fill="none" stroke="#12263f" stroke-width="2" stroke-dasharray="2"/>
      <path id="Trazado_777355" data-name="Trazado 777355" d="M6.5,0,13,11H0Z" transform="translate(1024.766 1428) rotate(90)" fill="#12263f"/>
      <path id="Trazado_196965-2" data-name="Trazado 196965" d="M-2784.328-10406.5h64.4" transform="translate(3735.616 11737.058)" fill="none" stroke="#12263f" stroke-width="2" stroke-dasharray="2"/>
      <path id="Trazado_777356" data-name="Trazado 777356" d="M6.85,0,13.7,10.959H0Z" transform="translate(1024.343 1323.022) rotate(90)" fill="#12263f"/>
      <path id="Trazado_196965-3" data-name="Trazado 196965" d="M-2784.328-10406.5h64.4" transform="translate(3735.616 11632.26)" fill="none" stroke="#12263f" stroke-width="2" stroke-dasharray="2"/>
      <path id="Trazado_777357" data-name="Trazado 777357" d="M6.5,0,13,11H0Z" transform="translate(1024.766 1217.999) rotate(90)" fill="#12263f"/>
    </g>
  </g>
</svg>
