<svg xmlns="http://www.w3.org/2000/svg" xmlns:xlink="http://www.w3.org/1999/xlink" width="99.16" height="99.16" viewBox="0 0 99.16 99.16">
  <defs>
    <radialGradient id="radial-gradient" cx="0.076" cy="0.019" r="1.465" gradientTransform="translate(0.001)" gradientUnits="objectBoundingBox">
      <stop offset="0" stop-color="#f6f6f7"/>
      <stop offset="0.477" stop-color="#f9f9fa"/>
      <stop offset="0.715" stop-color="#fff"/>
    </radialGradient>
  </defs>
  <g id="Grupo_154284" data-name="Grupo 154284" transform="translate(0.5 0.5)">
    <g id="Grupo_42274" data-name="Grupo 42274" transform="translate(0 0)">
      <g id="Grupo_18423" data-name="Grupo 18423" transform="translate(0 0)">
        <g id="Grupo_18421" data-name="Grupo 18421">
          <g id="Grupo_18420" data-name="Grupo 18420">
            <g id="Grupo_18419" data-name="Grupo 18419">
              <path id="Trazado_40936" data-name="Trazado 40936" d="M292.783,2194.8a49.08,49.08,0,1,1-49.079-49.078A49.079,49.079,0,0,1,292.783,2194.8Z" transform="translate(-194.623 -2145.721)" fill="#fff" stroke="rgba(0,0,0,0)" stroke-width="1"/>
            </g>
          </g>
        </g>
        <path id="Trazado_40937" data-name="Trazado 40937" d="M292.383,2194.366a49.078,49.078,0,1,0-49.079,49.08A48.884,48.884,0,0,0,292.383,2194.366Z" transform="translate(-194.223 -2145.287)" stroke="rgba(0,0,0,0)" stroke-width="1" fill="url(#radial-gradient)"/>
        <path id="Trazado_40938" data-name="Trazado 40938" d="M277.257,2190.874a37.462,37.462,0,1,0-37.462,37.463A37.323,37.323,0,0,0,277.257,2190.874Z" transform="translate(-190.566 -2141.633)" fill="none" stroke="#2b3990" stroke-miterlimit="10" stroke-width="4"/>
        <g id="Grupo_18422" data-name="Grupo 18422" transform="translate(8.695 27.555)">
          <path id="Trazado_40939" data-name="Trazado 40939" d="M285.047,2164.488a49.085,49.085,0,0,1-84.5,48.875,48.929,48.929,0,0,0,84.5-48.875Z" transform="translate(-200.545 -2164.488)" fill="#eceef0" stroke="rgba(0,0,0,0)" stroke-width="1"/>
        </g>
      </g>
    </g>
    <g id="_5tlvLI" data-name="5tlvLI" transform="translate(26.669 22.522)">
      <g id="Grupo_152067" data-name="Grupo 152067" transform="translate(0 0)">
        <path id="Trazado_194684" data-name="Trazado 194684" d="M611.7,183.261c1.567-.514,2.164.561,2.659,1.746a1.153,1.153,0,0,0,1.318.794c.781-.062,1.57-.015,2.423-.015v-5.1c-1.113-.08-2.229-.086-3.32-.253a9.6,9.6,0,0,1-8.277-9.878,9.707,9.707,0,0,1,8.182-8.738c.854-.143,1.727-.165,2.692-.252a8.026,8.026,0,0,1,2.539-7.03,8.756,8.756,0,0,1,5.029-2.334,8.953,8.953,0,0,1,9.768,5.975,6.813,6.813,0,0,1,6.5.8,5.776,5.776,0,0,1,2.333,6.118c.55-.09,1.018-.175,1.489-.241a8.612,8.612,0,0,1,8.881,4.645,7.858,7.858,0,0,1-6.042,10.946,12.994,12.994,0,0,1-1.868.158c-.976.025-1.953.007-3,.007v5.182c1.006,0,2.006.012,3.006-.013a.769.769,0,0,0,.446-.283,2.247,2.247,0,0,0,.284-.494c.57-1.1,1.03-2.363,2.673-1.7a2.754,2.754,0,0,1,2.417-2.088,2.561,2.561,0,0,1,2.728,1.979,2.592,2.592,0,0,1-4.793,1.842c-.191-.345-.26-.718-.838-.709s-.72.374-.934.745c-1.3,2.252-.546,1.788-3.166,1.84-.593.012-1.186,0-1.836,0v2.39h1.831c1.335,0,2.67-.012,4,.007a.792.792,0,0,0,.872-.515,2.53,2.53,0,0,1,2.977-1.431,2.6,2.6,0,0,1-.016,5.028,2.613,2.613,0,0,1-2.995-1.43c-.11-.206-.334-.5-.51-.5-2.036-.035-4.072-.022-6.163-.022v2.41c1.07,0,2.1.033,3.125-.012a1.163,1.163,0,0,1,1.286.753,5.352,5.352,0,0,0,.721,1.276,1.421,1.421,0,0,0,.878.5c.213.018.539-.273.671-.507a2.659,2.659,0,0,1,2.936-1.419,2.6,2.6,0,0,1,.037,5.053,2.515,2.515,0,0,1-2.957-1.461.731.731,0,0,0-.879-.5,1.314,1.314,0,0,1-1.626-.983,2.1,2.1,0,0,0-2.647-1.579,9.382,9.382,0,0,1-1.553.013c-.017.313-.041.573-.043.833-.005,1.117.018,2.234-.012,3.35a1.993,1.993,0,0,1-2.044,2.1q-10.337.024-20.674,0a2,2,0,0,1-2.041-2.182c-.018-1.328,0-2.656,0-4.09-1.086,0-2.085-.016-3.081.016a.77.77,0,0,0-.484.345,6.031,6.031,0,0,0-.594,1.069,1.548,1.548,0,0,1-1.8,1.14,1.02,1.02,0,0,0-.753.5,2.626,2.626,0,0,1-2.994,1.433,2.532,2.532,0,0,1-1.967-2.492,2.575,2.575,0,0,1,2.008-2.551,2.659,2.659,0,0,1,2.934,1.421c.133.233.463.519.676.5.312-.029.79-.253.867-.5.573-1.82,1.837-2.289,3.576-2.026a10.84,10.84,0,0,0,1.571.012v-2.414h-1.932c-1.308,0-2.615.012-3.922-.007a.787.787,0,0,0-.86.529,2.508,2.508,0,0,1-2.972,1.436,2.6,2.6,0,0,1,0-5.03,2.632,2.632,0,0,1,3,1.428c.111.2.345.484.526.487,2.035.035,4.071.022,6.157.022v-2.385c-1,0-2-.042-2.992.014a1.311,1.311,0,0,1-1.477-.858,5.123,5.123,0,0,0-.72-1.276,1.281,1.281,0,0,0-.844-.405.888.888,0,0,0-.626.442,2.653,2.653,0,0,1-3.055,1.464,2.593,2.593,0,1,1,3.069-3.488C611.534,182.927,611.6,183.047,611.7,183.261Zm9.536-5.855c0-.485-.007-.887,0-1.288a63.861,63.861,0,0,1,.2-7.009,9.239,9.239,0,0,1,18.258.021,63.626,63.626,0,0,1,.17,7.011c.007.4,0,.8,0,1.27,1.628-.117,2.84.281,3.124,2.127a38.266,38.266,0,0,0,4.74-.254,6.614,6.614,0,0,0,4.61-10.237,7.686,7.686,0,0,0-9.184-2.563,3.84,3.84,0,0,1-1.123.083,4.012,4.012,0,0,1,.129-1.044,4.5,4.5,0,0,0-.213-4.087,5.453,5.453,0,0,0-6.924-2.112c-1.032.449-1.1.416-1.393-.651a7.765,7.765,0,0,0-9.3-5.224,7.142,7.142,0,0,0-5.708,8.445c.184.8-.02.944-.819.942a16.666,16.666,0,0,0-3.165.151,8.336,8.336,0,0,0-6.841,9.858c.987,4.343,5.608,7.281,10.332,6.536C618.42,177.679,619.637,177.288,621.241,177.407Zm9.35,21.733q4.9,0,9.8,0c1.157,0,1.423-.25,1.424-1.368q.006-8.941,0-17.883c0-1.055-.3-1.35-1.368-1.351q-9.839-.006-19.679,0c-1.2,0-1.462.263-1.463,1.421q0,8.9,0,17.8c0,1.122.267,1.381,1.407,1.382Q625.65,199.143,630.59,199.139Zm8.151-21.786c0-2.224.005-4.4,0-6.567a8.2,8.2,0,0,0-7.327-8.314,7.967,7.967,0,0,0-8.851,6.892,65.706,65.706,0,0,0-.163,7.826c0,.045.051.091.092.159h3.13c0-.35,0-.643,0-.936,0-1.906-.011-3.813.007-5.719a4.925,4.925,0,1,1,9.849-.053c.04,1.933.01,3.867.011,5.8,0,.292,0,.583,0,.913Zm-4.411.009c0-2.446.084-4.79-.026-7.124a3.7,3.7,0,0,0-3.88-3.426,3.772,3.772,0,0,0-3.661,3.675c-.038,1.225-.011,2.451-.012,3.677,0,1.053,0,2.107,0,3.2Zm-23.8,18.632a1.457,1.457,0,1,0-1.463,1.438A1.479,1.479,0,0,0,610.535,195.994Zm41.482,1.436a1.46,1.46,0,1,0-1.434-1.461A1.466,1.466,0,0,0,652.017,197.43Zm-42.968-9.008a1.452,1.452,0,0,0-1.432,1.46,1.458,1.458,0,1,0,2.915-.051A1.454,1.454,0,0,0,609.049,188.422Zm44.44,1.512a1.44,1.44,0,0,0-1.373-1.51,1.46,1.46,0,0,0-1.536,1.438,1.455,1.455,0,0,0,2.909.072Zm-44.44-7.615a1.464,1.464,0,0,0-1.427,1.468,1.454,1.454,0,1,0,2.907-.048A1.472,1.472,0,0,0,609.049,182.318Zm44.441,1.459a1.464,1.464,0,0,0-1.435-1.459,1.489,1.489,0,0,0-1.478,1.428,1.462,1.462,0,0,0,1.487,1.488A1.436,1.436,0,0,0,653.49,183.777Z" transform="translate(-606.492 -152.123)" fill="#2b3990"/>
        <path id="Trazado_194685" data-name="Trazado 194685" d="M619.8,265.627l.524-.577c.2.232.571.458.58.7A6.538,6.538,0,0,0,627,271.713a2.276,2.276,0,0,1,.723.077,2.785,2.785,0,0,1,.6.526c-.217.19-.435.542-.652.541a9.32,9.32,0,0,1-2.014-.236A7.542,7.542,0,0,1,619.8,265.627Z" transform="translate(-617.628 -246.592)" fill="#2b3990"/>
        <path id="Trazado_194686" data-name="Trazado 194686" d="M846.685,243.007a6.168,6.168,0,0,1,6.083,4.88,2.012,2.012,0,0,1,.03.883.81.81,0,0,1-.545.464c-.146.024-.351-.252-.511-.413-.044-.045-.019-.157-.03-.237a4.852,4.852,0,0,0-4.477-4.409c-.108-.014-.215-.028-.323-.04-.4-.041-.953-.013-.861-.576C846.095,243.287,846.586,243.087,846.685,243.007Z" transform="translate(-806.885 -228.152)" fill="#2b3990"/>
        <path id="Trazado_194687" data-name="Trazado 194687" d="M724.126,165.479a6.63,6.63,0,0,1,6.3,4.392c.056.181.172.392.123.545a3.928,3.928,0,0,1-.427.752c-.217-.162-.573-.286-.63-.493-.746-2.678-2.63-3.835-5.261-4.087-.255-.025-.479-.37-.717-.566Z" transform="translate(-704.387 -163.296)" fill="#2b3990"/>
        <path id="Trazado_194688" data-name="Trazado 194688" d="M716.711,383.1c-1.958,0-3.917-.017-5.874.01-.629.009-1-.21-1.064-.839a22.62,22.62,0,0,1-.309-3.462,3.552,3.552,0,0,1,2.741-3.387,16.03,16.03,0,0,1,9.011.012,3.563,3.563,0,0,1,2.709,3.416,22.352,22.352,0,0,1-.327,3.462c-.066.6-.421.8-1.013.8C720.627,383.082,718.669,383.1,716.711,383.1Zm-.042-1.129c1.742,0,3.484.013,5.226-.015.241,0,.65-.17.693-.335.75-2.886.207-5.041-2.91-5.4a25.79,25.79,0,0,0-5.367-.093c-3.272.308-4.326,1.923-3.642,5.149.107.506.3.726.857.714C713.239,381.946,714.954,381.97,716.668,381.967Z" transform="translate(-692.625 -338.385)" fill="#2b3990"/>
        <path id="Trazado_194689" data-name="Trazado 194689" d="M740.3,331.1a3.259,3.259,0,1,1-3.2-3.26A3.251,3.251,0,0,1,740.3,331.1Zm-3.286,2.119a2.132,2.132,0,0,0,2.154-2.1,2.127,2.127,0,1,0-4.253-.048A2.117,2.117,0,0,0,737.014,333.217Z" transform="translate(-712.975 -299.116)" fill="#2b3990"/>
      </g>
    </g>
  </g>
</svg>
