<svg xmlns="http://www.w3.org/2000/svg" xmlns:xlink="http://www.w3.org/1999/xlink" width="98.16" height="98.16" viewBox="0 0 98.16 98.16">
  <defs>
    <radialGradient id="radial-gradient" cx="0.076" cy="0.019" r="1.465" gradientTransform="translate(0.001)" gradientUnits="objectBoundingBox">
      <stop offset="0" stop-color="#f6f6f7"/>
      <stop offset="0.477" stop-color="#f9f9fa"/>
      <stop offset="0.715" stop-color="#fff"/>
    </radialGradient>
  </defs>
  <g id="Grupo_154283" data-name="Grupo 154283" transform="translate(0)">
    <g id="Grupo_42274" data-name="Grupo 42274" transform="translate(0 0)">
      <g id="Grupo_18423" data-name="Grupo 18423" transform="translate(0 0)">
        <g id="Grupo_18421" data-name="Grupo 18421">
          <g id="Grupo_18420" data-name="Grupo 18420">
            <g id="Grupo_18419" data-name="Grupo 18419">
              <path id="Trazado_40936" data-name="Trazado 40936" d="M292.783,2194.8a49.08,49.08,0,1,1-49.079-49.078A49.079,49.079,0,0,1,292.783,2194.8Z" transform="translate(-194.623 -2145.721)" fill="#fff"/>
            </g>
          </g>
        </g>
        <path id="Trazado_40937" data-name="Trazado 40937" d="M292.383,2194.366a49.078,49.078,0,1,0-49.079,49.08A48.884,48.884,0,0,0,292.383,2194.366Z" transform="translate(-194.223 -2145.287)" fill="url(#radial-gradient)"/>
        <path id="Trazado_40938" data-name="Trazado 40938" d="M277.257,2190.874a37.462,37.462,0,1,0-37.462,37.463A37.323,37.323,0,0,0,277.257,2190.874Z" transform="translate(-190.566 -2141.633)" fill="none" stroke="#2b3990" stroke-miterlimit="10" stroke-width="4"/>
        <g id="Grupo_18422" data-name="Grupo 18422" transform="translate(8.695 27.555)">
          <path id="Trazado_40939" data-name="Trazado 40939" d="M285.047,2164.488a49.085,49.085,0,0,1-84.5,48.875,48.929,48.929,0,0,0,84.5-48.875Z" transform="translate(-200.545 -2164.488)" fill="#eceef0"/>
        </g>
      </g>
    </g>
    <g id="o8E3X5.tif" transform="translate(26.512 23.396)">
      <g id="Grupo_152069" data-name="Grupo 152069" transform="translate(0 0)">
        <path id="Trazado_194695" data-name="Trazado 194695" d="M1188.706-335.647h1.6a1.868,1.868,0,0,0,.283.084,7.847,7.847,0,0,1,4.9,2.616,8.281,8.281,0,0,1,1.667,2.95,1.228,1.228,0,0,0,.185.012,6.311,6.311,0,0,1,6.707,3.594.488.488,0,0,0,.526.322c.98-.014,1.96-.006,2.94-.006a2.434,2.434,0,0,1,2.739,2.723q0,10.714.006,21.427a2.881,2.881,0,0,0,.139.874q.918,2.814,1.866,5.617c.381,1.125.786,2.243,1.18,3.364v2.393a2.782,2.782,0,0,1-3.044,1.912q-20.982-.044-41.963-.018c-.2,0-.4.006-.6-.005a2.2,2.2,0,0,1-2.1-1.623,6.607,6.607,0,0,1,0-2.842c.865-2.942,1.905-5.831,2.865-8.745a3.17,3.17,0,0,0,.161-.969q.013-10.765.008-21.53a2.4,2.4,0,0,1,2.585-2.577c1,0,1.994-.014,2.99.007a.627.627,0,0,0,.674-.408,6.109,6.109,0,0,1,4.78-3.492,14.254,14.254,0,0,1,2.061-.016c.051-.134.086-.226.12-.318a7.82,7.82,0,0,1,4.861-4.868A18.8,18.8,0,0,1,1188.706-335.647Zm16.717,30.29v-15.931c-.316,0-.6,0-.878,0-.115,0-.23.011-.337.017a6.544,6.544,0,0,1-6.71,3.972c-.259-.011-.52,0-.815,0v3.241a.719.719,0,0,0,.006.247,1.122,1.122,0,0,0,.207.372c.556.572,1.133,1.124,1.683,1.7a.506.506,0,0,0,.606.14,2.368,2.368,0,0,1,2.751,1.067,2.382,2.382,0,0,1-.373,2.893,2.384,2.384,0,0,1-2.892.381A2.355,2.355,0,0,1,1197.6-310a.543.543,0,0,0-.172-.642c-.678-.661-1.334-1.345-2.017-2a.967.967,0,0,1-.33-.779c.019-1.275.008-2.55.008-3.843H1190.3c0,1.755.006,3.481-.006,5.206a.644.644,0,0,0,.391.689,2.327,2.327,0,0,1,1.16,2.536,2.407,2.407,0,0,1-2.055,1.9,2.41,2.41,0,0,1-2.472-1.4,2.143,2.143,0,0,1,.63-2.731c.823-.483.768-1.1.759-1.813-.013-1.13,0-2.26,0-3.39V-317.3h-4.786c0,.592,0,1.121,0,1.65a7.593,7.593,0,0,1-.1,2.661c-.309.753-1.161,1.29-1.8,1.9-.438.418-.9.8-.518,1.494a.565.565,0,0,1,.017.247,2.411,2.411,0,0,1-1.614,2.288,2.386,2.386,0,0,1-2.677-.815,2.374,2.374,0,0,1-.1-2.753,2.311,2.311,0,0,1,2.606-.981.648.648,0,0,0,.77-.211c.515-.542,1.057-1.057,1.58-1.592a.656.656,0,0,0,.221-.363c.017-1.158.01-2.317.01-3.522-.474,0-.9,0-1.33,0a6.363,6.363,0,0,1-6.056-3.708c-.057-.113-.186-.256-.293-.266-.355-.034-.714-.013-1.07-.013v15.93ZM1189.465-318.9h8.825c.05,0,.1,0,.15,0a4.624,4.624,0,0,0,4.189-2.824,4.5,4.5,0,0,0-.706-5.035,4.58,4.58,0,0,0-4.8-1.56c-.936.212-1.2.072-1.42-.842a6.339,6.339,0,0,0-6.184-4.9,6.341,6.341,0,0,0-6.217,4.92c-.212.88-.5,1.052-1.388.825a4.791,4.791,0,0,0-5.969,4.588,4.775,4.775,0,0,0,4.747,4.825C1183.615-318.876,1186.541-318.9,1189.465-318.9Zm22.034,26.31c-.028-.121-.039-.2-.065-.279-.819-2.454-1.649-4.905-2.449-7.366-.112-.344-.316-.317-.566-.317q-18.916,0-37.833-.007a.519.519,0,0,0-.6.419c-.784,2.4-1.588,4.785-2.383,7.177a3.128,3.128,0,0,0-.076.373h15.765c.206-.807.406-1.608.614-2.407.154-.589.378-.766.984-.767q4.611,0,9.221,0a.84.84,0,0,1,.985.766c.208.8.408,1.6.614,2.408Zm-2.849-9.577v-8.008q0-6.629,0-13.259c0-.784-.264-1.047-1.043-1.049q-1.271,0-2.542,0c-.14,0-.279.021-.4.031v1.517a.531.531,0,0,0,.12.038c.432,0,.864,0,1.3.009.684.008.971.287.972.971q0,8.6,0,17.2c0,.686-.286.976-.966.976q-16.574,0-33.147,0c-.69,0-.984-.284-.984-.958q0-8.623,0-17.246c0-.649.3-.931.951-.939.477-.006.955,0,1.43,0v-1.6c-.976,0-1.921,0-2.865,0-.877,0-1.113.24-1.113,1.13q0,10.343,0,20.686c0,.161.014.322.022.5Zm3.189,11.22H1167.2c-.13,1.339.071,1.564,1.365,1.564h41.964c.15,0,.3.005.448,0a.8.8,0,0,0,.857-.834C1211.849-290.444,1211.839-290.675,1211.839-290.942Zm-26.5-3.205-.386,1.559h9.1l-.387-1.559Zm-5.412-15.152a.8.8,0,0,0-.761-.816.8.8,0,0,0-.828.8.8.8,0,0,0,.785.791A.8.8,0,0,0,1179.927-309.3Zm10.37-.027a.8.8,0,0,0-.788-.789.8.8,0,0,0-.8.824.8.8,0,0,0,.812.764A.8.8,0,0,0,1190.3-309.327Zm10.371.027a.8.8,0,0,0-.76-.816.8.8,0,0,0-.828.8.8.8,0,0,0,.784.791A.8.8,0,0,0,1200.668-309.3Z" transform="translate(-1165.573 335.647)" fill="#2b3990"/>
        <path id="Trazado_194696" data-name="Trazado 194696" d="M1290.383,65.36h-4.726V63.814h4.726Z" transform="translate(-1273.657 -23.898)" fill="#2b3990"/>
        <path id="Trazado_194697" data-name="Trazado 194697" d="M1477.1,65.362V63.839h4.739v1.523Z" transform="translate(-1445.975 -23.92)" fill="#2b3990"/>
        <path id="Trazado_194698" data-name="Trazado 194698" d="M1221.721,31.822h1.531v1.54h-1.531Z" transform="translate(-1216.11 4.898)" fill="#2b3990"/>
        <path id="Trazado_194699" data-name="Trazado 194699" d="M1255.307,33.5h-1.523V31.952h1.523Z" transform="translate(-1244.969 4.781)" fill="#2b3990"/>
        <path id="Trazado_194700" data-name="Trazado 194700" d="M1285.511,33.4v-1.53h1.551V33.4Z" transform="translate(-1273.526 4.854)" fill="#2b3990"/>
        <path id="Trazado_194701" data-name="Trazado 194701" d="M1317.521,31.822h1.531v1.54h-1.531Z" transform="translate(-1302.338 4.898)" fill="#2b3990"/>
        <path id="Trazado_194702" data-name="Trazado 194702" d="M1349.4,33.475V31.942h1.542v1.533Z" transform="translate(-1331.03 4.79)" fill="#2b3990"/>
        <path id="Trazado_194703" data-name="Trazado 194703" d="M1381.494,31.776h1.527v1.551h-1.527Z" transform="translate(-1359.918 4.939)" fill="#2b3990"/>
        <path id="Trazado_194704" data-name="Trazado 194704" d="M1445.215,33.371V31.834h1.534v1.537Z" transform="translate(-1417.271 4.887)" fill="#2b3990"/>
        <path id="Trazado_194705" data-name="Trazado 194705" d="M1477.307,31.765h1.525v1.551h-1.525Z" transform="translate(-1446.157 4.949)" fill="#2b3990"/>
        <path id="Trazado_194706" data-name="Trazado 194706" d="M1510.636,33.511H1509.1V31.977h1.535Z" transform="translate(-1474.774 4.758)" fill="#2b3990"/>
        <path id="Trazado_194707" data-name="Trazado 194707" d="M1540.866,33.508V31.983h1.551v1.525Z" transform="translate(-1503.364 4.753)" fill="#2b3990"/>
        <path id="Trazado_194708" data-name="Trazado 194708" d="M1572.816,33.482V31.966h1.552v1.516Z" transform="translate(-1532.122 4.768)" fill="#2b3990"/>
        <path id="Trazado_194709" data-name="Trazado 194709" d="M1221.75,63.611h1.525v1.551h-1.525Z" transform="translate(-1216.136 -23.715)" fill="#2b3990"/>
        <path id="Trazado_194710" data-name="Trazado 194710" d="M1255.272,65.383h-1.531v-1.54h1.531Z" transform="translate(-1244.931 -23.924)" fill="#2b3990"/>
        <path id="Trazado_194711" data-name="Trazado 194711" d="M1542.664,65.374h-1.533V63.832h1.533Z" transform="translate(-1503.603 -23.914)" fill="#2b3990"/>
        <path id="Trazado_194712" data-name="Trazado 194712" d="M1574.609,65.384h-1.531V63.845h1.531Z" transform="translate(-1532.357 -23.925)" fill="#2b3990"/>
        <path id="Trazado_194713" data-name="Trazado 194713" d="M1414.942,33.451h-1.531v-1.54h1.531Z" transform="translate(-1388.645 4.818)" fill="#2b3990"/>
      </g>
    </g>
  </g>
</svg>
