<svg xmlns="http://www.w3.org/2000/svg" xmlns:xlink="http://www.w3.org/1999/xlink" width="98.16" height="98.16" viewBox="0 0 98.16 98.16">
  <defs>
    <radialGradient id="radial-gradient" cx="0.076" cy="0.019" r="1.465" gradientTransform="translate(0.001)" gradientUnits="objectBoundingBox">
      <stop offset="0" stop-color="#f6f6f7"/>
      <stop offset="0.477" stop-color="#f9f9fa"/>
      <stop offset="0.715" stop-color="#fff"/>
    </radialGradient>
  </defs>
  <g id="Grupo_152064" data-name="Grupo 152064" transform="translate(0)">
    <g id="Grupo_42274" data-name="Grupo 42274" transform="translate(0 0)">
      <g id="Grupo_18423" data-name="Grupo 18423" transform="translate(0 0)">
        <g id="Grupo_18421" data-name="Grupo 18421">
          <g id="Grupo_18420" data-name="Grupo 18420">
            <g id="Grupo_18419" data-name="Grupo 18419">
              <path id="Trazado_40936" data-name="Trazado 40936" d="M292.783,2194.8a49.08,49.08,0,1,1-49.079-49.078A49.079,49.079,0,0,1,292.783,2194.8Z" transform="translate(-194.623 -2145.721)" fill="#fff"/>
            </g>
          </g>
        </g>
        <path id="Trazado_40937" data-name="Trazado 40937" d="M292.383,2194.366a49.078,49.078,0,1,0-49.079,49.08A48.884,48.884,0,0,0,292.383,2194.366Z" transform="translate(-194.223 -2145.287)" fill="url(#radial-gradient)"/>
        <path id="Trazado_40938" data-name="Trazado 40938" d="M277.257,2190.874a37.462,37.462,0,1,0-37.462,37.463A37.323,37.323,0,0,0,277.257,2190.874Z" transform="translate(-190.566 -2141.633)" fill="none" stroke="#2b3990" stroke-miterlimit="10" stroke-width="4"/>
        <g id="Grupo_18422" data-name="Grupo 18422" transform="translate(8.695 27.555)">
          <path id="Trazado_40939" data-name="Trazado 40939" d="M285.047,2164.488a49.085,49.085,0,0,1-84.5,48.875,48.929,48.929,0,0,0,84.5-48.875Z" transform="translate(-200.545 -2164.488)" fill="#eceef0"/>
        </g>
      </g>
    </g>
    <g id="Grupo_152068" data-name="Grupo 152068" transform="translate(24.419 29.142)">
      <path id="Trazado_194690" data-name="Trazado 194690" d="M1014.456,126.319l-3.49-1.329v6.885l4.507-.489c-1.251,1.34-3.019.891-4.482,1.446-.028.044-.075.085-.081.131-.661,5.156-.66,5.155,4.387,5.147,1.025,0,2.05,0,3.459,0a5.558,5.558,0,0,1,.151,1.47,28.86,28.86,0,0,1-.651,4.589c-.3,1.168-.217,1.859,1.04,2.181a10.07,10.07,0,0,1,1.437.639l2.343-3.992c1.376.4,1.381,1.156.779,2.312a15.064,15.064,0,0,1-28.416-5.391,14.845,14.845,0,0,1,9.214-15.233,21.083,21.083,0,0,1,6.968-1.1C1014.268,123.52,1014.273,123.735,1014.456,126.319Zm-3.63,17.844c1.972.374,3.687.746,5.419.989.35.049,1.048-.329,1.109-.612.382-1.783.629-3.6.957-5.622-2.481,0-4.589-.033-6.693.04-.274.009-.738.548-.756.861C1010.781,141.255,1010.827,142.7,1010.827,144.163Zm-8.284-5.173,1.018,6.283,6.327-1.034V138.99Zm7.473-6.135c-1.953-.365-3.669-.73-5.4-.97a1.3,1.3,0,0,0-1.1.6,34.312,34.312,0,0,0-.738,4.577,1.358,1.358,0,0,0,.883,1,53.168,53.168,0,0,0,5.426-.009,1.278,1.278,0,0,0,.887-.871C1010.07,135.755,1010.015,134.311,1010.015,132.855Zm-9.752-2.77a11.746,11.746,0,0,0-2.964,7.923h4.5c.185-1.466.3-2.846.544-4.2C1002.808,131.245,1002.841,131.251,1000.264,130.085Zm-3.025,8.944a12.3,12.3,0,0,0,2.611,7.409,1.348,1.348,0,0,0,1.278.08c.632-.376,1.642-1.014,1.6-1.466a60.913,60.913,0,0,0-1.055-6.022Zm19.569,7-5.852-.971v6.573C1013.463,151.793,1015.518,149.866,1016.808,146.028Zm-12.639-.022c.877,3.651,3.372,5.947,5.717,5.515v-6.48ZM1009.905,132v-6.624c-2.618-.093-5,2.24-5.7,5.642Zm10,16.013-.156-.543-2.041-.92-2.241,3.931.251.313Zm-19.3-.232,4.613,3.019.22-.3-2.3-4.02Zm4.818-21.2-.261-.364-4.528,3.08,2.494,1.194Z" transform="translate(-995.364 -112.028)" fill="#2b3990"/>
      <path id="Trazado_194691" data-name="Trazado 194691" d="M1089.8,105.024c-.683,8.621-4.087,15.474-12.093,19.432a2.763,2.763,0,0,1-2.112.062c-6.933-3.256-10.573-8.966-11.856-16.333-.256-1.469-.239-2.985-.38-4.476a1.241,1.241,0,0,1,1.072-1.549,26.556,26.556,0,0,0,10.231-5.324c1.962-1.517,1.972-1.525,3.891.015a24.863,24.863,0,0,0,10.092,5.3C1090.538,102.571,1089.459,104.069,1089.8,105.024Zm-1.4-1.36a30.088,30.088,0,0,1-4.283-1.587,64.485,64.485,0,0,1-6.53-4.131c-.866-.625-1.3-.615-2.072.041a25.839,25.839,0,0,1-9.424,5.226,1.527,1.527,0,0,0-1.276,1.887c.538,7,3.2,12.849,9.113,16.93,1.405.969,2.711,1.6,4.579.423C1085.411,118.1,1088.012,111.625,1088.4,103.664Z" transform="translate(-1042.21 -92.817)" fill="#2b3990"/>
      <path id="Trazado_194692" data-name="Trazado 194692" d="M1096.865,157.548c3.26,2.249,6.733,1.919,8.656-.732,2.187-3.017,1.363-6.178-2.434-9.02l.664-2.132a8.2,8.2,0,0,1-4.356,15.76,3.163,3.163,0,0,0-3.258.813,9.551,9.551,0,0,1-8.728,2.085,2.846,2.846,0,0,0-2.556.526,25.134,25.134,0,0,1-3.092,1.6l3.834-5.306C1090.222,163.1,1094.059,162.1,1096.865,157.548Z" transform="translate(-1054.899 -127.249)" fill="#2b3990"/>
      <path id="Trazado_194693" data-name="Trazado 194693" d="M995.825,104.364c1.068-6.037,7.146-10.917,13.8-10.969a2.505,2.505,0,0,0,2.359-1.3,12.553,12.553,0,0,1,15.814-4.442,3.219,3.219,0,0,1-3.467,1.5,9.943,9.943,0,0,0-11.021,5.668,1.535,1.535,0,0,1-1.62,1.066c-6.812-.268-11.972,2.614-15.623,8.314C996.017,104.276,995.907,104.312,995.825,104.364Z" transform="translate(-995.682 -86.433)" fill="#2b3990"/>
      <path id="Trazado_194694" data-name="Trazado 194694" d="M1084.954,111.215v20.113a16.43,16.43,0,0,1-7.956-9.8c-.5-1.561-1.181-3.259-1-4.8.216-1.8,2.565-1.38,3.764-2.333a23.284,23.284,0,0,1,2.556-1.446C1083.158,112.44,1083.958,111.873,1084.954,111.215Z" transform="translate(-1050.91 -103.511)" fill="#2b3990"/>
    </g>
  </g>
</svg>
