<svg xmlns="http://www.w3.org/2000/svg" xmlns:xlink="http://www.w3.org/1999/xlink" width="323.903" height="222.214" viewBox="0 0 323.903 222.214">
  <defs>
    <linearGradient id="linear-gradient" x1="0.5" x2="0.5" y2="1" gradientUnits="objectBoundingBox">
      <stop offset="0" stop-color="#fff"/>
      <stop offset="1" stop-color="#d2e6ee"/>
    </linearGradient>
    <linearGradient id="linear-gradient-4" x1="0.5" x2="0.5" y2="1" gradientUnits="objectBoundingBox">
      <stop offset="0" stop-color="#4dd0e1"/>
      <stop offset="1" stop-color="#039be5"/>
    </linearGradient>
    <linearGradient id="linear-gradient-5" x1="0.5" x2="0.5" y2="1" gradientUnits="objectBoundingBox">
      <stop offset="0" stop-color="#039be5"/>
      <stop offset="1" stop-color="#027fbc"/>
    </linearGradient>
  </defs>
  <g id="Grupo_1071838" data-name="Grupo 1071838" transform="translate(3731.348 1711.286)">
    <ellipse id="Elipse_5962" data-name="Elipse 5962" cx="106.592" cy="108.667" rx="106.592" ry="108.667" transform="translate(-3623.689 -1711.286)" fill="#fff"/>
    <ellipse id="Elipse_5963" data-name="Elipse 5963" cx="97.04" cy="97.04" rx="97.04" ry="97.04" transform="translate(-3720.204 -1683.151)" fill="#fff"/>
    <g id="Grupo_154592" data-name="Grupo 154592" transform="translate(-3731.348 -1698.633)">
      <path id="Trazado_196774" data-name="Trazado 196774" d="M603.482,1077.1H790.43a.051.051,0,0,1,.05.05v114.438a.051.051,0,0,1-.05.05H603.482a.05.05,0,0,1-.05-.05V1077.148a.05.05,0,0,1,.05-.05" transform="translate(-603.432 -1060.036)" fill-rule="evenodd" fill="url(#linear-gradient)"/>
      <path id="Trazado_196775" data-name="Trazado 196775" d="M1093.468,1751.309h54.494a1.118,1.118,0,0,0,1.115-1.115h0a1.118,1.118,0,0,0-1.115-1.115h-54.494a1.118,1.118,0,0,0-1.115,1.115h0a1.118,1.118,0,0,0,1.115,1.115" transform="translate(-1016.639 -1627.955)" fill="#2ec49f" fill-rule="evenodd"/>
      <path id="Trazado_196776" data-name="Trazado 196776" d="M1484.32,1751.309H1497.7a1.118,1.118,0,0,0,1.115-1.115h0a1.118,1.118,0,0,0-1.115-1.115H1484.32a1.118,1.118,0,0,0-1.115,1.115h0a1.118,1.118,0,0,0,1.115,1.115" transform="translate(-1346.965 -1627.955)" fill="#12263f" fill-rule="evenodd"/>
      <path id="Trazado_196777" data-name="Trazado 196777" d="M1055.357,1719.973h13.378a1.118,1.118,0,0,0,1.115-1.115h0a1.118,1.118,0,0,0-1.115-1.115h-13.378a1.118,1.118,0,0,0-1.115,1.115h0a1.118,1.118,0,0,0,1.115,1.115" transform="translate(-984.43 -1601.472)" fill="#fff" fill-rule="evenodd"/>
      <path id="Trazado_196778" data-name="Trazado 196778" d="M1093.468,1688.636h20.066a1.118,1.118,0,0,0,1.115-1.115h0a1.118,1.118,0,0,0-1.115-1.115h-20.066a1.118,1.118,0,0,0-1.115,1.115h0a1.118,1.118,0,0,0,1.115,1.115" transform="translate(-1016.639 -1574.988)" fill="#12263f" fill-rule="evenodd"/>
      <path id="Trazado_196779" data-name="Trazado 196779" d="M1093.892,1657.3h16.46a1.118,1.118,0,0,0,1.115-1.115h0a1.118,1.118,0,0,0-1.115-1.115h-16.46a1.118,1.118,0,0,0-1.115,1.115h0a1.118,1.118,0,0,0,1.115,1.115" transform="translate(-1016.998 -1548.505)" fill="#12263f" fill-rule="evenodd"/>
      <path id="Trazado_196780" data-name="Trazado 196780" d="M1093.891,1625.964h49.969a1.118,1.118,0,0,0,1.115-1.115h0a1.118,1.118,0,0,0-1.115-1.115h-49.969a1.118,1.118,0,0,0-1.115,1.115h0a1.118,1.118,0,0,0,1.115,1.115" transform="translate(-1016.997 -1522.021)" fill="#12263f" fill-rule="evenodd"/>
      <path id="Trazado_196781" data-name="Trazado 196781" d="M1263.275,1688.636h13.115a1.118,1.118,0,0,0,1.115-1.115h0a1.118,1.118,0,0,0-1.115-1.115h-13.115a1.118,1.118,0,0,0-1.115,1.115h0a1.118,1.118,0,0,0,1.115,1.115" transform="translate(-1160.15 -1574.988)" fill="#12263f" fill-rule="evenodd"/>
      <path id="Trazado_196782" data-name="Trazado 196782" d="M1231.3,1657.3h38.985a1.118,1.118,0,0,0,1.115-1.115h0a1.118,1.118,0,0,0-1.115-1.115H1231.3a1.118,1.118,0,0,0-1.115,1.115h0a1.118,1.118,0,0,0,1.115,1.115" transform="translate(-1133.131 -1548.505)" fill="#2ec49f" fill-rule="evenodd"/>
      <path id="Trazado_196783" data-name="Trazado 196783" d="M1520.95,1657.3h10.459a1.118,1.118,0,0,0,1.115-1.115h0a1.118,1.118,0,0,0-1.115-1.115H1520.95a1.118,1.118,0,0,0-1.115,1.115h0a1.118,1.118,0,0,0,1.115,1.115" transform="translate(-1377.922 -1548.505)" fill="#6cd6ff" fill-rule="evenodd"/>
      <path id="Trazado_196784" data-name="Trazado 196784" d="M1623.851,1657.3h10.459a1.118,1.118,0,0,0,1.115-1.115h0a1.118,1.118,0,0,0-1.115-1.115h-10.459a1.118,1.118,0,0,0-1.115,1.115h0a1.118,1.118,0,0,0,1.115,1.115" transform="translate(-1464.888 -1548.505)" fill="#ffca05" fill-rule="evenodd"/>
      <path id="Trazado_196785" data-name="Trazado 196785" d="M1093.468,1318.992h20.066a1.118,1.118,0,0,0,1.115-1.115h0a1.118,1.118,0,0,0-1.115-1.115h-20.066a1.118,1.118,0,0,0-1.115,1.115h0a1.118,1.118,0,0,0,1.115,1.115" transform="translate(-1016.639 -1262.587)" fill="#12263f" fill-rule="evenodd"/>
      <path id="Trazado_196786" data-name="Trazado 196786" d="M1093.892,1287.656h16.46a1.118,1.118,0,0,0,1.115-1.115h0a1.118,1.118,0,0,0-1.115-1.115h-16.46a1.118,1.118,0,0,0-1.115,1.115h0a1.118,1.118,0,0,0,1.115,1.115" transform="translate(-1016.998 -1236.104)" fill="#12263f" fill-rule="evenodd"/>
      <path id="Trazado_196787" data-name="Trazado 196787" d="M1093.891,1256.32h49.969a1.118,1.118,0,0,0,1.115-1.115h0a1.118,1.118,0,0,0-1.115-1.115h-49.969a1.118,1.118,0,0,0-1.115,1.115h0a1.118,1.118,0,0,0,1.115,1.115" transform="translate(-1016.997 -1209.619)" fill="#5793ce" fill-rule="evenodd"/>
      <path id="Trazado_196788" data-name="Trazado 196788" d="M1263.275,1318.992h13.115a1.118,1.118,0,0,0,1.115-1.115h0a1.118,1.118,0,0,0-1.115-1.115h-13.115a1.118,1.118,0,0,0-1.115,1.115h0a1.118,1.118,0,0,0,1.115,1.115" transform="translate(-1160.15 -1262.587)" fill="#12263f" fill-rule="evenodd"/>
      <path id="Trazado_196789" data-name="Trazado 196789" d="M1231.3,1287.656h38.985a1.118,1.118,0,0,0,1.115-1.115h0a1.118,1.118,0,0,0-1.115-1.115H1231.3a1.118,1.118,0,0,0-1.115,1.115h0a1.118,1.118,0,0,0,1.115,1.115" transform="translate(-1133.131 -1236.104)" fill="#2ec49f" fill-rule="evenodd"/>
      <path id="Trazado_196790" data-name="Trazado 196790" d="M1520.95,1287.656h10.459a1.118,1.118,0,0,0,1.115-1.115h0a1.118,1.118,0,0,0-1.115-1.115H1520.95a1.118,1.118,0,0,0-1.115,1.115h0a1.118,1.118,0,0,0,1.115,1.115" transform="translate(-1377.922 -1236.104)" fill="#ffca05" fill-rule="evenodd"/>
      <path id="Trazado_196791" data-name="Trazado 196791" d="M1623.851,1287.656h10.459a1.118,1.118,0,0,0,1.115-1.115h0a1.118,1.118,0,0,0-1.115-1.115h-10.459a1.118,1.118,0,0,0-1.115,1.115h0a1.118,1.118,0,0,0,1.115,1.115" transform="translate(-1464.888 -1236.104)" fill="#12263f" fill-rule="evenodd"/>
      <path id="Trazado_196792" data-name="Trazado 196792" d="M1095.581,1552.546h13.378a1.118,1.118,0,0,0,1.115-1.115h0a1.118,1.118,0,0,0-1.115-1.115h-13.378a1.118,1.118,0,0,0-1.115,1.115h0a1.118,1.118,0,0,0,1.115,1.115" transform="translate(-1018.425 -1459.972)" fill="#12263f" fill-rule="evenodd"/>
      <path id="Trazado_196793" data-name="Trazado 196793" d="M1093.468,1521.209h20.066a1.118,1.118,0,0,0,1.115-1.115h0a1.118,1.118,0,0,0-1.115-1.115h-20.066a1.118,1.118,0,0,0-1.115,1.115h0a1.118,1.118,0,0,0,1.115,1.115" transform="translate(-1016.639 -1433.489)" fill="#12263f" fill-rule="evenodd"/>
      <path id="Trazado_196794" data-name="Trazado 196794" d="M1093.892,1489.873h16.46a1.118,1.118,0,0,0,1.115-1.115h0a1.118,1.118,0,0,0-1.115-1.115h-16.46a1.118,1.118,0,0,0-1.115,1.115h0a1.118,1.118,0,0,0,1.115,1.115" transform="translate(-1016.998 -1407.005)" fill="#12263f" fill-rule="evenodd"/>
      <path id="Trazado_196795" data-name="Trazado 196795" d="M1093.891,1458.537h21.594a1.118,1.118,0,0,0,1.115-1.115h0a1.118,1.118,0,0,0-1.115-1.115h-21.594a1.118,1.118,0,0,0-1.115,1.115h0a1.118,1.118,0,0,0,1.115,1.115" transform="translate(-1016.997 -1380.522)" fill="#ffca05" fill-rule="evenodd"/>
      <path id="Trazado_196796" data-name="Trazado 196796" d="M1263.275,1521.209h13.115a1.118,1.118,0,0,0,1.115-1.115h0a1.118,1.118,0,0,0-1.115-1.115h-13.115a1.118,1.118,0,0,0-1.115,1.115h0a1.118,1.118,0,0,0,1.115,1.115" transform="translate(-1160.15 -1433.489)" fill="#12263f" fill-rule="evenodd"/>
      <path id="Trazado_196797" data-name="Trazado 196797" d="M1231.3,1489.873h38.985a1.118,1.118,0,0,0,1.115-1.115h0a1.118,1.118,0,0,0-1.115-1.115H1231.3a1.118,1.118,0,0,0-1.115,1.115h0a1.118,1.118,0,0,0,1.115,1.115" transform="translate(-1133.131 -1407.005)" fill="#5793ce" fill-rule="evenodd"/>
      <path id="Trazado_196798" data-name="Trazado 196798" d="M1520.95,1489.873h10.459a1.118,1.118,0,0,0,1.115-1.115h0a1.118,1.118,0,0,0-1.115-1.115H1520.95a1.118,1.118,0,0,0-1.115,1.115h0a1.118,1.118,0,0,0,1.115,1.115" transform="translate(-1377.922 -1407.005)" fill="#12263f" fill-rule="evenodd"/>
      <path id="Trazado_196799" data-name="Trazado 196799" d="M1623.851,1489.873h10.459a1.118,1.118,0,0,0,1.115-1.115h0a1.118,1.118,0,0,0-1.115-1.115h-10.459a1.118,1.118,0,0,0-1.115,1.115h0a1.118,1.118,0,0,0,1.115,1.115" transform="translate(-1464.888 -1407.005)" fill="#12263f" fill-rule="evenodd"/>
      <path id="Trazado_196800" data-name="Trazado 196800" d="M1196.58,1223.9h38.985a1.118,1.118,0,0,0,1.115-1.115h0a1.118,1.118,0,0,0-1.115-1.115H1196.58a1.118,1.118,0,0,0-1.115,1.115h0a1.118,1.118,0,0,0,1.115,1.115" transform="translate(-1103.784 -1182.219)" fill="#12263f" fill-rule="evenodd"/>
      <path id="Trazado_196801" data-name="Trazado 196801" d="M1486.226,1223.9h10.46a1.118,1.118,0,0,0,1.115-1.115h0a1.118,1.118,0,0,0-1.115-1.115h-10.46a1.118,1.118,0,0,0-1.115,1.115h0a1.118,1.118,0,0,0,1.115,1.115" transform="translate(-1348.576 -1182.219)" fill="#12263f" fill-rule="evenodd"/>
      <path id="Trazado_196802" data-name="Trazado 196802" d="M1589.126,1223.9h10.459a1.118,1.118,0,0,0,1.115-1.115h0a1.118,1.118,0,0,0-1.115-1.115h-10.459a1.118,1.118,0,0,0-1.115,1.115h0a1.118,1.118,0,0,0,1.115,1.115" transform="translate(-1435.541 -1182.219)" fill="#12263f" fill-rule="evenodd"/>
      <path id="Trazado_196803" data-name="Trazado 196803" d="M1196.58,1194.256h17.049a1.118,1.118,0,0,0,1.115-1.115h0a1.118,1.118,0,0,0-1.115-1.115H1196.58a1.118,1.118,0,0,0-1.115,1.115h0a1.118,1.118,0,0,0,1.115,1.115" transform="translate(-1103.784 -1157.167)" fill="#2ec49f" fill-rule="evenodd"/>
      <path id="Trazado_196804" data-name="Trazado 196804" d="M1345.215,1194.256h26.754a1.118,1.118,0,0,0,1.115-1.115h0a1.118,1.118,0,0,0-1.115-1.115h-26.754a1.118,1.118,0,0,0-1.115,1.115h0a1.118,1.118,0,0,0,1.115,1.115" transform="translate(-1229.401 -1157.167)" fill="#5793ce" fill-rule="evenodd"/>
      <path id="Trazado_196805" data-name="Trazado 196805" d="M1562.126,1194.256h22.542a1.118,1.118,0,0,0,1.115-1.115h0a1.118,1.118,0,0,0-1.115-1.115h-22.542a1.118,1.118,0,0,0-1.115,1.115h0a1.118,1.118,0,0,0,1.115,1.115" transform="translate(-1412.722 -1157.167)" fill="#12263f" fill-rule="evenodd"/>
      <path id="Trazado_196806" data-name="Trazado 196806" d="M1196.58,1427.272h38.985a1.118,1.118,0,0,0,1.115-1.115h0a1.118,1.118,0,0,0-1.115-1.115H1196.58a1.118,1.118,0,0,0-1.115,1.115h0a1.118,1.118,0,0,0,1.115,1.115" transform="translate(-1103.784 -1354.099)" fill="#12263f" fill-rule="evenodd"/>
      <path id="Trazado_196807" data-name="Trazado 196807" d="M1486.226,1427.272h10.46a1.118,1.118,0,0,0,1.115-1.115h0a1.118,1.118,0,0,0-1.115-1.115h-10.46a1.118,1.118,0,0,0-1.115,1.115h0a1.118,1.118,0,0,0,1.115,1.115" transform="translate(-1348.576 -1354.099)" fill="#12263f" fill-rule="evenodd"/>
      <path id="Trazado_196808" data-name="Trazado 196808" d="M1589.126,1427.272h10.459a1.118,1.118,0,0,0,1.115-1.115h0a1.118,1.118,0,0,0-1.115-1.115h-10.459a1.118,1.118,0,0,0-1.115,1.115h0a1.118,1.118,0,0,0,1.115,1.115" transform="translate(-1435.541 -1354.099)" fill="#12263f" fill-rule="evenodd"/>
      <path id="Trazado_196809" data-name="Trazado 196809" d="M1196.58,1394.031h17.049a1.118,1.118,0,0,0,1.115-1.115h0a1.118,1.118,0,0,0-1.115-1.115H1196.58a1.118,1.118,0,0,0-1.115,1.115h0a1.118,1.118,0,0,0,1.115,1.115" transform="translate(-1103.784 -1326.005)" fill="#12263f" fill-rule="evenodd"/>
      <path id="Trazado_196810" data-name="Trazado 196810" d="M1345.215,1394.031h26.754a1.118,1.118,0,0,0,1.115-1.115h0a1.118,1.118,0,0,0-1.115-1.115h-26.754a1.118,1.118,0,0,0-1.115,1.115h0a1.118,1.118,0,0,0,1.115,1.115" transform="translate(-1229.401 -1326.005)" fill="#12263f" fill-rule="evenodd"/>
      <path id="Trazado_196811" data-name="Trazado 196811" d="M1562.126,1394.031h22.542a1.118,1.118,0,0,0,1.115-1.115h0a1.118,1.118,0,0,0-1.115-1.115h-22.542a1.118,1.118,0,0,0-1.115,1.115h0a1.118,1.118,0,0,0,1.115,1.115" transform="translate(-1412.722 -1326.005)" fill="#12263f" fill-rule="evenodd"/>
      <rect id="Rectángulo_46139" data-name="Rectángulo 46139" width="33.136" height="102.633" transform="translate(8.189 24.998)" fill="#031542"/>
      <path id="Trazado_196812" data-name="Trazado 196812" d="M1263.367,1458.537h11.623a1.118,1.118,0,0,0,1.115-1.115h0a1.118,1.118,0,0,0-1.115-1.115h-11.623a1.118,1.118,0,0,0-1.115,1.115h0a1.118,1.118,0,0,0,1.115,1.115" transform="translate(-1160.228 -1380.522)" fill="#5793ce" fill-rule="evenodd"/>
      <path id="Trazado_196813" data-name="Trazado 196813" d="M1364.674,1458.537H1376.3a1.118,1.118,0,0,0,1.115-1.115h0a1.118,1.118,0,0,0-1.115-1.115h-11.624a1.118,1.118,0,0,0-1.115,1.115h0a1.118,1.118,0,0,0,1.115,1.115" transform="translate(-1245.847 -1380.522)" fill="#5793ce" fill-rule="evenodd"/>
      <path id="Trazado_196814" data-name="Trazado 196814" d="M1055.357,1358.337h17.224a1.118,1.118,0,0,0,1.115-1.115h0a1.118,1.118,0,0,0-1.115-1.115h-17.224a1.118,1.118,0,0,0-1.115,1.115h0a1.118,1.118,0,0,0,1.115,1.115" transform="translate(-984.43 -1295.838)" fill="#12263f" fill-rule="evenodd"/>
      <path id="Trazado_196815" data-name="Trazado 196815" d="M1196.618,1358.337h11.623a1.118,1.118,0,0,0,1.115-1.115h0a1.118,1.118,0,0,0-1.115-1.115h-11.623a1.118,1.118,0,0,0-1.115,1.115h0a1.118,1.118,0,0,0,1.115,1.115" transform="translate(-1103.816 -1295.838)" fill="#12263f" fill-rule="evenodd"/>
      <path id="Trazado_196816" data-name="Trazado 196816" d="M1305.5,1358.337h11.623a1.118,1.118,0,0,0,1.115-1.115h0a1.118,1.118,0,0,0-1.115-1.115H1305.5a1.118,1.118,0,0,0-1.115,1.115h0a1.118,1.118,0,0,0,1.115,1.115" transform="translate(-1195.836 -1295.838)" fill="#12263f" fill-rule="evenodd"/>
      <path id="Trazado_196817" data-name="Trazado 196817" d="M713.311,1583.793h7.382a1.079,1.079,0,0,0,1.076-1.076h0a1.079,1.079,0,0,0-1.076-1.076h-7.382a1.079,1.079,0,0,0-1.076,1.076h0a1.079,1.079,0,0,0,1.076,1.076" transform="translate(-695.386 -1486.446)" fill="#e8f6fd" fill-rule="evenodd"/>
      <path id="Trazado_196818" data-name="Trazado 196818" d="M684.522,1549.377H704.04a1.079,1.079,0,0,0,1.076-1.076h0a1.079,1.079,0,0,0-1.076-1.076H684.522a1.079,1.079,0,0,0-1.076,1.076h0a1.079,1.079,0,0,0,1.076,1.076" transform="translate(-671.055 -1457.36)" fill="#e8f6fd" fill-rule="evenodd"/>
      <path id="Trazado_196819" data-name="Trazado 196819" d="M684.522,1512.945H699.4a1.079,1.079,0,0,0,1.076-1.076h0a1.079,1.079,0,0,0-1.076-1.076H684.522a1.079,1.079,0,0,0-1.076,1.076h0a1.079,1.079,0,0,0,1.076,1.076" transform="translate(-671.055 -1426.57)" fill="#e8f6fd" fill-rule="evenodd"/>
      <path id="Trazado_196820" data-name="Trazado 196820" d="M713.312,1476.513h14.846a1.079,1.079,0,0,0,1.076-1.076h0a1.079,1.079,0,0,0-1.076-1.077H713.312a1.079,1.079,0,0,0-1.076,1.077h0a1.079,1.079,0,0,0,1.076,1.076" transform="translate(-695.387 -1395.779)" fill="#e8f6fd" fill-rule="evenodd"/>
      <path id="Trazado_196821" data-name="Trazado 196821" d="M713.313,1440.081h4.728a1.079,1.079,0,0,0,1.076-1.076h0a1.079,1.079,0,0,0-1.076-1.076h-4.728a1.079,1.079,0,0,0-1.076,1.076h0a1.079,1.079,0,0,0,1.076,1.076" transform="translate(-695.388 -1364.989)" fill="#e8f6fd" fill-rule="evenodd"/>
      <path id="Trazado_196822" data-name="Trazado 196822" d="M684.522,1403.649h14.116a1.079,1.079,0,0,0,1.076-1.076h0a1.079,1.079,0,0,0-1.076-1.076H684.522a1.079,1.079,0,0,0-1.076,1.076h0a1.079,1.079,0,0,0,1.076,1.076" transform="translate(-671.055 -1334.199)" fill="#e8f6fd" fill-rule="evenodd"/>
      <path id="Trazado_196823" data-name="Trazado 196823" d="M712.77,1367.216h3.864a1.079,1.079,0,0,0,1.076-1.076h0a1.079,1.079,0,0,0-1.076-1.076H712.77a1.079,1.079,0,0,0-1.076,1.076h0a1.079,1.079,0,0,0,1.076,1.076" transform="translate(-694.929 -1303.408)" fill="#e8f6fd" fill-rule="evenodd"/>
      <path id="Trazado_196824" data-name="Trazado 196824" d="M709.444,1330.784H725.1a1.079,1.079,0,0,0,1.076-1.076h0a1.079,1.079,0,0,0-1.076-1.076H709.444a1.079,1.079,0,0,0-1.076,1.076h0a1.079,1.079,0,0,0,1.076,1.076" transform="translate(-692.118 -1272.618)" fill="#e8f6fd" fill-rule="evenodd"/>
      <path id="Trazado_196825" data-name="Trazado 196825" d="M684.522,1294.353h12.457a1.079,1.079,0,0,0,1.076-1.076h0a1.079,1.079,0,0,0-1.076-1.076H684.522a1.079,1.079,0,0,0-1.076,1.076h0a1.079,1.079,0,0,0,1.076,1.076" transform="translate(-671.055 -1241.828)" fill="#e8f6fd" fill-rule="evenodd"/>
      <path id="Trazado_196826" data-name="Trazado 196826" d="M709.444,1257.921H725.1a1.079,1.079,0,0,0,1.076-1.076h0a1.079,1.079,0,0,0-1.076-1.076H709.444a1.079,1.079,0,0,0-1.076,1.076h0a1.079,1.079,0,0,0,1.076,1.076" transform="translate(-692.118 -1211.038)" fill="#e8f6fd" fill-rule="evenodd"/>
      <path id="Trazado_196827" data-name="Trazado 196827" d="M709.444,1221.488h9.545a1.079,1.079,0,0,0,1.076-1.076h0a1.079,1.079,0,0,0-1.076-1.076h-9.545a1.079,1.079,0,0,0-1.076,1.076h0a1.079,1.079,0,0,0,1.076,1.076" transform="translate(-692.118 -1180.247)" fill="#e8f6fd" fill-rule="evenodd"/>
      <path id="Trazado_196828" data-name="Trazado 196828" d="M684.522,1185.057h6.864a1.079,1.079,0,0,0,1.076-1.076h0a1.079,1.079,0,0,0-1.076-1.076h-6.864a1.079,1.079,0,0,0-1.076,1.076h0a1.079,1.079,0,0,0,1.076,1.076" transform="translate(-671.055 -1149.457)" fill="#e8f6fd" fill-rule="evenodd"/>
      <path id="Trazado_196829" data-name="Trazado 196829" d="M713.311,1615.984h7.382a1.079,1.079,0,0,0,1.076-1.076h0a1.079,1.079,0,0,0-1.076-1.076h-7.382a1.079,1.079,0,0,0-1.076,1.076h0a1.079,1.079,0,0,0,1.076,1.076" transform="translate(-695.386 -1513.651)" fill="#e8f6fd" fill-rule="evenodd"/>
      <path id="Trazado_196830" data-name="Trazado 196830" d="M684.522,1648.175h18.861a1.079,1.079,0,0,0,1.076-1.076h0a1.079,1.079,0,0,0-1.076-1.077H684.522a1.079,1.079,0,0,0-1.076,1.077h0a1.079,1.079,0,0,0,1.076,1.076" transform="translate(-671.055 -1540.857)" fill="#e8f6fd" fill-rule="evenodd"/>
      <path id="Trazado_196831" data-name="Trazado 196831" d="M713.311,1680.365h7.382a1.079,1.079,0,0,0,1.076-1.076h0a1.079,1.079,0,0,0-1.076-1.076h-7.382a1.079,1.079,0,0,0-1.076,1.076h0a1.079,1.079,0,0,0,1.076,1.076" transform="translate(-695.386 -1568.063)" fill="#e8f6fd" fill-rule="evenodd"/>
      <path id="Trazado_196832" data-name="Trazado 196832" d="M1093.892,1223.9h10.951a1.118,1.118,0,0,0,1.115-1.115h0a1.118,1.118,0,0,0-1.115-1.115h-10.951a1.118,1.118,0,0,0-1.115,1.115h0a1.118,1.118,0,0,0,1.115,1.115" transform="translate(-1016.998 -1182.219)" fill="#12263f" fill-rule="evenodd"/>
      <path id="Trazado_196833" data-name="Trazado 196833" d="M1022.032,1194.256h21.747a1.118,1.118,0,0,0,1.115-1.115h0a1.118,1.118,0,0,0-1.115-1.115h-21.747a1.118,1.118,0,0,0-1.115,1.115h0a1.118,1.118,0,0,0,1.115,1.115" transform="translate(-956.266 -1157.167)" fill="#12263f" fill-rule="evenodd"/>
      <path id="Trazado_196834" data-name="Trazado 196834" d="M1022.032,1157.575h28.64a1.118,1.118,0,0,0,1.115-1.115h0a1.118,1.118,0,0,0-1.115-1.114h-28.64a1.118,1.118,0,0,0-1.115,1.114h0a1.118,1.118,0,0,0,1.115,1.115" transform="translate(-956.266 -1126.167)" fill="#12263f" fill-rule="evenodd"/>
      <path id="Trazado_196835" data-name="Trazado 196835" d="M945.633,1157.575h1.048a1.118,1.118,0,0,0,1.115-1.115h0a1.118,1.118,0,0,0-1.115-1.114h-1.048a1.118,1.118,0,0,0-1.115,1.114h0a1.118,1.118,0,0,0,1.115,1.115" transform="translate(-891.698 -1126.167)" fill="#b1cbef" fill-rule="evenodd"/>
      <path id="Trazado_196836" data-name="Trazado 196836" d="M945.633,1194.256h1.048a1.118,1.118,0,0,0,1.115-1.115h0a1.118,1.118,0,0,0-1.115-1.115h-1.048a1.118,1.118,0,0,0-1.115,1.115h0a1.118,1.118,0,0,0,1.115,1.115" transform="translate(-891.698 -1157.167)" fill="#b1cbef" fill-rule="evenodd"/>
      <path id="Trazado_196837" data-name="Trazado 196837" d="M944.346,1318.992h.909a1.118,1.118,0,0,0,1.115-1.115h0a1.118,1.118,0,0,0-1.115-1.115h-.909a1.118,1.118,0,0,0-1.115,1.115h0a1.118,1.118,0,0,0,1.115,1.115" transform="translate(-890.61 -1262.587)" fill="#b1cbef" fill-rule="evenodd"/>
      <path id="Trazado_196838" data-name="Trazado 196838" d="M944.77,1287.656h.844a1.118,1.118,0,0,0,1.115-1.115h0a1.118,1.118,0,0,0-1.115-1.115h-.844a1.118,1.118,0,0,0-1.115,1.115h0a1.118,1.118,0,0,0,1.115,1.115" transform="translate(-890.969 -1236.104)" fill="#b1cbef" fill-rule="evenodd"/>
      <path id="Trazado_196839" data-name="Trazado 196839" d="M944.77,1256.32h.844a1.118,1.118,0,0,0,1.115-1.115h0a1.118,1.118,0,0,0-1.115-1.115h-.844a1.118,1.118,0,0,0-1.115,1.115h0a1.118,1.118,0,0,0,1.115,1.115" transform="translate(-890.969 -1209.619)" fill="#b1cbef" fill-rule="evenodd"/>
      <path id="Trazado_196840" data-name="Trazado 196840" d="M944.77,1223.9h.844a1.118,1.118,0,0,0,1.115-1.115h0a1.118,1.118,0,0,0-1.115-1.115h-.844a1.118,1.118,0,0,0-1.115,1.115h0a1.118,1.118,0,0,0,1.115,1.115" transform="translate(-890.969 -1182.219)" fill="#b1cbef" fill-rule="evenodd"/>
      <path id="Trazado_196841" data-name="Trazado 196841" d="M945.179,1427.272h.78a1.118,1.118,0,0,0,1.115-1.115h0a1.118,1.118,0,0,0-1.115-1.115h-.78a1.118,1.118,0,0,0-1.115,1.115h0a1.118,1.118,0,0,0,1.115,1.115" transform="translate(-891.314 -1354.099)" fill="#b1cbef" fill-rule="evenodd"/>
      <path id="Trazado_196842" data-name="Trazado 196842" d="M945.179,1394.031h.78a1.118,1.118,0,0,0,1.115-1.115h0a1.118,1.118,0,0,0-1.115-1.115h-.78a1.118,1.118,0,0,0-1.115,1.115h0a1.118,1.118,0,0,0,1.115,1.115" transform="translate(-891.314 -1326.005)" fill="#b1cbef" fill-rule="evenodd"/>
      <path id="Trazado_196843" data-name="Trazado 196843" d="M945.217,1358.337h.774a1.118,1.118,0,0,0,1.115-1.115h0a1.118,1.118,0,0,0-1.115-1.115h-.774a1.118,1.118,0,0,0-1.115,1.115h0a1.118,1.118,0,0,0,1.115,1.115" transform="translate(-891.346 -1295.838)" fill="#b1cbef" fill-rule="evenodd"/>
      <path id="Trazado_196844" data-name="Trazado 196844" d="M947.358,1552.546h.443a1.118,1.118,0,0,0,1.115-1.115h0a1.118,1.118,0,0,0-1.115-1.115h-.443a1.118,1.118,0,0,0-1.115,1.115h0a1.118,1.118,0,0,0,1.115,1.115" transform="translate(-893.156 -1459.972)" fill="#b1cbef" fill-rule="evenodd"/>
      <path id="Trazado_196845" data-name="Trazado 196845" d="M945.179,1521.209h.78a1.118,1.118,0,0,0,1.115-1.115h0a1.118,1.118,0,0,0-1.115-1.115h-.78a1.118,1.118,0,0,0-1.115,1.115h0a1.118,1.118,0,0,0,1.115,1.115" transform="translate(-891.314 -1433.489)" fill="#b1cbef" fill-rule="evenodd"/>
      <path id="Trazado_196846" data-name="Trazado 196846" d="M945.616,1489.873h.713a1.118,1.118,0,0,0,1.115-1.115h0a1.118,1.118,0,0,0-1.115-1.115h-.713a1.118,1.118,0,0,0-1.115,1.115h0a1.118,1.118,0,0,0,1.115,1.115" transform="translate(-891.683 -1407.005)" fill="#b1cbef" fill-rule="evenodd"/>
      <path id="Trazado_196847" data-name="Trazado 196847" d="M945.614,1458.537h.713a1.118,1.118,0,0,0,1.115-1.115h0a1.118,1.118,0,0,0-1.115-1.115h-.713a1.118,1.118,0,0,0-1.115,1.115h0a1.118,1.118,0,0,0,1.115,1.115" transform="translate(-891.682 -1380.522)" fill="#b1cbef" fill-rule="evenodd"/>
      <path id="Trazado_196848" data-name="Trazado 196848" d="M948.111,1719.973h.327a1.118,1.118,0,0,0,1.115-1.115h0a1.118,1.118,0,0,0-1.115-1.115h-.327a1.118,1.118,0,0,0-1.114,1.115h0a1.118,1.118,0,0,0,1.114,1.115" transform="translate(-893.793 -1601.472)" fill="#b1cbef" fill-rule="evenodd"/>
      <path id="Trazado_196849" data-name="Trazado 196849" d="M948.111,1688.636h.326a1.118,1.118,0,0,0,1.115-1.115h0a1.118,1.118,0,0,0-1.115-1.115h-.326a1.118,1.118,0,0,0-1.115,1.115h0a1.118,1.118,0,0,0,1.115,1.115" transform="translate(-893.792 -1574.988)" fill="#b1cbef" fill-rule="evenodd"/>
      <path id="Trazado_196850" data-name="Trazado 196850" d="M947.843,1657.3h.368a1.118,1.118,0,0,0,1.115-1.115h0a1.118,1.118,0,0,0-1.115-1.115h-.368a1.118,1.118,0,0,0-1.115,1.115h0a1.118,1.118,0,0,0,1.115,1.115" transform="translate(-893.566 -1548.505)" fill="#b1cbef" fill-rule="evenodd"/>
      <path id="Trazado_196851" data-name="Trazado 196851" d="M947.358,1625.964h.443a1.118,1.118,0,0,0,1.115-1.115h0a1.118,1.118,0,0,0-1.115-1.115h-.443a1.118,1.118,0,0,0-1.115,1.115h0a1.118,1.118,0,0,0,1.115,1.115" transform="translate(-893.156 -1522.021)" fill="#b1cbef" fill-rule="evenodd"/>
      <path id="Trazado_196852" data-name="Trazado 196852" d="M947.358,1594.418h.443a1.118,1.118,0,0,0,1.115-1.115h0a1.118,1.118,0,0,0-1.115-1.115h-.443a1.118,1.118,0,0,0-1.115,1.115h0a1.118,1.118,0,0,0,1.115,1.115" transform="translate(-893.156 -1495.36)" fill="#b1cbef" fill-rule="evenodd"/>
      <rect id="Rectángulo_46140" data-name="Rectángulo 46140" width="187.049" height="6.453" transform="translate(0 10.632)" fill="#12263f"/>
      <rect id="Rectángulo_46141" data-name="Rectángulo 46141" width="1.963" height="1.963" transform="translate(173.811 12.456)" fill="#fff"/>
      <rect id="Rectángulo_46142" data-name="Rectángulo 46142" width="1.963" height="1.963" transform="translate(177.277 12.456)" fill="#fff"/>
      <rect id="Rectángulo_46143" data-name="Rectángulo 46143" width="1.963" height="1.963" transform="translate(180.743 12.456)" fill="#fff"/>
      <path id="Trazado_196853" data-name="Trazado 196853" d="M1748.294,966.92h86.068a14.462,14.462,0,0,1,14.344,14.495V1161.4a14.463,14.463,0,0,1-14.344,14.5h-86.068a14.463,14.463,0,0,1-14.345-14.5V981.415a14.462,14.462,0,0,1,14.345-14.495" transform="translate(-1558.879 -966.92)" fill="#12263f" fill-rule="evenodd"/>
      <path id="Trazado_196854" data-name="Trazado 196854" d="M1707.933,966.92H1794a14.462,14.462,0,0,1,14.344,14.495V1161.4A14.463,14.463,0,0,1,1794,1175.9h-86.069a14.463,14.463,0,0,1-14.344-14.5V981.415a14.462,14.462,0,0,1,14.344-14.495" transform="translate(-1524.769 -966.92)" fill="#f59d36" fill-rule="evenodd"/>
      <path id="Trazado_196855" data-name="Trazado 196855" d="M1740.253,1003.514a7.882,7.882,0,0,0-7.622,8.042V1190.33a7.882,7.882,0,0,0,7.622,8.042h87.422a7.882,7.882,0,0,0,7.622-8.042V1011.556a7.882,7.882,0,0,0-7.622-8.042h-87.422" transform="translate(-1557.765 -997.847)" fill-rule="evenodd" fill="url(#linear-gradient)"/>
      <path id="Trazado_196907" data-name="Trazado 196907" d="M0,0H89.088V79.835H0Z" transform="translate(181.41 23.004)" fill="#f1f1f1"/>
      <path id="Trazado_196856" data-name="Trazado 196856" d="M2314.947,1037.213h-6.04a.477.477,0,0,0-.476.476h0a.477.477,0,0,0,.476.476h6.04a.477.477,0,0,0,.476-.476h0a.477.477,0,0,0-.476-.476" transform="translate(-2044.398 -1026.328)" fill="#12263f" fill-rule="evenodd"/>
      <path id="Trazado_196857" data-name="Trazado 196857" d="M2314.947,1051.87h-6.04a.477.477,0,0,0-.476.476h0a.477.477,0,0,0,.476.476h6.04a.477.477,0,0,0,.476-.476h0a.477.477,0,0,0-.476-.476" transform="translate(-2044.398 -1038.715)" fill="#12263f" fill-rule="evenodd"/>
      <path id="Trazado_196858" data-name="Trazado 196858" d="M2314.947,1065.516h-6.04a.477.477,0,0,0-.476.476h0a.477.477,0,0,0,.476.476h6.04a.477.477,0,0,0,.476-.476h0a.477.477,0,0,0-.476-.476" transform="translate(-2044.398 -1050.247)" fill="#12263f" fill-rule="evenodd"/>
      <path id="Trazado_196859" data-name="Trazado 196859" d="M1908.842,1772.566h5.38a1.848,1.848,0,0,1,1.843,1.843h0a1.848,1.848,0,0,1-1.843,1.842h-5.38a1.848,1.848,0,0,1-1.843-1.842h0a1.848,1.848,0,0,1,1.843-1.843" transform="translate(-1705.13 -1647.805)" fill="#12263f" fill-rule="evenodd"/>
      <path id="Trazado_196860" data-name="Trazado 196860" d="M1908.842,1825.653h12a1.848,1.848,0,0,1,1.843,1.843h0a1.848,1.848,0,0,1-1.843,1.842h-12A1.848,1.848,0,0,1,1907,1827.5h0a1.848,1.848,0,0,1,1.843-1.843" transform="translate(-1705.13 -1692.671)" fill="#f59d36" fill-rule="evenodd"/>
      <path id="Trazado_196861" data-name="Trazado 196861" d="M1908.841,1878.74h23.392a1.848,1.848,0,0,1,1.842,1.843h0a1.848,1.848,0,0,1-1.842,1.843h-23.392a1.848,1.848,0,0,1-1.843-1.843h0a1.848,1.848,0,0,1,1.843-1.843" transform="translate(-1705.13 -1737.537)" fill="#f59d36" fill-rule="evenodd"/>
      <path id="Trazado_196862" data-name="Trazado 196862" d="M1908.841,1986.9H1921a1.848,1.848,0,0,1,1.843,1.843h0a1.848,1.848,0,0,1-1.843,1.843h-12.16a1.848,1.848,0,0,1-1.842-1.843h0a1.848,1.848,0,0,1,1.842-1.843" transform="translate(-1705.13 -1828.951)" fill="#12263f" fill-rule="evenodd"/>
      <path id="Trazado_196863" data-name="Trazado 196863" d="M1908.841,2039.991h41.489a1.848,1.848,0,0,1,1.843,1.843h0a1.848,1.848,0,0,1-1.843,1.842h-41.489a1.848,1.848,0,0,1-1.842-1.842h0a1.848,1.848,0,0,1,1.842-1.843" transform="translate(-1705.13 -1873.817)" fill="#5793ce" fill-rule="evenodd"/>
      <path id="Trazado_196864" data-name="Trazado 196864" d="M1908.841,2093.078h23.392a1.848,1.848,0,0,1,1.842,1.843h0a1.848,1.848,0,0,1-1.842,1.842h-23.392a1.848,1.848,0,0,1-1.843-1.842h0a1.848,1.848,0,0,1,1.843-1.843" transform="translate(-1705.13 -1918.683)" fill="#2ec49f" fill-rule="evenodd"/>
      <path id="Trazado_196865" data-name="Trazado 196865" d="M1796.8,1772.566h6.108a1.848,1.848,0,0,1,1.842,1.843h0a1.848,1.848,0,0,1-1.842,1.842H1796.8a1.848,1.848,0,0,1-1.843-1.842h0a1.848,1.848,0,0,1,1.843-1.843" transform="translate(-1610.443 -1647.805)" fill="#12263f" fill-rule="evenodd"/>
      <path id="Trazado_196866" data-name="Trazado 196866" d="M1796.8,1825.653h6.108a1.848,1.848,0,0,1,1.842,1.843h0a1.848,1.848,0,0,1-1.842,1.842H1796.8a1.848,1.848,0,0,1-1.843-1.842h0a1.848,1.848,0,0,1,1.843-1.843" transform="translate(-1610.443 -1692.671)" fill="#6c8bc6" fill-rule="evenodd"/>
      <path id="Trazado_196867" data-name="Trazado 196867" d="M1796.8,1878.74h6.108a1.848,1.848,0,0,1,1.842,1.843h0a1.848,1.848,0,0,1-1.842,1.843H1796.8a1.848,1.848,0,0,1-1.843-1.843h0a1.848,1.848,0,0,1,1.843-1.843" transform="translate(-1610.443 -1737.537)" fill="#6c8bc6" fill-rule="evenodd"/>
      <path id="Trazado_196868" data-name="Trazado 196868" d="M1796.8,1986.9h6.108a1.848,1.848,0,0,1,1.842,1.843h0a1.848,1.848,0,0,1-1.842,1.843H1796.8a1.848,1.848,0,0,1-1.843-1.843h0a1.848,1.848,0,0,1,1.843-1.843" transform="translate(-1610.443 -1828.951)" fill="#6c8bc6" fill-rule="evenodd"/>
      <path id="Trazado_196869" data-name="Trazado 196869" d="M1796.8,2039.992h6.108a1.848,1.848,0,0,1,1.842,1.843h0a1.848,1.848,0,0,1-1.842,1.843H1796.8a1.848,1.848,0,0,1-1.843-1.843h0a1.848,1.848,0,0,1,1.843-1.843" transform="translate(-1610.443 -1873.818)" fill="#6c8bc6" fill-rule="evenodd"/>
      <path id="Trazado_196870" data-name="Trazado 196870" d="M1796.8,2093.078h6.108a1.848,1.848,0,0,1,1.842,1.843h0a1.848,1.848,0,0,1-1.842,1.842H1796.8a1.848,1.848,0,0,1-1.843-1.842h0a1.848,1.848,0,0,1,1.843-1.843" transform="translate(-1610.443 -1918.683)" fill="#f59d36" fill-rule="evenodd"/>
      <path id="Trazado_196871" data-name="Trazado 196871" d="M2037.03,1986.9h26.523a1.848,1.848,0,0,1,1.843,1.843h0a1.848,1.848,0,0,1-1.843,1.843H2037.03a1.848,1.848,0,0,1-1.843-1.843h0a1.848,1.848,0,0,1,1.843-1.843" transform="translate(-1813.468 -1828.951)" fill="#12263f" fill-rule="evenodd"/>
      <path id="Trazado_196872" data-name="Trazado 196872" d="M2254.295,1986.9h4.66a1.848,1.848,0,0,1,1.842,1.843h0a1.847,1.847,0,0,1-1.842,1.843h-4.66a1.848,1.848,0,0,1-1.843-1.843h0a1.848,1.848,0,0,1,1.843-1.843" transform="translate(-1997.087 -1828.951)" fill="#12263f" fill-rule="evenodd"/>
      <path id="Trazado_196873" data-name="Trazado 196873" d="M2030.343,1825.653h19.623a1.848,1.848,0,0,1,1.843,1.843h0a1.848,1.848,0,0,1-1.843,1.842h-19.623a1.848,1.848,0,0,1-1.843-1.842h0a1.848,1.848,0,0,1,1.843-1.843" transform="translate(-1807.816 -1692.671)" fill="#f59d36" fill-rule="evenodd"/>
      <path id="Trazado_196874" data-name="Trazado 196874" d="M2197.093,1825.653h7.969a1.848,1.848,0,0,1,1.843,1.843h0a1.848,1.848,0,0,1-1.843,1.842h-7.969a1.848,1.848,0,0,1-1.843-1.842h0a1.848,1.848,0,0,1,1.843-1.843" transform="translate(-1948.744 -1692.671)" fill="#12263f" fill-rule="evenodd"/>
      <path id="Trazado_196875" data-name="Trazado 196875" d="M2107.9,1878.74h23.392a1.848,1.848,0,0,1,1.842,1.843h0a1.848,1.848,0,0,1-1.842,1.843H2107.9a1.848,1.848,0,0,1-1.843-1.843h0a1.848,1.848,0,0,1,1.843-1.843" transform="translate(-1873.362 -1737.537)" fill="#f59d36" fill-rule="evenodd"/>
      <path id="Trazado_196876" data-name="Trazado 196876" d="M1988.482,1772.566h11.608a1.848,1.848,0,0,1,1.843,1.843h0a1.848,1.848,0,0,1-1.843,1.842h-11.608a1.848,1.848,0,0,1-1.843-1.842h0a1.848,1.848,0,0,1,1.843-1.843" transform="translate(-1772.438 -1647.805)" fill="#12263f" fill-rule="evenodd"/>
      <path id="Trazado_196877" data-name="Trazado 196877" d="M2103.847,1772.566h11.607a1.848,1.848,0,0,1,1.843,1.843h0a1.848,1.848,0,0,1-1.843,1.842h-11.607a1.848,1.848,0,0,1-1.843-1.842h0a1.848,1.848,0,0,1,1.843-1.843" transform="translate(-1869.938 -1647.805)" fill="#2ec49f" fill-rule="evenodd"/>
      <path id="Trazado_196878" data-name="Trazado 196878" d="M2221.614,1772.566h7.784a1.848,1.848,0,0,1,1.843,1.843h0a1.848,1.848,0,0,1-1.843,1.842h-7.784a1.848,1.848,0,0,1-1.842-1.842h0a1.848,1.848,0,0,1,1.842-1.843" transform="translate(-1969.468 -1647.805)" fill="#2ec49f" fill-rule="evenodd"/>
      <path id="Trazado_196879" data-name="Trazado 196879" d="M1853.249,1038.067h-68.6a2.722,2.722,0,0,0-2.714,2.714h0a2.722,2.722,0,0,0,2.714,2.715h68.6a2.722,2.722,0,0,0,2.714-2.715h0a2.722,2.722,0,0,0-2.714-2.714" transform="translate(-1599.437 -1027.049)" fill="#f3f9ff" fill-rule="evenodd"/>
      <rect id="Rectángulo_46145" data-name="Rectángulo 46145" width="49.963" height="40.021" transform="translate(156.438 131.396)" fill="#12263f"/>
      <path id="Trazado_196880" data-name="Trazado 196880" d="M1711.385,1878.229l-.811-.821a1.075,1.075,0,0,1-.171-1.29,11.109,11.109,0,0,0,1.069-2.539,1.076,1.076,0,0,1,1.044-.779l1.154.005a1.084,1.084,0,0,0,1.093-1.075l.013-2.211a1.085,1.085,0,0,0-1.078-1.091l-1.155-.007a1.076,1.076,0,0,1-1.034-.792,11.1,11.1,0,0,0-1.038-2.552,1.071,1.071,0,0,1,.189-1.287l.82-.812a1.084,1.084,0,0,0,.01-1.533l-1.554-1.573a1.084,1.084,0,0,0-1.533-.01l-.821.811a1.076,1.076,0,0,1-1.29.172,11.129,11.129,0,0,0-2.537-1.07,1.074,1.074,0,0,1-.78-1.044l.007-1.154a1.082,1.082,0,0,0-1.077-1.09l-2.211-.014a1.084,1.084,0,0,0-1.091,1.078l-.007,1.155a1.073,1.073,0,0,1-.793,1.033,11.237,11.237,0,0,0-2.552,1.038,1.072,1.072,0,0,1-1.287-.187l-.811-.822a1.084,1.084,0,0,0-1.533-.01l-1.573,1.554a1.084,1.084,0,0,0-.01,1.533l.811.821a1.077,1.077,0,0,1,.172,1.291,11.055,11.055,0,0,0-1.069,2.536,1.076,1.076,0,0,1-1.044.781l-1.155-.008a1.084,1.084,0,0,0-1.091,1.078l-.015,2.209a1.086,1.086,0,0,0,1.079,1.092l1.154.006a1.076,1.076,0,0,1,1.034.794,11.1,11.1,0,0,0,1.038,2.55,1.075,1.075,0,0,1-.187,1.289l-.821.811a1.083,1.083,0,0,0-.01,1.533l1.553,1.574a1.088,1.088,0,0,0,1.534.009l.82-.812a1.076,1.076,0,0,1,1.292-.171,11.126,11.126,0,0,0,2.536,1.069,1.076,1.076,0,0,1,.78,1.043l-.008,1.154a1.085,1.085,0,0,0,1.078,1.092l2.211.013a1.083,1.083,0,0,0,1.091-1.078l.007-1.155a1.076,1.076,0,0,1,.792-1.034,10.977,10.977,0,0,0,2.551-1.037,1.071,1.071,0,0,1,1.287.187l.813.821a1.083,1.083,0,0,0,1.533.01l1.573-1.554a1.081,1.081,0,0,0,.009-1.532m-7.238-2.768a6,6,0,1,1,.06-9.8A6,6,0,0,1,1704.146,1875.461Z" transform="translate(-1518.902 -1718.719)" fill="#fff" fill-rule="evenodd"/>
      <path id="Trazado_196881" data-name="Trazado 196881" d="M1157.027,1843.753c-4.38,6.23,6.811,37.176,8.965,51.86.984,6.708,3.1,8.084,9.143,9.453,7.926,1.8,13.3,4,19.115,3.8,3.4-.117,6.147.016,7.482-.985,4.642-3.481-2.567-7.506-2.567-7.506s-14.479-5.71-17.368-7.193c-2.486-1.465-3.907-52.327-20.155-55.93-2.128-.472-1.771,3.61-4.615,6.5" transform="translate(-1070.447 -1702.442)" fill="#18846a" fill-rule="evenodd"/>
      <path id="Trazado_196882" data-name="Trazado 196882" d="M976.486,2109.591c2.717-1.716,5.3-2.685,6.179,0Zm-46.255,0a108.241,108.241,0,0,1,2.93-16.7c7.02-.238,13.417-1.572,15.008-2.68.661-2.042,3.68-9.022.791-10.043-2.219-.976-5.968-1.273-9.807-1.417,12.056-17.709,30.755-.058,29.7,30.846Z" transform="translate(-879.623 -1900.614)" fill="#0b3870" fill-rule="evenodd"/>
      <path id="Trazado_196883" data-name="Trazado 196883" d="M1094.153,1618.6a31.518,31.518,0,0,0-.02,8.862c.828,5.851,2.974,10.012,5.367,15.158a3.8,3.8,0,0,1,.152,2.005c-.243.964-.888,1.573-.907,2.13-.076,2.189,2.427,3.1,1.633,5.591-.845,2.651-4.711,5.68-7.067,8.992,0,0-7.731-8.509-11.042-9.11s-3.752-11.011-3.752-11.545,2.947-21.288,2.947-21.288Z" transform="translate(-1004.947 -1517.68)" fill="#000446" fill-rule="evenodd"/>
      <path id="Trazado_196884" data-name="Trazado 196884" d="M910.574,1823.851c-6.893,0-12.8,2.113-16.975,6.426a3.212,3.212,0,0,0-.616.957c1.336,12.319,6.45,15.327,2.812,23.143.683,2.614,4.272,13.463,4.859,15.916a36.041,36.041,0,0,1,.328,15.629c-1.065,3.6-1.745,6.524-3.49,13.886h57.733c-2.061-11.695-4.424-20.91-4.569-22.53-.932-10.451.889-45.174-9.006-50.807-7.831-4.458-21.51-2.619-31.076-2.619" transform="translate(-848.143 -1690.831)" fill="#2ec49f" fill-rule="evenodd"/>
      <path id="Trazado_196885" data-name="Trazado 196885" d="M1030.325,1821.957c8.185,4.426,12.476,47.054,10.52,76.256h-19.08c.632-47.012-4.585-65.171-9.5-76.017,6.963-.459,9.414-.973,18.059-.239" transform="translate(-948.954 -1689.236)" fill="#fff" fill-rule="evenodd"/>
      <path id="Trazado_196886" data-name="Trazado 196886" d="M1037.489,1657.439l.163,3.653.251.323c1.784,4.08-2.822,6.84-4.066,7.475-1.271-.2-8.536-2.491-8.959-8.234l.033-.368.253-8.141a2.26,2.26,0,0,1-1.775-1.241,10.315,10.315,0,0,1-1.243-4.507c.2-1.56,2.4-.61,2.4-.61h0c-2.071-4.5-4.636-8.356.056-11.122s14.393-3.01,14.393-3.01l5.786-.86c-2.584,4.548,5.757,22.765-7.289,26.642" transform="translate(-957.141 -1527.99)" fill="#f7aaac" fill-rule="evenodd"/>
      <path id="Trazado_196887" data-name="Trazado 196887" d="M1065.507,1776.393c2.289,5.381,4.32,7.327,8.954,7.748l-.167-3.726a16.107,16.107,0,0,1-8.788-4.022" transform="translate(-993.951 -1651.039)" fill="#f28085" fill-rule="evenodd"/>
      <path id="Trazado_196888" data-name="Trazado 196888" d="M911.168,1573.753c-7.752-5.477-19.4-4.157-25.108,4.572-4.91,7.514-4.974,20.412-12.472,20.778-2.455.12-5.288,1.341-5.679,6.7-1.776.57-5.823,2.719-2.849,8.418-2.933,2.1-3.252,5.57-.622,7.617a20.01,20.01,0,0,1,2.9-4.411h0a3.212,3.212,0,0,1,.622-.966c4.173-4.312,10.082-6.426,16.975-6.426,1.634,0,3.753-.005,5.326-.124.208-2.569.573-7.4.584-8.994a4.628,4.628,0,0,1-1.826-3.968c.046-2.077.706-1.772,3.641-.373.386-5.219-.264-8.275,9.658-8.271a22.16,22.16,0,0,0,8.391-1.487c4.219-1.72,5.464-9.529.457-13.065" transform="translate(-822.507 -1477.016)" fill="#000446" fill-rule="evenodd"/>
      <path id="Trazado_196889" data-name="Trazado 196889" d="M815.83,1867.429c-2.138-4.748,1.447-20.7-8.807-12.531a45.558,45.558,0,0,0-3.779,5.132c-4.635,7.77-14.48,37.228-12.421,51.262.978,6.669,6.711,8,12.719,9.36,7.881,1.787,19.756,3.976,25.54,3.777,3.385-.117,6.113.016,7.44-.979,4.616-3.462-2.552-7.463-2.552-7.463s-25.418-10-28.291-11.476c-1.358-.8,11.838-33.339,10.153-37.081" transform="translate(-761.567 -1715.452)" fill="#2ec49f" fill-rule="evenodd"/>
      <path id="Trazado_196890" data-name="Trazado 196890" d="M1150.7,2297.225H1097.45v1.484a1.489,1.489,0,0,0,1.484,1.484h50.28a1.489,1.489,0,0,0,1.484-1.484Z" transform="translate(-1020.947 -2091.216)" fill="#12263f" fill-rule="evenodd"/>
      <path id="Trazado_196891" data-name="Trazado 196891" d="M1300.39,2098.113h-39.741c-1.567,0-2.557,1.326-2.849,2.883l-5.655,30.12h45.044l5.655-30.52a2.341,2.341,0,0,0-2.454-2.483" transform="translate(-1151.686 -1922.938)" fill="#12263f" fill-rule="evenodd"/>
      <path id="Trazado_196892" data-name="Trazado 196892" d="M1310.074,2098.113h-39.741c-1.568,0-2.556,1.326-2.849,2.883l-5.079,26.961h-.067l-.326,1.979a1.888,1.888,0,0,0,1.979,1.979h41.169a2.108,2.108,0,0,0,1.979-1.979l.243-1.625,5.146-27.716a2.341,2.341,0,0,0-2.454-2.483" transform="translate(-1160.009 -1922.938)" fill-rule="evenodd" fill="url(#linear-gradient)"/>
      <path id="Trazado_196893" data-name="Trazado 196893" d="M1424.905,2195.875a2.1,2.1,0,1,0,1.233,2.428,1.938,1.938,0,0,0-1.233-2.428" transform="translate(-1295.779 -2005.526)" fill="#edf8fd" fill-rule="evenodd"/>
      <path id="Trazado_196894" data-name="Trazado 196894" d="M1056.944,2278.249c6.229-.031,13.19.05,15.033-.029-1.824-5.434-8.316-7.226-13.436-6.93-1.229.84-2.477,5.211-1.6,6.958" transform="translate(-986.464 -2069.271)" fill="#f8b9be" fill-rule="evenodd"/>
      <path id="Trazado_196895" data-name="Trazado 196895" d="M2190.8,2148.051h35.411c2.457,0,4.467,2.933,4.467,6.518h0c0,3.585-2.01,6.518-4.467,6.518H2190.8c-2.457,0-4.467-2.933-4.467-6.518h0c0-3.585,2.01-6.518,4.467-6.518" transform="translate(-1941.207 -1965.143)" fill="#f7a12e" fill-rule="evenodd"/>
      <path id="Trazado_196896" data-name="Trazado 196896" d="M2257.224,2148.051h12.7c-2.457,0-4.468,2.933-4.468,6.518h0c0,3.585,2.01,6.518,4.468,6.518h-12.7c-2.457,0-4.468-2.933-4.468-6.518h0c0-3.585,2.01-6.518,4.468-6.518" transform="translate(-1997.345 -1965.143)" fill="#f48120" fill-rule="evenodd"/>
      <path id="Trazado_196897" data-name="Trazado 196897" d="M2422.038,2169.941h33.5a8.813,8.813,0,0,1,0-9.063h-33.5c-1.121,0-2.041,2.042-2.041,4.532s.92,4.532,2.042,4.532" transform="translate(-2138.686 -1975.984)" fill="#e5e6e7" fill-rule="evenodd"/>
      <path id="Trazado_196898" data-name="Trazado 196898" d="M2454.283,2165.585a9.167,9.167,0,0,1,1.252-4.707h-33.5c-1.121,0-2.041,2.042-2.041,4.531,0,.059,0,.117,0,.176Z" transform="translate(-2138.686 -1975.984)" fill="#d7d7d8" fill-rule="evenodd"/>
      <path id="Trazado_196899" data-name="Trazado 196899" d="M2448.979,2161.087h-34.656c-1.615,0-3.322-2.972-3.322-6.557s1.707-6.479,3.322-6.479h34.656l-.015,1.953-34.529.034c-1.121,0-2.041,2.042-2.041,4.532s.92,4.532,2.041,4.532l34.529-.033Z" transform="translate(-2131.083 -1965.143)" fill="#f48120" fill-rule="evenodd"/>
      <path id="Trazado_196900" data-name="Trazado 196900" d="M2437.324,2232.232H2400.3c-2.569,0-4.671,2.933-4.671,6.518h0c0,3.585,2.1,6.518,4.671,6.518h37.025c2.569,0,4.671-2.933,4.671-6.518h0c0-3.585-2.1-6.518-4.671-6.518" transform="translate(-2118.092 -2036.288)" fill-rule="evenodd" fill="url(#linear-gradient-4)"/>
      <path id="Trazado_196901" data-name="Trazado 196901" d="M2522.967,2232.232h-13.276c2.569,0,4.671,2.933,4.671,6.518h0c0,3.585-2.1,6.518-4.671,6.518h13.276c2.569,0,4.671-2.933,4.671-6.518h0c0-3.585-2.1-6.518-4.671-6.518" transform="translate(-2214.491 -2036.288)" fill-rule="evenodd" fill="url(#linear-gradient-5)"/>
      <path id="Trazado_196902" data-name="Trazado 196902" d="M2245.792,2254.124h-35.025a8.485,8.485,0,0,0,0-9.063h35.025c1.172,0,2.134,2.042,2.134,4.531s-.962,4.532-2.134,4.532" transform="translate(-1961.858 -2047.129)" fill="#e5e6e7" fill-rule="evenodd"/>
      <path id="Trazado_196903" data-name="Trazado 196903" d="M2212.075,2249.767a8.858,8.858,0,0,0-1.309-4.707h35.025c1.173,0,2.135,2.042,2.135,4.531,0,.059,0,.117,0,.176Z" transform="translate(-1961.857 -2047.129)" fill="#d7d7d8" fill-rule="evenodd"/>
      <path id="Trazado_196904" data-name="Trazado 196904" d="M2203.7,2245.268h36.236c1.688,0,3.474-2.972,3.474-6.557s-1.785-6.479-3.474-6.479H2203.7l.016,1.953,36.1.034c1.172,0,2.134,2.042,2.134,4.531s-.961,4.532-2.134,4.532l-36.1-.034Z" transform="translate(-1955.887 -2036.288)" fill-rule="evenodd" fill="url(#linear-gradient-5)"/>
      <path id="Trazado_196905" data-name="Trazado 196905" d="M2387.944,2257.9h-4.009c-1.538.807-1.094,4.007-2.007,6.1l2.368-1.73,1.718,1.62c1.332-1.9.569-5.142,1.93-5.993" transform="translate(-2106.513 -2057.984)" fill="#71bdf8" fill-rule="evenodd"/>
      <path id="Trazado_196906" data-name="Trazado 196906" d="M2457.39,2174.595h4.009c1.539.807,1.094,4.007,2.007,6.1l-2.368-1.73-1.718,1.619c-1.332-1.9-.57-5.142-1.93-5.992" transform="translate(-2170.289 -1987.576)" fill="#f48120" fill-rule="evenodd"/>
      <g id="Grupo_154593" data-name="Grupo 154593" transform="translate(214.25 56.683)">
        <path id="Trazado_68962" data-name="Trazado 68962" d="M547.372,358.186v-2.141l5.946-2.778v1.722l-4.644,2.126,4.644,2.126v1.721Z" transform="translate(-547.372 -349.463)" fill="#0470bf"/>
        <path id="Trazado_68963" data-name="Trazado 68963" d="M559.556,349.6h2l-5.57,13.858H554Z" transform="translate(-547.132 -349.596)" fill="#0470bf"/>
        <path id="Trazado_68964" data-name="Trazado 68964" d="M562.012,360.963v-1.721l4.629-2.126-4.629-2.126v-1.722l5.946,2.778v2.141Z" transform="translate(-546.841 -349.463)" fill="#0470bf"/>
      </g>
    </g>
  </g>
</svg>
