<svg xmlns="http://www.w3.org/2000/svg" width="313.33" height="264.882" viewBox="0 0 313.33 264.882">
  <g id="Grupo_1071897" data-name="Grupo 1071897" transform="translate(-4923.887 9972.063)">
    <path id="Trazado_197174" data-name="Trazado 197174" d="M7627.948,4984.28q.016,48.288.006,96.575c-.009,18.4-6.4,24.934-24.476,24.977-16.691.04-33.384.119-50.075-.021-14.455-.123-22.14-7.659-22.16-22.094q-.139-99.7.006-199.408c.019-14.375,7.886-22.251,21.991-22.345q26.376-.177,52.756,0c14.654.091,21.853,7.287,21.9,22.165C7628.018,4917.513,7627.938,4950.9,7627.948,4984.28Zm-10.691.35q0-49.619-.022-99.238c-.018-10.056-2.7-12.762-12.68-12.817q-24.584-.137-49.171-.009c-10.4.041-13.461,2.91-13.469,13.151q-.084,98.343.021,196.686c.012,9.811,3.021,12.66,12.91,12.715q24.586.138,49.171.007c10.99-.048,13.192-2.192,13.212-13.046Q7617.315,5033.354,7617.257,4984.63Z" transform="translate(-2607.291 -14833.941)" fill="#12263f"/>
    <path id="Trazado_197176" data-name="Trazado 197176" d="M7583.532,5095.684c6.837,0,13.708-.391,20.49.217,2.22.2,4.208,2.991,6.3,4.6-2.108,1.911-4.164,5.4-6.335,5.477-14.549.493-29.127.463-43.679.026-2.01-.061-3.924-3.3-5.883-5.072,1.974-1.748,3.841-4.835,5.94-5C7568.046,5095.322,7575.8,5095.688,7583.532,5095.684Z" transform="translate(-2609.887 -14860.027)" fill="#12263f"/>
    <path id="Trazado_197177" data-name="Trazado 197177" d="M7581.785,5071.491c7.434,0,14.9-.364,22.284.22,2.194.174,4.179,3.006,6.261,4.621-2.124,1.905-4.193,5.388-6.378,5.462-14.554.491-29.138.458-43.7.015-1.992-.061-3.888-3.343-5.828-5.133,1.983-1.727,3.85-4.755,5.969-4.943C7567.477,5071.1,7574.648,5071.495,7581.785,5071.491Z" transform="translate(-2609.886 -14857.328)" fill="#12263f"/>
    <path id="Trazado_197178" data-name="Trazado 197178" d="M7581.993,5033.692c-6.84-.006-13.724.44-20.494-.24-2.485-.25-4.7-3.164-7.042-4.863,2.168-1.827,4.285-5.16,6.511-5.235q21.385-.713,42.8.01c2.238.074,4.369,3.354,6.549,5.149-2.306,1.729-4.492,4.714-6.94,4.948C7596.306,5034.133,7589.129,5033.7,7581.993,5033.692Z" transform="translate(-2609.889 -14851.928)" fill="#12263f"/>
    <path id="Trazado_197179" data-name="Trazado 197179" d="M7583.084,5047.283c6.837,0,13.72-.452,20.487.237,2.4.245,4.507,3.265,6.75,5.016-2.255,1.776-4.462,5.011-6.773,5.087q-21.379.712-42.789-.021c-2.171-.077-4.219-3.6-6.325-5.535,2.118-1.592,4.142-4.385,6.371-4.561C7568.193,5046.925,7575.652,5047.287,7583.084,5047.283Z" transform="translate(-2609.887 -14854.622)" fill="#12263f"/>
    <path id="Trazado_777501" data-name="Trazado 777501" d="M15.991,0A15.991,15.991,0,1,1,0,15.991,15.991,15.991,0,0,1,15.991,0Z" transform="translate(4945.021 -9949.77)" fill="#12263f"/>
    <path id="Trazado_777502" data-name="Trazado 777502" d="M8.884,0A8.884,8.884,0,1,1,0,8.884,8.884,8.884,0,0,1,8.884,0Z" transform="translate(4952.128 -9942.662)" fill="#f6f6f6"/>
    <path id="Trazado_197171" data-name="Trazado 197171" d="M7472.531,4847.77v-6.05c-4.617,0-9.016-.088-13.407.03-3.052.083-4.176-1.188-4.154-4.235q.145-21.1.008-42.192c-.019-3.027,1.14-4.3,4.163-4.3q28.646.065,57.293,0c3.052,0,4.2,1.487,4.191,4.4q-.059,21.1,0,42.194c.011,3.057-1.371,4.222-4.345,4.139-4.266-.118-8.538-.03-13.138-.03v6.038c4.356,0,8.756.083,13.149-.029,2.99-.077,4.39,1.142,4.324,4.177-.079,3.551,0,7.105-.023,10.659-.013,2.533-1.238,3.741-3.851,3.737q-29.091-.053-58.182-.005c-2.729,0-3.626-1.35-3.568-3.875.081-3.552.123-7.111-.013-10.658-.121-3.183,1.43-4.122,4.352-4.033C7463.6,4847.867,7467.867,4847.77,7472.531,4847.77Zm-12-11.709h54.75c0-12.594-.022-24.846.015-37.1.009-3.092-2.169-2.609-4.03-2.61q-21.751-.027-43.5-.011h-7.23Zm54.424,17.262h-54.286v7.351h54.286Zm-36.736-5.883h20.357c-1.375-2.458-2.168-5.373-3.189-5.454-5.652-.453-11.358-.217-17.168-.217Z" transform="translate(-2359.813 -14616.193)" fill="#12263f"/>
    <path id="Trazado_197172" data-name="Trazado 197172" d="M7491.99,4808.212a29.575,29.575,0,0,1-2.257,2.976c-4.975,5.032-9.893,10.131-15.091,14.925-1.03.95-3.194.668-4.834.955.35-1.532.207-3.525,1.135-4.518,4.931-5.273,10.071-10.356,15.291-15.346a6.25,6.25,0,0,1,3.841-1.281C7490.635,4805.9,7491.249,4807.279,7491.99,4808.212Z" transform="translate(-2361.469 -14617.856)" fill="#12263f"/>
    <path id="Trazado_197173" data-name="Trazado 197173" d="M7478.785,4801.7c.569.394,1.7.767,1.846,1.371.232,1,.216,2.51-.388,3.163-3.3,3.563-6.73,7.02-10.326,10.283a3.779,3.779,0,0,1-3.436.141c-.6-.3-1.074-2.474-.653-2.929,3.685-3.994,7.575-7.8,11.441-11.622C7477.535,4801.847,7478.094,4801.878,7478.785,4801.7Z" transform="translate(-2361.006 -14617.385)" fill="#12263f"/>
    <path id="Trazado_197171-2" data-name="Trazado 197171" d="M7472.531,4847.77v-6.05c-4.617,0-9.016-.088-13.407.03-3.052.083-4.176-1.188-4.154-4.235q.145-21.1.008-42.192c-.019-3.027,1.14-4.3,4.163-4.3q28.646.065,57.293,0c3.052,0,4.2,1.487,4.191,4.4q-.059,21.1,0,42.194c.011,3.057-1.371,4.222-4.345,4.139-4.266-.118-8.538-.03-13.138-.03v6.038c4.356,0,8.756.083,13.149-.029,2.99-.077,4.39,1.142,4.324,4.177-.079,3.551,0,7.105-.023,10.659-.013,2.533-1.238,3.741-3.851,3.737q-29.091-.053-58.182-.005c-2.729,0-3.626-1.35-3.568-3.875.081-3.552.123-7.111-.013-10.658-.121-3.183,1.43-4.122,4.352-4.033C7463.6,4847.867,7467.867,4847.77,7472.531,4847.77Zm-12-11.709h54.75c0-12.594-.022-24.846.015-37.1.009-3.092-2.169-2.609-4.03-2.61q-21.751-.027-43.5-.011h-7.23Zm54.424,17.262h-54.286v7.351h54.286Zm-36.736-5.883h20.357c-1.375-2.458-2.168-5.373-3.189-5.454-5.652-.453-11.358-.217-17.168-.217Z" transform="translate(-2359.813 -14726.75)" fill="#12263f"/>
    <path id="Trazado_197172-2" data-name="Trazado 197172" d="M7491.99,4808.212a29.575,29.575,0,0,1-2.257,2.976c-4.975,5.032-9.893,10.131-15.091,14.925-1.03.95-3.194.668-4.834.955.35-1.532.207-3.525,1.135-4.518,4.931-5.273,10.071-10.356,15.291-15.346a6.25,6.25,0,0,1,3.841-1.281C7490.635,4805.9,7491.249,4807.279,7491.99,4808.212Z" transform="translate(-2361.469 -14728.413)" fill="#12263f"/>
    <path id="Trazado_197173-2" data-name="Trazado 197173" d="M7478.785,4801.7c.569.394,1.7.767,1.846,1.371.232,1,.216,2.51-.388,3.163-3.3,3.563-6.73,7.02-10.326,10.283a3.779,3.779,0,0,1-3.436.141c-.6-.3-1.074-2.474-.653-2.929,3.685-3.994,7.575-7.8,11.441-11.622C7477.535,4801.847,7478.094,4801.878,7478.785,4801.7Z" transform="translate(-2361.006 -14727.941)" fill="#12263f"/>
    <path id="Trazado_197171-3" data-name="Trazado 197171" d="M7472.531,4847.77v-6.05c-4.617,0-9.016-.088-13.407.03-3.052.083-4.176-1.188-4.154-4.235q.145-21.1.008-42.192c-.019-3.027,1.14-4.3,4.163-4.3q28.646.065,57.293,0c3.052,0,4.2,1.487,4.191,4.4q-.059,21.1,0,42.194c.011,3.057-1.371,4.222-4.345,4.139-4.266-.118-8.538-.03-13.138-.03v6.038c4.356,0,8.756.083,13.149-.029,2.99-.077,4.39,1.142,4.324,4.177-.079,3.551,0,7.105-.023,10.659-.013,2.533-1.238,3.741-3.851,3.737q-29.091-.053-58.182-.005c-2.729,0-3.626-1.35-3.568-3.875.081-3.552.123-7.111-.013-10.658-.121-3.183,1.43-4.122,4.352-4.033C7463.6,4847.867,7467.867,4847.77,7472.531,4847.77Zm-12-11.709h54.75c0-12.594-.022-24.846.015-37.1.009-3.092-2.169-2.609-4.03-2.61q-21.751-.027-43.5-.011h-7.23Zm54.424,17.262h-54.286v7.351h54.286Zm-36.736-5.883h20.357c-1.375-2.458-2.168-5.373-3.189-5.454-5.652-.453-11.358-.217-17.168-.217Z" transform="translate(-2283.413 -14616.193)" fill="#12263f"/>
    <path id="Trazado_197172-3" data-name="Trazado 197172" d="M7491.99,4808.212a29.575,29.575,0,0,1-2.257,2.976c-4.975,5.032-9.893,10.131-15.091,14.925-1.03.95-3.194.668-4.834.955.35-1.532.207-3.525,1.135-4.518,4.931-5.273,10.071-10.356,15.291-15.346a6.25,6.25,0,0,1,3.841-1.281C7490.635,4805.9,7491.249,4807.279,7491.99,4808.212Z" transform="translate(-2285.069 -14617.856)" fill="#12263f"/>
    <path id="Trazado_197173-3" data-name="Trazado 197173" d="M7478.785,4801.7c.569.394,1.7.767,1.846,1.371.232,1,.216,2.51-.388,3.163-3.3,3.563-6.73,7.02-10.326,10.283a3.779,3.779,0,0,1-3.436.141c-.6-.3-1.074-2.474-.653-2.929,3.685-3.994,7.575-7.8,11.441-11.622C7477.535,4801.847,7478.094,4801.878,7478.785,4801.7Z" transform="translate(-2284.606 -14617.385)" fill="#12263f"/>
    <path id="Trazado_197171-4" data-name="Trazado 197171" d="M7472.531,4847.77v-6.05c-4.617,0-9.016-.088-13.407.03-3.052.083-4.176-1.188-4.154-4.235q.145-21.1.008-42.192c-.019-3.027,1.14-4.3,4.163-4.3q28.646.065,57.293,0c3.052,0,4.2,1.487,4.191,4.4q-.059,21.1,0,42.194c.011,3.057-1.371,4.222-4.345,4.139-4.266-.118-8.538-.03-13.138-.03v6.038c4.356,0,8.756.083,13.149-.029,2.99-.077,4.39,1.142,4.324,4.177-.079,3.551,0,7.105-.023,10.659-.013,2.533-1.238,3.741-3.851,3.737q-29.091-.053-58.182-.005c-2.729,0-3.626-1.35-3.568-3.875.081-3.552.123-7.111-.013-10.658-.121-3.183,1.43-4.122,4.352-4.033C7463.6,4847.867,7467.867,4847.77,7472.531,4847.77Zm-12-11.709h54.75c0-12.594-.022-24.846.015-37.1.009-3.092-2.169-2.609-4.03-2.61q-21.751-.027-43.5-.011h-7.23Zm54.424,17.262h-54.286v7.351h54.286Zm-36.736-5.883h20.357c-1.375-2.458-2.168-5.373-3.189-5.454-5.652-.453-11.358-.217-17.168-.217Z" transform="translate(-2283.413 -14726.75)" fill="#12263f"/>
    <path id="Trazado_197172-4" data-name="Trazado 197172" d="M7491.99,4808.212a29.575,29.575,0,0,1-2.257,2.976c-4.975,5.032-9.893,10.131-15.091,14.925-1.03.95-3.194.668-4.834.955.35-1.532.207-3.525,1.135-4.518,4.931-5.273,10.071-10.356,15.291-15.346a6.25,6.25,0,0,1,3.841-1.281C7490.635,4805.9,7491.249,4807.279,7491.99,4808.212Z" transform="translate(-2285.069 -14728.413)" fill="#12263f"/>
    <path id="Trazado_197173-4" data-name="Trazado 197173" d="M7478.785,4801.7c.569.394,1.7.767,1.846,1.371.232,1,.216,2.51-.388,3.163-3.3,3.563-6.73,7.02-10.326,10.283a3.779,3.779,0,0,1-3.436.141c-.6-.3-1.074-2.474-.653-2.929,3.685-3.994,7.575-7.8,11.441-11.622C7477.535,4801.847,7478.094,4801.878,7478.785,4801.7Z" transform="translate(-2284.606 -14727.941)" fill="#12263f"/>
    <path id="Trazado_777495" data-name="Trazado 777495" d="M9.156,0H6.938L3.773-7.586,2.453,0H.164L2.141-11.375H4.352l3.172,7.6,1.32-7.6h2.281Zm6.8,0a2.281,2.281,0,0,1-.086-.766,2.863,2.863,0,0,1-2.156.922,2.594,2.594,0,0,1-1.84-.723,2.186,2.186,0,0,1-.684-1.746,2.527,2.527,0,0,1,1.16-2.121,5.266,5.266,0,0,1,2.965-.738l1.031.016.109-.508a1.764,1.764,0,0,0,.023-.492A.846.846,0,0,0,16.2-6.73a.955.955,0,0,0-.629-.215,1.345,1.345,0,0,0-.875.254,1.231,1.231,0,0,0-.461.777l-2.211.008a2.457,2.457,0,0,1,1.113-1.965,4.312,4.312,0,0,1,2.613-.738A3.117,3.117,0,0,1,18-7.754a2.5,2.5,0,0,1,.68,2.121l-.648,4.047-.039.5a2.412,2.412,0,0,0,.133.938L18.117,0Zm-1.7-1.555a2.017,2.017,0,0,0,1.664-.828L16.2-3.844l-.766-.008a2.139,2.139,0,0,0-1.758.742,1.292,1.292,0,0,0-.242.633.75.75,0,0,0,.176.668A.891.891,0,0,0,14.258-1.555Zm10.1-.828q.125-.625-.867-.906l-.711-.18q-2.523-.7-2.453-2.453a2.428,2.428,0,0,1,1.059-1.949,3.942,3.942,0,0,1,2.457-.738,3.536,3.536,0,0,1,2.313.758,2.5,2.5,0,0,1,.9,1.977l-2.187-.008a.963.963,0,0,0-1.078-1.1,1.551,1.551,0,0,0-.895.258,1.061,1.061,0,0,0-.465.7q-.117.625.945.883l.313.07a6.285,6.285,0,0,1,1.648.59,2.488,2.488,0,0,1,.879.824,2.04,2.04,0,0,1,.285,1.18,2.251,2.251,0,0,1-.52,1.406,3.18,3.18,0,0,1-1.359.93,4.736,4.736,0,0,1-1.816.3,3.568,3.568,0,0,1-2.344-.809A2.607,2.607,0,0,1,19.508-2.7l2.078.016a1.142,1.142,0,0,0,1.3,1.227,1.845,1.845,0,0,0,1-.25A.987.987,0,0,0,24.359-2.383Zm13.5-.656q.164-.93-.914-1.422l-1.508-.6q-2.625-1.172-2.492-3.227a2.964,2.964,0,0,1,.625-1.687,3.758,3.758,0,0,1,1.6-1.152,5.67,5.67,0,0,1,2.227-.4,3.857,3.857,0,0,1,2.664.98,3.267,3.267,0,0,1,1,2.543H38.781a1.628,1.628,0,0,0-.34-1.2,1.531,1.531,0,0,0-1.176-.445,2.37,2.37,0,0,0-1.359.355,1.458,1.458,0,0,0-.687,1.02q-.148.852,1.141,1.352l1.031.391.594.273q2.3,1.141,2.156,3.2A3.09,3.09,0,0,1,39.5-1.324,3.633,3.633,0,0,1,37.934-.2a5.565,5.565,0,0,1-2.176.367A4.873,4.873,0,0,1,33.6-.344a3.349,3.349,0,0,1-1.437-1.367,3.54,3.54,0,0,1-.43-1.875l2.289.008q-.109,1.852,1.82,1.883a2.392,2.392,0,0,0,1.375-.367A1.43,1.43,0,0,0,37.859-3.039Zm7.234,3.2a3.677,3.677,0,0,1-1.965-.543,3.292,3.292,0,0,1-1.277-1.469,4.093,4.093,0,0,1-.328-2.059l.023-.312a5.465,5.465,0,0,1,.719-2.266,4.341,4.341,0,0,1,1.547-1.59,3.827,3.827,0,0,1,2.094-.527,2.924,2.924,0,0,1,2.473,1.2,4.117,4.117,0,0,1,.637,2.962l-.125.962h-5.18a1.814,1.814,0,0,0,.4,1.313,1.521,1.521,0,0,0,1.172.508A2.7,2.7,0,0,0,47.391-2.6L48.4-1.352A3.135,3.135,0,0,1,47.023-.23,4.5,4.5,0,0,1,45.094.156Zm.7-6.945a1.565,1.565,0,0,0-1.082.383,3.363,3.363,0,0,0-.848,1.383H46.9l.047-.2a2.071,2.071,0,0,0,.008-.594,1.134,1.134,0,0,0-.383-.707A1.2,1.2,0,0,0,45.8-6.789Zm9.539.453a4.548,4.548,0,0,0-.742-.078,2.136,2.136,0,0,0-1.867.883L51.75,0h-2.2l1.469-8.453,2.07-.008-.2,1.031a2.325,2.325,0,0,1,1.969-1.2,3.214,3.214,0,0,1,.766.109Zm3.648,3.547,2.406-5.664h2.375L59.68,0H57.57L56.125-8.453h2.234ZM67.367.156A3.677,3.677,0,0,1,65.4-.387a3.292,3.292,0,0,1-1.277-1.469A4.093,4.093,0,0,1,63.8-3.914l.023-.312a5.465,5.465,0,0,1,.719-2.266,4.341,4.341,0,0,1,1.547-1.59,3.827,3.827,0,0,1,2.094-.527,2.924,2.924,0,0,1,2.473,1.2,4.117,4.117,0,0,1,.637,2.962l-.125.962h-5.18a1.814,1.814,0,0,0,.4,1.313,1.521,1.521,0,0,0,1.172.508A2.7,2.7,0,0,0,69.664-2.6l1.008,1.25A3.135,3.135,0,0,1,69.3-.23,4.5,4.5,0,0,1,67.367.156Zm.7-6.945a1.565,1.565,0,0,0-1.082.383,3.363,3.363,0,0,0-.848,1.383h3.031l.047-.2a2.071,2.071,0,0,0,.008-.594,1.134,1.134,0,0,0-.383-.707A1.2,1.2,0,0,0,68.07-6.789Zm9.539.453a4.548,4.548,0,0,0-.742-.078A2.136,2.136,0,0,0,75-5.531L74.023,0h-2.2l1.469-8.453,2.07-.008-.2,1.031a2.325,2.325,0,0,1,1.969-1.2,3.214,3.214,0,0,1,.766.109Z" transform="translate(4929.031 -9707.346)" fill="#12263f"/>
    <path id="Trazado_777496" data-name="Trazado 777496" d="M6.233-4.005H2.691L2.26-1.53H6.424L6.157,0H.133L1.739-9.242H7.75L7.478-7.7H3.333L2.945-5.5H6.5ZM10.8-8.557l-.3,1.688h1.143l-.235,1.346H10.271l-.584,3.44a.875.875,0,0,0,.051.5q.089.171.432.184.1.006.546-.032l-.127,1.4A3.011,3.011,0,0,1,9.56.114,1.613,1.613,0,0,1,8.246-.438,2,2,0,0,1,7.89-1.9l.59-3.625H7.509l.235-1.346h.971l.292-1.688Zm3.421,2.45A2.394,2.394,0,0,1,16.085-7a1.741,1.741,0,0,1,1.5.733,2.882,2.882,0,0,1,.359,1.933L17.221,0h-1.79l.73-4.353a2.11,2.11,0,0,0,.013-.458.719.719,0,0,0-.8-.705,1.546,1.546,0,0,0-1.27.623L13.241,0h-1.79L13.14-9.75h1.8ZM21.88.127a2.988,2.988,0,0,1-1.6-.441,2.675,2.675,0,0,1-1.038-1.193,3.326,3.326,0,0,1-.267-1.673L19-3.434a4.44,4.44,0,0,1,.584-1.841,3.527,3.527,0,0,1,1.257-1.292A3.11,3.11,0,0,1,22.541-7a2.376,2.376,0,0,1,2.009.976,3.345,3.345,0,0,1,.517,2.406l-.1.782H20.757a1.474,1.474,0,0,0,.324,1.066,1.236,1.236,0,0,0,.952.413,2.2,2.2,0,0,0,1.714-.762L24.565-1.1a2.547,2.547,0,0,1-1.117.911A3.653,3.653,0,0,1,21.88.127Zm.571-5.643a1.272,1.272,0,0,0-.879.311,2.733,2.733,0,0,0-.689,1.124h2.463l.038-.165a1.682,1.682,0,0,0,.006-.482A.921.921,0,0,0,23.08-5.3.975.975,0,0,0,22.452-5.516Zm7.75.368a3.7,3.7,0,0,0-.6-.063,1.735,1.735,0,0,0-1.517.717L27.289,0H25.5l1.193-6.868,1.682-.006-.165.838a1.889,1.889,0,0,1,1.6-.971,2.611,2.611,0,0,1,.622.089ZM33-6.875l-.152.813a2.471,2.471,0,0,1,2-.933,1.648,1.648,0,0,1,1.435.711,2.865,2.865,0,0,1,.336,1.917L35.89,0H34.1l.736-4.386a2.054,2.054,0,0,0,.013-.451.727.727,0,0,0-.812-.667,1.541,1.541,0,0,0-1.263.654L31.916,0h-1.79l1.193-6.868Zm7.56,7a2.988,2.988,0,0,1-1.6-.441,2.675,2.675,0,0,1-1.038-1.193,3.326,3.326,0,0,1-.267-1.673l.019-.254a4.44,4.44,0,0,1,.584-1.841,3.527,3.527,0,0,1,1.257-1.292A3.11,3.11,0,0,1,41.215-7a2.376,2.376,0,0,1,2.009.976,3.345,3.345,0,0,1,.517,2.406l-.1.782H39.432a1.474,1.474,0,0,0,.324,1.066,1.236,1.236,0,0,0,.952.413,2.2,2.2,0,0,0,1.714-.762L43.24-1.1a2.547,2.547,0,0,1-1.117.911A3.653,3.653,0,0,1,40.555.127Zm.571-5.643a1.272,1.272,0,0,0-.879.311,2.733,2.733,0,0,0-.689,1.124h2.463l.038-.165a1.682,1.682,0,0,0,.006-.482.921.921,0,0,0-.311-.574A.975.975,0,0,0,41.126-5.516ZM47.8-8.557l-.3,1.688h1.143l-.235,1.346H47.271l-.584,3.44a.875.875,0,0,0,.051.5q.089.171.432.184.1.006.546-.032l-.127,1.4A3.011,3.011,0,0,1,46.56.114a1.613,1.613,0,0,1-1.314-.552,2,2,0,0,1-.355-1.46l.59-3.625H44.51l.235-1.346h.971l.292-1.688Z" transform="translate(5031.193 -9808.066)" fill="#12263f"/>
    <path id="Trazado_777497" data-name="Trazado 777497" d="M9.438-3.8a4.254,4.254,0,0,1-.8,2.09,4.375,4.375,0,0,1-1.75,1.4A5.329,5.329,0,0,1,4.555.156a3.936,3.936,0,0,1-1.961-.52A3.443,3.443,0,0,1,1.277-1.8,5.312,5.312,0,0,1,.734-3.969a10.634,10.634,0,0,1,.2-2.391A7.578,7.578,0,0,1,1.84-8.9a5.666,5.666,0,0,1,1.551-1.758,4.679,4.679,0,0,1,2.891-.875,3.839,3.839,0,0,1,2.8,1.09A4.384,4.384,0,0,1,10.219-7.5L7.938-7.508a2.391,2.391,0,0,0-.43-1.578,1.752,1.752,0,0,0-1.336-.531,2.319,2.319,0,0,0-1.926.836A5.027,5.027,0,0,0,3.234-6.227a14.155,14.155,0,0,0-.219,2.445,2.434,2.434,0,0,0,.461,1.52,1.543,1.543,0,0,0,1.18.512,2.356,2.356,0,0,0,1.676-.5,2.625,2.625,0,0,0,.832-1.535ZM12.586,0H10.367l2.086-12h2.211Zm4.2,0H14.563l1.469-8.453H18.25Zm-.492-10.6a1.1,1.1,0,0,1,.344-.867,1.209,1.209,0,0,1,.867-.344,1.215,1.215,0,0,1,.867.3,1.1,1.1,0,0,1,.383.828,1.132,1.132,0,0,1-.324.844,1.215,1.215,0,0,1-.887.375,1.235,1.235,0,0,1-.863-.3A1.091,1.091,0,0,1,16.289-10.6ZM22.664.156A3.677,3.677,0,0,1,20.7-.387a3.292,3.292,0,0,1-1.277-1.469,4.093,4.093,0,0,1-.328-2.059l.023-.312a5.465,5.465,0,0,1,.719-2.266,4.341,4.341,0,0,1,1.547-1.59,3.827,3.827,0,0,1,2.094-.527,2.924,2.924,0,0,1,2.473,1.2,4.117,4.117,0,0,1,.637,2.962l-.125.962h-5.18a1.814,1.814,0,0,0,.4,1.313,1.521,1.521,0,0,0,1.172.508A2.7,2.7,0,0,0,24.961-2.6l1.008,1.25A3.135,3.135,0,0,1,24.594-.23,4.5,4.5,0,0,1,22.664.156Zm.7-6.945a1.565,1.565,0,0,0-1.082.383,3.363,3.363,0,0,0-.848,1.383h3.031l.047-.2a2.071,2.071,0,0,0,.008-.594,1.134,1.134,0,0,0-.383-.707A1.2,1.2,0,0,0,23.367-6.789ZM30.6-8.461l-.187,1a3.042,3.042,0,0,1,2.461-1.148,2.028,2.028,0,0,1,1.766.875,3.526,3.526,0,0,1,.414,2.359L34.164,0h-2.2l.906-5.4a2.528,2.528,0,0,0,.016-.555.9.9,0,0,0-1-.82,1.9,1.9,0,0,0-1.555.8L29.273,0h-2.2l1.469-8.453Zm9.758-2.07-.367,2.078H41.4L41.109-6.8H39.7l-.719,4.234a1.077,1.077,0,0,0,.063.609q.109.211.531.227.125.008.672-.039L40.094-.039a3.706,3.706,0,0,1-1.266.18,1.985,1.985,0,0,1-1.617-.68,2.456,2.456,0,0,1-.437-1.8L37.5-6.8H36.3l.289-1.656h1.2l.359-2.078Z" transform="translate(5104.928 -9728.667)" fill="#12263f"/>
    <path id="Trazado_777498" data-name="Trazado 777498" d="M9.438-3.8a4.254,4.254,0,0,1-.8,2.09,4.375,4.375,0,0,1-1.75,1.4A5.329,5.329,0,0,1,4.555.156a3.936,3.936,0,0,1-1.961-.52A3.443,3.443,0,0,1,1.277-1.8,5.312,5.312,0,0,1,.734-3.969a10.634,10.634,0,0,1,.2-2.391A7.578,7.578,0,0,1,1.84-8.9a5.666,5.666,0,0,1,1.551-1.758,4.679,4.679,0,0,1,2.891-.875,3.839,3.839,0,0,1,2.8,1.09A4.384,4.384,0,0,1,10.219-7.5L7.938-7.508a2.391,2.391,0,0,0-.43-1.578,1.752,1.752,0,0,0-1.336-.531,2.319,2.319,0,0,0-1.926.836A5.027,5.027,0,0,0,3.234-6.227a14.155,14.155,0,0,0-.219,2.445,2.434,2.434,0,0,0,.461,1.52,1.543,1.543,0,0,0,1.18.512,2.356,2.356,0,0,0,1.676-.5,2.625,2.625,0,0,0,.832-1.535ZM12.586,0H10.367l2.086-12h2.211Zm4.2,0H14.563l1.469-8.453H18.25Zm-.492-10.6a1.1,1.1,0,0,1,.344-.867,1.209,1.209,0,0,1,.867-.344,1.215,1.215,0,0,1,.867.3,1.1,1.1,0,0,1,.383.828,1.132,1.132,0,0,1-.324.844,1.215,1.215,0,0,1-.887.375,1.235,1.235,0,0,1-.863-.3A1.091,1.091,0,0,1,16.289-10.6ZM22.664.156A3.677,3.677,0,0,1,20.7-.387a3.292,3.292,0,0,1-1.277-1.469,4.093,4.093,0,0,1-.328-2.059l.023-.312a5.465,5.465,0,0,1,.719-2.266,4.341,4.341,0,0,1,1.547-1.59,3.827,3.827,0,0,1,2.094-.527,2.924,2.924,0,0,1,2.473,1.2,4.117,4.117,0,0,1,.637,2.962l-.125.962h-5.18a1.814,1.814,0,0,0,.4,1.313,1.521,1.521,0,0,0,1.172.508A2.7,2.7,0,0,0,24.961-2.6l1.008,1.25A3.135,3.135,0,0,1,24.594-.23,4.5,4.5,0,0,1,22.664.156Zm.7-6.945a1.565,1.565,0,0,0-1.082.383,3.363,3.363,0,0,0-.848,1.383h3.031l.047-.2a2.071,2.071,0,0,0,.008-.594,1.134,1.134,0,0,0-.383-.707A1.2,1.2,0,0,0,23.367-6.789ZM30.6-8.461l-.187,1a3.042,3.042,0,0,1,2.461-1.148,2.028,2.028,0,0,1,1.766.875,3.526,3.526,0,0,1,.414,2.359L34.164,0h-2.2l.906-5.4a2.528,2.528,0,0,0,.016-.555.9.9,0,0,0-1-.82,1.9,1.9,0,0,0-1.555.8L29.273,0h-2.2l1.469-8.453Zm9.758-2.07-.367,2.078H41.4L41.109-6.8H39.7l-.719,4.234a1.077,1.077,0,0,0,.063.609q.109.211.531.227.125.008.672-.039L40.094-.039a3.706,3.706,0,0,1-1.266.18,1.985,1.985,0,0,1-1.617-.68,2.456,2.456,0,0,1-.437-1.8L37.5-6.8H36.3l.289-1.656h1.2l.359-2.078Z" transform="translate(5104.928 -9842.379)" fill="#12263f"/>
    <path id="Trazado_777499" data-name="Trazado 777499" d="M9.438-3.8a4.254,4.254,0,0,1-.8,2.09,4.375,4.375,0,0,1-1.75,1.4A5.329,5.329,0,0,1,4.555.156a3.936,3.936,0,0,1-1.961-.52A3.443,3.443,0,0,1,1.277-1.8,5.312,5.312,0,0,1,.734-3.969a10.634,10.634,0,0,1,.2-2.391A7.578,7.578,0,0,1,1.84-8.9a5.666,5.666,0,0,1,1.551-1.758,4.679,4.679,0,0,1,2.891-.875,3.839,3.839,0,0,1,2.8,1.09A4.384,4.384,0,0,1,10.219-7.5L7.938-7.508a2.391,2.391,0,0,0-.43-1.578,1.752,1.752,0,0,0-1.336-.531,2.319,2.319,0,0,0-1.926.836A5.027,5.027,0,0,0,3.234-6.227a14.155,14.155,0,0,0-.219,2.445,2.434,2.434,0,0,0,.461,1.52,1.543,1.543,0,0,0,1.18.512,2.356,2.356,0,0,0,1.676-.5,2.625,2.625,0,0,0,.832-1.535ZM12.586,0H10.367l2.086-12h2.211Zm4.2,0H14.563l1.469-8.453H18.25Zm-.492-10.6a1.1,1.1,0,0,1,.344-.867,1.209,1.209,0,0,1,.867-.344,1.215,1.215,0,0,1,.867.3,1.1,1.1,0,0,1,.383.828,1.132,1.132,0,0,1-.324.844,1.215,1.215,0,0,1-.887.375,1.235,1.235,0,0,1-.863-.3A1.091,1.091,0,0,1,16.289-10.6ZM22.664.156A3.677,3.677,0,0,1,20.7-.387a3.292,3.292,0,0,1-1.277-1.469,4.093,4.093,0,0,1-.328-2.059l.023-.312a5.465,5.465,0,0,1,.719-2.266,4.341,4.341,0,0,1,1.547-1.59,3.827,3.827,0,0,1,2.094-.527,2.924,2.924,0,0,1,2.473,1.2,4.117,4.117,0,0,1,.637,2.962l-.125.962h-5.18a1.814,1.814,0,0,0,.4,1.313,1.521,1.521,0,0,0,1.172.508A2.7,2.7,0,0,0,24.961-2.6l1.008,1.25A3.135,3.135,0,0,1,24.594-.23,4.5,4.5,0,0,1,22.664.156Zm.7-6.945a1.565,1.565,0,0,0-1.082.383,3.363,3.363,0,0,0-.848,1.383h3.031l.047-.2a2.071,2.071,0,0,0,.008-.594,1.134,1.134,0,0,0-.383-.707A1.2,1.2,0,0,0,23.367-6.789ZM30.6-8.461l-.187,1a3.042,3.042,0,0,1,2.461-1.148,2.028,2.028,0,0,1,1.766.875,3.526,3.526,0,0,1,.414,2.359L34.164,0h-2.2l.906-5.4a2.528,2.528,0,0,0,.016-.555.9.9,0,0,0-1-.82,1.9,1.9,0,0,0-1.555.8L29.273,0h-2.2l1.469-8.453Zm9.758-2.07-.367,2.078H41.4L41.109-6.8H39.7l-.719,4.234a1.077,1.077,0,0,0,.063.609q.109.211.531.227.125.008.672-.039L40.094-.039a3.706,3.706,0,0,1-1.266.18,1.985,1.985,0,0,1-1.617-.68,2.456,2.456,0,0,1-.437-1.8L37.5-6.8H36.3l.289-1.656h1.2l.359-2.078Z" transform="translate(5181.328 -9728.667)" fill="#12263f"/>
    <path id="Trazado_777500" data-name="Trazado 777500" d="M9.438-3.8a4.254,4.254,0,0,1-.8,2.09,4.375,4.375,0,0,1-1.75,1.4A5.329,5.329,0,0,1,4.555.156a3.936,3.936,0,0,1-1.961-.52A3.443,3.443,0,0,1,1.277-1.8,5.312,5.312,0,0,1,.734-3.969a10.634,10.634,0,0,1,.2-2.391A7.578,7.578,0,0,1,1.84-8.9a5.666,5.666,0,0,1,1.551-1.758,4.679,4.679,0,0,1,2.891-.875,3.839,3.839,0,0,1,2.8,1.09A4.384,4.384,0,0,1,10.219-7.5L7.938-7.508a2.391,2.391,0,0,0-.43-1.578,1.752,1.752,0,0,0-1.336-.531,2.319,2.319,0,0,0-1.926.836A5.027,5.027,0,0,0,3.234-6.227a14.155,14.155,0,0,0-.219,2.445,2.434,2.434,0,0,0,.461,1.52,1.543,1.543,0,0,0,1.18.512,2.356,2.356,0,0,0,1.676-.5,2.625,2.625,0,0,0,.832-1.535ZM12.586,0H10.367l2.086-12h2.211Zm4.2,0H14.563l1.469-8.453H18.25Zm-.492-10.6a1.1,1.1,0,0,1,.344-.867,1.209,1.209,0,0,1,.867-.344,1.215,1.215,0,0,1,.867.3,1.1,1.1,0,0,1,.383.828,1.132,1.132,0,0,1-.324.844,1.215,1.215,0,0,1-.887.375,1.235,1.235,0,0,1-.863-.3A1.091,1.091,0,0,1,16.289-10.6ZM22.664.156A3.677,3.677,0,0,1,20.7-.387a3.292,3.292,0,0,1-1.277-1.469,4.093,4.093,0,0,1-.328-2.059l.023-.312a5.465,5.465,0,0,1,.719-2.266,4.341,4.341,0,0,1,1.547-1.59,3.827,3.827,0,0,1,2.094-.527,2.924,2.924,0,0,1,2.473,1.2,4.117,4.117,0,0,1,.637,2.962l-.125.962h-5.18a1.814,1.814,0,0,0,.4,1.313,1.521,1.521,0,0,0,1.172.508A2.7,2.7,0,0,0,24.961-2.6l1.008,1.25A3.135,3.135,0,0,1,24.594-.23,4.5,4.5,0,0,1,22.664.156Zm.7-6.945a1.565,1.565,0,0,0-1.082.383,3.363,3.363,0,0,0-.848,1.383h3.031l.047-.2a2.071,2.071,0,0,0,.008-.594,1.134,1.134,0,0,0-.383-.707A1.2,1.2,0,0,0,23.367-6.789ZM30.6-8.461l-.187,1a3.042,3.042,0,0,1,2.461-1.148,2.028,2.028,0,0,1,1.766.875,3.526,3.526,0,0,1,.414,2.359L34.164,0h-2.2l.906-5.4a2.528,2.528,0,0,0,.016-.555.9.9,0,0,0-1-.82,1.9,1.9,0,0,0-1.555.8L29.273,0h-2.2l1.469-8.453Zm9.758-2.07-.367,2.078H41.4L41.109-6.8H39.7l-.719,4.234a1.077,1.077,0,0,0,.063.609q.109.211.531.227.125.008.672-.039L40.094-.039a3.706,3.706,0,0,1-1.266.18,1.985,1.985,0,0,1-1.617-.68,2.456,2.456,0,0,1-.437-1.8L37.5-6.8H36.3l.289-1.656h1.2l.359-2.078Z" transform="translate(5181.328 -9842.379)" fill="#12263f"/>
    <path id="Trazado_197180" data-name="Trazado 197180" d="M16.255,39.373c-2.222-3.859-4.271-7.417-6.564-11.4-1.8,1-3.4,1.942-5.049,2.8-2.943,1.537-4.764.516-4.636-2.7.336-8.409.882-16.813,1.5-25.208C1.709.148,3.424-.672,5.887.557c7.394,3.685,14.8,7.348,22.135,11.155,2.871,1.492,2.964,3.51.261,5.4-1.443,1.005-3.009,1.836-4.937,3l6.407,11.261a21.042,21.042,0,0,1,2.237-.977c2.138-.628,4.293-1.2,6.442-1.789.333,2.093,1.015,4.2.935,6.278-.269,6.935-.837,13.856-1.236,20.786-.219,3.83-1.984,4.572-5.254,2.907C25.912,55.022,18.879,51.6,11.942,48c-3.584-1.862-3.518-3.775.01-6.016C13.191,41.193,14.461,40.457,16.255,39.373ZM5.548,24.164c5.083-3.983,7.426-2.03,9.344,1.989,1.521,3.187,3.5,6.154,5.267,9.225,3.222,5.6,3.219,5.606-2.046,9.777l15.229,7.65V36.451c-5.778,1.819-5.776,1.818-9.135-4-1.476-2.557-2.968-5.1-4.443-7.663-3.437-5.963-3.434-5.964,1.5-10.532L6.562,6.866Z" transform="translate(5023.308 -9841.468) rotate(-60)" fill="#12263f"/>
  </g>
</svg>
