<svg xmlns="http://www.w3.org/2000/svg" width="707.362" height="286.149" viewBox="0 0 707.362 286.149">
  <g id="Grupo_1071898" data-name="Grupo 1071898" transform="translate(-5019 9191.668)">
    <path id="Trazado_197181" data-name="Trazado 197181" d="M7500.131,4651.683q-25,0-49.992,0c-8.228-.005-11.611-3.36-11.636-11.559-.026-8.441-.043-16.884,0-25.326.043-7.785,3.515-11.244,11.29-11.249q50.487-.024,100.972,0c7.8,0,11.2,3.437,11.225,11.233q.036,13.156-.008,26.313c-.034,6.919-3.634,10.555-10.545,10.571C7534.337,4651.707,7517.234,4651.68,7500.131,4651.683Zm-.143-3.966q25.49,0,50.981-.008c5.292-.007,7.087-1.839,7.1-7.126q.021-12.828,0-25.656c-.007-5.694-1.7-7.41-7.489-7.413q-50.489-.025-100.977,0c-5.265,0-7.106,1.852-7.128,7.144q-.052,12.828,0,25.656c.018,5.69,1.771,7.4,7.521,7.4Q7474.99,4647.731,7499.988,4647.717Z" transform="translate(-2311.779 -13671.158)" fill="#12263f"/>
    <path id="Trazado_197182" data-name="Trazado 197182" d="M7593.627,4634.943a8.022,8.022,0,1,1,8.072-8.054A7.834,7.834,0,0,1,7593.627,4634.943Zm4.151-7.866a4,4,0,0,0-4.008-4.22,3.805,3.805,0,0,0-4.127,3.744,3.98,3.98,0,0,0,3.807,4.4A4.074,4.074,0,0,0,7597.778,4627.077Z" transform="translate(-2362.104 -13676.412)" fill="#12263f"/>
    <path id="Trazado_197183" data-name="Trazado 197183" d="M7512.815,4633.036c0,3.6.141,7.218-.09,10.807-.064.99-1.234,1.909-1.9,2.86-.637-.953-1.8-1.895-1.824-2.861q-.235-10.808,0-21.622c.021-.964,1.2-1.9,1.836-2.854.658.952,1.821,1.872,1.885,2.863C7512.954,4625.818,7512.814,4629.432,7512.815,4633.036Z" transform="translate(-2335.854 -13676.571)" fill="#12263f"/>
    <path id="Trazado_197184" data-name="Trazado 197184" d="M7458.7,4633.013c0-3.606-.132-7.221.09-10.814.06-.981,1.192-1.9,1.832-2.841.666.954,1.888,1.894,1.911,2.863q.246,10.814,0,21.635c-.021.959-1.26,1.892-1.935,2.836-.634-.953-1.753-1.876-1.813-2.865C7458.561,4640.234,7458.694,4636.619,7458.7,4633.013Z" transform="translate(-2318.678 -13676.568)" fill="#12263f"/>
    <path id="Trazado_197185" data-name="Trazado 197185" d="M7479.206,4633.054c0,3.6.134,7.217-.09,10.808-.061.978-1.206,1.887-1.854,2.828-.668-.956-1.9-1.9-1.918-2.871q-.239-10.808.018-21.623c.023-.961,1.268-1.893,1.947-2.839.633.961,1.75,1.893,1.811,2.89C7479.341,4625.838,7479.207,4629.45,7479.206,4633.054Z" transform="translate(-2324.346 -13676.568)" fill="#12263f"/>
    <path id="Trazado_197186" data-name="Trazado 197186" d="M7495.974,4633.311c0,3.5.138,7-.085,10.489-.064,1-1.168,1.931-1.795,2.894-.674-.935-1.911-1.858-1.933-2.808q-.245-10.817,0-21.642c.022-.979,1.208-1.933,1.855-2.9.654.938,1.813,1.846,1.872,2.819C7496.106,4625.869,7495.973,4629.594,7495.974,4633.311Z" transform="translate(-2330.093 -13676.564)" fill="#12263f"/>
    <path id="Trazado_197187" data-name="Trazado 197187" d="M7971.394,4651.683q-25,0-49.993,0c-8.228-.005-11.61-3.36-11.636-11.559-.025-8.441-.043-16.884,0-25.326.044-7.785,3.515-11.244,11.29-11.249q50.486-.024,100.973,0c7.8,0,11.2,3.437,11.223,11.233q.037,13.156-.008,26.313c-.034,6.919-3.634,10.555-10.545,10.571C8005.6,4651.707,7988.5,4651.68,7971.394,4651.683Zm-.143-3.966q25.491,0,50.981-.008c5.292-.007,7.087-1.839,7.095-7.126q.021-12.828,0-25.656c-.007-5.694-1.7-7.41-7.488-7.413q-50.49-.025-100.977,0c-5.265,0-7.107,1.852-7.129,7.144q-.052,12.828,0,25.656c.017,5.69,1.77,7.4,7.52,7.4Q7946.253,4647.731,7971.25,4647.717Z" transform="translate(-2472.92 -13671.158)" fill="#12263f"/>
    <path id="Trazado_197188" data-name="Trazado 197188" d="M8064.889,4634.943a8.022,8.022,0,1,1,8.072-8.054A7.834,7.834,0,0,1,8064.889,4634.943Zm4.151-7.866a3.993,3.993,0,0,0-4.008-4.22,3.8,3.8,0,0,0-4.126,3.744,3.979,3.979,0,0,0,3.805,4.4A4.074,4.074,0,0,0,8069.04,4627.077Z" transform="translate(-2523.246 -13676.412)" fill="#12263f"/>
    <path id="Trazado_197189" data-name="Trazado 197189" d="M7984.078,4633.036c0,3.6.14,7.218-.091,10.807-.064.99-1.234,1.909-1.9,2.86-.636-.953-1.8-1.895-1.824-2.861q-.236-10.808,0-21.622c.021-.964,1.2-1.9,1.837-2.854.658.952,1.821,1.872,1.884,2.863C7984.216,4625.818,7984.077,4629.432,7984.078,4633.036Z" transform="translate(-2496.995 -13676.571)" fill="#12263f"/>
    <path id="Trazado_197190" data-name="Trazado 197190" d="M7929.958,4633.013c0-3.606-.133-7.221.089-10.814.06-.981,1.191-1.9,1.831-2.841.667.954,1.888,1.894,1.911,2.863q.246,10.814,0,21.635c-.022.959-1.26,1.892-1.935,2.836-.634-.953-1.754-1.876-1.814-2.865C7929.823,4640.234,7929.956,4636.619,7929.958,4633.013Z" transform="translate(-2479.819 -13676.568)" fill="#12263f"/>
    <path id="Trazado_197191" data-name="Trazado 197191" d="M7950.469,4633.054c0,3.6.134,7.217-.09,10.808-.061.978-1.206,1.887-1.853,2.828-.669-.956-1.9-1.9-1.918-2.871q-.238-10.808.018-21.623c.022-.961,1.268-1.893,1.947-2.839.632.961,1.75,1.893,1.811,2.89C7950.6,4625.838,7950.469,4629.45,7950.469,4633.054Z" transform="translate(-2485.487 -13676.568)" fill="#12263f"/>
    <path id="Trazado_197192" data-name="Trazado 197192" d="M7967.235,4633.311c0,3.5.138,7-.085,10.489-.063,1-1.167,1.931-1.794,2.894-.674-.935-1.911-1.858-1.933-2.808q-.245-10.817,0-21.642c.022-.979,1.208-1.933,1.855-2.9.653.938,1.813,1.846,1.872,2.819C7967.368,4625.869,7967.234,4629.594,7967.235,4633.311Z" transform="translate(-2491.234 -13676.564)" fill="#12263f"/>
    <path id="Trazado_197193" data-name="Trazado 197193" d="M7716.457,4646.845h-3.888q-28.79,0-57.579-.007c-8.836-.006-13.312-4.5-13.325-13.381q-.026-17.931,0-35.864c.013-8.542,4.691-13.243,13.2-13.244q68.109-.012,136.215,0c8.541,0,13.237,4.678,13.25,13.187q.027,18.1,0,36.193c-.011,8.544-4.63,13.1-13.274,13.107q-28.789.015-57.579.006h-3.739m-6.788-3.9q33.886,0,67.772,0c6.892,0,9.7-2.854,9.706-9.823q.008-17.766,0-35.531c-.011-6.227-3.074-9.32-9.277-9.322q-68.1-.021-136.2-.006c-6.26,0-9.345,3.049-9.357,9.23q-.037,17.93,0,35.861c.006,6.712,2.87,9.583,9.591,9.585Q7689.058,4642.949,7722.945,4642.941Zm2.369,4.108h-4.465" transform="translate(-2381.25 -13664.596)" fill="#12263f"/>
    <path id="Trazado_197194" data-name="Trazado 197194" d="M7751.9,4692.264h6.339" transform="translate(-2522.863 -13610.43)" fill="#12263f"/>
    <path id="Trazado_197195" data-name="Trazado 197195" d="M7769.129,4640.266c-8.549,0-17.1-.076-25.645.048-2.753.039-3.623-.983-3.59-3.664.114-9.315.1-18.632.006-27.947-.024-2.509.81-3.532,3.417-3.522q25.975.108,51.949.007c2.465-.01,3.227.979,3.206,3.34-.084,9.425-.125,18.853.017,28.275.043,2.859-1.121,3.535-3.713,3.5C7786.228,4640.2,7777.679,4640.264,7769.129,4640.266Zm-25.093-4.2h50.248v-26.751h-50.248Z" transform="translate(-2414.844 -13671.721)" fill="#12263f"/>
    <path id="Trazado_197196" data-name="Trazado 197196" d="M7719.95,4622.991c0-4.934-.1-9.87.091-14.8.038-.976,1.2-1.908,1.846-2.861.652.931,1.858,1.853,1.872,2.793q.212,14.631.01,29.266c-.013.958-1.187,1.9-1.822,2.851-.667-.928-1.872-1.833-1.911-2.787C7719.84,4632.643,7719.947,4627.814,7719.95,4622.991Z" transform="translate(-2408.013 -13671.773)" fill="#12263f"/>
    <path id="Trazado_197197" data-name="Trazado 197197" d="M7702.792,4622.454c0-4.714-.1-9.432.08-14.138.039-1.012,1.11-1.985,1.7-2.977.707,1,2.009,1.993,2.026,3q.231,14.466,0,28.937c-.015,1-1.334,1.981-2.047,2.97-.587-1-1.643-1.981-1.679-3C7702.7,4632.323,7702.792,4627.387,7702.792,4622.454Z" transform="translate(-2402.147 -13671.775)" fill="#12263f"/>
    <path id="Trazado_197198" data-name="Trazado 197198" d="M7672.085,4622.7c0,4.816.115,9.636-.09,14.442-.045,1.055-1.234,2.06-1.9,3.087-.65-1.074-1.85-2.139-1.866-3.222q-.22-14.278.013-28.561c.018-1.047,1.3-2.071,2-3.106.613,1.081,1.71,2.142,1.756,3.246C7672.2,4613.281,7672.085,4617.991,7672.085,4622.7Z" transform="translate(-2390.303 -13671.773)" fill="#12263f"/>
    <path id="Trazado_197199" data-name="Trazado 197199" d="M7689.512,4622.86c0,4.6.132,9.2-.085,13.792-.059,1.217-1.039,3.272-1.846,3.4-2.281.37-1.985-1.733-1.989-3.208-.026-9.416-.075-18.834.065-28.248.016-1.1,1.144-2.181,1.756-3.271.7,1.135,1.944,2.244,2,3.41C7689.646,4613.437,7689.51,4618.152,7689.512,4622.86Z" transform="translate(-2396.266 -13671.771)" fill="#12263f"/>
    <path id="Trazado_197200" data-name="Trazado 197200" d="M7774.357,4635.825c-5.47,0-10.94-.048-16.408.025-2.195.03-3.214-.741-3.139-3.057.113-3.5.085-7,.01-10.5-.043-2.049.725-3.014,2.863-3.006q16.572.056,33.145-.009c2.069-.008,3,.772,2.947,2.9q-.123,5.411,0,10.828c.052,2.188-1.005,2.854-3.014,2.834C7785.3,4635.788,7779.826,4635.823,7774.357,4635.825Zm15.259-4.054v-8.357h-30.653v8.357Z" transform="translate(-2419.943 -13676.541)" fill="#12263f"/>
    <path id="Trazado_197201" data-name="Trazado 197201" d="M7852.272,4618.771a8.022,8.022,0,1,1,8.073-8.055A7.833,7.833,0,0,1,7852.272,4618.771Zm4.152-7.867a4,4,0,0,0-4.009-4.219,3.8,3.8,0,0,0-4.127,3.744,3.979,3.979,0,0,0,3.807,4.4A4.075,4.075,0,0,0,7856.425,4610.9Z" transform="translate(-2450.545 -13670.882)" fill="#12263f"/>
    <path id="Trazado_197202" data-name="Trazado 197202" d="M7852.272,4650.982a8.022,8.022,0,1,1,8.073-8.055A7.834,7.834,0,0,1,7852.272,4650.982Zm4.152-7.867a4,4,0,0,0-4.009-4.22,3.8,3.8,0,0,0-4.127,3.744,3.98,3.98,0,0,0,3.807,4.4A4.076,4.076,0,0,0,7856.425,4643.115Z" transform="translate(-2450.545 -13681.896)" fill="#12263f"/>
    <path id="Trazado_197203" data-name="Trazado 197203" d="M8207.069,4450.144q-25.088,0-50.173-.006c-10.469-.007-17.3-6.776-17.3-17.2q-.025-37.9.005-75.811c.008-10.564,6.854-17.357,17.461-17.36q50.172-.012,100.345,0c10.47,0,17.225,6.763,17.23,17.251q.019,37.905-.006,75.811c-.009,10.716-6.662,17.313-17.386,17.314Q8232.155,4450.149,8207.069,4450.144Zm.109-3.281h49.635c9.4,0,14.529-5.077,14.533-14.41.006-24.909-.2-49.821.107-74.726.114-9.3-6.753-14.847-14.689-14.791-33.088.235-66.179.1-99.268.1-9.282,0-14.574,5.2-14.584,14.469q-.043,37.639,0,75.279c.01,8.8,5.314,14.066,14.079,14.071Q8182.087,4446.87,8207.179,4446.863Z" transform="translate(-2548.282 -13503.997)" fill="#12263f"/>
    <path id="Trazado_197204" data-name="Trazado 197204" d="M8211.917,4353.9q23.572,0,47.147,0c6.922.005,10.116,3.2,10.119,10.09q0,35.43,0,70.861c0,6.809-3.32,10.13-10.158,10.133q-47.147.012-94.3,0c-7.033,0-10.2-3.22-10.205-10.321q-.005-35.429,0-70.86c0-6.741,3.179-9.9,9.968-9.905Q8188.206,4353.892,8211.917,4353.9Zm-.05,3.308q-23.716,0-47.431,0c-4.863,0-6.636,1.774-6.637,6.647q-.011,35.574,0,71.148c0,4.751,1.926,6.7,6.688,6.7q47.293.018,94.587,0c4.877,0,6.828-1.99,6.829-6.9q.012-35.3,0-70.6c0-5.24-1.726-7-6.881-7Q8235.444,4357.2,8211.867,4357.211Z" transform="translate(-2552.948 -13508.414)" fill="#12263f"/>
    <path id="Trazado_197205" data-name="Trazado 197205" d="M8296.083,4402.9q0,15.012,0,30.027c-.009,5.6-2.012,7.585-7.647,7.6-5.051.017-10.1.034-15.15,0-4.66-.033-7.024-2.322-7.029-6.892q-.035-30.579,0-61.157c.006-4.721,2.407-7.062,7.144-7.08,5.325-.021,10.651-.031,15.977.006,4.31.031,6.66,2.311,6.683,6.64.053,10.285.017,20.57.017,30.854Zm-3.31.158h.013c0-10.1.018-20.2-.009-30.294-.009-3.311-.8-4.081-4.062-4.094q-7.573-.033-15.146,0c-3.007.018-4.026.95-4.031,3.918q-.041,30.432.008,60.865c0,2.858.97,3.752,3.848,3.774,5.05.039,10.1.019,15.146,0,3.561-.01,4.225-.646,4.229-4.159Q8292.792,4418.072,8292.773,4403.063Z" transform="translate(-2587.846 -13512.002)" fill="#12263f"/>
    <path id="Trazado_197206" data-name="Trazado 197206" d="M8195.768,4403.093q.006,14.874,0,29.749c0,5.668-1.972,7.681-7.539,7.694-5.142.012-10.283.037-15.424-.007-4.453-.037-6.82-2.359-6.827-6.805q-.044-30.713,0-61.426c.006-4.428,2.429-6.854,6.773-6.883q8.127-.053,16.251,0c4.514.027,6.73,2.246,6.748,6.828C8195.789,4382.525,8195.764,4392.809,8195.768,4403.093Zm-3.293.106q0-15.283-.008-30.568c0-3.1-.832-3.931-3.905-3.948q-7.573-.042-15.147,0c-3.2.013-4.146.9-4.148,4.051q-.026,30.292.007,60.586c0,3.022.931,3.9,3.978,3.917q7.573.042,15.146,0c3.385-.014,4.064-.675,4.071-4.018Q8192.492,4418.208,8192.475,4403.2Z" transform="translate(-2556.521 -13512.002)" fill="#12263f"/>
    <path id="Trazado_197207" data-name="Trazado 197207" d="M8216.246,4402.811q0-15.152,0-30.3c.011-4.906,2.181-7.081,7.037-7.1,5.327-.02,10.653-.033,15.979,0,4.261.032,6.745,2.4,6.752,6.608q.056,30.993,0,61.986c-.007,4.134-2.377,6.458-6.536,6.507q-8.4.1-16.8.006c-4.158-.05-6.4-2.362-6.417-6.578C8216.224,4423.565,8216.247,4413.188,8216.246,4402.811Zm3.276.111q0,15.146.007,30.293c.006,3.309.738,4.018,4.084,4.027,5.142.014,10.281-.048,15.422.01,2.555.029,3.729-1.164,3.729-3.65q0-30.569-.015-61.14c0-2.789-1.046-3.761-3.872-3.779-5.048-.033-10.1-.021-15.146,0-3.4.012-4.2.808-4.208,4.222Q8219.5,4387.912,8219.522,4402.922Z" transform="translate(-2572.228 -13512.002)" fill="#12263f"/>
    <path id="Trazado_197208" data-name="Trazado 197208" d="M8284.143,4448.789c2.2,0,4.41-.137,6.587.08.709.071,1.325,1.067,1.985,1.64-.637.51-1.261,1.444-1.911,1.463q-6.727.2-13.46,0c-.629-.018-1.229-1-1.844-1.531.683-.552,1.325-1.508,2.055-1.579C8279.733,4448.653,8281.944,4448.789,8284.143,4448.789Z" transform="translate(-2590.74 -13538.042)" fill="#12263f"/>
    <path id="Trazado_197209" data-name="Trazado 197209" d="M8284.425,4439.164a60.309,60.309,0,0,1,6.313.08c.709.076,1.318,1.069,1.974,1.644-.636.511-1.259,1.443-1.91,1.462-4.394.132-8.8.144-13.19,0-.721-.024-1.412-1.007-2.117-1.546.686-.546,1.336-1.5,2.066-1.563C8279.831,4439.035,8282.135,4439.164,8284.425,4439.164Z" transform="translate(-2590.738 -13535.035)" fill="#12263f"/>
    <path id="Trazado_197210" data-name="Trazado 197210" d="M8283.913,4429.546c2.29,0,4.589-.113,6.863.067.679.053,1.294.921,1.938,1.416-.652.59-1.288,1.667-1.961,1.689-4.48.151-8.973.141-13.455,0-.617-.019-1.2-1.03-1.8-1.582.608-.531,1.183-1.462,1.832-1.52C8279.508,4429.427,8281.716,4429.547,8283.913,4429.546Z" transform="translate(-2590.738 -13532.033)" fill="#12263f"/>
    <path id="Trazado_197211" data-name="Trazado 197211" d="M8284.127,4461.678a56.651,56.651,0,0,1-6.312-.076c-.82-.091-1.543-1.05-2.311-1.613.712-.525,1.407-1.479,2.135-1.5q6.451-.214,12.912,0c.736.024,1.443.956,2.164,1.469-.756.574-1.465,1.551-2.275,1.644A56.767,56.767,0,0,1,8284.127,4461.678Z" transform="translate(-2590.741 -13541.051)" fill="#12263f"/>
    <path id="Trazado_197212" data-name="Trazado 197212" d="M8184.177,4458.425c2.106,0,4.222-.12,6.311.067.685.061,1.3.92,1.941,1.416-.65.588-1.284,1.664-1.952,1.686-4.481.152-8.972.144-13.455.008-.62-.018-1.209-1.018-1.812-1.562.609-.539,1.184-1.489,1.83-1.541C8179.406,4458.313,8181.8,4458.426,8184.177,4458.425Z" transform="translate(-2559.411 -13541.053)" fill="#12263f"/>
    <path id="Trazado_197213" data-name="Trazado 197213" d="M8183.639,4448.8c2.29,0,4.589-.112,6.865.068.675.053,1.287.925,1.929,1.422-.655.588-1.293,1.66-1.966,1.683-4.482.151-8.976.141-13.459,0-.614-.019-1.2-1.029-1.8-1.581.61-.532,1.186-1.465,1.838-1.523C8179.231,4448.678,8181.44,4448.8,8183.639,4448.8Z" transform="translate(-2559.412 -13538.046)" fill="#12263f"/>
    <path id="Trazado_197214" data-name="Trazado 197214" d="M8183.705,4432.8c-2.106,0-4.227.136-6.312-.074-.766-.077-1.449-.975-2.169-1.5.667-.562,1.32-1.59,2.006-1.613q6.587-.219,13.185,0c.69.023,1.346,1.033,2.018,1.587-.711.533-1.384,1.452-2.139,1.523C8188.114,4432.939,8185.9,4432.8,8183.705,4432.8Z" transform="translate(-2559.416 -13532.033)" fill="#12263f"/>
    <path id="Trazado_197215" data-name="Trazado 197215" d="M8184.04,4439.161a62.039,62.039,0,0,1,6.31.073c.738.076,1.389,1,2.08,1.545-.694.546-1.374,1.543-2.086,1.567q-6.587.22-13.181-.007c-.669-.023-1.3-1.11-1.948-1.7.652-.492,1.276-1.351,1.963-1.4C8179.452,4439.049,8181.75,4439.162,8184.04,4439.161Z" transform="translate(-2559.413 -13535.033)" fill="#12263f"/>
    <path id="Trazado_197216" data-name="Trazado 197216" d="M8233.963,4442.424c-2.2,0-4.421.137-6.6-.079-.742-.073-1.4-1.04-2.091-1.6.709-.528,1.4-1.489,2.131-1.514q6.466-.214,12.944,0c.77.025,1.513.932,2.269,1.433-.771.587-1.493,1.586-2.322,1.683A54.189,54.189,0,0,1,8233.963,4442.424Z" transform="translate(-2575.049 -13535.036)" fill="#12263f"/>
    <path id="Trazado_197217" data-name="Trazado 197217" d="M8234.222,4448.785a59,59,0,0,1,6.327.078c.733.079,1.369,1.063,2.05,1.634-.649.517-1.288,1.463-1.951,1.482q-6.743.194-13.493-.012c-.64-.02-1.252-.992-1.877-1.524.687-.552,1.335-1.514,2.066-1.581C8229.619,4448.655,8231.927,4448.786,8234.222,4448.785Z" transform="translate(-2575.051 -13538.039)" fill="#12263f"/>
    <path id="Trazado_197218" data-name="Trazado 197218" d="M8233.753,4461.675a62.182,62.182,0,0,1-6.325-.077c-.764-.079-1.437-1.007-2.151-1.548.69-.544,1.366-1.537,2.075-1.561,4.31-.148,8.63-.161,12.938,0,.79.029,1.544,1.073,2.314,1.647-.749.513-1.462,1.394-2.251,1.467C8238.172,4461.81,8235.955,4461.676,8233.753,4461.675Z" transform="translate(-2575.051 -13541.049)" fill="#12263f"/>
    <path id="Trazado_197219" data-name="Trazado 197219" d="M8234.051,4432.8a59.926,59.926,0,0,1-6.328-.076c-.859-.093-1.631-1-2.443-1.533.775-.552,1.534-1.551,2.33-1.581,4.217-.16,8.447-.165,12.664,0,.8.03,1.555,1.058,2.33,1.625-.831.523-1.622,1.4-2.5,1.5A53.072,53.072,0,0,1,8234.051,4432.8Z" transform="translate(-2575.052 -13532.025)" fill="#12263f"/>
    <path id="Trazado_197220" data-name="Trazado 197220" d="M8179.165,4382.323a3.143,3.143,0,1,1,3.164-3.156A3.069,3.069,0,0,1,8179.165,4382.323Zm1.626-3.082a1.564,1.564,0,0,0-1.569-1.653,1.491,1.491,0,0,0-1.617,1.466,1.559,1.559,0,0,0,1.491,1.726A1.594,1.594,0,0,0,8180.791,4379.241Z" transform="translate(-2559.671 -13515.33)" fill="#12263f"/>
    <path id="Trazado_197221" data-name="Trazado 197221" d="M8227.123,4382.323a3.143,3.143,0,1,1,3.162-3.156A3.069,3.069,0,0,1,8227.123,4382.323Zm1.627-3.082a1.567,1.567,0,0,0-1.571-1.653,1.488,1.488,0,0,0-1.615,1.466,1.557,1.557,0,0,0,1.489,1.726A1.6,1.6,0,0,0,8228.75,4379.241Z" transform="translate(-2574.653 -13515.33)" fill="#12263f"/>
    <path id="Trazado_197222" data-name="Trazado 197222" d="M8277.108,4382.323a3.143,3.143,0,1,1,3.162-3.156A3.069,3.069,0,0,1,8277.108,4382.323Zm1.625-3.082a1.564,1.564,0,0,0-1.569-1.653,1.489,1.489,0,0,0-1.616,1.466,1.559,1.559,0,0,0,1.49,1.726A1.594,1.594,0,0,0,8278.733,4379.241Z" transform="translate(-2590.268 -13515.33)" fill="#12263f"/>
    <path id="Trazado_197223" data-name="Trazado 197223" d="M8207.069,4627.2q-25.088,0-50.173-.006c-10.469-.008-17.3-6.776-17.3-17.2q-.025-37.906.005-75.812c.008-10.564,6.854-17.357,17.461-17.36q50.172-.012,100.345,0c10.47,0,17.225,6.762,17.23,17.251q.019,37.905-.006,75.811c-.009,10.716-6.662,17.312-17.386,17.314Q8232.155,4627.2,8207.069,4627.2Zm.109-3.281q24.817,0,49.635,0c9.4,0,14.529-5.077,14.533-14.409.006-24.909-.2-49.821.107-74.727.114-9.3-6.753-14.847-14.689-14.79-33.088.234-66.179.1-99.268.1-9.282,0-14.574,5.2-14.584,14.469q-.043,37.639,0,75.279c.01,8.8,5.314,14.066,14.079,14.072Q8182.087,4623.922,8207.179,4623.915Z" transform="translate(-2548.282 -13559.305)" fill="#12263f"/>
    <path id="Trazado_197224" data-name="Trazado 197224" d="M8211.917,4530.956q23.572,0,47.147,0c6.922.006,10.116,3.2,10.119,10.09q0,35.43,0,70.86c0,6.81-3.32,10.132-10.158,10.133q-47.147.012-94.3,0c-7.033,0-10.2-3.22-10.205-10.321q-.005-35.43,0-70.86c0-6.741,3.179-9.9,9.968-9.9Q8188.206,4530.944,8211.917,4530.956Zm-.05,3.307q-23.716,0-47.431,0c-4.863,0-6.636,1.775-6.637,6.647q-.011,35.574,0,71.148c0,4.751,1.926,6.7,6.688,6.7q47.293.018,94.587,0c4.877,0,6.828-1.99,6.829-6.9q.012-35.3,0-70.6c0-5.24-1.726-7-6.881-7Q8235.444,4534.254,8211.867,4534.263Z" transform="translate(-2552.948 -13563.722)" fill="#12263f"/>
    <path id="Trazado_197225" data-name="Trazado 197225" d="M8296.083,4579.957q0,15.014,0,30.027c-.009,5.6-2.012,7.585-7.647,7.6-5.051.017-10.1.034-15.15,0-4.66-.034-7.024-2.322-7.029-6.893q-.035-30.579,0-61.157c.006-4.721,2.407-7.062,7.144-7.08,5.325-.02,10.651-.031,15.977.007,4.31.031,6.66,2.311,6.683,6.64.053,10.285.017,20.569.017,30.854Zm-3.31.158h.013c0-10.1.018-20.2-.009-30.294-.009-3.31-.8-4.08-4.062-4.094q-7.573-.031-15.146,0c-3.007.017-4.026.949-4.031,3.918q-.041,30.433.008,60.864c0,2.858.97,3.753,3.848,3.775,5.05.039,10.1.019,15.146.005,3.561-.011,4.225-.646,4.229-4.16Q8292.792,4595.124,8292.773,4580.115Z" transform="translate(-2587.846 -13567.31)" fill="#12263f"/>
    <path id="Trazado_197226" data-name="Trazado 197226" d="M8195.768,4580.146q.006,14.873,0,29.749c0,5.667-1.972,7.68-7.539,7.693-5.142.013-10.283.037-15.424-.007-4.453-.036-6.82-2.358-6.827-6.805q-.044-30.712,0-61.426c.006-4.428,2.429-6.853,6.773-6.883q8.127-.054,16.251,0c4.514.028,6.73,2.245,6.748,6.828C8195.789,4559.578,8195.764,4569.861,8195.768,4580.146Zm-3.293.107q0-15.284-.008-30.569c0-3.1-.832-3.931-3.905-3.949q-7.573-.041-15.147,0c-3.2.012-4.146.9-4.148,4.051q-.026,30.294.007,60.586c0,3.022.931,3.9,3.978,3.917q7.573.041,15.146,0c3.385-.015,4.064-.675,4.071-4.019Q8192.492,4595.261,8192.475,4580.252Z" transform="translate(-2556.521 -13567.311)" fill="#12263f"/>
    <path id="Trazado_197227" data-name="Trazado 197227" d="M8216.246,4579.863q0-15.151,0-30.3c.011-4.905,2.181-7.081,7.037-7.1,5.327-.02,10.653-.034,15.979,0,4.261.031,6.745,2.4,6.752,6.607q.056,30.994,0,61.986c-.007,4.134-2.377,6.458-6.536,6.508q-8.4.1-16.8.005c-4.158-.05-6.4-2.362-6.417-6.578C8216.224,4600.618,8216.247,4590.24,8216.246,4579.863Zm3.276.111q0,15.146.007,30.295c.006,3.308.738,4.017,4.084,4.026,5.142.014,10.281-.048,15.422.01,2.555.028,3.729-1.165,3.729-3.649q0-30.571-.015-61.141c0-2.789-1.046-3.761-3.872-3.779-5.048-.032-10.1-.021-15.146,0-3.4.012-4.2.809-4.208,4.223Q8219.5,4564.964,8219.522,4579.974Z" transform="translate(-2572.228 -13567.311)" fill="#12263f"/>
    <path id="Trazado_197228" data-name="Trazado 197228" d="M8284.143,4625.841c2.2,0,4.41-.137,6.587.081.709.07,1.325,1.066,1.985,1.639-.637.511-1.261,1.444-1.911,1.463q-6.727.2-13.46,0c-.629-.019-1.229-1-1.844-1.531.683-.552,1.325-1.508,2.055-1.579C8279.733,4625.705,8281.944,4625.841,8284.143,4625.841Z" transform="translate(-2590.74 -13593.35)" fill="#12263f"/>
    <path id="Trazado_197229" data-name="Trazado 197229" d="M8284.425,4616.216a59.912,59.912,0,0,1,6.313.079c.709.076,1.318,1.069,1.974,1.644-.636.51-1.259,1.442-1.91,1.461-4.394.132-8.8.144-13.19,0-.721-.024-1.412-1.007-2.117-1.546.686-.546,1.336-1.5,2.066-1.563C8279.831,4616.085,8282.135,4616.215,8284.425,4616.216Z" transform="translate(-2590.738 -13590.342)" fill="#12263f"/>
    <path id="Trazado_197230" data-name="Trazado 197230" d="M8283.913,4606.6c2.29,0,4.589-.112,6.863.067.679.053,1.294.921,1.938,1.416-.652.589-1.288,1.667-1.961,1.69-4.48.151-8.973.141-13.455,0-.617-.019-1.2-1.03-1.8-1.581.608-.531,1.183-1.462,1.832-1.521C8279.508,4606.479,8281.716,4606.6,8283.913,4606.6Z" transform="translate(-2590.738 -13587.34)" fill="#12263f"/>
    <path id="Trazado_197231" data-name="Trazado 197231" d="M8284.127,4638.73a56.651,56.651,0,0,1-6.312-.076c-.82-.092-1.543-1.05-2.311-1.613.712-.525,1.407-1.479,2.135-1.5q6.451-.212,12.912,0c.736.024,1.443.956,2.164,1.47-.756.573-1.465,1.551-2.275,1.643A56.414,56.414,0,0,1,8284.127,4638.73Z" transform="translate(-2590.741 -13596.357)" fill="#12263f"/>
    <path id="Trazado_197232" data-name="Trazado 197232" d="M8184.177,4635.477c2.106,0,4.222-.121,6.311.067.685.062,1.3.922,1.941,1.416-.65.588-1.284,1.665-1.952,1.688-4.481.152-8.972.143-13.455.008-.62-.019-1.209-1.017-1.812-1.562.609-.539,1.184-1.49,1.83-1.541C8179.406,4635.365,8181.8,4635.478,8184.177,4635.477Z" transform="translate(-2559.411 -13596.36)" fill="#12263f"/>
    <path id="Trazado_197233" data-name="Trazado 197233" d="M8183.639,4625.85c2.29,0,4.589-.113,6.865.067.675.054,1.287.926,1.929,1.423-.655.587-1.293,1.66-1.966,1.683-4.482.151-8.976.141-13.459,0-.614-.018-1.2-1.029-1.8-1.581.61-.532,1.186-1.464,1.838-1.522C8179.231,4625.73,8181.44,4625.851,8183.639,4625.85Z" transform="translate(-2559.412 -13593.354)" fill="#12263f"/>
    <path id="Trazado_197234" data-name="Trazado 197234" d="M8183.705,4609.855c-2.106,0-4.227.135-6.312-.074-.766-.077-1.449-.975-2.169-1.5.667-.563,1.32-1.59,2.006-1.612q6.587-.22,13.185,0c.69.022,1.346,1.033,2.018,1.587-.711.532-1.384,1.451-2.139,1.523C8188.114,4609.991,8185.9,4609.857,8183.705,4609.855Z" transform="translate(-2559.416 -13587.34)" fill="#12263f"/>
    <path id="Trazado_197235" data-name="Trazado 197235" d="M8184.04,4616.213a62.039,62.039,0,0,1,6.31.072c.738.076,1.389,1.005,2.08,1.545-.694.547-1.374,1.543-2.086,1.567q-6.587.22-13.181-.006c-.669-.024-1.3-1.11-1.948-1.7.652-.491,1.276-1.351,1.963-1.405C8179.452,4616.1,8181.75,4616.213,8184.04,4616.213Z" transform="translate(-2559.413 -13590.341)" fill="#12263f"/>
    <path id="Trazado_197236" data-name="Trazado 197236" d="M8233.963,4619.476c-2.2,0-4.421.136-6.6-.08-.742-.073-1.4-1.039-2.091-1.6.709-.528,1.4-1.489,2.131-1.513q6.466-.216,12.944,0c.77.025,1.513.932,2.269,1.433-.771.587-1.493,1.585-2.322,1.682A54.3,54.3,0,0,1,8233.963,4619.476Z" transform="translate(-2575.049 -13590.344)" fill="#12263f"/>
    <path id="Trazado_197237" data-name="Trazado 197237" d="M8234.222,4625.836a59.258,59.258,0,0,1,6.327.078c.733.078,1.369,1.063,2.05,1.634-.649.517-1.288,1.464-1.951,1.482q-6.743.194-13.493-.012c-.64-.02-1.252-.992-1.877-1.524.687-.553,1.335-1.514,2.066-1.581C8229.619,4625.707,8231.927,4625.838,8234.222,4625.836Z" transform="translate(-2575.051 -13593.347)" fill="#12263f"/>
    <path id="Trazado_197238" data-name="Trazado 197238" d="M8233.753,4638.727a62.467,62.467,0,0,1-6.325-.076c-.764-.079-1.437-1.008-2.151-1.548.69-.545,1.366-1.536,2.075-1.561,4.31-.147,8.63-.161,12.938,0,.79.03,1.544,1.073,2.314,1.648-.749.512-1.462,1.393-2.251,1.466C8238.172,4638.861,8235.955,4638.729,8233.753,4638.727Z" transform="translate(-2575.051 -13596.357)" fill="#12263f"/>
    <path id="Trazado_197239" data-name="Trazado 197239" d="M8234.051,4609.85a60.189,60.189,0,0,1-6.328-.076c-.859-.093-1.631-1-2.443-1.533.775-.552,1.534-1.552,2.33-1.582,4.217-.16,8.447-.164,12.664,0,.8.03,1.555,1.058,2.33,1.626-.831.523-1.622,1.4-2.5,1.5A53.071,53.071,0,0,1,8234.051,4609.85Z" transform="translate(-2575.052 -13587.333)" fill="#12263f"/>
    <path id="Trazado_197240" data-name="Trazado 197240" d="M8179.165,4559.375a3.143,3.143,0,1,1,3.164-3.156A3.069,3.069,0,0,1,8179.165,4559.375Zm1.626-3.083a1.563,1.563,0,0,0-1.569-1.653,1.491,1.491,0,0,0-1.617,1.466,1.559,1.559,0,0,0,1.491,1.726A1.594,1.594,0,0,0,8180.791,4556.293Z" transform="translate(-2559.671 -13570.637)" fill="#12263f"/>
    <path id="Trazado_197241" data-name="Trazado 197241" d="M8227.123,4559.375a3.143,3.143,0,1,1,3.162-3.156A3.069,3.069,0,0,1,8227.123,4559.375Zm1.627-3.083a1.566,1.566,0,0,0-1.571-1.653,1.488,1.488,0,0,0-1.615,1.466,1.557,1.557,0,0,0,1.489,1.726A1.6,1.6,0,0,0,8228.75,4556.293Z" transform="translate(-2574.653 -13570.637)" fill="#12263f"/>
    <path id="Trazado_197242" data-name="Trazado 197242" d="M8277.108,4559.375a3.143,3.143,0,1,1,3.162-3.156A3.069,3.069,0,0,1,8277.108,4559.375Zm1.625-3.083a1.563,1.563,0,0,0-1.569-1.653,1.489,1.489,0,0,0-1.616,1.466,1.559,1.559,0,0,0,1.49,1.726A1.6,1.6,0,0,0,8278.733,4556.293Z" transform="translate(-2590.268 -13570.637)" fill="#12263f"/>
    <path id="Trazado_197171" data-name="Trazado 197171" d="M7473.441,4850.713v-6.365c-4.856,0-9.482-.092-14.1.032-3.21.086-4.393-1.25-4.37-4.455q.153-22.189.009-44.38c-.02-3.183,1.2-4.527,4.379-4.52q30.131.067,60.264,0c3.21-.005,4.417,1.564,4.409,4.624q-.062,22.189,0,44.381c.011,3.216-1.442,4.441-4.57,4.354-4.488-.124-8.981-.032-13.819-.032v6.352c4.582,0,9.209.086,13.831-.031,3.146-.08,4.618,1.2,4.548,4.394-.083,3.735,0,7.474-.024,11.211-.014,2.664-1.3,3.935-4.051,3.93q-30.6-.056-61.2-.005c-2.87,0-3.813-1.419-3.753-4.077.085-3.736.129-7.479-.013-11.21-.126-3.348,1.5-4.335,4.578-4.242C7464.045,4850.814,7468.536,4850.713,7473.441,4850.713Zm-12.618-12.316h57.588c0-13.247-.023-26.135.016-39.021.009-3.253-2.282-2.745-4.239-2.746q-22.879-.029-45.76-.012h-7.605Zm57.247,18.157h-57.1v7.731h57.1Zm-38.641-6.188h21.413c-1.447-2.585-2.281-5.651-3.354-5.737-5.945-.477-11.947-.228-18.058-.228Z" transform="translate(-2435.968 -13982.693)" fill="#12263f"/>
    <path id="Trazado_197172" data-name="Trazado 197172" d="M7493.141,4808.331a31.07,31.07,0,0,1-2.374,3.131c-5.233,5.292-10.406,10.656-15.874,15.7-1.083,1-3.359.7-5.084,1,.368-1.611.218-3.708,1.193-4.751,5.187-5.547,10.594-10.894,16.084-16.141a6.572,6.572,0,0,1,4.041-1.348C7491.715,4805.9,7492.36,4807.349,7493.141,4808.331Z" transform="translate(-2436.942 -13983.67)" fill="#12263f"/>
    <path id="Trazado_197173" data-name="Trazado 197173" d="M7479.466,4801.705c.6.414,1.792.806,1.941,1.442.244,1.047.228,2.64-.408,3.327-3.472,3.747-7.08,7.384-10.861,10.815-.724.657-2.644.64-3.614.148-.632-.32-1.13-2.6-.687-3.081,3.876-4.2,7.968-8.2,12.034-12.225C7478.151,4801.854,7478.739,4801.887,7479.466,4801.705Z" transform="translate(-2436.67 -13983.395)" fill="#12263f"/>
    <path id="Trazado_197171-2" data-name="Trazado 197171" d="M7473.441,4850.713v-6.365c-4.856,0-9.482-.092-14.1.032-3.21.086-4.393-1.25-4.37-4.455q.153-22.189.009-44.38c-.02-3.183,1.2-4.527,4.379-4.52q30.131.067,60.264,0c3.21-.005,4.417,1.564,4.409,4.624q-.062,22.189,0,44.381c.011,3.216-1.442,4.441-4.57,4.354-4.488-.124-8.981-.032-13.819-.032v6.352c4.582,0,9.209.086,13.831-.031,3.146-.08,4.618,1.2,4.548,4.394-.083,3.735,0,7.474-.024,11.211-.014,2.664-1.3,3.935-4.051,3.93q-30.6-.056-61.2-.005c-2.87,0-3.813-1.419-3.753-4.077.085-3.736.129-7.479-.013-11.21-.126-3.348,1.5-4.335,4.578-4.242C7464.045,4850.814,7468.536,4850.713,7473.441,4850.713Zm-12.618-12.316h57.588c0-13.247-.023-26.135.016-39.021.009-3.253-2.282-2.745-4.239-2.746q-22.879-.029-45.76-.012h-7.605Zm57.247,18.157h-57.1v7.731h57.1Zm-38.641-6.188h21.413c-1.447-2.585-2.281-5.651-3.354-5.737-5.945-.477-11.947-.228-18.058-.228Z" transform="translate(-2435.968 -13890.42)" fill="#12263f"/>
    <path id="Trazado_197172-2" data-name="Trazado 197172" d="M7493.141,4808.331a31.07,31.07,0,0,1-2.374,3.131c-5.233,5.292-10.406,10.656-15.874,15.7-1.083,1-3.359.7-5.084,1,.368-1.611.218-3.708,1.193-4.751,5.187-5.547,10.594-10.894,16.084-16.141a6.572,6.572,0,0,1,4.041-1.348C7491.715,4805.9,7492.36,4807.349,7493.141,4808.331Z" transform="translate(-2436.942 -13891.396)" fill="#12263f"/>
    <path id="Trazado_197173-2" data-name="Trazado 197173" d="M7479.466,4801.705c.6.414,1.792.806,1.941,1.442.244,1.047.228,2.64-.408,3.327-3.472,3.747-7.08,7.384-10.861,10.815-.724.657-2.644.64-3.614.148-.632-.32-1.13-2.6-.687-3.081,3.876-4.2,7.968-8.2,12.034-12.225C7478.151,4801.854,7478.739,4801.887,7479.466,4801.705Z" transform="translate(-2436.67 -13891.119)" fill="#12263f"/>
    <path id="Trazado_197171-3" data-name="Trazado 197171" d="M7473.441,4850.713v-6.365c-4.856,0-9.482-.092-14.1.032-3.21.086-4.393-1.25-4.37-4.455q.153-22.189.009-44.38c-.02-3.183,1.2-4.527,4.379-4.52q30.131.067,60.264,0c3.21-.005,4.417,1.564,4.409,4.624q-.062,22.189,0,44.381c.011,3.216-1.442,4.441-4.57,4.354-4.488-.124-8.981-.032-13.819-.032v6.352c4.582,0,9.209.086,13.831-.031,3.146-.08,4.618,1.2,4.548,4.394-.083,3.735,0,7.474-.024,11.211-.014,2.664-1.3,3.935-4.051,3.93q-30.6-.056-61.2-.005c-2.87,0-3.813-1.419-3.753-4.077.085-3.736.129-7.479-.013-11.21-.126-3.348,1.5-4.335,4.578-4.242C7464.045,4850.814,7468.536,4850.713,7473.441,4850.713Zm-12.618-12.316h57.588c0-13.247-.023-26.135.016-39.021.009-3.253-2.282-2.745-4.239-2.746q-22.879-.029-45.76-.012h-7.605Zm57.247,18.157h-57.1v7.731h57.1Zm-38.641-6.188h21.413c-1.447-2.585-2.281-5.651-3.354-5.737-5.945-.477-11.947-.228-18.058-.228Z" transform="translate(-2435.968 -13798.145)" fill="#12263f"/>
    <path id="Trazado_197172-3" data-name="Trazado 197172" d="M7493.141,4808.331a31.07,31.07,0,0,1-2.374,3.131c-5.233,5.292-10.406,10.656-15.874,15.7-1.083,1-3.359.7-5.084,1,.368-1.611.218-3.708,1.193-4.751,5.187-5.547,10.594-10.894,16.084-16.141a6.572,6.572,0,0,1,4.041-1.348C7491.715,4805.9,7492.36,4807.349,7493.141,4808.331Z" transform="translate(-2436.942 -13799.12)" fill="#12263f"/>
    <path id="Trazado_197173-3" data-name="Trazado 197173" d="M7479.466,4801.705c.6.414,1.792.806,1.941,1.442.244,1.047.228,2.64-.408,3.327-3.472,3.747-7.08,7.384-10.861,10.815-.724.657-2.644.64-3.614.148-.632-.32-1.13-2.6-.687-3.081,3.876-4.2,7.968-8.2,12.034-12.225C7478.151,4801.854,7478.739,4801.887,7479.466,4801.705Z" transform="translate(-2436.67 -13798.844)" fill="#12263f"/>
    <path id="Trazado_777503" data-name="Trazado 777503" d="M8.258-3.322a3.722,3.722,0,0,1-.7,1.829A3.828,3.828,0,0,1,6.022-.27,4.663,4.663,0,0,1,3.985.137,3.444,3.444,0,0,1,2.27-.318,3.013,3.013,0,0,1,1.118-1.576a4.648,4.648,0,0,1-.475-1.9A9.3,9.3,0,0,1,.817-5.564,6.631,6.631,0,0,1,1.61-7.786,4.957,4.957,0,0,1,2.967-9.324,4.094,4.094,0,0,1,5.5-10.09a3.359,3.359,0,0,1,2.451.954,3.836,3.836,0,0,1,.995,2.574l-2-.007A2.092,2.092,0,0,0,6.569-7.95,1.533,1.533,0,0,0,5.4-8.415a2.029,2.029,0,0,0-1.685.731A4.4,4.4,0,0,0,2.83-5.448a12.386,12.386,0,0,0-.191,2.14,2.13,2.13,0,0,0,.4,1.33,1.35,1.35,0,0,0,1.032.448,2.061,2.061,0,0,0,1.466-.434,2.3,2.3,0,0,0,.728-1.343ZM11.013,0H9.071L10.9-10.5h1.935Zm3.671,0H12.742l1.285-7.4h1.941Zm-.431-9.276a.963.963,0,0,1,.3-.759,1.058,1.058,0,0,1,.759-.3,1.063,1.063,0,0,1,.759.267.959.959,0,0,1,.335.725.99.99,0,0,1-.284.738,1.063,1.063,0,0,1-.776.328,1.081,1.081,0,0,1-.755-.26A.954.954,0,0,1,14.253-9.276ZM19.831.137a3.218,3.218,0,0,1-1.719-.475,2.88,2.88,0,0,1-1.118-1.285,3.582,3.582,0,0,1-.287-1.8l.021-.273a4.782,4.782,0,0,1,.629-1.982A3.8,3.8,0,0,1,18.71-7.072a3.349,3.349,0,0,1,1.832-.461,2.559,2.559,0,0,1,2.164,1.051,3.6,3.6,0,0,1,.557,2.591l-.109.842H18.621A1.587,1.587,0,0,0,18.97-1.9,1.331,1.331,0,0,0,20-1.456a2.365,2.365,0,0,0,1.846-.82l.882,1.094a2.743,2.743,0,0,1-1.2.981A3.934,3.934,0,0,1,19.831.137Zm.615-6.077a1.37,1.37,0,0,0-.947.335,2.943,2.943,0,0,0-.742,1.21H21.41l.041-.178a1.812,1.812,0,0,0,.007-.52.992.992,0,0,0-.335-.619A1.05,1.05,0,0,0,20.446-5.94ZM26.776-7.4l-.164.875a2.661,2.661,0,0,1,2.153-1,1.774,1.774,0,0,1,1.545.766A3.085,3.085,0,0,1,30.673-4.7L29.894,0H27.966l.793-4.724a2.212,2.212,0,0,0,.014-.485.783.783,0,0,0-.875-.718,1.659,1.659,0,0,0-1.36.7L25.614,0H23.687l1.285-7.4Zm8.538-1.812L34.993-7.4h1.23l-.253,1.449H34.74l-.629,3.705a.942.942,0,0,0,.055.533q.1.185.465.2.109.007.588-.034L35.082-.034a3.242,3.242,0,0,1-1.107.157A1.737,1.737,0,0,1,32.56-.472a2.149,2.149,0,0,1-.383-1.572l.636-3.9H31.767L32.02-7.4h1.046l.314-1.818Zm5.031,7.13q.109-.547-.759-.793l-.622-.157q-2.208-.608-2.146-2.146a2.124,2.124,0,0,1,.926-1.706,3.449,3.449,0,0,1,2.15-.646,3.094,3.094,0,0,1,2.023.663A2.184,2.184,0,0,1,42.7-5.141L40.79-5.147a.843.843,0,0,0-.943-.964,1.358,1.358,0,0,0-.783.226.929.929,0,0,0-.407.608q-.1.547.827.772l.273.062a5.5,5.5,0,0,1,1.442.516,2.177,2.177,0,0,1,.769.721,1.785,1.785,0,0,1,.25,1.032,1.97,1.97,0,0,1-.455,1.23,2.782,2.782,0,0,1-1.189.813,4.144,4.144,0,0,1-1.589.267,3.122,3.122,0,0,1-2.051-.708A2.281,2.281,0,0,1,36.1-2.365l1.818.014a1,1,0,0,0,1.135,1.073,1.614,1.614,0,0,0,.878-.219A.864.864,0,0,0,40.346-2.085Z" transform="translate(5028.146 -8908.438)" fill="#12263f"/>
    <path id="Trazado_777504" data-name="Trazado 777504" d="M5.619-2.659q.144-.813-.8-1.244L3.5-4.43Q1.2-5.455,1.319-7.253a2.593,2.593,0,0,1,.547-1.477,3.288,3.288,0,0,1,1.4-1.008,4.961,4.961,0,0,1,1.948-.352,3.375,3.375,0,0,1,2.331.858,2.859,2.859,0,0,1,.875,2.225h-2a1.424,1.424,0,0,0-.3-1.053A1.339,1.339,0,0,0,5.1-8.449a2.074,2.074,0,0,0-1.189.311,1.276,1.276,0,0,0-.6.892q-.13.745,1,1.183l.9.342.52.239a2.824,2.824,0,0,1,1.887,2.8,2.7,2.7,0,0,1-.564,1.521,3.179,3.179,0,0,1-1.367.981,4.87,4.87,0,0,1-1.9.321A4.264,4.264,0,0,1,1.894-.3,2.93,2.93,0,0,1,.636-1.5,3.1,3.1,0,0,1,.26-3.138l2,.007q-.1,1.62,1.593,1.647a2.093,2.093,0,0,0,1.2-.321A1.251,1.251,0,0,0,5.619-2.659Zm6.727-6.556L12.024-7.4h1.23L13-5.947h-1.23l-.629,3.705a.942.942,0,0,0,.055.533q.1.185.465.2.109.007.588-.034L12.113-.034a3.242,3.242,0,0,1-1.107.157A1.737,1.737,0,0,1,9.591-.472a2.149,2.149,0,0,1-.383-1.572l.636-3.9H8.8L9.051-7.4H10.1l.314-1.818Zm4.771,1.682a2.967,2.967,0,0,1,1.685.5,2.83,2.83,0,0,1,1.039,1.347,4.166,4.166,0,0,1,.236,1.9A4.5,4.5,0,0,1,18.85-.926,3.465,3.465,0,0,1,16.208.137a2.958,2.958,0,0,1-1.668-.5A2.819,2.819,0,0,1,13.5-1.7a4.075,4.075,0,0,1-.239-1.887,4.633,4.633,0,0,1,1.244-2.912A3.393,3.393,0,0,1,17.117-7.533ZM15.169-2.883a1.707,1.707,0,0,0,.308,1.034,1.022,1.022,0,0,0,.827.392A1.5,1.5,0,0,0,17.7-2.272a4.066,4.066,0,0,0,.472-2.215,1.856,1.856,0,0,0-.318-1.048,1,1,0,0,0-.831-.406,1.5,1.5,0,0,0-1.377.809A4.024,4.024,0,0,0,15.169-2.883ZM25.7-5.544a3.98,3.98,0,0,0-.649-.068,1.869,1.869,0,0,0-1.634.772L22.559,0H20.631l1.285-7.4L23.728-7.4l-.178.9a2.034,2.034,0,0,1,1.723-1.046,2.812,2.812,0,0,1,.67.1ZM29.729,0a2,2,0,0,1-.075-.67,2.505,2.505,0,0,1-1.887.807A2.27,2.27,0,0,1,26.158-.5a1.913,1.913,0,0,1-.6-1.528,2.211,2.211,0,0,1,1.015-1.856,4.608,4.608,0,0,1,2.594-.646l.9.014.1-.444a1.543,1.543,0,0,0,.021-.431.74.74,0,0,0-.243-.5.836.836,0,0,0-.55-.188,1.177,1.177,0,0,0-.766.222,1.077,1.077,0,0,0-.4.68l-1.935.007a2.15,2.15,0,0,1,.974-1.719,3.773,3.773,0,0,1,2.287-.646,2.727,2.727,0,0,1,1.969.749,2.19,2.19,0,0,1,.595,1.856l-.567,3.541-.034.438a2.111,2.111,0,0,0,.116.82L31.623,0ZM28.246-1.36A1.765,1.765,0,0,0,29.7-2.085l.239-1.278-.67-.007a1.872,1.872,0,0,0-1.538.649,1.131,1.131,0,0,0-.212.554.656.656,0,0,0,.154.584A.779.779,0,0,0,28.246-1.36Zm4.922-2.345a5.118,5.118,0,0,1,1.118-2.786,2.836,2.836,0,0,1,2.3-1.049,2.074,2.074,0,0,1,1.764.854L38.6-7.4l1.771.007L39.163-.253a3.485,3.485,0,0,1-1.258,2.338,3.912,3.912,0,0,1-2.625.834,3.647,3.647,0,0,1-1.463-.332,3.128,3.128,0,0,1-1.148-.872L33.626.54a2.055,2.055,0,0,0,1.613.841A1.9,1.9,0,0,0,36.524.988,2.1,2.1,0,0,0,37.249-.2l.109-.444a2.4,2.4,0,0,1-1.812.779,2.125,2.125,0,0,1-1.716-.8,3.454,3.454,0,0,1-.7-2.054A6.9,6.9,0,0,1,33.168-3.705Zm1.894.811a1.768,1.768,0,0,0,.27,1.03.945.945,0,0,0,.783.407,1.726,1.726,0,0,0,1.395-.671l.574-3.136A1.134,1.134,0,0,0,37-5.934a1.512,1.512,0,0,0-1.251.6A3.116,3.116,0,0,0,35.1-3.7,7.187,7.187,0,0,0,35.062-2.894ZM44.133.137a3.218,3.218,0,0,1-1.719-.475A2.88,2.88,0,0,1,41.3-1.624a3.582,3.582,0,0,1-.287-1.8l.021-.273a4.782,4.782,0,0,1,.629-1.982,3.8,3.8,0,0,1,1.354-1.391,3.349,3.349,0,0,1,1.832-.461,2.559,2.559,0,0,1,2.164,1.051,3.6,3.6,0,0,1,.557,2.591l-.109.842H42.923A1.587,1.587,0,0,0,43.271-1.9a1.331,1.331,0,0,0,1.025.444,2.365,2.365,0,0,0,1.846-.82l.882,1.094a2.743,2.743,0,0,1-1.2.981A3.934,3.934,0,0,1,44.133.137Zm.615-6.077a1.37,1.37,0,0,0-.947.335A2.943,2.943,0,0,0,43.06-4.4h2.652l.041-.178a1.812,1.812,0,0,0,.007-.52.992.992,0,0,0-.335-.619A1.05,1.05,0,0,0,44.748-5.94ZM51.6,0l1.729-9.953,2.857.007A3.914,3.914,0,0,1,58-9.492a3.417,3.417,0,0,1,1.3,1.248,4.272,4.272,0,0,1,.6,1.832A6.047,6.047,0,0,1,59.89-5.2l-.048.362a5.685,5.685,0,0,1-1.719,3.51A4.864,4.864,0,0,1,54.681,0ZM55.05-8.292,53.895-1.647l.834.007a2.736,2.736,0,0,0,2.218-1.012,5.229,5.229,0,0,0,.96-3.056l.014-.219a2.757,2.757,0,0,0-.431-1.729,1.644,1.644,0,0,0-1.347-.629ZM63.889.137a3.218,3.218,0,0,1-1.719-.475,2.88,2.88,0,0,1-1.118-1.285,3.582,3.582,0,0,1-.287-1.8l.021-.273a4.782,4.782,0,0,1,.629-1.982,3.8,3.8,0,0,1,1.354-1.391A3.349,3.349,0,0,1,64.6-7.533a2.559,2.559,0,0,1,2.164,1.051,3.6,3.6,0,0,1,.557,2.591l-.109.842H62.679A1.587,1.587,0,0,0,63.027-1.9a1.331,1.331,0,0,0,1.025.444,2.365,2.365,0,0,0,1.846-.82l.882,1.094a2.743,2.743,0,0,1-1.2.981A3.934,3.934,0,0,1,63.889.137ZM64.5-5.94a1.37,1.37,0,0,0-.947.335,2.943,2.943,0,0,0-.742,1.21h2.652l.041-.178a1.812,1.812,0,0,0,.007-.52.992.992,0,0,0-.335-.619A1.05,1.05,0,0,0,64.5-5.94Zm6.3,3.5L72.912-7.4H74.99L71.415,0H69.569L68.3-7.4H70.26ZM76.665,0H74.724l1.285-7.4H77.95Zm-.431-9.276a.963.963,0,0,1,.3-.759,1.058,1.058,0,0,1,.759-.3,1.063,1.063,0,0,1,.759.267.959.959,0,0,1,.335.725.99.99,0,0,1-.284.738,1.063,1.063,0,0,1-.776.328,1.081,1.081,0,0,1-.755-.26A.954.954,0,0,1,76.234-9.276Zm5.3,7.827a1.266,1.266,0,0,0,.889-.291,1.428,1.428,0,0,0,.465-.81L84.7-2.557a2.657,2.657,0,0,1-.489,1.4,2.969,2.969,0,0,1-1.176.971,3.366,3.366,0,0,1-1.548.328,2.733,2.733,0,0,1-2.133-.93,3.469,3.469,0,0,1-.759-2.42l.021-.376.007-.075a4.624,4.624,0,0,1,1.217-2.861,3.291,3.291,0,0,1,2.55-1.015,2.666,2.666,0,0,1,1.986.817A2.885,2.885,0,0,1,85.1-4.635H83.3a1.514,1.514,0,0,0-.26-.937.987.987,0,0,0-.779-.369q-1.381-.041-1.675,2.017a6.81,6.81,0,0,0-.075,1.258Q80.582-1.47,81.539-1.449ZM88.963.137a3.218,3.218,0,0,1-1.719-.475,2.88,2.88,0,0,1-1.118-1.285,3.582,3.582,0,0,1-.287-1.8l.021-.273a4.782,4.782,0,0,1,.629-1.982,3.8,3.8,0,0,1,1.354-1.391,3.349,3.349,0,0,1,1.832-.461,2.559,2.559,0,0,1,2.164,1.051,3.6,3.6,0,0,1,.557,2.591l-.109.842H87.753A1.587,1.587,0,0,0,88.1-1.9a1.331,1.331,0,0,0,1.025.444,2.365,2.365,0,0,0,1.846-.82l.882,1.094a2.743,2.743,0,0,1-1.2.981A3.934,3.934,0,0,1,88.963.137Zm.615-6.077a1.37,1.37,0,0,0-.947.335A2.943,2.943,0,0,0,87.89-4.4h2.652l.041-.178a1.812,1.812,0,0,0,.007-.52.992.992,0,0,0-.335-.619A1.05,1.05,0,0,0,89.578-5.94Zm7.567,3.855q.109-.547-.759-.793l-.622-.157q-2.208-.608-2.146-2.146a2.124,2.124,0,0,1,.926-1.706,3.449,3.449,0,0,1,2.15-.646,3.094,3.094,0,0,1,2.023.663A2.184,2.184,0,0,1,99.5-5.141L97.59-5.147a.843.843,0,0,0-.943-.964,1.358,1.358,0,0,0-.783.226.929.929,0,0,0-.407.608q-.1.547.827.772l.273.062A5.5,5.5,0,0,1,98-3.927a2.177,2.177,0,0,1,.769.721,1.785,1.785,0,0,1,.25,1.032,1.97,1.97,0,0,1-.455,1.23,2.782,2.782,0,0,1-1.189.813,4.144,4.144,0,0,1-1.589.267,3.122,3.122,0,0,1-2.051-.708A2.281,2.281,0,0,1,92.9-2.365l1.818.014a1,1,0,0,0,1.135,1.073,1.614,1.614,0,0,0,.878-.219A.864.864,0,0,0,97.146-2.085Z" transform="translate(5601.889 -8908.438)" fill="#12263f"/>
    <path id="Trazado_777505" data-name="Trazado 777505" d="M5.619-2.659q.144-.813-.8-1.244L3.5-4.43Q1.2-5.455,1.319-7.253a2.593,2.593,0,0,1,.547-1.477,3.288,3.288,0,0,1,1.4-1.008,4.961,4.961,0,0,1,1.948-.352,3.375,3.375,0,0,1,2.331.858,2.859,2.859,0,0,1,.875,2.225h-2a1.424,1.424,0,0,0-.3-1.053A1.339,1.339,0,0,0,5.1-8.449a2.074,2.074,0,0,0-1.189.311,1.276,1.276,0,0,0-.6.892q-.13.745,1,1.183l.9.342.52.239a2.824,2.824,0,0,1,1.887,2.8,2.7,2.7,0,0,1-.564,1.521,3.179,3.179,0,0,1-1.367.981,4.87,4.87,0,0,1-1.9.321A4.264,4.264,0,0,1,1.894-.3,2.93,2.93,0,0,1,.636-1.5,3.1,3.1,0,0,1,.26-3.138l2,.007q-.1,1.62,1.593,1.647a2.093,2.093,0,0,0,1.2-.321A1.251,1.251,0,0,0,5.619-2.659Zm6.33,2.8A3.218,3.218,0,0,1,10.23-.338,2.88,2.88,0,0,1,9.112-1.624a3.582,3.582,0,0,1-.287-1.8L8.846-3.7a4.782,4.782,0,0,1,.629-1.982,3.8,3.8,0,0,1,1.354-1.391,3.349,3.349,0,0,1,1.832-.461,2.559,2.559,0,0,1,2.164,1.051,3.6,3.6,0,0,1,.557,2.591l-.109.842H10.739A1.587,1.587,0,0,0,11.088-1.9a1.331,1.331,0,0,0,1.025.444,2.365,2.365,0,0,0,1.846-.82l.882,1.094a2.743,2.743,0,0,1-1.2.981A3.934,3.934,0,0,1,11.949.137Zm.615-6.077a1.37,1.37,0,0,0-.947.335,2.943,2.943,0,0,0-.742,1.21h2.652l.041-.178a1.812,1.812,0,0,0,.007-.52.992.992,0,0,0-.335-.619A1.05,1.05,0,0,0,12.564-5.94Zm8.347.4a3.98,3.98,0,0,0-.649-.068,1.869,1.869,0,0,0-1.634.772L17.773,0H15.846l1.285-7.4L18.942-7.4l-.178.9a2.034,2.034,0,0,1,1.723-1.046,2.812,2.812,0,0,1,.67.1ZM24.1-2.44,26.209-7.4h2.078L24.712,0H22.866L21.6-7.4h1.955ZM31.438.137a3.218,3.218,0,0,1-1.719-.475A2.88,2.88,0,0,1,28.6-1.624a3.582,3.582,0,0,1-.287-1.8l.021-.273a4.782,4.782,0,0,1,.629-1.982,3.8,3.8,0,0,1,1.354-1.391,3.349,3.349,0,0,1,1.832-.461,2.559,2.559,0,0,1,2.164,1.051,3.6,3.6,0,0,1,.557,2.591l-.109.842H30.229A1.587,1.587,0,0,0,30.577-1.9a1.331,1.331,0,0,0,1.025.444,2.365,2.365,0,0,0,1.846-.82l.882,1.094a2.743,2.743,0,0,1-1.2.981A3.934,3.934,0,0,1,31.438.137Zm.615-6.077a1.37,1.37,0,0,0-.947.335,2.943,2.943,0,0,0-.742,1.21h2.652l.041-.178a1.812,1.812,0,0,0,.007-.52.992.992,0,0,0-.335-.619A1.05,1.05,0,0,0,32.054-5.94Zm8.347.4a3.98,3.98,0,0,0-.649-.068,1.869,1.869,0,0,0-1.634.772L37.263,0H35.335L36.62-7.4,38.432-7.4l-.178.9a2.034,2.034,0,0,1,1.723-1.046,2.812,2.812,0,0,1,.67.1Zm4.245,3.459q.109-.547-.759-.793l-.622-.157q-2.208-.608-2.146-2.146a2.124,2.124,0,0,1,.926-1.706,3.449,3.449,0,0,1,2.15-.646,3.094,3.094,0,0,1,2.023.663A2.184,2.184,0,0,1,47-5.141L45.09-5.147a.843.843,0,0,0-.943-.964,1.358,1.358,0,0,0-.783.226.929.929,0,0,0-.407.608q-.1.547.827.772l.273.062a5.5,5.5,0,0,1,1.442.516,2.177,2.177,0,0,1,.769.721,1.785,1.785,0,0,1,.25,1.032,1.97,1.97,0,0,1-.455,1.23,2.782,2.782,0,0,1-1.189.813,4.144,4.144,0,0,1-1.589.267,3.122,3.122,0,0,1-2.051-.708A2.281,2.281,0,0,1,40.4-2.365l1.818.014a1,1,0,0,0,1.135,1.073,1.614,1.614,0,0,0,.878-.219A.864.864,0,0,0,44.646-2.085Z" transform="translate(5317.821 -9094.391)" fill="#12263f"/>
    <path id="Trazado_777506" data-name="Trazado 777506" d="M8.012,0H6.07L3.3-6.638,2.146,0h-2L1.873-9.953H3.808L6.583-3.3,7.738-9.953h2Zm5.182.137a3.218,3.218,0,0,1-1.719-.475,2.88,2.88,0,0,1-1.118-1.285,3.582,3.582,0,0,1-.287-1.8L10.09-3.7a4.782,4.782,0,0,1,.629-1.982,3.8,3.8,0,0,1,1.354-1.391A3.349,3.349,0,0,1,13.9-7.533a2.559,2.559,0,0,1,2.164,1.051,3.6,3.6,0,0,1,.557,2.591l-.109.842H11.983A1.587,1.587,0,0,0,12.332-1.9a1.331,1.331,0,0,0,1.025.444,2.365,2.365,0,0,0,1.846-.82l.882,1.094a2.743,2.743,0,0,1-1.2.981A3.934,3.934,0,0,1,13.193.137Zm.615-6.077a1.37,1.37,0,0,0-.947.335A2.943,2.943,0,0,0,12.12-4.4h2.652l.041-.178a1.812,1.812,0,0,0,.007-.52.992.992,0,0,0-.335-.619A1.05,1.05,0,0,0,13.809-5.94ZM21-9.215,20.679-7.4h1.23l-.253,1.449h-1.23L19.8-2.242a.942.942,0,0,0,.055.533q.1.185.465.2.109.007.588-.034L20.768-.034A3.242,3.242,0,0,1,19.66.123a1.737,1.737,0,0,1-1.415-.595,2.149,2.149,0,0,1-.383-1.572l.636-3.9H17.452L17.705-7.4h1.046l.314-1.818Zm7.424,6.521,1.757-4.7H32.1L28.991,0H27.378l-.547-4.628L24.671,0H23.058l-.547-7.4h1.8l.116,4.655L26.544-7.4h1.395Zm7.6-4.84a2.967,2.967,0,0,1,1.685.5A2.83,2.83,0,0,1,38.75-5.684a4.166,4.166,0,0,1,.236,1.9A4.5,4.5,0,0,1,37.758-.926,3.465,3.465,0,0,1,35.116.137a2.958,2.958,0,0,1-1.668-.5A2.819,2.819,0,0,1,32.409-1.7a4.075,4.075,0,0,1-.239-1.887,4.633,4.633,0,0,1,1.244-2.912A3.393,3.393,0,0,1,36.025-7.533ZM34.077-2.883a1.707,1.707,0,0,0,.308,1.034,1.022,1.022,0,0,0,.827.392,1.5,1.5,0,0,0,1.395-.816,4.066,4.066,0,0,0,.472-2.215,1.856,1.856,0,0,0-.318-1.048,1,1,0,0,0-.831-.406,1.5,1.5,0,0,0-1.377.809A4.024,4.024,0,0,0,34.077-2.883ZM44.6-5.544a3.98,3.98,0,0,0-.649-.068,1.869,1.869,0,0,0-1.634.772L41.467,0H39.539l1.285-7.4L42.636-7.4l-.178.9a2.034,2.034,0,0,1,1.723-1.046,2.812,2.812,0,0,1,.67.1Zm3.158,2.6-.9.779L46.491,0H44.563l1.818-10.5h1.935l-1,5.7.376-.4L49.889-7.4h2.475L49.13-4.218,51.188,0H49.075Zm11.86.861q.109-.547-.759-.793l-.622-.157Q56.034-3.644,56.1-5.182a2.124,2.124,0,0,1,.926-1.706,3.449,3.449,0,0,1,2.15-.646A3.094,3.094,0,0,1,61.2-6.87a2.184,2.184,0,0,1,.786,1.729l-1.914-.007a.843.843,0,0,0-.943-.964,1.358,1.358,0,0,0-.783.226.929.929,0,0,0-.407.608q-.1.547.827.772l.273.062a5.5,5.5,0,0,1,1.442.516,2.177,2.177,0,0,1,.769.721,1.785,1.785,0,0,1,.25,1.032,1.97,1.97,0,0,1-.455,1.23,2.782,2.782,0,0,1-1.189.813,4.144,4.144,0,0,1-1.589.267,3.122,3.122,0,0,1-2.051-.708,2.281,2.281,0,0,1-.834-1.794l1.818.014a1,1,0,0,0,1.135,1.073,1.614,1.614,0,0,0,.878-.219A.864.864,0,0,0,59.623-2.085Zm9.44-.608L70.82-7.4h1.921L69.631,0H68.018l-.547-4.628L65.311,0H63.7L63.15-7.4h1.8l.116,4.655L67.184-7.4h1.395ZM74.471,0H72.529l1.285-7.4h1.941ZM74.04-9.276a.963.963,0,0,1,.3-.759,1.058,1.058,0,0,1,.759-.3,1.063,1.063,0,0,1,.759.267.959.959,0,0,1,.335.725.99.99,0,0,1-.284.738,1.063,1.063,0,0,1-.776.328,1.081,1.081,0,0,1-.755-.26A.954.954,0,0,1,74.04-9.276Zm5.975.062L79.693-7.4h1.23l-.253,1.449H79.44l-.629,3.705a.942.942,0,0,0,.055.533q.1.185.465.2.109.007.588-.034L79.782-.034a3.242,3.242,0,0,1-1.107.157A1.737,1.737,0,0,1,77.26-.472a2.149,2.149,0,0,1-.383-1.572l.636-3.9H76.467L76.72-7.4h1.046l.314-1.818ZM84-1.449a1.266,1.266,0,0,0,.889-.291,1.428,1.428,0,0,0,.465-.81l1.812-.007a2.657,2.657,0,0,1-.489,1.4A2.969,2.969,0,0,1,85.5-.185a3.366,3.366,0,0,1-1.548.328,2.733,2.733,0,0,1-2.133-.93,3.469,3.469,0,0,1-.759-2.42l.021-.376.007-.075A4.624,4.624,0,0,1,82.3-6.518a3.291,3.291,0,0,1,2.55-1.015,2.666,2.666,0,0,1,1.986.817,2.885,2.885,0,0,1,.721,2.082h-1.8a1.514,1.514,0,0,0-.26-.937.987.987,0,0,0-.779-.369q-1.381-.041-1.675,2.017a6.81,6.81,0,0,0-.075,1.258Q83.043-1.47,84-1.449Zm6.85-5.127a2.578,2.578,0,0,1,2-.957,1.875,1.875,0,0,1,1.617.79,3.1,3.1,0,0,1,.386,2.082L94.076,0H92.148l.786-4.688a2.272,2.272,0,0,0,.014-.493.775.775,0,0,0-.861-.76,1.665,1.665,0,0,0-1.367.671L89.79,0H87.862l1.818-10.5h1.935Z" transform="translate(5136.541 -9082.243)" fill="#12263f"/>
    <path id="Trazado_777507" data-name="Trazado 777507" d="M6.672-4.067H2.857L2.146,0h-2L1.873-9.953h6.3L7.882-8.292H3.589l-.451,2.57H6.966ZM9.563,0H7.622L8.907-7.4h1.941ZM9.133-9.276a.963.963,0,0,1,.3-.759,1.058,1.058,0,0,1,.759-.3,1.063,1.063,0,0,1,.759.267.959.959,0,0,1,.335.725A.99.99,0,0,1,11-8.606a1.063,1.063,0,0,1-.776.328,1.081,1.081,0,0,1-.755-.26A.954.954,0,0,1,9.133-9.276Zm9.174,5.6a5.3,5.3,0,0,1-1.066,2.8A2.654,2.654,0,0,1,15.012.144,2.062,2.062,0,0,1,13.234-.8l-.28.8H11.2l1.818-10.5H14.95l-.745,3.78a2.3,2.3,0,0,1,1.8-.813,2.087,2.087,0,0,1,1.685.769,3.4,3.4,0,0,1,.653,2.088A7.991,7.991,0,0,1,18.307-3.678Zm-1.914-.144a5.735,5.735,0,0,0,.041-.905q-.075-1.193-.984-1.214a1.6,1.6,0,0,0-1.415.775L13.5-2.217a1.1,1.1,0,0,0,1.107.768q1.422.041,1.743-2.071ZM22.422.137A3.218,3.218,0,0,1,20.7-.338a2.88,2.88,0,0,1-1.118-1.285,3.582,3.582,0,0,1-.287-1.8l.021-.273a4.782,4.782,0,0,1,.629-1.982A3.8,3.8,0,0,1,21.3-7.072a3.349,3.349,0,0,1,1.832-.461A2.559,2.559,0,0,1,25.3-6.482a3.6,3.6,0,0,1,.557,2.591l-.109.842H21.212A1.587,1.587,0,0,0,21.561-1.9a1.331,1.331,0,0,0,1.025.444,2.365,2.365,0,0,0,1.846-.82l.882,1.094a2.743,2.743,0,0,1-1.2.981A3.934,3.934,0,0,1,22.422.137Zm.615-6.077a1.37,1.37,0,0,0-.947.335,2.943,2.943,0,0,0-.742,1.21H24l.041-.178a1.812,1.812,0,0,0,.007-.52.992.992,0,0,0-.335-.619A1.05,1.05,0,0,0,23.037-5.94Zm8.347.4a3.98,3.98,0,0,0-.649-.068A1.869,1.869,0,0,0,29.1-4.84L28.246,0H26.318L27.6-7.4,29.415-7.4l-.178.9A2.034,2.034,0,0,1,30.96-7.547a2.812,2.812,0,0,1,.67.1Zm6.651,4.095a1.266,1.266,0,0,0,.889-.291,1.428,1.428,0,0,0,.465-.81L41.2-2.557a2.657,2.657,0,0,1-.489,1.4,2.969,2.969,0,0,1-1.176.971,3.366,3.366,0,0,1-1.548.328,2.733,2.733,0,0,1-2.133-.93,3.469,3.469,0,0,1-.759-2.42l.021-.376.007-.075A4.624,4.624,0,0,1,36.34-6.518a3.291,3.291,0,0,1,2.55-1.015,2.666,2.666,0,0,1,1.986.817A2.885,2.885,0,0,1,41.6-4.635H39.8a1.514,1.514,0,0,0-.26-.937.987.987,0,0,0-.779-.369q-1.381-.041-1.675,2.017a6.809,6.809,0,0,0-.075,1.258Q37.078-1.47,38.035-1.449Zm6.85-5.127a2.578,2.578,0,0,1,2-.957,1.875,1.875,0,0,1,1.617.79,3.1,3.1,0,0,1,.386,2.082L48.111,0H46.184l.786-4.688a2.272,2.272,0,0,0,.014-.493.775.775,0,0,0-.861-.76,1.665,1.665,0,0,0-1.367.671L43.825,0H41.9l1.818-10.5H45.65ZM53.895,0a2,2,0,0,1-.075-.67,2.505,2.505,0,0,1-1.887.807A2.27,2.27,0,0,1,50.323-.5a1.913,1.913,0,0,1-.6-1.528A2.211,2.211,0,0,1,50.74-3.879a4.608,4.608,0,0,1,2.594-.646l.9.014.1-.444a1.543,1.543,0,0,0,.021-.431.74.74,0,0,0-.243-.5.836.836,0,0,0-.55-.188,1.177,1.177,0,0,0-.766.222,1.077,1.077,0,0,0-.4.68l-1.935.007a2.15,2.15,0,0,1,.974-1.719,3.773,3.773,0,0,1,2.287-.646,2.727,2.727,0,0,1,1.969.749,2.19,2.19,0,0,1,.595,1.856l-.567,3.541-.034.438a2.111,2.111,0,0,0,.116.82L55.788,0ZM52.411-1.36a1.765,1.765,0,0,0,1.456-.725l.239-1.278-.67-.007a1.872,1.872,0,0,0-1.538.649,1.131,1.131,0,0,0-.212.554.656.656,0,0,0,.154.584A.779.779,0,0,0,52.411-1.36Zm7.6-6.043-.164.875a2.661,2.661,0,0,1,2.153-1,1.774,1.774,0,0,1,1.545.766A3.085,3.085,0,0,1,63.909-4.7L63.13,0H61.2L62-4.724a2.212,2.212,0,0,0,.014-.485.783.783,0,0,0-.875-.718,1.659,1.659,0,0,0-1.36.7L58.851,0H56.923l1.285-7.4Zm7.677,0-.164.875a2.661,2.661,0,0,1,2.153-1,1.774,1.774,0,0,1,1.545.766A3.085,3.085,0,0,1,71.586-4.7L70.807,0H68.879l.793-4.724a2.212,2.212,0,0,0,.014-.485.783.783,0,0,0-.875-.718,1.659,1.659,0,0,0-1.36.7L66.527,0H64.6l1.285-7.4ZM75.831.137a3.218,3.218,0,0,1-1.719-.475,2.88,2.88,0,0,1-1.118-1.285,3.582,3.582,0,0,1-.287-1.8l.021-.273a4.782,4.782,0,0,1,.629-1.982A3.8,3.8,0,0,1,74.71-7.072a3.349,3.349,0,0,1,1.832-.461,2.559,2.559,0,0,1,2.164,1.051,3.6,3.6,0,0,1,.557,2.591l-.109.842H74.621A1.587,1.587,0,0,0,74.97-1.9,1.331,1.331,0,0,0,76-1.456a2.365,2.365,0,0,0,1.846-.82l.882,1.094a2.743,2.743,0,0,1-1.2.981A3.934,3.934,0,0,1,75.831.137Zm.615-6.077a1.37,1.37,0,0,0-.947.335,2.943,2.943,0,0,0-.742,1.21H77.41l.041-.178a1.812,1.812,0,0,0,.007-.52.992.992,0,0,0-.335-.619A1.05,1.05,0,0,0,76.446-5.94ZM81.765,0H79.823l1.825-10.5h1.935Z" transform="translate(5455.183 -9082.243)" fill="#12263f"/>
    <path id="Trazado_197243" data-name="Trazado 197243" d="M3107.671-8516.166h-31.3" transform="translate(2014.658 -528.772)" fill="none" stroke="#12263f" stroke-width="4"/>
    <path id="Trazado_197249" data-name="Trazado 197249" d="M3091.4-8516.166h-15.022" transform="translate(2486.443 -528.772)" fill="none" stroke="#12263f" stroke-width="4"/>
    <path id="Trazado_197251" data-name="Trazado 197251" d="M3088.333-8516.166h-11.958" transform="translate(2499.526 -618.793)" fill="none" stroke="#12263f" stroke-width="4"/>
    <path id="Trazado_197252" data-name="Trazado 197252" d="M3088.333-8516.166h-11.958" transform="translate(2499.526 -438.753)" fill="none" stroke="#12263f" stroke-width="4"/>
    <path id="Trazado_197247" data-name="Trazado 197247" d="M3092.023-8516.166h-15.648" transform="translate(2171.396 -528.772)" fill="none" stroke="#12263f" stroke-width="4"/>
    <path id="Trazado_197248" data-name="Trazado 197248" d="M3096.6-8516.166h-20.229" transform="translate(2343.453 -528.772)" fill="none" stroke="#12263f" stroke-width="4"/>
    <path id="Trazado_197245" data-name="Trazado 197245" d="M3092.023-8516.166h-15.648" transform="translate(2014.658 -618.793)" fill="none" stroke="#12263f" stroke-width="4"/>
    <path id="Trazado_197246" data-name="Trazado 197246" d="M3092.023-8516.166h-15.648" transform="translate(2014.658 -438.753)" fill="none" stroke="#12263f" stroke-width="4"/>
    <path id="Trazado_197244" data-name="Trazado 197244" d="M182.467,0H0" transform="translate(5106.055 -8953.705) rotate(-90)" fill="none" stroke="#12263f" stroke-width="4"/>
    <path id="Trazado_197250" data-name="Trazado 197250" d="M182.467,0H0" transform="translate(5577.84 -8953.705) rotate(-90)" fill="none" stroke="#12263f" stroke-width="4"/>
  </g>
</svg>
