<svg xmlns="http://www.w3.org/2000/svg" xmlns:xlink="http://www.w3.org/1999/xlink" width="114.636" height="114.636" viewBox="0 0 114.636 114.636">
  <defs>
    <radialGradient id="radial-gradient" cx="0.076" cy="0.019" r="1.465" gradientTransform="translate(0.001)" gradientUnits="objectBoundingBox">
      <stop offset="0" stop-color="#f6f6f7"/>
      <stop offset="0.477" stop-color="#f9f9fa"/>
      <stop offset="0.715" stop-color="#fff"/>
    </radialGradient>
  </defs>
  <g id="Grupo_1071814" data-name="Grupo 1071814" transform="translate(-1160.974 -941)">
    <g id="Grupo_1071810" data-name="Grupo 1071810" transform="translate(1160.974 941)">
      <g id="Grupo_18423" data-name="Grupo 18423" transform="translate(0 0)">
        <g id="Grupo_18421" data-name="Grupo 18421">
          <g id="Grupo_18420" data-name="Grupo 18420">
            <g id="Grupo_18419" data-name="Grupo 18419">
              <path id="Trazado_40936" data-name="Trazado 40936" d="M309.259,2203.037a57.318,57.318,0,1,1-57.317-57.316A57.317,57.317,0,0,1,309.259,2203.037Z" transform="translate(-194.623 -2145.721)" fill="#fff"/>
            </g>
          </g>
        </g>
        <path id="Trazado_40937" data-name="Trazado 40937" d="M308.648,2202.372a57.316,57.316,0,1,0-57.317,57.319A57.091,57.091,0,0,0,308.648,2202.372Z" transform="translate(-194.013 -2145.056)" fill="url(#radial-gradient)"/>
        <path id="Trazado_40938" data-name="Trazado 40938" d="M289.672,2196.986a43.75,43.75,0,1,0-43.75,43.75A43.587,43.587,0,0,0,289.672,2196.986Z" transform="translate(-188.43 -2139.479)" fill="none" stroke="#2b3990" stroke-miterlimit="10" stroke-width="4"/>
        <g id="Grupo_18422" data-name="Grupo 18422" transform="translate(10.154 32.18)">
          <path id="Trazado_40939" data-name="Trazado 40939" d="M299.231,2164.488a57.325,57.325,0,0,1-98.686,57.081,57.143,57.143,0,0,0,98.686-57.081Z" transform="translate(-200.545 -2164.488)" fill="#eceef0"/>
        </g>
      </g>
    </g>
    <g id="Grupo_1071811" data-name="Grupo 1071811" transform="translate(1192.974 971)">
      <path id="Trazado_184074" data-name="Trazado 184074" d="M4486.714,513.6c-.608.585-1.207,1.181-1.827,1.754a1.732,1.732,0,0,0-.051,2.255c.438.417.867.842,1.313,1.25a.978.978,0,0,1,.264,1.226c-.383.862-.77,1.722-1.148,2.586a.917.917,0,0,1-.986.6,9.96,9.96,0,0,1-1.3-.1,1.781,1.781,0,0,0-1.9.647,1.15,1.15,0,0,0-.359.888c.05.6.053,1.208.071,1.812a.984.984,0,0,1-.694,1.046q-1.323.5-2.639,1.015a.949.949,0,0,1-1.163-.313,14.053,14.053,0,0,1-.949-1.126,1.569,1.569,0,0,0-1.479-.715,1.316,1.316,0,0,0-1.129.469c-.367.454-.8.852-1.2,1.278a.936.936,0,0,1-1.137.227c-.883-.382-1.757-.782-2.637-1.171a.918.918,0,0,1-.584-1c.05-.678.108-1.356.141-2.035a1.876,1.876,0,0,0-1.478-1.5c-.6.015-1.208.036-1.812.066a1.053,1.053,0,0,1-1.17-.763c-.305-.852-.64-1.693-.976-2.534a.97.97,0,0,1,.313-1.212,8.039,8.039,0,0,1,.954-.8,1.748,1.748,0,0,0,.856-1.916,1.2,1.2,0,0,0-.27-.629c-.438-.468-.912-.9-1.387-1.336a1,1,0,0,1-.27-1.271c.381-.842.759-1.686,1.125-2.534a.938.938,0,0,1,1.026-.623c.641.049,1.28.1,1.921.138a1.781,1.781,0,0,0,1.6-1.544c-.017-.585-.035-1.171-.065-1.756a1.053,1.053,0,0,1,.773-1.162c.917-.337,1.815-.724,2.722-1.09h.453c.6.622,1.2,1.236,1.787,1.867a1.79,1.79,0,0,0,2.176.057c.432-.45.869-.893,1.288-1.354a1,1,0,0,1,1.273-.253c.825.373,1.649.743,2.481,1.1a.99.99,0,0,1,.659,1.117c-.057.6-.075,1.206-.141,1.805a1.184,1.184,0,0,0,.325.905,1.7,1.7,0,0,0,1.8.728,7.312,7.312,0,0,1,1.129-.051c.732-.014.963.144,1.236.825q.533,1.334,1.068,2.667Zm-22.063-2.6c-.185.416-.333.806-.528,1.171-.16.3-.153.53.141.719a3.435,3.435,0,0,1,1.528,3.9c-.018.092.017.2-.02.281a3.116,3.116,0,0,1-.438.869,7.979,7.979,0,0,1-1.2,1.038.545.545,0,0,0-.187.812,1.41,1.41,0,0,1,.167.419c.108.632.479.739,1.079.714,2.171-.09,1.563-.241,3.078,1.22a2.611,2.611,0,0,1,.874,2.4c-.159,1.306-.1,1.323,1.14,1.8a.656.656,0,0,0,.563-.107c.432-.393.8-.856,1.232-1.249a1.337,1.337,0,0,1,.729-.366c1.652-.112,3.276-.108,4.189,1.662a.745.745,0,0,0,.185.214c.068.057.174.147.229.128a6.92,6.92,0,0,0,1.452-.6c.146-.094.107-.568.057-.85a2.672,2.672,0,0,1,1.2-2.928c.232-.157.387-.436.627-.567a2.564,2.564,0,0,1,1.059-.379,19.326,19.326,0,0,1,2.021.117,5.969,5.969,0,0,1,.375-.8c.362-.554.229-.917-.255-1.372-1.572-1.477-1.276-.843-1.3-3.1a2.5,2.5,0,0,1,1.072-2.2c1.1-.843,1.077-.889.469-2.141a.621.621,0,0,0-.452-.287c-.546-.019-1.1.083-1.639.018a2.188,2.188,0,0,1-1.086-.457,8.672,8.672,0,0,1-1.324-1.394,1.9,1.9,0,0,1-.365-1.006c-.03-.561.092-1.129.095-1.694a.661.661,0,0,0-.293-.5c-1.213-.618-1.217-.608-2.17.383a4.439,4.439,0,0,1-.395.406c-.231.186-.478.494-.722.5-1.505.017-3.154.4-4.1-1.332a2.273,2.273,0,0,0-.406-.471c-.075-.075-.2-.192-.265-.17a6.689,6.689,0,0,0-1.452.6c-.146.095-.1.563-.06.849a2.588,2.588,0,0,1-1.073,2.814c-.3.193-.5.533-.794.72a2.02,2.02,0,0,1-.961.345C4466.055,511.138,4465.377,511.047,4464.651,511Z" transform="translate(-4436.146 -503.735)" fill="#2b3990"/>
      <path id="Trazado_184075" data-name="Trazado 184075" d="M4250.019,607.289c.626-1.464,1.261-2.949,1.922-4.5h-2.578q-4.252,0-8.5,0a4.54,4.54,0,0,1-4.772-4.768q0-13.833,0-27.666a4.53,4.53,0,0,1,4.724-4.758q9.609-.008,19.216,0h.521v1.814h-19.586a2.753,2.753,0,0,0-3.062,3.038q0,11.31,0,22.62v.606h43.525V582.865h1.827v.585q0,7.257,0,14.513a4.55,4.55,0,0,1-4.828,4.828q-5.157,0-10.316,0h-.709l1.938,4.536c1.266,0,2.512,0,3.758,0a2.726,2.726,0,1,1,.009,5.441q-13.436,0-26.868,0a2.726,2.726,0,1,1,.006-5.441c1.209,0,2.419,0,3.627-.007A.894.894,0,0,0,4250.019,607.289ZM4237.9,595.556c0,.834,0,1.608,0,2.381a2.755,2.755,0,0,0,3.062,3.041h19.5q9.042,0,18.084,0a2.638,2.638,0,0,0,2.825-2.252,26.632,26.632,0,0,0,.025-3.168ZM4252,607.29h15.351c-.623-1.457-1.215-2.861-1.833-4.254a.556.556,0,0,0-.43-.234q-5.411-.019-10.822,0a.557.557,0,0,0-.432.233C4253.21,604.428,4252.618,605.832,4252,607.29Zm7.619,3.667h13.208a3.148,3.148,0,0,0,.565-.015.9.9,0,0,0,0-1.785,2.848,2.848,0,0,0-.509-.014h-26.416a2.824,2.824,0,0,0-.509.014.9.9,0,0,0,0,1.785,3.176,3.176,0,0,0,.566.015Z" transform="translate(-4236.086 -558.566)" fill="#2b3990"/>
      <path id="Trazado_184076" data-name="Trazado 184076" d="M4308.172,783.151V781.4h27.139v1.748Z" transform="translate(-4299.98 -749.85)" fill="#2b3990"/>
      <path id="Trazado_184077" data-name="Trazado 184077" d="M4330.938,749.558v1.748h-22.6v-1.748Z" transform="translate(-4300.123 -721.624)" fill="#2b3990"/>
      <path id="Trazado_184078" data-name="Trazado 184078" d="M4328.222,717.632v1.746h-19.883v-1.746Z" transform="translate(-4300.128 -693.326)" fill="#2b3990"/>
      <path id="Trazado_184079" data-name="Trazado 184079" d="M4325.407,685.591v1.751h-17.176v-1.751Z" transform="translate(-4300.033 -664.926)" fill="#2b3990"/>
      <path id="Trazado_184080" data-name="Trazado 184080" d="M4277.939,611.383l2.2,2.025-1.311,1.3c-.917-.908-1.84-1.8-2.731-2.718a.822.822,0,0,1,.023-1.225c.878-.908,1.781-1.792,2.7-2.714l1.2,1.329Z" transform="translate(-4271.314 -596.193)" fill="#2b3990"/>
      <path id="Trazado_184081" data-name="Trazado 184081" d="M4368.035,612.253l-2.192-2.016L4367.21,609c.866.845,1.809,1.738,2.717,2.667a.774.774,0,0,1,0,1.133c-.908.929-1.85,1.822-2.8,2.746l-1.221-1.29Z" transform="translate(-4351.098 -597.039)" fill="#2b3990"/>
      <path id="Trazado_184082" data-name="Trazado 184082" d="M4325.968,611.417l-1.754-.453c.607-2.427,1.2-4.809,1.813-7.239l1.759.436C4327.176,606.6,4326.579,608.981,4325.968,611.417Z" transform="translate(-4314.2 -592.362)" fill="#2b3990"/>
      <path id="Trazado_184083" data-name="Trazado 184083" d="M4276.209,687.379v-1.74h1.764v1.74Z" transform="translate(-4271.649 -664.968)" fill="#2b3990"/>
      <path id="Trazado_184084" data-name="Trazado 184084" d="M4276.243,717.482h1.75v1.76h-1.75Z" transform="translate(-4271.679 -693.193)" fill="#2b3990"/>
      <path id="Trazado_184085" data-name="Trazado 184085" d="M4278.1,751.287h-1.744v-1.754h1.744Z" transform="translate(-4271.784 -721.602)" fill="#2b3990"/>
      <path id="Trazado_184086" data-name="Trazado 184086" d="M4525.554,751.321h-1.724v-1.764h1.724Z" transform="translate(-4491.132 -721.623)" fill="#2b3990"/>
      <path id="Trazado_184087" data-name="Trazado 184087" d="M4557.482,751.321h-1.723v-1.764h1.723Z" transform="translate(-4519.433 -721.623)" fill="#2b3990"/>
      <path id="Trazado_184088" data-name="Trazado 184088" d="M4278.029,783.158h-1.74v-1.764h1.74Z" transform="translate(-4271.72 -749.842)" fill="#2b3990"/>
      <path id="Trazado_184089" data-name="Trazado 184089" d="M4563.452,783.285v-1.734h1.764v1.734Z" transform="translate(-4526.251 -749.981)" fill="#2b3990"/>
      <path id="Trazado_184090" data-name="Trazado 184090" d="M4597.4,783.23h-1.74v-1.751h1.74Z" transform="translate(-4554.797 -749.917)" fill="#2b3990"/>
      <path id="Trazado_184091" data-name="Trazado 184091" d="M4527.438,563.184a6.457,6.457,0,1,1-6.432-6.483A6.472,6.472,0,0,1,4527.438,563.184Zm-1.815-.036a4.643,4.643,0,1,0-4.651,4.652A4.656,4.656,0,0,0,4525.623,563.148Z" transform="translate(-4482.884 -550.682)" fill="#2b3990"/>
      <path id="Trazado_184092" data-name="Trazado 184092" d="M4437.757,847.1h-1.741v-1.751h1.741Z" transform="translate(-4413.297 -806.526)" fill="#2b3990"/>
    </g>
  </g>
</svg>
