<svg xmlns="http://www.w3.org/2000/svg" xmlns:xlink="http://www.w3.org/1999/xlink" width="114.636" height="114.636" viewBox="0 0 114.636 114.636">
  <defs>
    <radialGradient id="radial-gradient" cx="0.076" cy="0.019" r="1.465" gradientTransform="translate(0.001)" gradientUnits="objectBoundingBox">
      <stop offset="0" stop-color="#f6f6f7"/>
      <stop offset="0.477" stop-color="#f9f9fa"/>
      <stop offset="0.715" stop-color="#fff"/>
    </radialGradient>
  </defs>
  <g id="Grupo_1071819" data-name="Grupo 1071819" transform="translate(-322.974 -941)">
    <g id="Grupo_1071817" data-name="Grupo 1071817" transform="translate(322.974 941)">
      <g id="Grupo_18423" data-name="Grupo 18423" transform="translate(0 0)">
        <g id="Grupo_18421" data-name="Grupo 18421">
          <g id="Grupo_18420" data-name="Grupo 18420">
            <g id="Grupo_18419" data-name="Grupo 18419">
              <path id="Trazado_40936" data-name="Trazado 40936" d="M309.259,2203.037a57.318,57.318,0,1,1-57.317-57.316A57.317,57.317,0,0,1,309.259,2203.037Z" transform="translate(-194.623 -2145.721)" fill="#fff"/>
            </g>
          </g>
        </g>
        <path id="Trazado_40937" data-name="Trazado 40937" d="M308.648,2202.372a57.316,57.316,0,1,0-57.317,57.319A57.091,57.091,0,0,0,308.648,2202.372Z" transform="translate(-194.013 -2145.056)" fill="url(#radial-gradient)"/>
        <path id="Trazado_40938" data-name="Trazado 40938" d="M289.672,2196.986a43.75,43.75,0,1,0-43.75,43.75A43.587,43.587,0,0,0,289.672,2196.986Z" transform="translate(-188.43 -2139.479)" fill="none" stroke="#2b3990" stroke-miterlimit="10" stroke-width="4"/>
        <g id="Grupo_18422" data-name="Grupo 18422" transform="translate(10.154 32.18)">
          <path id="Trazado_40939" data-name="Trazado 40939" d="M299.231,2164.488a57.325,57.325,0,0,1-98.686,57.081,57.143,57.143,0,0,0,98.686-57.081Z" transform="translate(-200.545 -2164.488)" fill="#eceef0"/>
        </g>
      </g>
    </g>
    <g id="Grupo_1071816" data-name="Grupo 1071816" transform="translate(353.974 972)">
      <path id="Trazado_184357" data-name="Trazado 184357" d="M2875.463-2070.178c1.383-3.408,2.614-4.229,6.346-4.229,2.417,0,4.834,0,7.251,0,.75,0,1.452.106,1.451,1.054,0,.923-.682,1.095-1.436,1.1-2.724,0-5.448-.006-8.172,0a3.043,3.043,0,0,0-3.312,3.285q-.024,16.057,0,32.113a3.242,3.242,0,0,0,3.361,3.467c9.861.029,19.721.012,29.582.009a5.341,5.341,0,0,0,.6-.086v-1.228c0-2.494-.02-4.988.006-7.482a5.265,5.265,0,0,1,5.2-5.222c1.035-.018,2.072.017,3.107-.01.768-.019,1.351.258,1.328,1.062-.022.78-.609,1.074-1.368,1.059q-1.438-.028-2.878,0a3.18,3.18,0,0,0-3.273,3.272c-.025,2.26-.006,4.52-.006,6.942a7.77,7.77,0,0,0,.687-.533c3.53-3.523,7.071-7.037,10.562-10.6a2.506,2.506,0,0,0,.64-1.588c.042-6.906.016-13.812.055-20.718a1.8,1.8,0,0,1,.623-1.4c.345-.164.969.259,1.471.424v23.493l-14.741,14.74h-32.476a5.856,5.856,0,0,1-4.606-4.606Z" transform="translate(-2875.463 2083.077)" fill="#2b3990"/>
      <path id="Trazado_184358" data-name="Trazado 184358" d="M2966.071-2112.042a2.679,2.679,0,0,1,1.624,2.861c-.066,1.8,0,3.6-.021,5.4a2.262,2.262,0,0,1-2.542,2.554q-6.088.027-12.175,0a2.263,2.263,0,0,1-2.54-2.556c-.016-1.8.048-3.6-.021-5.4a2.673,2.673,0,0,1,1.625-2.859Zm-13.49,8.594h12.889v-6.4h-12.889Z" transform="translate(-2933.135 2112.042)" fill="#2b3990"/>
      <path id="Trazado_184359" data-name="Trazado 184359" d="M2959.08-2044.986c-2.032,0-4.062.01-6.094,0-1.73-.011-2.512-.8-2.524-2.546-.013-1.917-.017-3.833,0-5.749a2.193,2.193,0,0,1,2.487-2.468q6.151-.023,12.3,0a2.192,2.192,0,0,1,2.465,2.49c.017,1.955.021,3.909,0,5.864a2.166,2.166,0,0,1-2.428,2.405C2963.219-2044.972,2961.15-2044.986,2959.08-2044.986Zm6.473-2.18v-6.38H2952.63v6.38Z" transform="translate(-2933.179 2068.725)" fill="#2b3990"/>
      <path id="Trazado_184360" data-name="Trazado 184360" d="M2959.011-1988.629c-2.069,0-4.138.015-6.207,0a2.113,2.113,0,0,1-2.349-2.348q-.037-2.988,0-5.977a2.09,2.09,0,0,1,2.316-2.368q6.322-.026,12.643,0a2.071,2.071,0,0,1,2.291,2.277q.043,3.045,0,6.091a2.117,2.117,0,0,1-2.373,2.324C2963.226-1988.615,2961.118-1988.629,2959.011-1988.629Zm-6.382-8.534v6.328h12.881v-6.328Z" transform="translate(-2933.169 2025.297)" fill="#2b3990"/>
      <path id="Trazado_184361" data-name="Trazado 184361" d="M3038.571-2077.75a12.313,12.313,0,0,1,1.282.907c.528.478.68,1.164.064,1.567a1.591,1.591,0,0,1-1.492-.074,40.811,40.811,0,0,1-3.111-3.063,1.067,1.067,0,0,1,.031-1.633c1.024-1.036,2.012-2.117,3.121-3.054.308-.26.988-.082,1.5-.1a3.829,3.829,0,0,1-.055,1.522c-.216.438-.773.709-1.181,1.053l.143.321c1.274,0,2.554.069,3.817-.047a1.348,1.348,0,0,0,.851-.991c.071-2.874.052-5.751.036-8.626,0-.892-.581-1.152-1.386-1.146-1.955.014-3.911,0-5.866.008-.811,0-1.449-.287-1.292-1.164a1.451,1.451,0,0,1,1.06-.9q3.389-.122,6.784-.014a2.9,2.9,0,0,1,2.786,2.843q.082,4.657,0,9.316a2.925,2.925,0,0,1-2.912,2.834c-1.264.04-2.529.03-3.793.047-.021,0-.042.057-.063.088Z" transform="translate(-2998.215 2097.57)" fill="#2b3990"/>
      <path id="Trazado_184362" data-name="Trazado 184362" d="M2901.166-2021.967c-1.1,0-2.191.006-3.286,0-2.385-.015-3.543-1.153-3.552-3.506q-.015-4.083,0-8.167a3.114,3.114,0,0,1,3.35-3.39c1.955-.022,3.911,0,5.866-.009.756,0,1.462.128,1.48,1.041.021,1.012-.733,1.083-1.529,1.074-1.84-.021-3.681.013-5.521-.014-1.038-.015-1.568.368-1.555,1.478q.048,3.968,0,7.936c-.012,1.027.412,1.478,1.44,1.445,1.07-.035,2.142-.007,3.507-.007-.518-.538-.874-.9-1.22-1.27-.481-.515-.676-1.175-.063-1.584a1.588,1.588,0,0,1,1.493.058,40.376,40.376,0,0,1,3.117,3.057,1.128,1.128,0,0,1-.077,1.73c-.968.984-1.94,1.963-2.925,2.929-.532.521-1.158.7-1.711.091a1.039,1.039,0,0,1,.216-1.61c.374-.325.8-.586,1.208-.875Z" transform="translate(-2889.977 2054.315)" fill="#2b3990"/>
      <path id="Trazado_184363" data-name="Trazado 184363" d="M2907.635-1938.507c2.029,0,4.059-.016,6.087.005,1.777.019,2.466.743,2.48,2.532.028,3.641-.219,3.888-3.892,3.888-3.523,0-7.045.005-10.567,0-2.055,0-2.723-.69-2.736-2.769,0-.344,0-.689,0-1.034.025-1.906.723-2.6,2.654-2.618C2903.653-1938.518,2905.644-1938.507,2907.635-1938.507Zm-6.418,4.188h12.806v-1.992h-12.806Z" transform="translate(-2893.583 1978.481)" fill="#2b3990"/>
      <path id="Trazado_184364" data-name="Trazado 184364" d="M2987.141-1936.358c-.8,0-1.608.008-2.412,0-.689-.009-1.236-.271-1.262-1.034s.5-1.073,1.2-1.079q2.528-.019,5.056,0c.706,0,1.21.293,1.19,1.077s-.546,1.035-1.241,1.04C2988.826-1936.353,2987.984-1936.358,2987.141-1936.358Z" transform="translate(-2958.59 1978.457)" fill="#2b3990"/>
      <path id="Trazado_184365" data-name="Trazado 184365" d="M2985.219-1917.8c-.891,0-1.706-.029-1.71-1.042,0-.972.759-1.1,1.548-1.114s1.558.128,1.584,1.083C2986.667-1917.867,2985.87-1917.782,2985.219-1917.8Z" transform="translate(-2958.623 1964.196)" fill="#2b3990"/>
      <path id="Trazado_184366" data-name="Trazado 184366" d="M3003.847-1917.782c-.772,0-1.542-.076-1.5-1.106.041-1,.826-1.045,1.584-1.047.786,0,1.53.132,1.5,1.129C3005.407-1917.777,3004.6-1917.789,3003.847-1917.782Z" transform="translate(-2973.121 1964.182)" fill="#2b3990"/>
    </g>
  </g>
</svg>
